<?xml version="1.0" standalone="no"?>
<!DOCTYPE svg PUBLIC "-//W3C//DTD SVG 1.1//EN" "http://www.w3.org/Graphics/SVG/1.1/DTD/svg11.dtd" >
<svg xmlns="http://www.w3.org/2000/svg" xmlns:xlink="http://www.w3.org/1999/xlink" version="1.1">
<metadata>
Created by FontForge 20201107 at Mon Feb 14 13:10:49 2022
 By 
Copyright (c) 2021  Sign Studio. All Rights Reserved
</metadata>
<defs>
<font id="BenzGrotesk-Heavy" horiz-adv-x="540" >
  <font-face 
    font-family="Benz Grotesk Heavy"
    font-weight="850"
    font-stretch="normal"
    units-per-em="2000"
    panose-1="0 0 0 0 0 0 0 0 0 0"
    ascent="1600"
    descent="-400"
    x-height="1140"
    cap-height="1400"
    bbox="-266 -510 3129 1910"
    underline-thickness="100"
    underline-position="-250"
    unicode-range="U+000D-FB04"
  />
<missing-glyph horiz-adv-x="994" 
d="M70 0v1400h854v-1400h-854zM496 742l372 618h-742zM884 94v1210l-362 -604zM112 98l360 602l-360 600v-1202zM128 42h740l-370 616z" />
    <glyph glyph-name="f_f" unicode="ff" horiz-adv-x="1596" 
d="M535 898q67 94 183 94h237v240q0 268 254 268h337v-360h-69q-44 0 -74 -11.5t-50 -41.5l-116 -180l25 -17l6 8q67 94 183 94h95v-400h-191v-592h-400v592h-333v-592h-400v592h-151v400h151v240q0 268 254 268h337v-360h-69q-44 0 -74 -11.5t-50 -41.5l-116 -180l25 -17z
" />
    <glyph glyph-name="fi" unicode="fi" horiz-adv-x="1383" 
d="M515 898q67 94 183 94h95v-400h-191v-592h-400v592h-151v400h151v240q0 268 254 268h337v-360h-69q-44 0 -74 -11.5t-50 -41.5l-116 -180l25 -17zM893 1430q0 48 16.5 88.5t45.5 70t69.5 45.5t88.5 16t88.5 -16t69.5 -45.5t45.5 -70t16.5 -88.5t-16.5 -88.5t-45.5 -70
t-69.5 -45.5t-88.5 -16t-88.5 16t-69.5 45.5t-45.5 70t-16.5 88.5zM913 0v1140h400v-1140h-400z" />
    <glyph glyph-name="fl" unicode="fl" horiz-adv-x="1383" 
d="M515 898q67 94 183 94h95v-400h-191v-592h-400v592h-151v400h151v240q0 268 254 268h337v-360h-69q-44 0 -74 -11.5t-50 -41.5l-116 -180l25 -17zM913 0v1500h400v-1500h-400z" />
    <glyph glyph-name="f_f_i" unicode="ffi" horiz-adv-x="2116" 
d="M1626 1430q0 48 16.5 88.5t45.5 70t69.5 45.5t88.5 16t88.5 -16t69.5 -45.5t45.5 -70t16.5 -88.5t-16.5 -88.5t-45.5 -70t-69.5 -45.5t-88.5 -16t-88.5 16t-69.5 45.5t-45.5 70t-16.5 88.5zM515 898q67 94 183 94h237v240q0 268 254 268h337v-360h-69q-44 0 -74 -11.5
t-50 -41.5l-116 -180l25 -17l6 8q67 94 183 94h95v-400h-191v-592h-400v592h-333v-592h-400v592h-151v400h151v240q0 268 254 268h337v-360h-69q-44 0 -74 -11.5t-50 -41.5l-116 -180l25 -17zM1646 0v1140h400v-1140h-400z" />
    <glyph glyph-name="f_f_l" unicode="ffl" horiz-adv-x="2116" 
d="M515 898q67 94 183 94h237v240q0 268 254 268h337v-360h-69q-44 0 -74 -11.5t-50 -41.5l-116 -180l25 -17l6 8q67 94 183 94h95v-400h-191v-592h-400v592h-333v-592h-400v592h-151v400h151v240q0 268 254 268h337v-360h-69q-44 0 -74 -11.5t-50 -41.5l-116 -180l25 -17z
M1646 0v1500h400v-1500h-400z" />
    <glyph glyph-name=".notdef" horiz-adv-x="994" 
d="M70 0v1400h854v-1400h-854zM496 742l372 618h-742zM884 94v1210l-362 -604zM112 98l360 602l-360 600v-1202zM128 42h740l-370 616z" />
    <glyph glyph-name="uni0000" horiz-adv-x="240" 
 />
    <glyph glyph-name="uni0000" horiz-adv-x="240" 
 />
    <glyph glyph-name="uni000D" unicode="&#xd;" horiz-adv-x="240" 
 />
    <glyph glyph-name="space" unicode=" " horiz-adv-x="560" 
 />
    <glyph glyph-name="exclam" unicode="!" 
d="M100 460l-30 940h400l-30 -940h-340zM50 199q0 48 16.5 88.5t45.5 70t69.5 45.5t88.5 16t88.5 -16t69.5 -45.5t45.5 -70t16.5 -88.5t-16.5 -88.5t-45.5 -70t-69.5 -45.5t-88.5 -16t-88.5 16t-69.5 45.5t-45.5 70t-16.5 88.5z" />
    <glyph glyph-name="quotedbl" unicode="&#x22;" horiz-adv-x="1022" 
d="M70 904q72 0 124 17t76 59q-48 0 -88.5 16t-69.5 45.5t-45.5 70t-16.5 88.5t16.5 88.5t45.5 70t69.5 45.5t88.5 16q35 0 74 -11t71.5 -40t53.5 -79.5t21 -128.5q0 -97 -33.5 -174.5t-91 -130t-134 -77t-161.5 -14.5v139zM552 904q72 0 124 17t76 59q-48 0 -88.5 16
t-69.5 45.5t-45.5 70t-16.5 88.5t16.5 88.5t45.5 70t69.5 45.5t88.5 16q35 0 74 -11t71.5 -40t53.5 -79.5t21 -128.5q0 -97 -33.5 -174.5t-91 -130t-134 -77t-161.5 -14.5v139z" />
    <glyph glyph-name="numbersign" unicode="#" horiz-adv-x="1414" 
d="M164 0l36 261h-144v359h196l22 152h-146v368h195l37 260h404l-37 -260h90l37 260h404l-37 -260h138v-368h-187l-22 -152h138v-359h-190l-36 -261h-404l36 261h-90l-36 -261h-404zM654 620h90l22 152h-90z" />
    <glyph glyph-name="dollar" unicode="$" horiz-adv-x="1245" 
d="M1195 427q0 -174 -91.5 -281t-280.5 -142v-74h-400v72q-94 11 -183.5 28t-161.5 37v440q62 -22 136 -43.5t152 -37.5t155 -26t143 -10q63 0 97 9.5t34 29.5q0 11 -16.5 20.5t-40.5 17t-50.5 13t-46.5 9.5q-177 32 -291.5 79.5t-181 108.5t-92.5 135.5t-26 159.5
q0 174 92 281.5t281 141.5v85h400v-83q94 -11 183 -28t161 -37v-440q-61 23 -135.5 44t-152.5 37t-155 26t-143 10q-63 0 -97 -9.5t-34 -29.5q0 -11 16.5 -20.5t40.5 -17t50.5 -13t47.5 -9.5q177 -32 291.5 -79.5t180.5 -108.5t92 -135t26 -160z" />
    <glyph glyph-name="percent" unicode="%" horiz-adv-x="1534" 
d="M380 636q-94 0 -151 24t-88 72.5t-41 123t-10 174.5q0 101 10.5 173.5t42 120t88.5 70t149 22.5t148.5 -23t87 -71t40.5 -120.5t10 -171.5t-9.5 -173t-39.5 -123t-86.5 -73.5t-150.5 -24.5zM208 0l902 1400h263l-900 -1400h-265zM380 768q23 0 35.5 17.5t18.5 50.5t7 82
t1 112t-1 111t-7 80t-18.5 48.5t-35.5 16.5t-36.5 -16t-20.5 -48t-9 -80t-2 -112t2 -113t9 -82t20.5 -50t36.5 -17zM1209 -20q-94 0 -151 24t-88 72.5t-41 123t-10 174.5q0 101 10.5 173.5t42 120t88.5 70t149 22.5t148.5 -23t87 -71t40.5 -120.5t10 -171.5t-9.5 -173
t-39.5 -123t-86.5 -73.5t-150.5 -24.5zM1209 112q24 0 37 17.5t19 50.5t7 82t1 112t-1 111t-7 80t-19 48.5t-37 16.5t-37.5 -16t-21 -48t-9.5 -80t-2 -112t2 -113t9 -82t21 -50t38 -17z" />
    <glyph glyph-name="ampersand" unicode="&#x26;" horiz-adv-x="1500" 
d="M74 1054q0 73 25 136t70.5 109.5t110 73.5t143.5 27h600v-400h-261q-83 0 -154 20t-142 64l-30 18l-15 -26l544 -338l58 156h427l-138 -371l137 -85v-448l-272 169l-8 -17q-36 -69 -96 -105.5t-138 -36.5h-604q-54 0 -104.5 20.5t-90 59t-63 94.5t-23.5 127
q0 59 16.5 111t46.5 95t71.5 76.5t90.5 55.5l74 34l-64 39q-97 60 -154 145t-57 197zM419 613q-23 -51 -23 -90q0 -57 41 -90t117 -33h235l-364 226z" />
    <glyph glyph-name="quotesingle" unicode="'" 
d="M70 904q72 0 124 17t76 59q-48 0 -88.5 16t-69.5 45.5t-45.5 70t-16.5 88.5t16.5 88.5t45.5 70t69.5 45.5t88.5 16q35 0 74 -11t71.5 -40t53.5 -79.5t21 -128.5q0 -97 -33.5 -174.5t-91 -130t-134 -77t-161.5 -14.5v139z" />
    <glyph glyph-name="parenleft" unicode="(" horiz-adv-x="760" 
d="M70 574q0 116 13 230t38.5 220.5t65 202t91.5 173.5h412q-55 -73 -96 -167t-68.5 -201t-41.5 -223t-14 -235q0 -118 14 -234.5t41.5 -223.5t68.5 -201t96 -167h-412q-52 78 -91.5 173.5t-65 202t-38.5 221t-13 229.5z" />
    <glyph glyph-name="parenright" unicode=")" horiz-adv-x="760" 
d="M690 574q0 -115 -13 -229.5t-38.5 -221t-64.5 -202t-92 -173.5h-412q55 73 96 167t68.5 201t41.5 223.5t14 234.5q0 119 -14 235t-41.5 223t-68.5 201t-96 167h412q53 -78 92 -173.5t64.5 -202t38.5 -220.5t13 -230z" />
    <glyph glyph-name="asterisk" unicode="*" horiz-adv-x="936" 
d="M421 1006l-371 -58l114 386l276 -274l-172 340h402l-174 -340l276 273l114 -386l-373 59l344 -175l-329 -232l-61 373l-60 -373l-328 232z" />
    <glyph glyph-name="plus" unicode="+" horiz-adv-x="970" 
d="M685 486v-235h-400v235h-235v400h235v235h400v-235h235v-400h-235z" />
    <glyph glyph-name="comma" unicode="," 
d="M70 -97q72 0 124 17t76 59q-48 0 -88.5 16t-69.5 45.5t-45.5 70t-16.5 88.5t16.5 88.5t45.5 70t69.5 45.5t88.5 16q35 0 74 -11t71.5 -40t53.5 -79.5t21 -128.5q0 -97 -33.5 -174.5t-91 -130t-134 -77t-161.5 -14.5v139z" />
    <glyph glyph-name="hyphen" unicode="-" horiz-adv-x="1010" 
d="M70 486v400h870v-400h-870z" />
    <glyph glyph-name="period" unicode="." horiz-adv-x="542" 
d="M50 199q0 48 16.5 88.5t45.5 70t69.5 45.5t88.5 16t88.5 -16t69.5 -45.5t45.5 -70t16.5 -88.5t-16.5 -88.5t-45.5 -70t-69.5 -45.5t-88.5 -16t-88.5 16t-69.5 45.5t-45.5 70t-16.5 88.5z" />
    <glyph glyph-name="slash" unicode="/" horiz-adv-x="944" 
d="M70 0l388 1400h416l-388 -1400h-416z" />
    <glyph glyph-name="zero" unicode="0" horiz-adv-x="1234" 
d="M1184 536q0 -154 -29.5 -258.5t-96.5 -169t-175.5 -92.5t-265.5 -28t-265 28t-175 92.5t-97 169.5t-30 258v340q0 152 29 254t95.5 163.5t175 88t267.5 26.5t267.5 -26t175 -88t95.5 -164t29 -254v-340zM784 759q0 81 -6.5 133t-24.5 82t-50.5 42t-85.5 12
q-52 0 -85 -11.5t-51 -41.5t-24.5 -82.5t-6.5 -133.5v-112q0 -83 6.5 -137t25 -85.5t51 -44t84.5 -12.5q51 0 83.5 12.5t51 44.5t25.5 86t7 136v112z" />
    <glyph glyph-name="one" unicode="1" horiz-adv-x="800" 
d="M50 0v400h150v516h-100v400l500 104v-1020h150v-400h-700z" />
    <glyph glyph-name="two" unicode="2" horiz-adv-x="1272" 
d="M767 1400q134 0 222 -23.5t139.5 -71t72.5 -120.5t21 -172v-88q0 -78 -13 -142.5t-50 -114t-103.5 -84t-173.5 -53.5l-566 -101v-30h506v60l400 -60v-400h-1152v795l698 119q29 5 41 15t12 29q0 20 -12.5 31t-44.5 11h-294v-60l-400 60v82q0 70 23.5 128.5t65.5 100.5
t100.5 65.5t128.5 23.5h379z" />
    <glyph glyph-name="three" unicode="3" horiz-adv-x="1284" 
d="M1234 353q0 -353 -454 -353h-365q-81 0 -148 27t-115 75t-75 115t-27 148v35l400 60v-60h317q20 0 33 4.5t20.5 11.5t10.5 16t3 18t-3 18t-10.5 16t-20.5 11.5t-33 4.5h-368v400h368q20 0 33 4.5t20 11.5t9.5 16t2.5 18t-2.5 18t-9.5 16t-20 11.5t-33 4.5h-317v-60
l-400 60v82q0 70 23.5 128.5t65.5 100.5t100.5 65.5t128.5 23.5h474q115 0 190 -20.5t119 -58t61.5 -89t17.5 -113.5v-69q0 -49 -12.5 -94.5t-47 -80.5t-96.5 -57t-161 -26v-30q85 0 145.5 -24.5t99.5 -66.5t57.5 -99.5t18.5 -123.5v-95z" />
    <glyph glyph-name="four" unicode="4" horiz-adv-x="1221" 
d="M262 565h449v120h400v-120h60v-400h-60v-165h-400v165h-661v775l1118 480v-436l-906 -389v-30z" />
    <glyph glyph-name="five" unicode="5" horiz-adv-x="1191" 
d="M778 915q83 0 150 -19.5t114 -63t73 -114t26 -173.5v-180q0 -91 -23.5 -159.5t-75 -114t-134 -68.5t-200.5 -23h-638v400l400 60v-60h188q47 0 65 18t18 40q0 21 -18 39t-65 18h-588v885h1031l-67 -400h-564l-97 -298l29 -9q36 111 132.5 166.5t243.5 55.5z" />
    <glyph glyph-name="six" unicode="6" horiz-adv-x="1214" 
d="M1164 446q0 -125 -30.5 -212.5t-95 -142t-166 -79t-244.5 -24.5q-162 0 -272.5 32t-178.5 105t-97.5 191t-29.5 290v190q0 176 27 293.5t92 188t173 100.5t270 30q142 0 241.5 -22t163 -71.5t95.5 -129.5t39 -196l-397 -65q-5 56 -45.5 80t-118.5 24q-46 0 -78 -8
t-53.5 -24t-34 -39.5t-21.5 -54.5l-74 -272l29 -7q18 63 45.5 110.5t71.5 79.5t108.5 48t155.5 16q214 0 319.5 -90.5t105.5 -280.5v-60zM759 540q0 69 -34.5 104.5t-100.5 35.5q-129 0 -129 -140v-30q0 -142 129 -142q66 0 100.5 36t34.5 106v30z" />
    <glyph glyph-name="seven" unicode="7" horiz-adv-x="1160" 
d="M450 940l-400 60v400h1060v-486q-79 -35 -141 -93t-109 -131t-80 -158t-53.5 -175t-30 -181t-9.5 -176h-400q0 196 39.5 354t115.5 283.5t188 222t257 169.5l-13 27l-115 -56h-309v-60z" />
    <glyph glyph-name="eight" unicode="8" horiz-adv-x="1282" 
d="M642 1420q164 0 270.5 -19t168.5 -55.5t86.5 -91t24.5 -126.5q0 -139 -82.5 -205.5t-258.5 -66.5v-30q121 0 195.5 -28.5t116 -78t55.5 -117.5t14 -148q0 -119 -27.5 -208t-95 -148t-181 -88.5t-286.5 -29.5q-172 0 -286.5 29.5t-182 89t-95.5 148.5t-28 209
q0 80 14 147.5t55.5 117t116 77.5t195.5 28v30q-180 0 -260.5 66.5t-80.5 205.5q0 72 23.5 126.5t85.5 91t169 55.5t274 19zM642 911q52 0 85 9.5t52 27t26 40.5t7 50t-7 51t-26 42t-52 28.5t-85 10.5t-85 -10.5t-52 -28.5t-26.5 -42t-7.5 -51t7.5 -50t26.5 -40.5t52 -27
t85 -9.5zM642 771q-34 0 -68.5 -9t-62 -31t-44.5 -59.5t-17 -94.5q0 -58 17.5 -96t45 -60.5t61.5 -31.5t68 -9t68 9t61 31.5t44 60.5t17 96q0 57 -16.5 94.5t-43.5 59.5t-61 31t-69 9z" />
    <glyph glyph-name="nine" unicode="9" horiz-adv-x="1184" 
d="M-10 950q0 125 30.5 212.5t95 142t166.5 79t244 24.5q162 0 272.5 -32t178.5 -105t97.5 -191t29.5 -290v-190q0 -175 -27 -293t-92 -188.5t-173 -100.5t-270 -30q-142 0 -241.5 22t-163 71.5t-95.5 129.5t-39 196l397 65q5 -56 45.5 -80t118.5 -24q47 0 78.5 8t53 24
t34 39.5t21.5 54.5l74 272l-29 7q-18 -63 -45.5 -110.5t-71.5 -79.5t-108 -48t-156 -16q-214 0 -319.5 90.5t-105.5 280.5v60zM395 856q0 -69 34.5 -104.5t100.5 -35.5q129 0 129 140v30q0 142 -129 142q-66 0 -100.5 -36t-34.5 -106v-30z" />
    <glyph glyph-name="colon" unicode=":" 
d="M50 757q0 48 16.5 88.5t45.5 70t69.5 45.5t88.5 16t88.5 -16t69.5 -45.5t45.5 -70t16.5 -88.5t-16.5 -88.5t-45.5 -70t-69.5 -45.5t-88.5 -16t-88.5 16t-69.5 45.5t-45.5 70t-16.5 88.5zM50 199q0 48 16.5 88.5t45.5 70t69.5 45.5t88.5 16t88.5 -16t69.5 -45.5t45.5 -70
t16.5 -88.5t-16.5 -88.5t-45.5 -70t-69.5 -45.5t-88.5 -16t-88.5 16t-69.5 45.5t-45.5 70t-16.5 88.5z" />
    <glyph glyph-name="semicolon" unicode=";" 
d="M50 757q0 48 16.5 88.5t45.5 70t69.5 45.5t88.5 16t88.5 -16t69.5 -45.5t45.5 -70t16.5 -88.5t-16.5 -88.5t-45.5 -70t-69.5 -45.5t-88.5 -16t-88.5 16t-69.5 45.5t-45.5 70t-16.5 88.5zM70 -97q72 0 124 17t76 59q-48 0 -88.5 16t-69.5 45.5t-45.5 70t-16.5 88.5
t16.5 88.5t45.5 70t69.5 45.5t88.5 16q35 0 74 -11t71.5 -40t53.5 -79.5t21 -128.5q0 -97 -33.5 -174.5t-91 -130t-134 -77t-161.5 -14.5v139z" />
    <glyph glyph-name="less" unicode="&#x3c;" horiz-adv-x="882" 
d="M812 839l-221 -143l221 -143v-349l-762 492l762 492v-349z" />
    <glyph glyph-name="equal" unicode="=" horiz-adv-x="908" 
d="M70 732v300h768v-300h-768zM70 368v300h768v-300h-768z" />
    <glyph glyph-name="greater" unicode="&#x3e;" horiz-adv-x="882" 
d="M832 696l-762 -492v349l221 143l-221 143v349z" />
    <glyph glyph-name="question" unicode="?" horiz-adv-x="1221" 
d="M1171 981q0 -71 -15.5 -122t-41 -88t-57.5 -62t-66 -45t-66 -36.5t-57.5 -37t-41 -46.5t-15.5 -64v-20h-400v24q0 98 27 159t68 98.5t88.5 57.5t88.5 36.5t68 35.5t27 55q0 22 -11 39.5t-30.5 29.5t-46 18t-57.5 6q-36 0 -69 -9.5t-58.5 -30.5t-40.5 -55t-15 -83v-59
l-400 77v58q0 113 31 206t99 159t175.5 102t260.5 36q138 0 242 -30t173.5 -86.5t104.5 -138t35 -184.5zM391 199q0 48 16.5 88.5t45.5 70t69.5 45.5t88.5 16t88.5 -16t69.5 -45.5t45.5 -70t16.5 -88.5t-16.5 -88.5t-45.5 -70t-69.5 -45.5t-88.5 -16t-88.5 16t-69.5 45.5
t-45.5 70t-16.5 88.5z" />
    <glyph glyph-name="at" unicode="@" horiz-adv-x="1666" 
d="M1243 81q-40 0 -73 11.5t-57 32t-37 49.5t-13 64v8q-54 -57 -118.5 -84t-145.5 -27q-95 0 -173 35t-134 98t-86.5 150t-30.5 190q0 108 33 197t93 153t144 99.5t185 35.5q99 0 180.5 -34t139.5 -97t89.5 -151.5t31.5 -197.5v-320q33 12 60 41t46 71t29 95.5t10 113.5
q0 125 -42.5 232t-120 186t-186 123.5t-239.5 44.5t-238 -44.5t-182.5 -124.5t-116.5 -190t-41 -242q0 -129 42 -235.5t117.5 -183.5t182 -119.5t235.5 -42.5h129l-83 -200h-46q-114 0 -216 26.5t-188 75.5t-155.5 118.5t-117.5 156.5t-74 189t-26 216q0 174 56.5 320.5
t158.5 253t245.5 166.5t317.5 60q116 0 219.5 -27t191 -77t157.5 -120t119 -156.5t75 -186.5t26 -209q0 -116 -29.5 -215.5t-80.5 -172t-119 -114t-144 -41.5zM831 335q114 0 177 72.5t63 205.5q0 134 -63.5 207t-178.5 73q-58 0 -105 -19.5t-80 -55.5t-50.5 -87.5
t-17.5 -115.5t18 -116t51 -88.5t80.5 -56t105.5 -19.5z" />
    <glyph glyph-name="A" unicode="A" horiz-adv-x="1338" 
d="M310 1400h718l260 -1400h-407l-39 213h-345l-40 -213h-407zM708 1186l-30 4l-107 -577h197l-61 325q-5 27 -7.5 58t-2.5 62.5t2.5 62.5t7.5 57z" />
    <glyph glyph-name="B" unicode="B" horiz-adv-x="1362" 
d="M905 808q99 0 175 -29.5t127.5 -81t78 -123t26.5 -155.5q0 -101 -36.5 -181t-101.5 -135t-153 -84t-192 -29q-155 0 -259.5 63.5t-152.5 181.5l-28 -10l81 -225h-400v1400h835q93 0 158 -24t106 -64t60 -90t19 -103t-19 -103.5t-60 -90t-106 -63.5t-158 -24v-30zM470 900
h320q31 0 46.5 15.5t15.5 34.5t-15.5 34.5t-46.5 15.5h-320v-100zM470 400h380q31 0 46.5 15.5t15.5 34.5t-15.5 34.5t-46.5 15.5h-380v-100z" />
    <glyph glyph-name="C" unicode="C" horiz-adv-x="1410" 
d="M1360 243q-97 -123 -242.5 -192t-327.5 -69q-157 0 -289.5 53t-228 148.5t-149 227.5t-53.5 289q0 158 53.5 289.5t149 227t228 148.5t289.5 53q182 0 327.5 -69t242.5 -192l-325 -245q-42 51 -105 79t-140 28q-70 0 -129 -23.5t-101.5 -66t-66 -101t-23.5 -128.5
t23.5 -128.5t66 -101t101.5 -66t129 -23.5q77 0 140 28.5t106 79.5z" />
    <glyph glyph-name="D" unicode="D" horiz-adv-x="1262" 
d="M70 0v1400h440q153 0 282 -52t222.5 -145t145.5 -221.5t52 -281.5t-52 -281.5t-145.5 -221.5t-222.5 -145t-282 -52h-440zM512 400q66 0 121 22.5t94.5 62t62 94.5t22.5 121t-22.5 121t-62 94.5t-94.5 62t-121 22.5h-42v-600h42z" />
    <glyph glyph-name="E" unicode="E" horiz-adv-x="1168" 
d="M70 0v1400h1028v-400h-628v-100h628v-400h-628v-100h628v-400h-1028z" />
    <glyph glyph-name="F" unicode="F" horiz-adv-x="1148" 
d="M70 0v1400h1028v-400h-628v-100h628v-400h-628v-500h-400z" />
    <glyph glyph-name="G" unicode="G" horiz-adv-x="1538" 
d="M1086 760q-9 58 -35.5 105.5t-68 81.5t-95.5 53t-117 19q-70 0 -129 -23.5t-101.5 -66.5t-66 -104t-23.5 -136q0 -67 20 -127t62.5 -105t108.5 -71.5t158 -26.5q85 0 159.5 22.5t139.5 64.5l-10 28l-304 -77v321h704v-718h-400l164 250l-25 17l-29 -35q-40 -49 -86 -93
t-103 -77t-127.5 -52.5t-161.5 -19.5q-145 0 -268 51.5t-212.5 145.5t-139.5 227t-50 295q0 156 53.5 286t149 224t228 146.5t289.5 52.5q135 0 252 -39t208.5 -110t154 -170.5t88.5 -221.5z" />
    <glyph glyph-name="H" unicode="H" horiz-adv-x="1353" 
d="M70 0v1400h400v-526h413v526h400v-1400h-400v474h-413v-474h-400z" />
    <glyph glyph-name="I" unicode="I" 
d="M70 0v1400h400v-1400h-400z" />
    <glyph glyph-name="J" unicode="J" horiz-adv-x="692" 
d="M50 400h105q35 0 51 15t16 52v515h-172l40 418h532v-1065q0 -75 -25.5 -136.5t-72 -106t-110 -68.5t-140.5 -24h-224v400z" />
    <glyph glyph-name="K" unicode="K" horiz-adv-x="1468" 
d="M470 956q0 -94 -24.5 -177t-78.5 -163l-23 -34l25 -16l565 834h483l-474 -700l474 -700h-483l-128 189q-38 57 -40 124.5t40 130.5l22 33l-24 18l-334 -495h-400v1400h400v-444z" />
    <glyph glyph-name="L" unicode="L" horiz-adv-x="1148" 
d="M70 0v1400h400v-1000h628v-400h-1028z" />
    <glyph glyph-name="M" unicode="M" horiz-adv-x="1762" 
d="M1245 691q3 -55 -2 -118t-15.5 -127t-26.5 -125t-37 -112l-83 -209h-400l-204 513l-26 -513h-401l70 1400h432l222 -552q20 -50 30.5 -108.5t10.5 -118.5t-10.5 -118.5t-30.5 -108.5l-4 -10l28 -12l412 1028h432l70 -1400h-401l-37 724l-31 -2z" />
    <glyph glyph-name="N" unicode="N" horiz-adv-x="1354" 
d="M884 1400h400v-1400h-440l-473 875l-27 -15l14 -26q25 -46 45.5 -102t35.5 -115t23 -118t8 -111v-388h-400v1400h440l473 -875l27 15l-14 26q-25 46 -45.5 102t-35.5 115t-23 118t-8 111v388z" />
    <glyph glyph-name="O" unicode="O" horiz-adv-x="1539" 
d="M770 1418q158 0 290 -53t227 -148.5t148.5 -227t53.5 -289.5q0 -157 -53.5 -289t-148.5 -227.5t-227 -148.5t-290 -53q-157 0 -289.5 53t-228 148.5t-149 227.5t-53.5 289q0 158 53.5 289.5t149 227t228 148.5t289.5 53zM770 1019q-70 0 -129 -23.5t-101.5 -66t-66 -101
t-23.5 -128.5t23.5 -128.5t66 -101t101.5 -66t129 -23.5t128.5 23.5t101 66t66 101t23.5 128.5t-23.5 128.5t-66 101t-101 66t-128.5 23.5z" />
    <glyph glyph-name="P" unicode="P" horiz-adv-x="1294" 
d="M1244 867q0 -129 -39 -228.5t-106.5 -167t-159.5 -102.5t-197 -35q-128 0 -219 49t-155 132l-23 -19l125 -162v-334h-400v1400h615q127 0 230 -35t176 -102.5t113 -167t40 -228.5zM710 734q33 0 58 11t42 29.5t25.5 42.5t8.5 50t-8.5 50t-25.5 42.5t-42 29.5t-58 11h-240
v-266h240z" />
    <glyph glyph-name="Q" unicode="Q" horiz-adv-x="1539" 
d="M770 1418q158 0 290 -53t227 -148.5t148.5 -227t53.5 -289.5q0 -131 -37 -245t-105.5 -204t-164 -152.5t-212.5 -92.5v-180h-400v180q-117 30 -213 92.5t-164 152.5t-105.5 204t-37.5 245q0 158 53.5 289.5t149 227t228 148.5t289.5 53zM770 1019q-70 0 -129 -23.5
t-101.5 -66t-66 -101t-23.5 -128.5t23.5 -128.5t66 -101t101.5 -66t129 -23.5t128.5 23.5t101 66t66 101t23.5 128.5t-23.5 128.5t-66 101t-101 66t-128.5 23.5z" />
    <glyph glyph-name="R" unicode="R" horiz-adv-x="1347" 
d="M470 448v-448h-400v1400h676q123 0 219 -28.5t163 -84.5t102 -138.5t35 -191.5q0 -205 -129 -317t-390 -112v-30h327l224 -498h-440l-168 378q-17 36 -47 53t-68 17h-104zM791 830q18 0 31.5 7.5t23 19.5t14.5 27t5 31t-5 31.5t-14.5 27.5t-23 19t-31.5 7h-321v-170h321z
" />
    <glyph glyph-name="S" unicode="S" horiz-adv-x="1245" 
d="M1195 427q0 -106 -34 -189t-102 -140.5t-170.5 -88t-239.5 -30.5q-72 0 -149 8t-152 20.5t-144 28t-126 31.5v440q62 -22 136 -45t150.5 -41t151 -29.5t136.5 -11.5q72 0 107.5 14.5t35.5 31.5q0 12 -16.5 22t-40.5 18t-50.5 13.5t-46.5 9.5q-177 32 -291.5 79.5
t-181 108.5t-92.5 135.5t-26 159.5q0 106 34 189t102.5 140.5t171 88t239.5 30.5q72 0 148.5 -8t151.5 -20.5t144 -28t126 -31.5v-440q-61 23 -135.5 45.5t-151 40.5t-150.5 29.5t-136 11.5q-73 0 -108.5 -14.5t-35.5 -31.5q0 -12 16.5 -22t40.5 -18t50.5 -13.5t47.5 -9.5
q177 -32 291.5 -79.5t180.5 -108.5t92 -135t26 -160z" />
    <glyph glyph-name="T" unicode="T" horiz-adv-x="1246" 
d="M422 2v998h-372v400h1146v-400h-374v-998h-400z" />
    <glyph glyph-name="U" unicode="U" horiz-adv-x="1290" 
d="M567 0q-109 0 -200.5 36.5t-157.5 102.5t-102.5 157.5t-36.5 200.5v903h400v-859q0 -63 39 -102t102 -39h68q63 0 102 39t39 102v859h400v-903q0 -109 -36.5 -200.5t-102.5 -157.5t-157 -102.5t-201 -36.5h-156z" />
    <glyph glyph-name="V" unicode="V" horiz-adv-x="1338" 
d="M457 1400l221 -1190l30 4l-1 7q-5 27 -7.5 58t-2.5 63t2.5 63t7.5 58l174 937h407l-260 -1400h-718l-260 1400h407z" />
    <glyph glyph-name="W" unicode="W" horiz-adv-x="1957" 
d="M640 1400h677l183 -984h30l-33 181q-16 87 -24 188.5t-8 206.5t8.5 206.5t24.5 188.5l2 13h407l-260 -1400h-477l-125 671q-11 61 -16.5 132.5t-5.5 144.5t5.5 144.5t16.5 132.5l2 10h-31l-229 -1235h-477l-260 1400h407l183 -984h30l-33 181q-16 87 -24 188.5t-8 206.5
t8.5 206.5t24.5 188.5z" />
    <glyph glyph-name="X" unicode="X" horiz-adv-x="1619" 
d="M937 932q-24 33 -36 72t-12 79t12 79.5t36 72.5l119 165h493l-493 -686l513 -714h-493l-371 517l-24 -18l2 -2q24 -33 35.5 -72.5t11.5 -79.5t-12 -79t-36 -72l-139 -194h-493l513 714l-493 686h493l351 -488l24 18z" />
    <glyph glyph-name="Y" unicode="Y" horiz-adv-x="1417" 
d="M921 1400h446l-458 -944v-456h-400v455l-459 945h445l336 -694l28 14l-7 15q-28 57 -42 124t-14 136t13.5 136t41.5 124z" />
    <glyph glyph-name="Z" unicode="Z" horiz-adv-x="1224" 
d="M724 1146q-31 -32 -72 -58.5t-87 -46t-93.5 -30.5t-92.5 -11h-317v400h1102v-400l-684 -740l21 -20l11 11q30 33 71 60t86.5 47t93 31t92.5 11h319v-400h-1124v400l710 740l-20 23z" />
    <glyph glyph-name="bracketleft" unicode="[" horiz-adv-x="642" 
d="M70 -252v1652h502v-204h-102v-1244h102v-204h-502z" />
    <glyph glyph-name="backslash" unicode="\" horiz-adv-x="944" 
d="M70 1400h416l388 -1400h-416z" />
    <glyph glyph-name="bracketright" unicode="]" horiz-adv-x="642" 
d="M572 -252h-502v204h102v1244h-102v204h502v-1652z" />
    <glyph glyph-name="asciicircum" unicode="^" horiz-adv-x="1208" 
d="M10 566l400 834h388l400 -834h-412l-182 381l-182 -381h-412z" />
    <glyph glyph-name="underscore" unicode="_" horiz-adv-x="1064" 
d="M70 -310v310h924v-310h-924z" />
    <glyph glyph-name="grave" unicode="`" horiz-adv-x="632" 
d="M320 1230l-270 310h381l151 -310h-262z" />
    <glyph glyph-name="a" unicode="a" horiz-adv-x="1360" 
d="M925 281q-28 -79 -61.5 -136t-81.5 -93.5t-115.5 -54t-162.5 -17.5q-229 0 -341.5 100t-112.5 299q0 198 110 297t333 99q70 0 128.5 -9t107.5 -24.5t89 -35t72 -40.5v15q0 37 -22 68.5t-65 55t-107.5 36.5t-149.5 13q-102 0 -189 -19.5t-172 -59.5l197 365h277
q180 0 301 -34t194.5 -96t104.5 -149.5t31 -194.5v-666h-400l63 272zM672 359q60 0 102 2.5t67.5 8.5t37 15.5t11.5 23.5q0 13 -11.5 22t-37 15t-67.5 8.5t-102 2.5q-62 0 -104.5 -2.5t-68.5 -8t-37.5 -14.5t-11.5 -23t11.5 -23.5t37.5 -15.5t68.5 -8.5t104.5 -2.5z" />
    <glyph glyph-name="b" unicode="b" horiz-adv-x="1352" 
d="M70 0v1500h400v-455q120 115 332 115q244 0 362 -147.5t118 -443.5q0 -294 -118.5 -441.5t-363.5 -147.5q-61 0 -116 8t-102 30t-85.5 60.5t-67.5 99.5l-28 -12l69 -166h-400zM677 381q57 0 96 10.5t63.5 33t35 58.5t10.5 88q0 51 -10.5 87t-35 58.5t-63.5 33t-96 10.5
q-58 0 -97.5 -10t-64 -32.5t-35 -58.5t-10.5 -88t10.5 -88.5t35 -59t64 -32.5t97.5 -10z" />
    <glyph glyph-name="c" unicode="c" horiz-adv-x="1276" 
d="M1226 539q-7 -279 -152 -419t-435 -140q-298 0 -443.5 147.5t-145.5 441.5t145.5 442.5t443.5 148.5q290 0 434.5 -140t152.5 -417h-401q-5 85 -48 121t-138 36q-52 0 -88.5 -10t-58.5 -32.5t-32 -58.5t-10 -88t10 -88.5t32 -59t58.5 -32.5t88.5 -10q95 0 138 36.5
t48 121.5h401z" />
    <glyph glyph-name="d" unicode="d" horiz-adv-x="1304" 
d="M834 1500h400v-1500h-400v94q-115 -115 -320 -115q-235 0 -349.5 148t-114.5 443q0 293 115 441t351 148q60 0 113 -8t98 -30t82.5 -60.5t65.5 -99.5l28 12l-69 166v361zM641 758q-106 0 -162.5 -43t-56.5 -147q0 -53 14.5 -89.5t42 -58.5t68.5 -31.5t94 -9.5q54 0 91 10
t59.5 32.5t32.5 58.5t10 88t-10 88.5t-32.5 59t-59.5 32.5t-91 10z" />
    <glyph glyph-name="e" unicode="e" horiz-adv-x="1276" 
d="M471 464q20 -37 62 -50.5t111 -13.5h531l-108 -400h-404q-310 0 -461.5 145t-151.5 434t145.5 435t443.5 146q149 0 259 -35.5t183 -100.5t109 -157.5t36 -206.5q0 -104 -29 -196h-726zM852 655q0 56 -44.5 80.5t-150.5 24.5q-91 0 -138.5 -21.5t-61.5 -83.5h395z" />
    <glyph glyph-name="f" unicode="f" horiz-adv-x="843" 
d="M515 898q67 94 183 94h95v-400h-191v-592h-400v592h-151v400h151v240q0 268 254 268h337v-360h-69q-44 0 -74 -11.5t-50 -41.5l-116 -180l25 -17z" />
    <glyph glyph-name="g" unicode="g" horiz-adv-x="1321" 
d="M920 166l-28 12q-29 -61 -67 -99.5t-84.5 -60.5t-100.5 -30t-115 -8q-241 0 -358 147.5t-117 441.5t117 442.5t356 148.5q210 0 328 -115v95h400v-930q0 -173 -53.5 -307.5t-150.5 -226t-230.5 -139t-294.5 -47.5h-103l-168 395q146 0 254 9t186 34.5t129 71.5t81 120z
M650 381q56 0 94.5 10t62 32.5t34 59t10.5 88.5t-10.5 88t-34 58.5t-62 32.5t-94.5 10q-55 0 -93.5 -10.5t-62 -33t-34 -58.5t-10.5 -87q0 -52 10.5 -88t34 -58.5t62 -33t93.5 -10.5z" />
    <glyph glyph-name="h" unicode="h" horiz-adv-x="1271" 
d="M1221 0h-400v568q0 104 -43 147t-135 43t-132.5 -43t-40.5 -147v-568h-400v1500h400v-361l-69 -166l28 -12q27 61 63 99.5t79 60.5t94 30t108 8q227 0 337.5 -148t110.5 -441v-570z" />
    <glyph glyph-name="i" unicode="i" 
d="M50 1430q0 48 16.5 88.5t45.5 70t69.5 45.5t88.5 16t88.5 -16t69.5 -45.5t45.5 -70t16.5 -88.5t-16.5 -88.5t-45.5 -70t-69.5 -45.5t-88.5 -16t-88.5 16t-69.5 45.5t-45.5 70t-16.5 88.5zM70 0v1140h400v-1140h-400z" />
    <glyph glyph-name="j" unicode="j" 
d="M50 1430q0 48 16.5 88.5t45.5 70t69.5 45.5t88.5 16t88.5 -16t69.5 -45.5t45.5 -70t16.5 -88.5t-16.5 -88.5t-45.5 -70t-69.5 -45.5t-88.5 -16t-88.5 16t-69.5 45.5t-45.5 70t-16.5 88.5zM-56 -30q60 8 93 39t33 94v1037h400v-1088q0 -226 -114 -341t-330 -137z" />
    <glyph glyph-name="k" unicode="k" horiz-adv-x="1307" 
d="M70 0v1501h400v-1501h-400zM662 555q134 0 227 -42t143 -127l225 -386h-460l-325 570l325 570h460l-225 -385q-49 -84 -143.5 -127t-226.5 -43h-7v-30h7z" />
    <glyph glyph-name="l" unicode="l" 
d="M70 0v1500h400v-1500h-400z" />
    <glyph glyph-name="m" unicode="m" horiz-adv-x="1778" 
d="M689 627q0 63 -26.5 97t-83.5 34q-59 0 -84 -34t-25 -97v-627h-400v1140h400l-69 -167l28 -12q26 54 56 92t67.5 61.5t83 34t101.5 10.5q111 0 185 -39t115 -124q50 89 123 126t180 37q95 0 164.5 -26.5t114.5 -82t67 -140.5t22 -203v-707h-400v627q0 63 -26 97t-84 34
t-83.5 -34t-25.5 -97v-627h-400v627z" />
    <glyph glyph-name="n" unicode="n" horiz-adv-x="1271" 
d="M401 973l28 -12q27 61 63 99.5t79 60.5t94 30t108 8q227 0 337.5 -148t110.5 -441v-570h-400v568q0 104 -43 147t-135 43t-132.5 -43t-40.5 -147v-568h-400v1140h400z" />
    <glyph glyph-name="o" unicode="o" horiz-adv-x="1306" 
d="M654 -20q-304 0 -454 147.5t-150 441.5t150 442.5t454 148.5q305 0 453.5 -148.5t148.5 -442.5t-148.5 -441.5t-453.5 -147.5zM654 381q56 0 94.5 10.5t62.5 33t34.5 58.5t10.5 88q0 51 -10.5 87t-34.5 58.5t-62.5 33t-94.5 10.5q-57 0 -96 -10t-63 -32.5t-34.5 -58.5
t-10.5 -88t10.5 -88.5t34.5 -59t63 -32.5t96 -10z" />
    <glyph glyph-name="p" unicode="p" horiz-adv-x="1332" 
d="M470 -261h-400v1400h400v-94q120 115 332 115q244 0 362 -147.5t118 -443.5q0 -294 -118.5 -441.5t-363.5 -147.5q-61 0 -116 8t-102 30t-85.5 60.5t-67.5 99.5l-28 -12l69 -150v-277zM677 381q57 0 96 10.5t63.5 33t35 58.5t10.5 88q0 51 -10.5 87t-35 58.5t-63.5 33
t-96 10.5q-58 0 -97.5 -10t-64 -32.5t-35 -58.5t-10.5 -88t10.5 -88.5t35 -59t64 -32.5t97.5 -10z" />
    <glyph glyph-name="q" unicode="q" horiz-adv-x="1332" 
d="M1262 -261h-400v277l69 150l-28 12q-29 -61 -67.5 -99.5t-85.5 -60.5t-101.5 -30t-116.5 -8q-244 0 -363 147.5t-119 441.5t151 442.5t457 148.5t455 -148.5t149 -442.5v-830zM655 381q58 0 97.5 10t64 32.5t35 59t10.5 88.5t-10.5 88t-35 58.5t-64 32.5t-97.5 10
q-57 0 -96 -10.5t-63.5 -33t-35 -58.5t-10.5 -87q0 -52 10.5 -88t35 -58.5t63.5 -33t96 -10.5z" />
    <glyph glyph-name="r" unicode="r" horiz-adv-x="979" 
d="M700 748q-109 0 -169.5 -62t-60.5 -176v-510h-400v1140h400l-69 -167l28 -12q32 61 73 99.5t96.5 60.5t129 30t170.5 8l31 -411h-229z" />
    <glyph glyph-name="s" unicode="s" horiz-adv-x="1085" 
d="M1035 348q0 -89 -30 -157.5t-93.5 -115.5t-162.5 -71.5t-237 -24.5q-40 0 -96 2.5t-116.5 8.5t-120 16t-106.5 26v417q44 -37 102.5 -63t121.5 -42t125.5 -23t114.5 -7q46 0 72 5.5t26 17.5q0 7 -16.5 12.5t-41.5 11t-55.5 10.5t-59.5 11q-121 24 -200.5 63t-126.5 90
t-66 113t-19 132q0 93 29.5 164t92.5 119t160.5 72.5t233.5 24.5q42 0 99.5 -3t118.5 -10t121 -19t107 -31v-417q-45 37 -103.5 63t-121.5 42t-125 23t-113 7q-48 0 -73.5 -5.5t-25.5 -14.5q0 -8 16 -14.5t41 -12t55.5 -10.5t58.5 -11q121 -24 201 -62t127 -89t66.5 -113.5
t19.5 -134.5z" />
    <glyph glyph-name="t" unicode="t" horiz-adv-x="800" 
d="M704 0h-170q-199 0 -298.5 97.5t-99.5 274.5v368h-86v400l486 177v-177h167v-400h-167v-262q0 -45 23.5 -61.5t75.5 -16.5h115z" />
    <glyph glyph-name="u" unicode="u" horiz-adv-x="1239" 
d="M838 167l-28 12q-26 -61 -60.5 -99.5t-76 -60.5t-90 -30t-103.5 -8q-217 0 -323.5 148.5t-106.5 440.5v570h400v-568q0 -104 39 -147t123 -43t120.5 43t36.5 147v568h400v-1140h-400z" />
    <glyph glyph-name="v" unicode="v" horiz-adv-x="1242" 
d="M659 217q-5 27 -7 59.5t-2 65.5t2.5 65.5t7.5 59.5l125 673h407l-212 -1140h-718l-212 1140h407l173 -930l30 4z" />
    <glyph glyph-name="w" unicode="w" horiz-adv-x="1580" 
d="M942 213q-28 -54 -69.5 -97t-94 -73t-115 -46.5t-132.5 -16.5q-99 0 -183.5 32.5t-146 91t-96.5 139.5t-35 178v719h400v-674q0 -48 17 -67t43 -19t43 19t17 67v674h400v-674q0 -48 17 -67t43 -19t43 19t17 67v674h400v-719q0 -97 -34.5 -178t-95.5 -139.5t-145.5 -91
t-183.5 -32.5q-59 0 -112 11.5t-101 33.5q41 35 75 78t56 96z" />
    <glyph glyph-name="x" unicode="x" horiz-adv-x="1262" 
d="M741 823q-20 33 -30 72.5t-10 79.5t10 79.5t30 72.5l8 13h462l-349 -570l350 -570h-462l-206 337l-26 -15l3 -5q21 -33 31 -72.5t10 -79.5t-10 -79t-31 -72l-8 -14h-462l349 570l-350 570h462l206 -337l26 15z" />
    <glyph glyph-name="y" unicode="y" horiz-adv-x="1242" 
d="M677 93q-19 -20 -44 -37t-53.5 -29.5t-58 -19.5t-57.5 -7h-202l-212 1140h407l125 -673q5 -27 7.5 -59.5t2.5 -65.5t-2 -65.5t-7 -59.5l-1 -3l30 -5l173 931h407l-212 -1140q-21 -115 -68.5 -209t-117.5 -161t-162 -103.5t-202 -36.5h-73l-73 400h131q54 0 97 9.5t78 32
t63.5 59t53.5 91.5l-24 18z" />
    <glyph glyph-name="z" unicode="z" horiz-adv-x="1267" 
d="M667 877q-42 -30 -94.5 -55t-109.5 -43.5t-114.5 -28.5t-109.5 -10h-169v400h1127v-413l-621 -444l16 -26l8 6q42 30 94.5 55t109.5 43.5t114.5 28.5t109.5 10h169v-400h-1127v413l621 444l-16 26z" />
    <glyph glyph-name="braceleft" unicode="{" horiz-adv-x="806" 
d="M292 559q67 0 125 -17t101 -51t67.5 -84t24.5 -115v-222q0 -31 8.5 -53.5t22.5 -37t32.5 -21t38.5 -6.5h24v-204h-145q-181 0 -281 83.5t-100 244.5v274q0 31 -10.5 56.5t-29.5 43.5t-44.5 28t-55.5 10v172q30 0 55.5 10t44.5 28t29.5 43.5t10.5 56.5v274
q0 161 100 244.5t281 83.5h145v-204h-24q-20 0 -38.5 -6.5t-32.5 -21t-22.5 -36.5t-8.5 -54v-222q0 -65 -24.5 -115t-67.5 -83.5t-101 -51t-125 -17.5v-30z" />
    <glyph glyph-name="bar" unicode="|" horiz-adv-x="560" 
d="M90 -400v1876h400v-1876h-400z" />
    <glyph glyph-name="braceright" unicode="}" horiz-adv-x="806" 
d="M514 589q-67 0 -125 17.5t-101 51t-67.5 83.5t-24.5 115v222q0 32 -8.5 54t-22.5 36.5t-32.5 21t-38.5 6.5h-24v204h145q181 0 281 -83.5t100 -244.5v-274q0 -31 10.5 -56.5t29.5 -43.5t44.5 -28t55.5 -10v-172q-30 0 -55.5 -10t-44.5 -28t-29.5 -43.5t-10.5 -56.5v-274
q0 -161 -100 -244.5t-281 -83.5h-145v204h24q20 0 38.5 6.5t32.5 21t22.5 37t8.5 53.5v222q0 65 24.5 115t67.5 84t101 51t125 17v30z" />
    <glyph glyph-name="asciitilde" unicode="~" horiz-adv-x="1152" 
d="M50 924q59 58 134.5 89t159.5 31q52 0 93.5 -9t77 -23t68 -30t66.5 -30t72.5 -23t86.5 -9q87 0 163.5 31.5t130.5 88.5v-399q-60 -62 -135.5 -93.5t-158.5 -31.5q-53 0 -94.5 9t-76.5 23t-66.5 30t-65 30t-71.5 23t-85 9q-44 0 -87 -8.5t-81.5 -24t-71.5 -38t-59 -51.5
v406z" />
    <glyph glyph-name="uni00A0" unicode="&#xa0;" horiz-adv-x="1040" 
 />
    <glyph glyph-name="exclamdown" unicode="&#xa1;" 
d="M50 940q0 48 16.5 88.5t45.5 70t69.5 45.5t88.5 16t88.5 -16t69.5 -45.5t45.5 -70t16.5 -88.5t-16.5 -88.5t-45.5 -70t-69.5 -45.5t-88.5 -16t-88.5 16t-69.5 45.5t-45.5 70t-16.5 88.5zM470 -260h-400l30 940h340z" />
    <glyph glyph-name="cent" unicode="&#xa2;" horiz-adv-x="1276" 
d="M1226 669q-6 -226 -101.5 -360.5t-286.5 -178.5v-100h-400v101q-197 45 -292.5 186t-95.5 382t95.5 383t292.5 187v101h400v-100q191 -44 286 -177.5t102 -359.5h-401q-5 85 -48 121t-138 36q-52 0 -88.5 -10t-58.5 -32.5t-32 -58.5t-10 -88t10 -88.5t32 -59t58.5 -32.5
t88.5 -10q95 0 138 36.5t48 121.5h401z" />
    <glyph glyph-name="sterling" unicode="&#xa3;" horiz-adv-x="1065" 
d="M357 317l141 87h517v-404h-965v404h9q26 0 48.5 12t39 36t26.5 60.5t10 86.5v93h-133v178h133v191q0 92 33.5 159.5t92.5 112t140.5 66t177.5 21.5q44 0 91.5 -5t96.5 -15.5t97 -27.5t93 -42l-58 -316q-43 42 -98 65t-106 23q-35 0 -64.5 -9t-50.5 -26.5t-33 -44
t-12 -62.5v-90h154v-178h-154v-23q0 -56 -16.5 -101.5t-47.5 -84t-76 -73t-101 -67.5z" />
    <glyph glyph-name="currency" unicode="&#xa4;" horiz-adv-x="1008" 
d="M72 404l106 106q-26 42 -37 89t-13 95t10 95t38 89l-104 106l144 146l106 -106q84 48 180 48q50 0 98 -13t90 -37l104 104l144 -144l-106 -104q24 -42 37 -88t13 -96q0 -48 -12 -95t-38 -89l106 -104l-144 -144l-106 104q-42 -26 -89 -38t-97 -12q-98 0 -180 50
l-106 -106zM504 520q37 0 68.5 13.5t55 37t36.5 55t12 68.5q0 36 -13 67.5t-36 54.5t-54.5 36.5t-68.5 13.5t-68.5 -13.5t-54.5 -36.5t-36 -54.5t-13 -67.5q0 -37 13 -68.5t36 -55t54.5 -37t68.5 -13.5z" />
    <glyph glyph-name="yen" unicode="&#xa5;" horiz-adv-x="1417" 
d="M921 1400h446l-390 -804h223v-150h-291v-72h291v-149h-291v-225h-400v225h-307v149h307v72h-307v150h239l-391 804h445l336 -694l28 14l-7 15q-28 57 -42 124t-14 136t13.5 136t41.5 124z" />
    <glyph glyph-name="brokenbar" unicode="&#xa6;" horiz-adv-x="560" 
d="M490 658h-400v818h400v-818zM90 418h400v-818h-400v818z" />
    <glyph glyph-name="section" unicode="&#xa7;" horiz-adv-x="1245" 
d="M1195 427q0 -70 -21 -126t-60 -101q45 -56 63 -120t18 -136q0 -212 -137.5 -325t-420.5 -113q-68 0 -142.5 6.5t-148 17t-142.5 24.5t-126 30v440q62 -22 136 -43.5t152 -37.5t155 -26t143 -10q63 0 97 9.5t34 29.5q0 11 -16.5 20.5t-40.5 17t-50.5 13t-46.5 9.5
q-177 32 -291.5 79t-181 106.5t-92.5 130t-26 148.5t21 138.5t62 105.5q-46 56 -64.5 120.5t-18.5 137.5q0 212 137.5 325t420.5 113q68 0 142.5 -6.5t148 -17t142.5 -24.5t126 -30v-440q-61 23 -135.5 44t-152.5 37t-155 26t-143 10q-63 0 -97 -9.5t-34 -29.5
q0 -11 16.5 -20.5t40.5 -17t50.5 -13t47.5 -9.5q177 -32 291.5 -79.5t180.5 -108.5t92 -135t26 -160zM498 520q-48 -11 -48 -33q0 -11 16.5 -20.5t40.5 -17t50.5 -13t47.5 -9.5q38 -7 73.5 -14.5t68.5 -16.5q48 11 48 33q0 11 -16.5 20.5t-40.5 17t-50.5 13t-46.5 9.5
q-39 7 -74.5 14.5t-68.5 16.5z" />
    <glyph glyph-name="dieresis" unicode="&#xa8;" horiz-adv-x="1029" 
d="M50 1430q0 105 53 162.5t157 57.5t157 -57.5t53 -162.5t-53 -162.5t-157 -57.5t-157 57.5t-53 162.5zM559 1430q0 105 53 162.5t157 57.5t157 -57.5t53 -162.5t-53 -162.5t-157 -57.5t-157 57.5t-53 162.5z" />
    <glyph glyph-name="copyright" unicode="&#xa9;" horiz-adv-x="1600" 
d="M800 -20q-104 0 -199 24.5t-176 70t-146.5 110t-112 144.5t-71.5 173.5t-25 197.5t25 197.5t71.5 173.5t112 144.5t146.5 110t176 70t199 24.5q105 0 200 -24.5t176 -70t146.5 -110t111.5 -144.5t71 -173.5t25 -197.5t-25 -197.5t-71 -173.5t-111.5 -144.5t-146.5 -110
t-176 -70t-200 -24.5zM800 84q136 0 251 46t198.5 128.5t130.5 196t47 247.5t-47 247.5t-130.5 196t-198.5 128.5t-251 46q-135 0 -250 -46t-199 -128.5t-131 -196t-47 -247.5t47 -247.5t131 -196t199 -128.5t250 -46zM1185 389q-66 -84 -165.5 -131t-223.5 -47
q-107 0 -197 36t-155.5 101t-102 155t-36.5 197t36.5 197t102 155t155.5 101t197 36q124 0 223.5 -47t165.5 -131l-222 -167q-29 35 -71.5 54t-95.5 19q-48 0 -88 -16t-69 -45t-45 -68.5t-16 -87.5t16 -87.5t45 -68.5t69 -45t88 -16q53 0 96 19t72 54z" />
    <glyph glyph-name="ordfeminine" unicode="&#xaa;" horiz-adv-x="666" 
d="M278 850q-55 0 -94.5 16t-65 42.5t-37 60.5t-11.5 69q0 47 18 77t48 46.5t69 22.5t81 6h178q-9 62 -50 88t-116 26q-35 0 -69 -4.5t-67 -15.5l-26 110q44 15 92.5 21.5t87.5 6.5q136 0 208 -73.5t72 -212.5v-270h-128v74q-29 -45 -77 -67.5t-113 -22.5zM298 1096
q-50 0 -78 -14t-28 -46t30 -50t80 -18q68 0 107 35.5t51 92.5h-162z" />
    <glyph glyph-name="guillemotleft" unicode="&#xab;" horiz-adv-x="1254" 
d="M665 998l-184 -462l184 -462h-431l-184 462l184 462h431zM1204 998l-184 -462l184 -462h-431l-184 462l184 462h431z" />
    <glyph glyph-name="logicalnot" unicode="&#xac;" horiz-adv-x="1254" 
d="M50 426v400h1154v-616h-370v216h-784z" />
    <glyph glyph-name="uni00AD" unicode="&#xad;" horiz-adv-x="1040" 
d="M70 486v400h900v-400h-900z" />
    <glyph glyph-name="registered" unicode="&#xae;" horiz-adv-x="636" 
d="M319 917q-58 0 -107.5 20t-85.5 55.5t-56 84.5t-20 107t20 107t56 85t85.5 56t107.5 20t107 -20t84.5 -56t55.5 -85t20 -107t-20 -107t-55.5 -84.5t-84.5 -55.5t-107 -20zM319 969q47 0 86.5 16.5t68 45t44.5 68.5t16 86q0 47 -16 87t-44.5 68.5t-68 44.5t-86.5 16
q-46 0 -86 -16t-69 -44.5t-45.5 -68.5t-16.5 -87q0 -46 16.5 -86t45.5 -68.5t69 -45t86 -16.5zM450 1020h-69l-115 127h-19v-127h-54v330h143q28 0 48.5 -8.5t34 -23t20 -32.5t6.5 -37t-6 -37.5t-18.5 -32.5t-31.5 -23t-44 -9h-11zM334 1199q29 0 43.5 15t14.5 35
q0 17 -14.5 33.5t-43.5 16.5h-87v-100h87z" />
    <glyph glyph-name="macron" unicode="&#xaf;" horiz-adv-x="688" 
d="M50 1230v310h588v-310h-588z" />
    <glyph glyph-name="degree" unicode="&#xb0;" horiz-adv-x="686" 
d="M342 919q-61 0 -114 23t-92.5 62.5t-62.5 93.5t-23 115t23 114.5t62.5 93.5t92.5 63t114 23t114.5 -23t93.5 -63t63 -93.5t23 -114.5t-23 -115t-63 -93.5t-93.5 -62.5t-114.5 -23zM342 1085q27 0 50.5 9.5t40.5 26.5t27 40.5t10 51.5q0 27 -10 50.5t-27 40.5t-40.5 27
t-50.5 10q-26 0 -49 -10t-40 -27t-27 -40.5t-10 -50.5q0 -28 10 -51.5t27 -40.5t40 -26.5t49 -9.5z" />
    <glyph glyph-name="plusminus" unicode="&#xb1;" horiz-adv-x="970" 
d="M685 675v-215h-400v215h-235v400h235v215h400v-215h235v-400h-235zM50 0v360h870v-360h-870z" />
    <glyph glyph-name="twosuperior" unicode="&#xb2;" horiz-adv-x="734" 
d="M434 1550q74 0 122 -13t76.5 -39t40 -66.5t11.5 -94.5v-48q0 -43 -7 -78.5t-27.5 -62.5t-57 -46t-95.5 -30l-312 -55v-17h279v33l220 -33v-220h-634v437l384 66q17 3 23 8t6 16t-7 17t-24 6h-162v-33l-220 33v45q0 39 13 71t36 55t55 36t71 13h209z" />
    <glyph glyph-name="threesuperior" unicode="&#xb3;" horiz-adv-x="732" 
d="M468 1550q63 0 104 -9.5t65 -27t33.5 -42.5t9.5 -57q0 -30 -8.5 -54.5t-29.5 -42t-57 -28t-90 -12.5v-17q47 0 82 -13t58 -36t35 -54t12 -67v-113q0 -193 -249 -193h-383v219l219 33v-33h147q29 0 38 8.5t9 19.5t-7 19t-29 8h-224v219h176q22 0 28 8t6 17q0 12 -8.5 20.5
t-37.5 8.5h-98v-33l-219 33v45q0 38 13 70t36 55t55 36t71 13h243z" />
    <glyph glyph-name="acute" unicode="&#xb4;" horiz-adv-x="632" 
d="M201 1540h381l-270 -310h-262z" />
    <glyph glyph-name="paragraph" unicode="&#xb6;" horiz-adv-x="1048" 
d="M398 882q-67 0 -123.5 23t-97.5 63.5t-64 97.5t-23 124t23 123.5t64 97.5t97.5 64t123.5 23h560v-1730h-222v1526h-116v-1526h-222v1114z" />
    <glyph glyph-name="periodcentered" unicode="&#xb7;" horiz-adv-x="520" 
d="M50 718q0 44 16 82t44 66t67 44t84 16t83 -16t66 -44t44 -66t16 -82q0 -45 -16 -84t-44 -67.5t-66 -44.5t-83 -16t-84 16t-67 44.5t-44 67.5t-16 84z" />
    <glyph glyph-name="cedilla" unicode="&#xb8;" horiz-adv-x="430" 
d="M50 10h88v-39q68 0 115 -14.5t76 -39.5t42 -59.5t13 -73.5t-13 -75.5t-41.5 -64t-73.5 -44t-110 -16.5h-96v152h58q26 0 43.5 5.5t27.5 15.5t14 22.5t4 26.5q0 15 -4 28t-14.5 23.5t-27.5 16.5t-43 6h-58v130z" />
    <glyph glyph-name="onesuperior" unicode="&#xb9;" horiz-adv-x="488" 
d="M50 784v221h83v286h-55v221l277 58v-565h83v-221h-388z" />
    <glyph glyph-name="ordmasculine" unicode="&#xba;" horiz-adv-x="680" 
d="M342 850q-64 0 -114.5 19.5t-85.5 56t-53.5 90t-18.5 120.5q0 136 71.5 211t198.5 75q63 0 113.5 -19.5t85.5 -56.5t54 -90.5t19 -121.5q0 -136 -71.5 -210t-198.5 -74zM340 968q66 0 104 45t38 123t-38.5 123t-103.5 45t-102.5 -45t-37.5 -123t37.5 -123t102.5 -45z" />
    <glyph glyph-name="guillemotright" unicode="&#xbb;" horiz-adv-x="1254" 
d="M1204 536l-184 -462h-431l184 462l-184 462h431zM665 536l-184 -462h-431l184 462l-184 462h431z" />
    <glyph glyph-name="onequarter" unicode="&#xbc;" horiz-adv-x="1394" 
d="M50 634v221h83v286h-55v221l277 58v-565h83v-221h-388zM82 0l900 1400h264l-900 -1400h-264zM841 313h248v66h222v-66h33v-222h-33v-91h-222v91h-366v429l619 266v-241l-501 -216v-16z" />
    <glyph glyph-name="onehalf" unicode="&#xbd;" horiz-adv-x="1576" 
d="M50 634v221h83v286h-55v221l277 58v-565h83v-221h-388zM82 0l900 1400h264l-900 -1400h-264zM1203 770q74 0 122 -13t76.5 -39t40 -66.5t11.5 -94.5v-48q0 -43 -7 -78.5t-27.5 -62.5t-57 -46t-95.5 -30l-312 -55v-17h279v33l220 -33v-220h-634v437l384 66q17 3 23 8t6 16
t-7 17t-24 6h-162v-33l-220 33v45q0 39 13 71t36 55t55 36t71 13h209z" />
    <glyph glyph-name="threequarters" unicode="&#xbe;" horiz-adv-x="1581" 
d="M249 0l900 1400h264l-900 -1400h-264zM468 1400q63 0 104 -9.5t65 -27t33.5 -42.5t9.5 -57q0 -30 -8.5 -54.5t-29.5 -42t-57 -28t-90 -12.5v-17q47 0 82 -13t58 -36.5t35 -54.5t12 -67v-112q0 -193 -249 -193h-383v219l219 32v-32h147q29 0 38 8.5t9 19.5q0 10 -7 18
t-29 8h-224v220h176q22 0 28 8t6 17q0 12 -8.5 20.5t-37.5 8.5h-98v-33l-219 33v45q0 38 13 70t36 55t55 36t71 13h243zM1008 313h248v66h222v-66h33v-222h-33v-91h-222v91h-366v429l619 266v-241l-501 -216v-16z" />
    <glyph glyph-name="questiondown" unicode="&#xbf;" horiz-adv-x="1221" 
d="M830 940q0 -48 -16.5 -88.5t-45.5 -70t-69.5 -45.5t-88.5 -16t-88.5 16t-69.5 45.5t-45.5 70t-16.5 88.5t16.5 88.5t45.5 70t69.5 45.5t88.5 16t88.5 -16t69.5 -45.5t45.5 -70t16.5 -88.5zM50 158q0 71 15.5 122t41 88t57.5 62t66 45t66 36.5t57.5 37t41 46.5t15.5 64v20
h400v-24q0 -98 -27 -159t-68 -98.5t-88.5 -57.5t-88.5 -36.5t-68 -35.5t-27 -55q0 -22 11 -39.5t30.5 -29.5t46 -18t57.5 -6q36 0 69 9.5t58.5 30.5t40.5 55t15 83v59l400 -77v-58q0 -113 -31 -206t-99 -159t-175.5 -102t-260.5 -36q-138 0 -242 30t-173.5 86.5t-104.5 138
t-35 184.5z" />
    <glyph glyph-name="Agrave" unicode="&#xc0;" horiz-adv-x="1338" 
d="M673 1490l-270 310h381l151 -310h-262zM310 1400h718l260 -1400h-407l-39 213h-345l-40 -213h-407zM708 1186l-30 4l-107 -577h197l-61 325q-5 27 -7.5 58t-2.5 62.5t2.5 62.5t7.5 57z" />
    <glyph glyph-name="Aacute" unicode="&#xc1;" horiz-adv-x="1338" 
d="M554 1800h381l-270 -310h-262zM310 1400h718l260 -1400h-407l-39 213h-345l-40 -213h-407zM708 1186l-30 4l-107 -577h197l-61 325q-5 27 -7.5 58t-2.5 62.5t2.5 62.5t7.5 57z" />
    <glyph glyph-name="Acircumflex" unicode="&#xc2;" horiz-adv-x="1338" 
d="M750 1490q-18 18 -30.5 50.5t-20.5 69.5t-11.5 73.5t-3.5 61.5h-30q0 -25 -3.5 -61.5t-11.5 -73.5t-20.5 -69.5t-30.5 -50.5h-381l300 310h318l306 -310h-381zM310 1400h718l260 -1400h-407l-39 213h-345l-40 -213h-407zM708 1186l-30 4l-107 -577h197l-61 325
q-5 27 -7.5 58t-2.5 62.5t2.5 62.5t7.5 57z" />
    <glyph glyph-name="Atilde" unicode="&#xc3;" horiz-adv-x="1338" 
d="M532 1557q-42 0 -73.5 -19t-48.5 -48h-81q1 79 19.5 137.5t49 96.5t72 57t88.5 19q39 0 69 -11t58 -24t56 -24t62 -11q43 0 76 19.5t52 47.5h78q0 -77 -18 -135t-49 -97t-72 -58.5t-87 -19.5q-36 0 -67.5 11t-61 24t-59 24t-63.5 11zM310 1400h718l260 -1400h-407
l-39 213h-345l-40 -213h-407zM708 1186l-30 4l-107 -577h197l-61 325q-5 27 -7.5 58t-2.5 62.5t2.5 62.5t7.5 57z" />
    <glyph glyph-name="Adieresis" unicode="&#xc4;" horiz-adv-x="1338" 
d="M205 1690q0 105 53 162.5t157 57.5t157 -57.5t53 -162.5t-53 -162.5t-157 -57.5t-157 57.5t-53 162.5zM714 1690q0 105 53 162.5t157 57.5t157 -57.5t53 -162.5t-53 -162.5t-157 -57.5t-157 57.5t-53 162.5zM310 1400h718l260 -1400h-407l-39 213h-345l-40 -213h-407z
M708 1186l-30 4l-107 -577h197l-61 325q-5 27 -7.5 58t-2.5 62.5t2.5 62.5t7.5 57z" />
    <glyph glyph-name="Aring" unicode="&#xc5;" horiz-adv-x="1338" 
d="M403 1690q0 53 20 94t55 69t84 42.5t107 14.5t107 -14.5t84.5 -42.5t55.5 -69t20 -94t-20 -94t-55.5 -69t-84.5 -42.5t-107 -14.5t-107 14.5t-84 42.5t-55 69t-20 94zM561 1690q0 -22 30 -36t78 -14t78.5 14t30.5 36t-30.5 36t-78.5 14t-78 -14t-30 -36zM310 1400h718
l260 -1400h-407l-39 213h-345l-40 -213h-407zM708 1186l-30 4l-107 -577h197l-61 325q-5 27 -7.5 58t-2.5 62.5t2.5 62.5t7.5 57z" />
    <glyph glyph-name="AE" unicode="&#xc6;" horiz-adv-x="1886" 
d="M310 1400h1525v-400h-628v-100h628v-400h-628v-100h628v-400h-1028v213h-310l-40 -213h-407zM807 613v387h-164l-72 -387h236z" />
    <glyph glyph-name="Ccedilla" unicode="&#xc7;" horiz-adv-x="1410" 
d="M1360 243q-91 -115 -225 -183.5t-301 -76.5v-12q68 0 115 -14.5t76 -39.5t42 -59.5t13 -73.5t-13 -75.5t-41.5 -64t-73.5 -44t-110 -16.5h-96v152h58q26 0 43.5 5.5t27.5 15.5t14 22.5t4 26.5q0 15 -4 28t-14.5 23.5t-27.5 16.5t-43 6h-58v103q-149 7 -273 63.5
t-213.5 151t-139.5 222.5t-50 280q0 158 53.5 289.5t149 227t228 148.5t289.5 53q182 0 327.5 -69t242.5 -192l-325 -245q-42 51 -105 79t-140 28q-70 0 -129 -23.5t-101.5 -66t-66 -101t-23.5 -128.5t23.5 -128.5t66 -101t101.5 -66t129 -23.5q77 0 140 28.5t106 79.5z" />
    <glyph glyph-name="Egrave" unicode="&#xc8;" horiz-adv-x="1168" 
d="M578 1490l-270 310h381l151 -310h-262zM70 0v1400h1028v-400h-628v-100h628v-400h-628v-100h628v-400h-1028z" />
    <glyph glyph-name="Eacute" unicode="&#xc9;" horiz-adv-x="1168" 
d="M489 1800h381l-270 -310h-262zM70 0v1400h1028v-400h-628v-100h628v-400h-628v-100h628v-400h-1028z" />
    <glyph glyph-name="Ecircumflex" unicode="&#xca;" horiz-adv-x="1168" 
d="M655 1490q-18 18 -30.5 50.5t-20.5 69.5t-11.5 73.5t-3.5 61.5h-30q0 -25 -3.5 -61.5t-11.5 -73.5t-20.5 -69.5t-30.5 -50.5h-381l300 310h318l306 -310h-381zM70 0v1400h1028v-400h-628v-100h628v-400h-628v-100h628v-400h-1028z" />
    <glyph glyph-name="Edieresis" unicode="&#xcb;" horiz-adv-x="1168" 
d="M110 1690q0 105 53 162.5t157 57.5t157 -57.5t53 -162.5t-53 -162.5t-157 -57.5t-157 57.5t-53 162.5zM619 1690q0 105 53 162.5t157 57.5t157 -57.5t53 -162.5t-53 -162.5t-157 -57.5t-157 57.5t-53 162.5zM70 0v1400h1028v-400h-628v-100h628v-400h-628v-100h628v-400
h-1028z" />
    <glyph glyph-name="Igrave" unicode="&#xcc;" horiz-adv-x="500" 
d="M224 1490l-270 310h381l151 -310h-262zM50 0v1400h400v-1400h-400z" />
    <glyph glyph-name="Iacute" unicode="&#xcd;" horiz-adv-x="500" 
d="M165 1800h381l-270 -310h-262zM50 0v1400h400v-1400h-400z" />
    <glyph glyph-name="Icircumflex" unicode="&#xce;" horiz-adv-x="500" 
d="M331 1490q-18 18 -30.5 50.5t-20.5 69.5t-11.5 73.5t-3.5 61.5h-30q0 -25 -3.5 -61.5t-11.5 -73.5t-20.5 -69.5t-30.5 -50.5h-381l300 310h318l306 -310h-381zM50 0v1400h400v-1400h-400z" />
    <glyph glyph-name="Idieresis" unicode="&#xcf;" horiz-adv-x="500" 
d="M-215 1690q0 105 53 162.5t157 57.5q105 0 158 -57.5t53 -162.5t-53 -162.5t-158 -57.5q-104 0 -157 57.5t-53 162.5zM295 1690q0 105 53 162.5t157 57.5t157 -57.5t53 -162.5t-53 -162.5t-157 -57.5t-157 57.5t-53 162.5zM50 0v1400h400v-1400h-400z" />
    <glyph glyph-name="Eth" unicode="&#xd0;" horiz-adv-x="1344" 
d="M152 0v506h-102v400h102v494h440q153 0 282 -52t222.5 -145t145.5 -221.5t52 -281.5t-52 -281.5t-145.5 -221.5t-222.5 -145t-282 -52h-440zM594 400q66 0 121 22.5t94.5 62t62 94.5t22.5 121t-22.5 121t-62 94.5t-94.5 62t-121 22.5h-42v-94h100v-400h-100v-106h42z" />
    <glyph glyph-name="Ntilde" unicode="&#xd1;" horiz-adv-x="1354" 
d="M540 1557q-42 0 -73.5 -19t-48.5 -48h-81q1 79 19.5 137.5t49 96.5t72 57t88.5 19q39 0 69 -11t58 -24t56 -24t62 -11q43 0 76 19.5t52 47.5h78q0 -77 -18 -135t-49 -97t-72 -58.5t-87 -19.5q-36 0 -67.5 11t-61 24t-59 24t-63.5 11zM884 1400h400v-1400h-440l-473 875
l-27 -15l14 -26q25 -46 45.5 -102t35.5 -115t23 -118t8 -111v-388h-400v1400h440l473 -875l27 15l-14 26q-25 46 -45.5 102t-35.5 115t-23 118t-8 111v388z" />
    <glyph glyph-name="Ograve" unicode="&#xd2;" horiz-adv-x="1539" 
d="M774 1490l-270 310h381l151 -310h-262zM770 1418q158 0 290 -53t227 -148.5t148.5 -227t53.5 -289.5q0 -157 -53.5 -289t-148.5 -227.5t-227 -148.5t-290 -53q-157 0 -289.5 53t-228 148.5t-149 227.5t-53.5 289q0 158 53.5 289.5t149 227t228 148.5t289.5 53zM770 1019
q-70 0 -129 -23.5t-101.5 -66t-66 -101t-23.5 -128.5t23.5 -128.5t66 -101t101.5 -66t129 -23.5t128.5 23.5t101 66t66 101t23.5 128.5t-23.5 128.5t-66 101t-101 66t-128.5 23.5z" />
    <glyph glyph-name="Oacute" unicode="&#xd3;" horiz-adv-x="1539" 
d="M655 1800h381l-270 -310h-262zM770 1418q158 0 290 -53t227 -148.5t148.5 -227t53.5 -289.5q0 -157 -53.5 -289t-148.5 -227.5t-227 -148.5t-290 -53q-157 0 -289.5 53t-228 148.5t-149 227.5t-53.5 289q0 158 53.5 289.5t149 227t228 148.5t289.5 53zM770 1019
q-70 0 -129 -23.5t-101.5 -66t-66 -101t-23.5 -128.5t23.5 -128.5t66 -101t101.5 -66t129 -23.5t128.5 23.5t101 66t66 101t23.5 128.5t-23.5 128.5t-66 101t-101 66t-128.5 23.5z" />
    <glyph glyph-name="Ocircumflex" unicode="&#xd4;" horiz-adv-x="1539" 
d="M851 1490q-18 18 -30.5 50.5t-20.5 69.5t-11.5 73.5t-3.5 61.5h-30q0 -25 -3.5 -61.5t-11.5 -73.5t-20.5 -69.5t-30.5 -50.5h-381l300 310h318l306 -310h-381zM770 1418q158 0 290 -53t227 -148.5t148.5 -227t53.5 -289.5q0 -157 -53.5 -289t-148.5 -227.5t-227 -148.5
t-290 -53q-157 0 -289.5 53t-228 148.5t-149 227.5t-53.5 289q0 158 53.5 289.5t149 227t228 148.5t289.5 53zM770 1019q-70 0 -129 -23.5t-101.5 -66t-66 -101t-23.5 -128.5t23.5 -128.5t66 -101t101.5 -66t129 -23.5t128.5 23.5t101 66t66 101t23.5 128.5t-23.5 128.5
t-66 101t-101 66t-128.5 23.5z" />
    <glyph glyph-name="Otilde" unicode="&#xd5;" horiz-adv-x="1539" 
d="M633 1557q-42 0 -73.5 -19t-48.5 -48h-81q1 79 19.5 137.5t49 96.5t72 57t88.5 19q39 0 69 -11t58 -24t56 -24t62 -11q43 0 76 19.5t52 47.5h78q0 -77 -18 -135t-49 -97t-72 -58.5t-87 -19.5q-36 0 -67.5 11t-61 24t-59 24t-63.5 11zM770 1418q158 0 290 -53t227 -148.5
t148.5 -227t53.5 -289.5q0 -157 -53.5 -289t-148.5 -227.5t-227 -148.5t-290 -53q-157 0 -289.5 53t-228 148.5t-149 227.5t-53.5 289q0 158 53.5 289.5t149 227t228 148.5t289.5 53zM770 1019q-70 0 -129 -23.5t-101.5 -66t-66 -101t-23.5 -128.5t23.5 -128.5t66 -101
t101.5 -66t129 -23.5t128.5 23.5t101 66t66 101t23.5 128.5t-23.5 128.5t-66 101t-101 66t-128.5 23.5z" />
    <glyph glyph-name="Odieresis" unicode="&#xd6;" horiz-adv-x="1539" 
d="M305 1690q0 105 53 162.5t157 57.5t157 -57.5t53 -162.5t-53 -162.5t-157 -57.5t-157 57.5t-53 162.5zM814 1690q0 105 53 162.5t157 57.5t157 -57.5t53 -162.5t-53 -162.5t-157 -57.5t-157 57.5t-53 162.5zM770 1418q158 0 290 -53t227 -148.5t148.5 -227t53.5 -289.5
q0 -157 -53.5 -289t-148.5 -227.5t-227 -148.5t-290 -53q-157 0 -289.5 53t-228 148.5t-149 227.5t-53.5 289q0 158 53.5 289.5t149 227t228 148.5t289.5 53zM770 1019q-70 0 -129 -23.5t-101.5 -66t-66 -101t-23.5 -128.5t23.5 -128.5t66 -101t101.5 -66t129 -23.5
t128.5 23.5t101 66t66 101t23.5 128.5t-23.5 128.5t-66 101t-101 66t-128.5 23.5z" />
    <glyph glyph-name="multiply" unicode="&#xd7;" horiz-adv-x="998" 
d="M499 403l-166 -166l-283 283l166 166l-166 166l283 283l166 -166l166 166l283 -283l-166 -166l166 -166l-283 -283z" />
    <glyph glyph-name="Oslash" unicode="&#xd8;" horiz-adv-x="1539" 
d="M770 1418q21 0 41 -1t40 -3l7 25h236l-22 -79q95 -40 172 -104.5t131.5 -149t84 -187.5t29.5 -219q0 -157 -53.5 -289t-148.5 -227.5t-227 -148.5t-290 -53q-20 0 -39.5 1t-39.5 3l-10 -36h-236l25 89q-96 40 -173.5 104.5t-132.5 149t-84.5 187.5t-29.5 220
q0 158 53.5 289.5t149 227t228 148.5t289.5 53zM741 1018q-64 -5 -117.5 -30.5t-92 -67t-60 -98t-21.5 -122.5q0 -86 34.5 -153.5t95.5 -109.5zM801 382q64 5 117 30.5t91 67.5t59 98t21 122q0 85 -33.5 152t-93.5 109z" />
    <glyph glyph-name="Ugrave" unicode="&#xd9;" horiz-adv-x="1290" 
d="M649 1490l-270 310h381l151 -310h-262zM567 0q-109 0 -200.5 36.5t-157.5 102.5t-102.5 157.5t-36.5 200.5v903h400v-859q0 -63 39 -102t102 -39h68q63 0 102 39t39 102v859h400v-903q0 -109 -36.5 -200.5t-102.5 -157.5t-157 -102.5t-201 -36.5h-156z" />
    <glyph glyph-name="Uacute" unicode="&#xda;" horiz-adv-x="1290" 
d="M570 1800h381l-270 -310h-262zM567 0q-109 0 -200.5 36.5t-157.5 102.5t-102.5 157.5t-36.5 200.5v903h400v-859q0 -63 39 -102t102 -39h68q63 0 102 39t39 102v859h400v-903q0 -109 -36.5 -200.5t-102.5 -157.5t-157 -102.5t-201 -36.5h-156z" />
    <glyph glyph-name="Ucircumflex" unicode="&#xdb;" horiz-adv-x="1290" 
d="M726 1490q-18 18 -30.5 50.5t-20.5 69.5t-11.5 73.5t-3.5 61.5h-30q0 -25 -3.5 -61.5t-11.5 -73.5t-20.5 -69.5t-30.5 -50.5h-381l300 310h318l306 -310h-381zM567 0q-109 0 -200.5 36.5t-157.5 102.5t-102.5 157.5t-36.5 200.5v903h400v-859q0 -63 39 -102t102 -39h68
q63 0 102 39t39 102v859h400v-903q0 -109 -36.5 -200.5t-102.5 -157.5t-157 -102.5t-201 -36.5h-156z" />
    <glyph glyph-name="Udieresis" unicode="&#xdc;" horiz-adv-x="1290" 
d="M181 1690q0 105 53 162.5t157 57.5t157 -57.5t53 -162.5t-53 -162.5t-157 -57.5t-157 57.5t-53 162.5zM690 1690q0 105 53 162.5t157 57.5t157 -57.5t53 -162.5t-53 -162.5t-157 -57.5t-157 57.5t-53 162.5zM567 0q-109 0 -200.5 36.5t-157.5 102.5t-102.5 157.5
t-36.5 200.5v903h400v-859q0 -63 39 -102t102 -39h68q63 0 102 39t39 102v859h400v-903q0 -109 -36.5 -200.5t-102.5 -157.5t-157 -102.5t-201 -36.5h-156z" />
    <glyph glyph-name="Yacute" unicode="&#xdd;" horiz-adv-x="1417" 
d="M594 1800h381l-270 -310h-262zM921 1400h446l-458 -944v-456h-400v455l-459 945h445l336 -694l28 14l-7 15q-28 57 -42 124t-14 136t13.5 136t41.5 124z" />
    <glyph glyph-name="Thorn" unicode="&#xde;" horiz-adv-x="1188" 
d="M90 0v1500h400v-180h168q118 0 219 -40t175.5 -113.5t116.5 -178.5t42 -236q0 -133 -43 -239t-118 -180t-176 -113.5t-216 -39.5h-168v-180h-400zM490 501h113q45 0 83 16.5t65.5 48.5t43.5 78t16 106q0 59 -15.5 105t-43 77.5t-65.5 48t-84 16.5h-113v-496z" />
    <glyph glyph-name="germandbls" unicode="&#xdf;" horiz-adv-x="1347" 
d="M70 0v1118q0 101 35 176.5t97 126t147.5 76t187.5 25.5q125 0 213 -34.5t144 -87.5t82 -117t26 -124q0 -50 -15.5 -89t-38.5 -70.5t-49.5 -57t-49.5 -47.5t-38.5 -41.5t-15.5 -39.5q0 -24 21.5 -38.5t57 -26.5t80.5 -23.5t92 -29t92 -43t80.5 -65t57 -96.5t21.5 -136
q0 -92 -31 -162.5t-88.5 -118t-140.5 -72t-188 -24.5q-84 0 -166.5 14.5t-152.5 38.5v417q29 -37 67.5 -63t80 -42t83 -23t75.5 -7q30 0 47 5t17 16q0 6 -11 11t-28 10t-37.5 10t-39.5 10q-81 22 -134.5 57t-85 79t-44.5 95t-13 105q0 64 14 113.5t35.5 88.5t46.5 69.5
t46.5 57t35.5 50.5t14 50q0 37 -30 63.5t-82 26.5q-32 0 -54.5 -11.5t-36.5 -32t-20 -49t-6 -62.5v-1076h-400z" />
    <glyph glyph-name="agrave" unicode="&#xe0;" horiz-adv-x="1360" 
d="M656 1230l-270 310h381l151 -310h-262zM925 281q-28 -79 -61.5 -136t-81.5 -93.5t-115.5 -54t-162.5 -17.5q-229 0 -341.5 100t-112.5 299q0 198 110 297t333 99q70 0 128.5 -9t107.5 -24.5t89 -35t72 -40.5v15q0 37 -22 68.5t-65 55t-107.5 36.5t-149.5 13
q-102 0 -189 -19.5t-172 -59.5l197 365h277q180 0 301 -34t194.5 -96t104.5 -149.5t31 -194.5v-666h-400l63 272zM672 359q60 0 102 2.5t67.5 8.5t37 15.5t11.5 23.5q0 13 -11.5 22t-37 15t-67.5 8.5t-102 2.5q-62 0 -104.5 -2.5t-68.5 -8t-37.5 -14.5t-11.5 -23t11.5 -23.5
t37.5 -15.5t68.5 -8.5t104.5 -2.5z" />
    <glyph glyph-name="aacute" unicode="&#xe1;" horiz-adv-x="1360" 
d="M574 1540h381l-270 -310h-262zM925 281q-28 -79 -61.5 -136t-81.5 -93.5t-115.5 -54t-162.5 -17.5q-229 0 -341.5 100t-112.5 299q0 198 110 297t333 99q70 0 128.5 -9t107.5 -24.5t89 -35t72 -40.5v15q0 37 -22 68.5t-65 55t-107.5 36.5t-149.5 13q-102 0 -189 -19.5
t-172 -59.5l197 365h277q180 0 301 -34t194.5 -96t104.5 -149.5t31 -194.5v-666h-400l63 272zM672 359q60 0 102 2.5t67.5 8.5t37 15.5t11.5 23.5q0 13 -11.5 22t-37 15t-67.5 8.5t-102 2.5q-62 0 -104.5 -2.5t-68.5 -8t-37.5 -14.5t-11.5 -23t11.5 -23.5t37.5 -15.5
t68.5 -8.5t104.5 -2.5z" />
    <glyph glyph-name="acircumflex" unicode="&#xe2;" horiz-adv-x="1360" 
d="M753 1230q-18 18 -30.5 50.5t-20.5 69.5t-11.5 73.5t-3.5 61.5h-30q0 -25 -3.5 -61.5t-11.5 -73.5t-20.5 -69.5t-30.5 -50.5h-381l300 310h318l306 -310h-381zM925 281q-28 -79 -61.5 -136t-81.5 -93.5t-115.5 -54t-162.5 -17.5q-229 0 -341.5 100t-112.5 299
q0 198 110 297t333 99q70 0 128.5 -9t107.5 -24.5t89 -35t72 -40.5v15q0 37 -22 68.5t-65 55t-107.5 36.5t-149.5 13q-102 0 -189 -19.5t-172 -59.5l197 365h277q180 0 301 -34t194.5 -96t104.5 -149.5t31 -194.5v-666h-400l63 272zM672 359q60 0 102 2.5t67.5 8.5t37 15.5
t11.5 23.5q0 13 -11.5 22t-37 15t-67.5 8.5t-102 2.5q-62 0 -104.5 -2.5t-68.5 -8t-37.5 -14.5t-11.5 -23t11.5 -23.5t37.5 -15.5t68.5 -8.5t104.5 -2.5z" />
    <glyph glyph-name="atilde" unicode="&#xe3;" horiz-adv-x="1360" 
d="M535 1297q-42 0 -73.5 -19t-48.5 -48h-81q1 79 19.5 137.5t49 96.5t72 57t88.5 19q39 0 69 -11t58 -24t56 -24t62 -11q43 0 76 19.5t52 47.5h78q0 -77 -18 -135t-49 -97t-72 -58.5t-87 -19.5q-36 0 -67.5 11t-61 24t-59 24t-63.5 11zM925 281q-28 -79 -61.5 -136
t-81.5 -93.5t-115.5 -54t-162.5 -17.5q-229 0 -341.5 100t-112.5 299q0 198 110 297t333 99q70 0 128.5 -9t107.5 -24.5t89 -35t72 -40.5v15q0 37 -22 68.5t-65 55t-107.5 36.5t-149.5 13q-102 0 -189 -19.5t-172 -59.5l197 365h277q180 0 301 -34t194.5 -96t104.5 -149.5
t31 -194.5v-666h-400l63 272zM672 359q60 0 102 2.5t67.5 8.5t37 15.5t11.5 23.5q0 13 -11.5 22t-37 15t-67.5 8.5t-102 2.5q-62 0 -104.5 -2.5t-68.5 -8t-37.5 -14.5t-11.5 -23t11.5 -23.5t37.5 -15.5t68.5 -8.5t104.5 -2.5z" />
    <glyph glyph-name="adieresis" unicode="&#xe4;" horiz-adv-x="1360" 
d="M208 1430q0 105 53 162.5t157 57.5t157 -57.5t53 -162.5t-53 -162.5t-157 -57.5t-157 57.5t-53 162.5zM717 1430q0 105 53 162.5t157 57.5t157 -57.5t53 -162.5t-53 -162.5t-157 -57.5t-157 57.5t-53 162.5zM925 281q-28 -79 -61.5 -136t-81.5 -93.5t-115.5 -54
t-162.5 -17.5q-229 0 -341.5 100t-112.5 299q0 198 110 297t333 99q70 0 128.5 -9t107.5 -24.5t89 -35t72 -40.5v15q0 37 -22 68.5t-65 55t-107.5 36.5t-149.5 13q-102 0 -189 -19.5t-172 -59.5l197 365h277q180 0 301 -34t194.5 -96t104.5 -149.5t31 -194.5v-666h-400
l63 272zM672 359q60 0 102 2.5t67.5 8.5t37 15.5t11.5 23.5q0 13 -11.5 22t-37 15t-67.5 8.5t-102 2.5q-62 0 -104.5 -2.5t-68.5 -8t-37.5 -14.5t-11.5 -23t11.5 -23.5t37.5 -15.5t68.5 -8.5t104.5 -2.5z" />
    <glyph glyph-name="aring" unicode="&#xe5;" horiz-adv-x="1360" 
d="M406 1430q0 53 20 94t55 69t84 42.5t107 14.5t107 -14.5t84.5 -42.5t55.5 -69t20 -94t-20 -94t-55.5 -69t-84.5 -42.5t-107 -14.5t-107 14.5t-84 42.5t-55 69t-20 94zM564 1430q0 -22 30 -36t78 -14t78.5 14t30.5 36t-30.5 36t-78.5 14t-78 -14t-30 -36zM925 281
q-28 -79 -61.5 -136t-81.5 -93.5t-115.5 -54t-162.5 -17.5q-229 0 -341.5 100t-112.5 299q0 198 110 297t333 99q70 0 128.5 -9t107.5 -24.5t89 -35t72 -40.5v15q0 37 -22 68.5t-65 55t-107.5 36.5t-149.5 13q-102 0 -189 -19.5t-172 -59.5l197 365h277q180 0 301 -34
t194.5 -96t104.5 -149.5t31 -194.5v-666h-400l63 272zM672 359q60 0 102 2.5t67.5 8.5t37 15.5t11.5 23.5q0 13 -11.5 22t-37 15t-67.5 8.5t-102 2.5q-62 0 -104.5 -2.5t-68.5 -8t-37.5 -14.5t-11.5 -23t11.5 -23.5t37.5 -15.5t68.5 -8.5t104.5 -2.5z" />
    <glyph glyph-name="ae" unicode="&#xe6;" horiz-adv-x="2636" 
d="M382 1140h277q143 0 247.5 -21t178.5 -61q143 102 391 102q149 0 259 -35.5t183 -100.5t109 -157.5t36 -206.5q0 -104 -29 -196h-726q20 -37 62 -50.5t111 -13.5h531l-108 -400h-404q-298 0 -450 135q-46 -44 -109.5 -74t-135.5 -48t-149 -25.5t-152 -7.5
q-229 0 -341.5 100t-112.5 299q0 198 110 297t333 99q70 0 128.5 -9t107.5 -24.5t89 -35t72 -40.5v15q0 37 -22 68.5t-65 55t-107.5 36.5t-149.5 13q-102 0 -189 -19.5t-172 -59.5zM1689 655q0 56 -44.5 80.5t-150.5 24.5q-91 0 -138.5 -21.5t-61.5 -83.5h395zM672 359
q60 0 102 2.5t67.5 8.5t37 15.5t11.5 23.5q0 13 -11.5 22t-37 15t-67.5 8.5t-102 2.5q-62 0 -104.5 -2.5t-68.5 -8t-37.5 -14.5t-11.5 -23t11.5 -23.5t37.5 -15.5t68.5 -8.5t104.5 -2.5z" />
    <glyph glyph-name="ccedilla" unicode="&#xe7;" horiz-adv-x="1276" 
d="M1226 539q-7 -268 -140.5 -408t-400.5 -150v-10q68 0 115 -14.5t76 -39.5t42 -59.5t13 -73.5t-13 -75.5t-41.5 -64t-73.5 -44t-110 -16.5h-96v152h58q26 0 43.5 5.5t27.5 15.5t14 22.5t4 26.5q0 15 -4 28t-14.5 23.5t-27.5 16.5t-43 6h-58v101q-278 11 -412.5 157
t-134.5 431q0 294 145.5 442.5t443.5 148.5q290 0 434.5 -140t152.5 -417h-401q-5 85 -48 121t-138 36q-52 0 -88.5 -10t-58.5 -32.5t-32 -58.5t-10 -88t10 -88.5t32 -59t58.5 -32.5t88.5 -10q95 0 138 36.5t48 121.5h401z" />
    <glyph glyph-name="egrave" unicode="&#xe8;" horiz-adv-x="1276" 
d="M622 1230l-270 310h381l151 -310h-262zM471 464q20 -37 62 -50.5t111 -13.5h531l-108 -400h-404q-310 0 -461.5 145t-151.5 434t145.5 435t443.5 146q149 0 259 -35.5t183 -100.5t109 -157.5t36 -206.5q0 -104 -29 -196h-726zM852 655q0 56 -44.5 80.5t-150.5 24.5
q-91 0 -138.5 -21.5t-61.5 -83.5h395z" />
    <glyph glyph-name="eacute" unicode="&#xe9;" horiz-adv-x="1276" 
d="M540 1540h381l-270 -310h-262zM471 464q20 -37 62 -50.5t111 -13.5h531l-108 -400h-404q-310 0 -461.5 145t-151.5 434t145.5 435t443.5 146q149 0 259 -35.5t183 -100.5t109 -157.5t36 -206.5q0 -104 -29 -196h-726zM852 655q0 56 -44.5 80.5t-150.5 24.5
q-91 0 -138.5 -21.5t-61.5 -83.5h395z" />
    <glyph glyph-name="ecircumflex" unicode="&#xea;" horiz-adv-x="1276" 
d="M719 1230q-18 18 -30.5 50.5t-20.5 69.5t-11.5 73.5t-3.5 61.5h-30q0 -25 -3.5 -61.5t-11.5 -73.5t-20.5 -69.5t-30.5 -50.5h-381l300 310h318l306 -310h-381zM471 464q20 -37 62 -50.5t111 -13.5h531l-108 -400h-404q-310 0 -461.5 145t-151.5 434t145.5 435t443.5 146
q149 0 259 -35.5t183 -100.5t109 -157.5t36 -206.5q0 -104 -29 -196h-726zM852 655q0 56 -44.5 80.5t-150.5 24.5q-91 0 -138.5 -21.5t-61.5 -83.5h395z" />
    <glyph glyph-name="edieresis" unicode="&#xeb;" horiz-adv-x="1276" 
d="M174 1430q0 105 53 162.5t157 57.5t157 -57.5t53 -162.5t-53 -162.5t-157 -57.5t-157 57.5t-53 162.5zM683 1430q0 105 53 162.5t157 57.5t157 -57.5t53 -162.5t-53 -162.5t-157 -57.5t-157 57.5t-53 162.5zM471 464q20 -37 62 -50.5t111 -13.5h531l-108 -400h-404
q-310 0 -461.5 145t-151.5 434t145.5 435t443.5 146q149 0 259 -35.5t183 -100.5t109 -157.5t36 -206.5q0 -104 -29 -196h-726zM852 655q0 56 -44.5 80.5t-150.5 24.5q-91 0 -138.5 -21.5t-61.5 -83.5h395z" />
    <glyph glyph-name="igrave" unicode="&#xec;" 
d="M254 1230l-270 310h381l151 -310h-262zM70 0v1140h400v-1140h-400z" />
    <glyph glyph-name="iacute" unicode="&#xed;" 
d="M172 1540h381l-270 -310h-262zM70 0v1140h400v-1140h-400z" />
    <glyph glyph-name="icircumflex" unicode="&#xee;" 
d="M351 1230q-18 18 -30.5 50.5t-20.5 69.5t-11.5 73.5t-3.5 61.5h-30q0 -25 -3.5 -61.5t-11.5 -73.5t-20.5 -69.5t-30.5 -50.5h-381l300 310h318l306 -310h-381zM70 0v1140h400v-1140h-400z" />
    <glyph glyph-name="idieresis" unicode="&#xef;" 
d="M-195 1430q0 105 53 162.5t158 57.5q104 0 157 -57.5t53 -162.5t-53 -162.5t-157 -57.5q-105 0 -158 57.5t-53 162.5zM315 1430q0 105 53 162.5t157 57.5t157 -57.5t53 -162.5t-53 -162.5t-157 -57.5t-157 57.5t-53 162.5zM70 0v1140h400v-1140h-400z" />
    <glyph glyph-name="eth" unicode="&#xf0;" horiz-adv-x="1214" 
d="M50 462q0 95 25 176.5t78.5 141t136.5 93.5t200 34q65 0 117.5 -11t96.5 -32t81 -51.5t70 -70.5q-5 57 -39.5 131t-91.5 153l-129 -80l-87 140l109 68q-70 74 -153 138t-174 108h534q21 -14 40.5 -30.5t39.5 -36.5l106 67l88 -140l-93 -58q37 -60 66.5 -130t50 -145.5
t31.5 -156t11 -161.5q0 -148 -38 -264t-113 -195t-185.5 -120.5t-255.5 -41.5q-121 0 -218 29.5t-164.5 89t-103.5 148.5t-36 207zM455 510q0 -70 34 -106t100 -36q130 0 130 142v30q0 140 -129 140q-66 0 -100.5 -35.5t-34.5 -104.5v-30z" />
    <glyph glyph-name="ntilde" unicode="&#xf1;" horiz-adv-x="1271" 
d="M527 1297q-42 0 -73.5 -19t-48.5 -48h-81q1 79 19.5 137.5t49 96.5t72 57t88.5 19q39 0 69 -11t58 -24t56 -24t62 -11q43 0 76 19.5t52 47.5h78q0 -77 -18 -135t-49 -97t-72 -58.5t-87 -19.5q-36 0 -67.5 11t-61 24t-59 24t-63.5 11zM401 973l28 -12q27 61 63 99.5
t79 60.5t94 30t108 8q227 0 337.5 -148t110.5 -441v-570h-400v568q0 104 -43 147t-135 43t-132.5 -43t-40.5 -147v-568h-400v1140h400z" />
    <glyph glyph-name="ograve" unicode="&#xf2;" horiz-adv-x="1306" 
d="M638 1230l-270 310h381l151 -310h-262zM654 -20q-304 0 -454 147.5t-150 441.5t150 442.5t454 148.5q305 0 453.5 -148.5t148.5 -442.5t-148.5 -441.5t-453.5 -147.5zM654 381q56 0 94.5 10.5t62.5 33t34.5 58.5t10.5 88q0 51 -10.5 87t-34.5 58.5t-62.5 33t-94.5 10.5
q-57 0 -96 -10t-63 -32.5t-34.5 -58.5t-10.5 -88t10.5 -88.5t34.5 -59t63 -32.5t96 -10z" />
    <glyph glyph-name="oacute" unicode="&#xf3;" horiz-adv-x="1306" 
d="M556 1540h381l-270 -310h-262zM654 -20q-304 0 -454 147.5t-150 441.5t150 442.5t454 148.5q305 0 453.5 -148.5t148.5 -442.5t-148.5 -441.5t-453.5 -147.5zM654 381q56 0 94.5 10.5t62.5 33t34.5 58.5t10.5 88q0 51 -10.5 87t-34.5 58.5t-62.5 33t-94.5 10.5
q-57 0 -96 -10t-63 -32.5t-34.5 -58.5t-10.5 -88t10.5 -88.5t34.5 -59t63 -32.5t96 -10z" />
    <glyph glyph-name="ocircumflex" unicode="&#xf4;" horiz-adv-x="1306" 
d="M735 1230q-18 18 -30.5 50.5t-20.5 69.5t-11.5 73.5t-3.5 61.5h-30q0 -25 -3.5 -61.5t-11.5 -73.5t-20.5 -69.5t-30.5 -50.5h-381l300 310h318l306 -310h-381zM654 -20q-304 0 -454 147.5t-150 441.5t150 442.5t454 148.5q305 0 453.5 -148.5t148.5 -442.5t-148.5 -441.5
t-453.5 -147.5zM654 381q56 0 94.5 10.5t62.5 33t34.5 58.5t10.5 88q0 51 -10.5 87t-34.5 58.5t-62.5 33t-94.5 10.5q-57 0 -96 -10t-63 -32.5t-34.5 -58.5t-10.5 -88t10.5 -88.5t34.5 -59t63 -32.5t96 -10z" />
    <glyph glyph-name="otilde" unicode="&#xf5;" horiz-adv-x="1306" 
d="M517 1297q-42 0 -73.5 -19t-48.5 -48h-81q1 79 19.5 137.5t49 96.5t72 57t88.5 19q39 0 69 -11t58 -24t56 -24t62 -11q43 0 76 19.5t52 47.5h78q0 -77 -18 -135t-49 -97t-72 -58.5t-87 -19.5q-36 0 -67.5 11t-61 24t-59 24t-63.5 11zM654 -20q-304 0 -454 147.5
t-150 441.5t150 442.5t454 148.5q305 0 453.5 -148.5t148.5 -442.5t-148.5 -441.5t-453.5 -147.5zM654 381q56 0 94.5 10.5t62.5 33t34.5 58.5t10.5 88q0 51 -10.5 87t-34.5 58.5t-62.5 33t-94.5 10.5q-57 0 -96 -10t-63 -32.5t-34.5 -58.5t-10.5 -88t10.5 -88.5t34.5 -59
t63 -32.5t96 -10z" />
    <glyph glyph-name="odieresis" unicode="&#xf6;" horiz-adv-x="1306" 
d="M190 1430q0 105 53 162.5t157 57.5t157 -57.5t53 -162.5t-53 -162.5t-157 -57.5t-157 57.5t-53 162.5zM699 1430q0 105 53 162.5t157 57.5t157 -57.5t53 -162.5t-53 -162.5t-157 -57.5t-157 57.5t-53 162.5zM654 -20q-304 0 -454 147.5t-150 441.5t150 442.5t454 148.5
q305 0 453.5 -148.5t148.5 -442.5t-148.5 -441.5t-453.5 -147.5zM654 381q56 0 94.5 10.5t62.5 33t34.5 58.5t10.5 88q0 51 -10.5 87t-34.5 58.5t-62.5 33t-94.5 10.5q-57 0 -96 -10t-63 -32.5t-34.5 -58.5t-10.5 -88t10.5 -88.5t34.5 -59t63 -32.5t96 -10z" />
    <glyph glyph-name="divide" unicode="&#xf7;" horiz-adv-x="970" 
d="M284 1126q0 44 15 81t41.5 63.5t63.5 41.5t81 15t81 -15t63.5 -41.5t41.5 -63.5t15 -81t-15 -81t-41.5 -63.5t-63.5 -41.5t-81 -15t-81 15t-63.5 41.5t-41.5 63.5t-15 81zM50 506v360h870v-360h-870zM284 242q0 44 15 81t41.5 63.5t63.5 41.5t81 15t81 -15t63.5 -41.5
t41.5 -63.5t15 -81t-15 -81t-41.5 -63.5t-63.5 -41.5t-81 -15t-81 15t-63.5 41.5t-41.5 63.5t-15 81z" />
    <glyph glyph-name="oslash" unicode="&#xf8;" horiz-adv-x="1306" 
d="M654 -20h-24t-24 1l-9 -31h-236l20 70q-331 112 -331 549q0 294 150 442.5t454 148.5h21.5t21.5 -1l12 44h236l-23 -81q170 -57 252 -194.5t82 -358.5q0 -294 -148.5 -441.5t-453.5 -147.5zM585 756q-74 -12 -104.5 -55.5t-30.5 -129.5q0 -51 10 -86.5t33 -58.5zM718 385
q76 11 107 55t31 131q0 52 -10.5 88t-35.5 59z" />
    <glyph glyph-name="ugrave" unicode="&#xf9;" horiz-adv-x="1239" 
d="M596 1230l-270 310h381l151 -310h-262zM838 167l-28 12q-26 -61 -60.5 -99.5t-76 -60.5t-90 -30t-103.5 -8q-217 0 -323.5 148.5t-106.5 440.5v570h400v-568q0 -104 39 -147t123 -43t120.5 43t36.5 147v568h400v-1140h-400z" />
    <glyph glyph-name="uacute" unicode="&#xfa;" horiz-adv-x="1239" 
d="M514 1540h381l-270 -310h-262zM838 167l-28 12q-26 -61 -60.5 -99.5t-76 -60.5t-90 -30t-103.5 -8q-217 0 -323.5 148.5t-106.5 440.5v570h400v-568q0 -104 39 -147t123 -43t120.5 43t36.5 147v568h400v-1140h-400z" />
    <glyph glyph-name="ucircumflex" unicode="&#xfb;" horiz-adv-x="1239" 
d="M693 1230q-18 18 -30.5 50.5t-20.5 69.5t-11.5 73.5t-3.5 61.5h-30q0 -25 -3.5 -61.5t-11.5 -73.5t-20.5 -69.5t-30.5 -50.5h-381l300 310h318l306 -310h-381zM838 167l-28 12q-26 -61 -60.5 -99.5t-76 -60.5t-90 -30t-103.5 -8q-217 0 -323.5 148.5t-106.5 440.5v570
h400v-568q0 -104 39 -147t123 -43t120.5 43t36.5 147v568h400v-1140h-400z" />
    <glyph glyph-name="udieresis" unicode="&#xfc;" horiz-adv-x="1239" 
d="M148 1430q0 105 53 162.5t157 57.5t157 -57.5t53 -162.5t-53 -162.5t-157 -57.5t-157 57.5t-53 162.5zM657 1430q0 105 53 162.5t157 57.5t157 -57.5t53 -162.5t-53 -162.5t-157 -57.5t-157 57.5t-53 162.5zM838 167l-28 12q-26 -61 -60.5 -99.5t-76 -60.5t-90 -30
t-103.5 -8q-217 0 -323.5 148.5t-106.5 440.5v570h400v-568q0 -104 39 -147t123 -43t120.5 43t36.5 147v568h400v-1140h-400z" />
    <glyph glyph-name="yacute" unicode="&#xfd;" horiz-adv-x="1242" 
d="M523 1540h381l-270 -310h-262zM677 93q-19 -20 -44 -37t-53.5 -29.5t-58 -19.5t-57.5 -7h-202l-212 1140h407l125 -673q5 -27 7.5 -59.5t2.5 -65.5t-2 -65.5t-7 -59.5l-1 -3l30 -5l173 931h407l-212 -1140q-21 -115 -68.5 -209t-117.5 -161t-162 -103.5t-202 -36.5h-73
l-73 400h131q54 0 97 9.5t78 32t63.5 59t53.5 91.5l-24 18z" />
    <glyph glyph-name="thorn" unicode="&#xfe;" horiz-adv-x="1332" 
d="M470 -361h-400v1861h400v-455q120 115 332 115q244 0 362 -147.5t118 -443.5q0 -294 -118.5 -441.5t-363.5 -147.5q-61 0 -116 8t-102 30t-85.5 60.5t-67.5 99.5l-28 -12l69 -150v-377zM677 381q57 0 96 10.5t63.5 33t35 58.5t10.5 88q0 51 -10.5 87t-35 58.5t-63.5 33
t-96 10.5q-58 0 -97.5 -10t-64 -32.5t-35 -58.5t-10.5 -88t10.5 -88.5t35 -59t64 -32.5t97.5 -10z" />
    <glyph glyph-name="ydieresis" unicode="&#xff;" horiz-adv-x="1242" 
d="M157 1430q0 105 53 162.5t157 57.5t157 -57.5t53 -162.5t-53 -162.5t-157 -57.5t-157 57.5t-53 162.5zM666 1430q0 105 53 162.5t157 57.5t157 -57.5t53 -162.5t-53 -162.5t-157 -57.5t-157 57.5t-53 162.5zM677 93q-19 -20 -44 -37t-53.5 -29.5t-58 -19.5t-57.5 -7h-202
l-212 1140h407l125 -673q5 -27 7.5 -59.5t2.5 -65.5t-2 -65.5t-7 -59.5l-1 -3l30 -5l173 931h407l-212 -1140q-21 -115 -68.5 -209t-117.5 -161t-162 -103.5t-202 -36.5h-73l-73 400h131q54 0 97 9.5t78 32t63.5 59t53.5 91.5l-24 18z" />
    <glyph glyph-name="Amacron" unicode="&#x100;" horiz-adv-x="1338" 
d="M375 1490v310h588v-310h-588zM310 1400h718l260 -1400h-407l-39 213h-345l-40 -213h-407zM708 1186l-30 4l-107 -577h197l-61 325q-5 27 -7.5 58t-2.5 62.5t2.5 62.5t7.5 57z" />
    <glyph glyph-name="amacron" unicode="&#x101;" horiz-adv-x="1360" 
d="M378 1230v310h588v-310h-588zM925 281q-28 -79 -61.5 -136t-81.5 -93.5t-115.5 -54t-162.5 -17.5q-229 0 -341.5 100t-112.5 299q0 198 110 297t333 99q70 0 128.5 -9t107.5 -24.5t89 -35t72 -40.5v15q0 37 -22 68.5t-65 55t-107.5 36.5t-149.5 13q-102 0 -189 -19.5
t-172 -59.5l197 365h277q180 0 301 -34t194.5 -96t104.5 -149.5t31 -194.5v-666h-400l63 272zM672 359q60 0 102 2.5t67.5 8.5t37 15.5t11.5 23.5q0 13 -11.5 22t-37 15t-67.5 8.5t-102 2.5q-62 0 -104.5 -2.5t-68.5 -8t-37.5 -14.5t-11.5 -23t11.5 -23.5t37.5 -15.5
t68.5 -8.5t104.5 -2.5z" />
    <glyph glyph-name="Abreve" unicode="&#x102;" horiz-adv-x="1338" 
d="M668 1481q-77 0 -131 24.5t-87.5 67t-49 101t-15.5 126.5h151q5 -33 35.5 -54t96.5 -21t98 21.5t36 53.5h151q0 -68 -15.5 -126.5t-49.5 -101t-88.5 -67t-131.5 -24.5zM310 1400h718l260 -1400h-407l-39 213h-345l-40 -213h-407zM708 1186l-30 4l-107 -577h197l-61 325
q-5 27 -7.5 58t-2.5 62.5t2.5 62.5t7.5 57z" />
    <glyph glyph-name="abreve" unicode="&#x103;" horiz-adv-x="1360" 
d="M671 1221q-77 0 -131 24.5t-87.5 67t-49 101t-15.5 126.5h151q5 -33 35.5 -54t96.5 -21t98 21.5t36 53.5h151q0 -68 -15.5 -126.5t-49.5 -101t-88.5 -67t-131.5 -24.5zM925 281q-28 -79 -61.5 -136t-81.5 -93.5t-115.5 -54t-162.5 -17.5q-229 0 -341.5 100t-112.5 299
q0 198 110 297t333 99q70 0 128.5 -9t107.5 -24.5t89 -35t72 -40.5v15q0 37 -22 68.5t-65 55t-107.5 36.5t-149.5 13q-102 0 -189 -19.5t-172 -59.5l197 365h277q180 0 301 -34t194.5 -96t104.5 -149.5t31 -194.5v-666h-400l63 272zM672 359q60 0 102 2.5t67.5 8.5t37 15.5
t11.5 23.5q0 13 -11.5 22t-37 15t-67.5 8.5t-102 2.5q-62 0 -104.5 -2.5t-68.5 -8t-37.5 -14.5t-11.5 -23t11.5 -23.5t37.5 -15.5t68.5 -8.5t104.5 -2.5z" />
    <glyph glyph-name="Aogonek" unicode="&#x104;" horiz-adv-x="1338" 
d="M310 1400h718l260 -1400h-134l-37 -41q-29 -32 -44 -55.5t-15 -49.5q0 -19 8 -38.5t21 -36.5t30 -29.5t36 -15.5v-150q-83 0 -144.5 18t-102 48t-60 69.5t-19.5 83.5q0 51 26.5 94t81.5 73l54 30h-108l-39 213h-345l-40 -213h-407zM708 1186l-30 4l-107 -577h197l-61 325
q-5 27 -7.5 58t-2.5 62.5t2.5 62.5t7.5 57z" />
    <glyph glyph-name="aogonek" unicode="&#x105;" horiz-adv-x="1360" 
d="M925 281q-28 -79 -61.5 -136t-81.5 -93.5t-115.5 -54t-162.5 -17.5q-229 0 -341.5 100t-112.5 299q0 198 110 297t333 99q70 0 128.5 -9t107.5 -24.5t89 -35t72 -40.5v15q0 37 -22 68.5t-65 55t-107.5 36.5t-149.5 13q-102 0 -189 -19.5t-172 -59.5l197 365h277
q180 0 301 -34t194.5 -96t104.5 -149.5t31 -194.5v-666h-112l-37 -41q-29 -32 -44 -55.5t-15 -49.5q0 -19 8 -38.5t21 -36.5t30 -29.5t36 -15.5v-150q-83 0 -144.5 18t-102 48t-60 69.5t-19.5 83.5q0 51 26.5 94t81.5 73l54 30h-123l63 272zM672 359q60 0 102 2.5t67.5 8.5
t37 15.5t11.5 23.5q0 13 -11.5 22t-37 15t-67.5 8.5t-102 2.5q-62 0 -104.5 -2.5t-68.5 -8t-37.5 -14.5t-11.5 -23t11.5 -23.5t37.5 -15.5t68.5 -8.5t104.5 -2.5z" />
    <glyph glyph-name="Cacute" unicode="&#x106;" horiz-adv-x="1410" 
d="M720 1800h381l-270 -310h-262zM1360 243q-97 -123 -242.5 -192t-327.5 -69q-157 0 -289.5 53t-228 148.5t-149 227.5t-53.5 289q0 158 53.5 289.5t149 227t228 148.5t289.5 53q182 0 327.5 -69t242.5 -192l-325 -245q-42 51 -105 79t-140 28q-70 0 -129 -23.5t-101.5 -66
t-66 -101t-23.5 -128.5t23.5 -128.5t66 -101t101.5 -66t129 -23.5q77 0 140 28.5t106 79.5z" />
    <glyph glyph-name="cacute" unicode="&#x107;" horiz-adv-x="1276" 
d="M540 1539h381l-270 -310h-262zM1226 539q-7 -279 -152 -419t-435 -140q-298 0 -443.5 147.5t-145.5 441.5t145.5 442.5t443.5 148.5q290 0 434.5 -140t152.5 -417h-401q-5 85 -48 121t-138 36q-52 0 -88.5 -10t-58.5 -32.5t-32 -58.5t-10 -88t10 -88.5t32 -59t58.5 -32.5
t88.5 -10q95 0 138 36.5t48 121.5h401z" />
    <glyph glyph-name="Ccircumflex" unicode="&#x108;" horiz-adv-x="1410" 
d="M889 1490q-18 18 -30.5 50.5t-20.5 69.5t-11.5 73.5t-3.5 61.5h-30q0 -25 -3.5 -61.5t-11.5 -73.5t-20.5 -69.5t-30.5 -50.5h-381l300 310h318l306 -310h-381zM1360 243q-97 -123 -242.5 -192t-327.5 -69q-157 0 -289.5 53t-228 148.5t-149 227.5t-53.5 289
q0 158 53.5 289.5t149 227t228 148.5t289.5 53q182 0 327.5 -69t242.5 -192l-325 -245q-42 51 -105 79t-140 28q-70 0 -129 -23.5t-101.5 -66t-66 -101t-23.5 -128.5t23.5 -128.5t66 -101t101.5 -66t129 -23.5q77 0 140 28.5t106 79.5z" />
    <glyph glyph-name="ccircumflex" unicode="&#x109;" horiz-adv-x="1276" 
d="M719 1229q-18 18 -30.5 50.5t-20.5 69.5t-11.5 73.5t-3.5 61.5h-30q0 -25 -3.5 -61.5t-11.5 -73.5t-20.5 -69.5t-30.5 -50.5h-381l300 310h318l306 -310h-381zM1226 539q-7 -279 -152 -419t-435 -140q-298 0 -443.5 147.5t-145.5 441.5t145.5 442.5t443.5 148.5
q290 0 434.5 -140t152.5 -417h-401q-5 85 -48 121t-138 36q-52 0 -88.5 -10t-58.5 -32.5t-32 -58.5t-10 -88t10 -88.5t32 -59t58.5 -32.5t88.5 -10q95 0 138 36.5t48 121.5h401z" />
    <glyph glyph-name="Cdotaccent" unicode="&#x10a;" horiz-adv-x="1410" 
d="M573 1690q0 48 16.5 88.5t45.5 70t69.5 45.5t88.5 16t88.5 -16t69.5 -45.5t45.5 -70t16.5 -88.5t-16.5 -88.5t-45.5 -70t-69.5 -45.5t-88.5 -16t-88.5 16t-69.5 45.5t-45.5 70t-16.5 88.5zM1360 243q-97 -123 -242.5 -192t-327.5 -69q-157 0 -289.5 53t-228 148.5
t-149 227.5t-53.5 289q0 158 53.5 289.5t149 227t228 148.5t289.5 53q182 0 327.5 -69t242.5 -192l-325 -245q-42 51 -105 79t-140 28q-70 0 -129 -23.5t-101.5 -66t-66 -101t-23.5 -128.5t23.5 -128.5t66 -101t101.5 -66t129 -23.5q77 0 140 28.5t106 79.5z" />
    <glyph glyph-name="cdotaccent" unicode="&#x10b;" horiz-adv-x="1276" 
d="M418 1429q0 48 16.5 88.5t45.5 70t69.5 45.5t88.5 16t88.5 -16t69.5 -45.5t45.5 -70t16.5 -88.5t-16.5 -88.5t-45.5 -70t-69.5 -45.5t-88.5 -16t-88.5 16t-69.5 45.5t-45.5 70t-16.5 88.5zM1226 539q-7 -279 -152 -419t-435 -140q-298 0 -443.5 147.5t-145.5 441.5
t145.5 442.5t443.5 148.5q290 0 434.5 -140t152.5 -417h-401q-5 85 -48 121t-138 36q-52 0 -88.5 -10t-58.5 -32.5t-32 -58.5t-10 -88t10 -88.5t32 -59t58.5 -32.5t88.5 -10q95 0 138 36.5t48 121.5h401z" />
    <glyph glyph-name="Ccaron" unicode="&#x10c;" horiz-adv-x="1410" 
d="M1247 1800l-306 -310h-318l-300 310h381q18 -18 30.5 -50.5t20.5 -69.5t11.5 -73.5t3.5 -61.5h30q0 25 3.5 61.5t11.5 73.5t20.5 69.5t30.5 50.5h381zM1360 243q-97 -123 -242.5 -192t-327.5 -69q-157 0 -289.5 53t-228 148.5t-149 227.5t-53.5 289q0 158 53.5 289.5
t149 227t228 148.5t289.5 53q182 0 327.5 -69t242.5 -192l-325 -245q-42 51 -105 79t-140 28q-70 0 -129 -23.5t-101.5 -66t-66 -101t-23.5 -128.5t23.5 -128.5t66 -101t101.5 -66t129 -23.5q77 0 140 28.5t106 79.5z" />
    <glyph glyph-name="ccaron" unicode="&#x10d;" horiz-adv-x="1276" 
d="M1100 1539l-306 -310h-318l-300 310h381q18 -18 30.5 -50.5t20.5 -69.5t11.5 -73.5t3.5 -61.5h30q0 25 3.5 61.5t11.5 73.5t20.5 69.5t30.5 50.5h381zM1226 539q-7 -279 -152 -419t-435 -140q-298 0 -443.5 147.5t-145.5 441.5t145.5 442.5t443.5 148.5q290 0 434.5 -140
t152.5 -417h-401q-5 85 -48 121t-138 36q-52 0 -88.5 -10t-58.5 -32.5t-32 -58.5t-10 -88t10 -88.5t32 -59t58.5 -32.5t88.5 -10q95 0 138 36.5t48 121.5h401z" />
    <glyph glyph-name="Dcaron" unicode="&#x10e;" horiz-adv-x="1262" 
d="M944 1800l-306 -310h-318l-300 310h381q18 -18 30.5 -50.5t20.5 -69.5t11.5 -73.5t3.5 -61.5h30q0 25 3.5 61.5t11.5 73.5t20.5 69.5t30.5 50.5h381zM70 0v1400h440q153 0 282 -52t222.5 -145t145.5 -221.5t52 -281.5t-52 -281.5t-145.5 -221.5t-222.5 -145t-282 -52
h-440zM512 400q66 0 121 22.5t94.5 62t62 94.5t22.5 121t-22.5 121t-62 94.5t-94.5 62t-121 22.5h-42v-600h42z" />
    <glyph glyph-name="dcaron" unicode="&#x10f;" horiz-adv-x="1824" 
d="M834 1500h400v-1500h-400v94q-115 -115 -320 -115q-235 0 -349.5 148t-114.5 443q0 293 115 441t351 148q60 0 113 -8t98 -30t82.5 -60.5t65.5 -99.5l28 12l-69 166v361zM1314 904q72 0 124 17t76 59q-48 0 -88.5 16t-69.5 45.5t-45.5 70t-16.5 88.5t16.5 88.5t45.5 70
t69.5 45.5t88.5 16q35 0 74 -11t71.5 -40t53.5 -79.5t21 -128.5q0 -97 -33.5 -174.5t-91 -130t-134 -77t-161.5 -14.5v139zM641 758q-106 0 -162.5 -43t-56.5 -147q0 -53 14.5 -89.5t42 -58.5t68.5 -31.5t94 -9.5q54 0 91 10t59.5 32.5t32.5 58.5t10 88t-10 88.5t-32.5 59
t-59.5 32.5t-91 10z" />
    <glyph glyph-name="Dcroat" unicode="&#x110;" horiz-adv-x="1344" 
d="M152 0v506h-102v400h102v494h440q153 0 282 -52t222.5 -145t145.5 -221.5t52 -281.5t-52 -281.5t-145.5 -221.5t-222.5 -145t-282 -52h-440zM594 400q66 0 121 22.5t94.5 62t62 94.5t22.5 121t-22.5 121t-62 94.5t-94.5 62t-121 22.5h-42v-94h100v-400h-100v-106h42z" />
    <glyph glyph-name="dcroat" unicode="&#x111;" horiz-adv-x="1375" 
d="M834 1235h-103v165h103v100h400v-100h90v-165h-90v-1235h-400v94q-115 -115 -320 -115q-235 0 -349.5 148t-114.5 443q0 293 115 441t351 148q60 0 113 -8t98 -30t82.5 -60.5t65.5 -99.5l28 12l-69 166v96zM641 758q-106 0 -162.5 -43t-56.5 -147q0 -53 14.5 -89.5
t42 -58.5t68.5 -31.5t94 -9.5q54 0 91 10t59.5 32.5t32.5 58.5t10 88t-10 88.5t-32.5 59t-59.5 32.5t-91 10z" />
    <glyph glyph-name="Emacron" unicode="&#x112;" horiz-adv-x="1168" 
d="M280 1490v310h588v-310h-588zM70 0v1400h1028v-400h-628v-100h628v-400h-628v-100h628v-400h-1028z" />
    <glyph glyph-name="emacron" unicode="&#x113;" horiz-adv-x="1276" 
d="M344 1230v310h588v-310h-588zM471 464q20 -37 62 -50.5t111 -13.5h531l-108 -400h-404q-310 0 -461.5 145t-151.5 434t145.5 435t443.5 146q149 0 259 -35.5t183 -100.5t109 -157.5t36 -206.5q0 -104 -29 -196h-726zM852 655q0 56 -44.5 80.5t-150.5 24.5
q-91 0 -138.5 -21.5t-61.5 -83.5h395z" />
    <glyph glyph-name="Ebreve" unicode="&#x114;" horiz-adv-x="1168" 
d="M573 1481q-77 0 -131 24.5t-87.5 67t-49 101t-15.5 126.5h151q5 -33 35.5 -54t96.5 -21t98 21.5t36 53.5h151q0 -68 -15.5 -126.5t-49.5 -101t-88.5 -67t-131.5 -24.5zM70 0v1400h1028v-400h-628v-100h628v-400h-628v-100h628v-400h-1028z" />
    <glyph glyph-name="ebreve" unicode="&#x115;" horiz-adv-x="1276" 
d="M637 1221q-77 0 -131 24.5t-87.5 67t-49 101t-15.5 126.5h151q5 -33 35.5 -54t96.5 -21t98 21.5t36 53.5h151q0 -68 -15.5 -126.5t-49.5 -101t-88.5 -67t-131.5 -24.5zM471 464q20 -37 62 -50.5t111 -13.5h531l-108 -400h-404q-310 0 -461.5 145t-151.5 434t145.5 435
t443.5 146q149 0 259 -35.5t183 -100.5t109 -157.5t36 -206.5q0 -104 -29 -196h-726zM852 655q0 56 -44.5 80.5t-150.5 24.5q-91 0 -138.5 -21.5t-61.5 -83.5h395z" />
    <glyph glyph-name="Edotaccent" unicode="&#x116;" horiz-adv-x="1168" 
d="M354 1690q0 48 16.5 88.5t45.5 70t69.5 45.5t88.5 16t88.5 -16t69.5 -45.5t45.5 -70t16.5 -88.5t-16.5 -88.5t-45.5 -70t-69.5 -45.5t-88.5 -16t-88.5 16t-69.5 45.5t-45.5 70t-16.5 88.5zM70 0v1400h1028v-400h-628v-100h628v-400h-628v-100h628v-400h-1028z" />
    <glyph glyph-name="edotaccent" unicode="&#x117;" horiz-adv-x="1276" 
d="M418 1430q0 48 16.5 88.5t45.5 70t69.5 45.5t88.5 16t88.5 -16t69.5 -45.5t45.5 -70t16.5 -88.5t-16.5 -88.5t-45.5 -70t-69.5 -45.5t-88.5 -16t-88.5 16t-69.5 45.5t-45.5 70t-16.5 88.5zM471 464q20 -37 62 -50.5t111 -13.5h531l-108 -400h-404q-310 0 -461.5 145
t-151.5 434t145.5 435t443.5 146q149 0 259 -35.5t183 -100.5t109 -157.5t36 -206.5q0 -104 -29 -196h-726zM852 655q0 56 -44.5 80.5t-150.5 24.5q-91 0 -138.5 -21.5t-61.5 -83.5h395z" />
    <glyph glyph-name="Eogonek" unicode="&#x118;" horiz-adv-x="1168" 
d="M1009 0l-37 -41q-29 -32 -44 -55.5t-15 -49.5q0 -19 8 -38.5t21 -36.5t30 -29.5t36 -15.5v-150q-83 0 -144.5 18t-102 48t-60 69.5t-19.5 83.5q0 51 26.5 94t81.5 73l55 30h-775v1400h1028v-400h-628v-100h628v-400h-628v-100h628v-400h-89z" />
    <glyph glyph-name="eogonek" unicode="&#x119;" horiz-adv-x="1276" 
d="M471 464q20 -37 62 -50.5t111 -13.5h531l-108 -400h-130l-37 -41q-29 -32 -44 -55.5t-15 -49.5q0 -19 8 -38.5t21 -36.5t30 -29.5t36 -15.5v-150q-83 0 -144.5 18t-102 48t-60 69.5t-19.5 83.5q0 51 26.5 94t81.5 73l55 30h-110q-310 0 -461.5 145t-151.5 434t145.5 435
t443.5 146q149 0 259 -35.5t183 -100.5t109 -157.5t36 -206.5q0 -104 -29 -196h-726zM852 655q0 56 -44.5 80.5t-150.5 24.5q-91 0 -138.5 -21.5t-61.5 -83.5h395z" />
    <glyph glyph-name="Ecaron" unicode="&#x11a;" horiz-adv-x="1168" 
d="M1036 1800l-306 -310h-318l-300 310h381q18 -18 30.5 -50.5t20.5 -69.5t11.5 -73.5t3.5 -61.5h30q0 25 3.5 61.5t11.5 73.5t20.5 69.5t30.5 50.5h381zM70 0v1400h1028v-400h-628v-100h628v-400h-628v-100h628v-400h-1028z" />
    <glyph glyph-name="ecaron" unicode="&#x11b;" horiz-adv-x="1276" 
d="M1100 1540l-306 -310h-318l-300 310h381q18 -18 30.5 -50.5t20.5 -69.5t11.5 -73.5t3.5 -61.5h30q0 25 3.5 61.5t11.5 73.5t20.5 69.5t30.5 50.5h381zM471 464q20 -37 62 -50.5t111 -13.5h531l-108 -400h-404q-310 0 -461.5 145t-151.5 434t145.5 435t443.5 146
q149 0 259 -35.5t183 -100.5t109 -157.5t36 -206.5q0 -104 -29 -196h-726zM852 655q0 56 -44.5 80.5t-150.5 24.5q-91 0 -138.5 -21.5t-61.5 -83.5h395z" />
    <glyph glyph-name="Gcircumflex" unicode="&#x11c;" horiz-adv-x="1558" 
d="M860 1490q-18 18 -30.5 50.5t-20.5 69.5t-11.5 73.5t-3.5 61.5h-30q0 -25 -3.5 -61.5t-11.5 -73.5t-20.5 -69.5t-30.5 -50.5h-381l300 310h318l306 -310h-381zM1086 760q-9 58 -35.5 105.5t-68 81.5t-95.5 53t-117 19q-70 0 -129 -23.5t-101.5 -66.5t-66 -104t-23.5 -136
q0 -67 20 -127t62.5 -105t108.5 -71.5t158 -26.5q85 0 159.5 22.5t139.5 64.5l-10 28l-304 -77v321h704v-718h-400l164 250l-25 17l-29 -35q-40 -49 -86 -93t-103 -77t-127.5 -52.5t-161.5 -19.5q-145 0 -268 51.5t-212.5 145.5t-139.5 227t-50 295q0 156 53.5 286t149 224
t228 146.5t289.5 52.5q135 0 252 -39t208.5 -110t154 -170.5t88.5 -221.5z" />
    <glyph glyph-name="gcircumflex" unicode="&#x11d;" horiz-adv-x="1321" 
d="M722 1230q-18 18 -30.5 50.5t-20.5 69.5t-11.5 73.5t-3.5 61.5h-30q0 -25 -3.5 -61.5t-11.5 -73.5t-20.5 -69.5t-30.5 -50.5h-381l300 310h318l306 -310h-381zM920 166l-28 12q-29 -61 -67 -99.5t-84.5 -60.5t-100.5 -30t-115 -8q-241 0 -358 147.5t-117 441.5t117 442.5
t356 148.5q210 0 328 -115v95h400v-930q0 -173 -53.5 -307.5t-150.5 -226t-230.5 -139t-294.5 -47.5h-103l-168 395q146 0 254 9t186 34.5t129 71.5t81 120zM650 381q56 0 94.5 10t62 32.5t34 59t10.5 88.5t-10.5 88t-34 58.5t-62 32.5t-94.5 10q-55 0 -93.5 -10.5t-62 -33
t-34 -58.5t-10.5 -87q0 -52 10.5 -88t34 -58.5t62 -33t93.5 -10.5z" />
    <glyph glyph-name="Gbreve" unicode="&#x11e;" horiz-adv-x="1558" 
d="M778 1481q-77 0 -131 24.5t-87.5 67t-49 101t-15.5 126.5h151q5 -33 35.5 -54t96.5 -21t98 21.5t36 53.5h151q0 -68 -15.5 -126.5t-49.5 -101t-88.5 -67t-131.5 -24.5zM1086 760q-9 58 -35.5 105.5t-68 81.5t-95.5 53t-117 19q-70 0 -129 -23.5t-101.5 -66.5t-66 -104
t-23.5 -136q0 -67 20 -127t62.5 -105t108.5 -71.5t158 -26.5q85 0 159.5 22.5t139.5 64.5l-10 28l-304 -77v321h704v-718h-400l164 250l-25 17l-29 -35q-40 -49 -86 -93t-103 -77t-127.5 -52.5t-161.5 -19.5q-145 0 -268 51.5t-212.5 145.5t-139.5 227t-50 295
q0 156 53.5 286t149 224t228 146.5t289.5 52.5q135 0 252 -39t208.5 -110t154 -170.5t88.5 -221.5z" />
    <glyph glyph-name="gbreve" unicode="&#x11f;" horiz-adv-x="1321" 
d="M640 1221q-77 0 -131 24.5t-87.5 67t-49 101t-15.5 126.5h151q5 -33 35.5 -54t96.5 -21t98 21.5t36 53.5h151q0 -68 -15.5 -126.5t-49.5 -101t-88.5 -67t-131.5 -24.5zM920 166l-28 12q-29 -61 -67 -99.5t-84.5 -60.5t-100.5 -30t-115 -8q-241 0 -358 147.5t-117 441.5
t117 442.5t356 148.5q210 0 328 -115v95h400v-930q0 -173 -53.5 -307.5t-150.5 -226t-230.5 -139t-294.5 -47.5h-103l-168 395q146 0 254 9t186 34.5t129 71.5t81 120zM650 381q56 0 94.5 10t62 32.5t34 59t10.5 88.5t-10.5 88t-34 58.5t-62 32.5t-94.5 10
q-55 0 -93.5 -10.5t-62 -33t-34 -58.5t-10.5 -87q0 -52 10.5 -88t34 -58.5t62 -33t93.5 -10.5z" />
    <glyph glyph-name="Gdotaccent" unicode="&#x120;" horiz-adv-x="1558" 
d="M559 1690q0 48 16.5 88.5t45.5 70t69.5 45.5t88.5 16t88.5 -16t69.5 -45.5t45.5 -70t16.5 -88.5t-16.5 -88.5t-45.5 -70t-69.5 -45.5t-88.5 -16t-88.5 16t-69.5 45.5t-45.5 70t-16.5 88.5zM1086 760q-9 58 -35.5 105.5t-68 81.5t-95.5 53t-117 19q-70 0 -129 -23.5
t-101.5 -66.5t-66 -104t-23.5 -136q0 -67 20 -127t62.5 -105t108.5 -71.5t158 -26.5q85 0 159.5 22.5t139.5 64.5l-10 28l-304 -77v321h704v-718h-400l164 250l-25 17l-29 -35q-40 -49 -86 -93t-103 -77t-127.5 -52.5t-161.5 -19.5q-145 0 -268 51.5t-212.5 145.5
t-139.5 227t-50 295q0 156 53.5 286t149 224t228 146.5t289.5 52.5q135 0 252 -39t208.5 -110t154 -170.5t88.5 -221.5z" />
    <glyph glyph-name="gdotaccent" unicode="&#x121;" horiz-adv-x="1321" 
d="M421 1430q0 48 16.5 88.5t45.5 70t69.5 45.5t88.5 16t88.5 -16t69.5 -45.5t45.5 -70t16.5 -88.5t-16.5 -88.5t-45.5 -70t-69.5 -45.5t-88.5 -16t-88.5 16t-69.5 45.5t-45.5 70t-16.5 88.5zM920 166l-28 12q-29 -61 -67 -99.5t-84.5 -60.5t-100.5 -30t-115 -8
q-241 0 -358 147.5t-117 441.5t117 442.5t356 148.5q210 0 328 -115v95h400v-930q0 -173 -53.5 -307.5t-150.5 -226t-230.5 -139t-294.5 -47.5h-103l-168 395q146 0 254 9t186 34.5t129 71.5t81 120zM650 381q56 0 94.5 10t62 32.5t34 59t10.5 88.5t-10.5 88t-34 58.5
t-62 32.5t-94.5 10q-55 0 -93.5 -10.5t-62 -33t-34 -58.5t-10.5 -87q0 -52 10.5 -88t34 -58.5t62 -33t93.5 -10.5z" />
    <glyph glyph-name="uni0122" unicode="&#x122;" horiz-adv-x="1558" 
d="M1086 760q-9 58 -35.5 105.5t-68 81.5t-95.5 53t-117 19q-70 0 -129 -23.5t-101.5 -66.5t-66 -104t-23.5 -136q0 -67 20 -127t62.5 -105t108.5 -71.5t158 -26.5q85 0 159.5 22.5t139.5 64.5l-10 28l-304 -77v321h704v-718h-400l164 250l-25 17l-29 -35q-40 -49 -86 -93
t-103 -77t-127.5 -52.5t-161.5 -19.5q-145 0 -268 51.5t-212.5 145.5t-139.5 227t-50 295q0 156 53.5 286t149 224t228 146.5t289.5 52.5q135 0 252 -39t208.5 -110t154 -170.5t88.5 -221.5zM579 -390q72 0 124 11t76 37q-48 0 -88.5 8.5t-69.5 25.5t-45.5 44t-16.5 63
t16.5 63t45 44t67 25.5t83.5 8.5q38 0 78.5 -7t73.5 -25.5t54.5 -51t21.5 -82.5q0 -62 -33.5 -111.5t-91 -83t-134 -49t-161.5 -9.5v89z" />
    <glyph glyph-name="uni0123" unicode="&#x123;" horiz-adv-x="1321" 
d="M848 1552q-72 0 -124 -11.5t-76 -37.5q48 0 88.5 -8.5t69.5 -25.5t45.5 -44t16.5 -63t-16 -63t-44.5 -44t-67.5 -25.5t-84 -8.5q-38 0 -78.5 7t-73.5 25.5t-54.5 51t-21.5 82.5q0 62 33.5 112t91 83.5t134 48.5t161.5 9v-88zM920 166l-28 12q-29 -61 -67 -99.5
t-84.5 -60.5t-100.5 -30t-115 -8q-241 0 -358 147.5t-117 441.5t117 442.5t356 148.5q210 0 328 -115v95h400v-930q0 -173 -53.5 -307.5t-150.5 -226t-230.5 -139t-294.5 -47.5h-103l-168 395q146 0 254 9t186 34.5t129 71.5t81 120zM650 381q56 0 94.5 10t62 32.5t34 59
t10.5 88.5t-10.5 88t-34 58.5t-62 32.5t-94.5 10q-55 0 -93.5 -10.5t-62 -33t-34 -58.5t-10.5 -87q0 -52 10.5 -88t34 -58.5t62 -33t93.5 -10.5z" />
    <glyph glyph-name="Hcircumflex" unicode="&#x124;" horiz-adv-x="1353" 
d="M758 1490q-18 18 -30.5 50.5t-20.5 69.5t-11.5 73.5t-3.5 61.5h-30q0 -25 -3.5 -61.5t-11.5 -73.5t-20.5 -69.5t-30.5 -50.5h-381l300 310h318l306 -310h-381zM70 0v1400h400v-526h413v526h400v-1400h-400v474h-413v-474h-400z" />
    <glyph glyph-name="hcircumflex" unicode="&#x125;" horiz-adv-x="1271" 
d="M356 1590q-18 18 -30.5 50.5t-20.5 69.5t-11.5 73.5t-3.5 61.5h-30q0 -25 -3.5 -61.5t-11.5 -73.5t-20.5 -69.5t-30.5 -50.5h-381l300 310h318l306 -310h-381zM1221 0h-400v568q0 104 -43 147t-135 43t-132.5 -43t-40.5 -147v-568h-400v1500h400v-361l-69 -166l28 -12
q27 61 63 99.5t79 60.5t94 30t108 8q227 0 337.5 -148t110.5 -441v-570z" />
    <glyph glyph-name="Hbar" unicode="&#x126;" horiz-adv-x="1353" 
d="M70 0v974h-70v310h70v116h400v-116h413v116h400v-116h70v-310h-70v-974h-400v474h-413v-474h-400zM883 874v100h-413v-100h413z" />
    <glyph glyph-name="hbar" unicode="&#x127;" horiz-adv-x="1349" 
d="M1299 0h-400v568q0 104 -43 147t-135 43t-132.5 -43t-40.5 -147v-568h-400v1235h-98v165h98v100h400v-100h95v-165h-95v-96l-69 -166l28 -12q27 61 63 99.5t79 60.5t94 30t108 8q227 0 337.5 -148t110.5 -441v-570z" />
    <glyph glyph-name="Itilde" unicode="&#x128;" horiz-adv-x="500" 
d="M113 1557q-42 0 -73.5 -19t-48.5 -48h-81q1 79 19.5 137.5t49 96.5t72 57t88.5 19q39 0 69 -11t58 -24t56 -24t62 -11q43 0 76 19.5t52 47.5h78q0 -77 -18 -135t-49 -97t-72 -58.5t-87 -19.5q-36 0 -67.5 11t-61 24t-59 24t-63.5 11zM50 0v1400h400v-1400h-400z" />
    <glyph glyph-name="itilde" unicode="&#x129;" 
d="M133 1297q-42 0 -73.5 -19t-48.5 -48h-81q1 79 19.5 137.5t49 96.5t72 57t88.5 19q39 0 69 -11t58 -24t56 -24t62 -11q43 0 76 19.5t52 47.5h78q0 -77 -18 -135t-49 -97t-72 -58.5t-87 -19.5q-36 0 -67.5 11t-61 24t-59 24t-63.5 11zM70 0v1140h400v-1140h-400z" />
    <glyph glyph-name="Imacron" unicode="&#x12a;" horiz-adv-x="500" 
d="M-44 1490v310h588v-310h-588zM50 0v1400h400v-1400h-400z" />
    <glyph glyph-name="imacron" unicode="&#x12b;" 
d="M-24 1230v310h588v-310h-588zM70 0v1140h400v-1140h-400z" />
    <glyph glyph-name="Iogonek" unicode="&#x12e;" 
d="M397 0l-37 -41q-29 -32 -44 -55.5t-15 -49.5q0 -19 8 -38.5t21 -36.5t30 -29.5t36 -15.5v-150q-83 0 -144.5 18t-102 48t-60 69.5t-19.5 83.5q0 51 26.5 94t81.5 73l55 30h-163v1400h400v-1400h-73z" />
    <glyph glyph-name="iogonek" unicode="&#x12f;" 
d="M50 1430q0 48 16.5 88.5t45.5 70t69.5 45.5t88.5 16t88.5 -16t69.5 -45.5t45.5 -70t16.5 -88.5t-16.5 -88.5t-45.5 -70t-69.5 -45.5t-88.5 -16t-88.5 16t-69.5 45.5t-45.5 70t-16.5 88.5zM433 0l-37 -41q-29 -32 -44 -55.5t-15 -49.5q0 -19 8 -38.5t21 -36.5t30 -29.5
t36 -15.5v-150q-83 0 -144.5 18t-102 48t-60 69.5t-19.5 83.5q0 51 26.5 94t81.5 73l54 30h-198v1140h400v-1140h-37z" />
    <glyph glyph-name="Idotaccent" unicode="&#x130;" horiz-adv-x="500" 
d="M30 1690q0 48 16.5 88.5t45.5 70t69.5 45.5t88.5 16t88.5 -16t69.5 -45.5t45.5 -70t16.5 -88.5t-16.5 -88.5t-45.5 -70t-69.5 -45.5t-88.5 -16t-88.5 16t-69.5 45.5t-45.5 70t-16.5 88.5zM50 0v1400h400v-1400h-400z" />
    <glyph glyph-name="dotlessi" unicode="&#x131;" 
d="M70 0v1140h400v-1140h-400z" />
    <glyph glyph-name="IJ" unicode="&#x132;" horiz-adv-x="1232" 
d="M70 0v1400h400v-1400h-400zM590 400h105q35 0 51 15t16 52v515h-172l40 418h532v-1065q0 -75 -25.5 -136.5t-72 -106t-110 -68.5t-140.5 -24h-224v400z" />
    <glyph glyph-name="ij" unicode="&#x133;" horiz-adv-x="1080" 
d="M50 1430q0 48 16.5 88.5t45.5 70t69.5 45.5t88.5 16t88.5 -16t69.5 -45.5t45.5 -70t16.5 -88.5t-16.5 -88.5t-45.5 -70t-69.5 -45.5t-88.5 -16t-88.5 16t-69.5 45.5t-45.5 70t-16.5 88.5zM590 1430q0 48 16.5 88.5t45.5 70t69.5 45.5t88.5 16t88.5 -16t69.5 -45.5
t45.5 -70t16.5 -88.5t-16.5 -88.5t-45.5 -70t-69.5 -45.5t-88.5 -16t-88.5 16t-69.5 45.5t-45.5 70t-16.5 88.5zM70 0v1140h400v-1140h-400zM484 -30q60 8 93 39t33 94v1037h400v-1088q0 -226 -114 -341t-330 -137z" />
    <glyph glyph-name="Jcircumflex" unicode="&#x134;" horiz-adv-x="692" 
d="M427 1490q-18 18 -30.5 50.5t-20.5 69.5t-11.5 73.5t-3.5 61.5h-30q0 -25 -3.5 -61.5t-11.5 -73.5t-20.5 -69.5t-30.5 -50.5h-381l300 310h318l306 -310h-381zM50 400h105q35 0 51 15t16 52v515h-172l40 418h532v-1065q0 -75 -25.5 -136.5t-72 -106t-110 -68.5
t-140.5 -24h-224v400z" />
    <glyph glyph-name="jcircumflex" unicode="&#x135;" 
d="M351 1230q-18 18 -30.5 50.5t-20.5 69.5t-11.5 73.5t-3.5 61.5h-30q0 -25 -3.5 -61.5t-11.5 -73.5t-20.5 -69.5t-30.5 -50.5h-381l300 310h318l306 -310h-381zM-56 -30q60 8 93 39t33 94v1037h400v-1088q0 -226 -114 -341t-330 -137z" />
    <glyph glyph-name="uni0136" unicode="&#x136;" horiz-adv-x="1468" 
d="M470 956q0 -94 -24.5 -177t-78.5 -163l-23 -34l25 -16l565 834h483l-474 -700l474 -700h-483l-128 189q-38 57 -40 124.5t40 130.5l22 33l-24 18l-334 -495h-400v1400h400v-444zM534 -390q72 0 124 11t76 37q-48 0 -88.5 8.5t-69.5 25.5t-45.5 44t-16.5 63t16.5 63t45 44
t67 25.5t83.5 8.5q38 0 78.5 -7t73.5 -25.5t54.5 -51t21.5 -82.5q0 -62 -33.5 -111.5t-91 -83t-134 -49t-161.5 -9.5v89z" />
    <glyph glyph-name="uni0137" unicode="&#x137;" horiz-adv-x="1307" 
d="M70 0v1501h400v-1501h-400zM662 555q134 0 227 -42t143 -127l225 -386h-460l-325 570l325 570h460l-225 -385q-49 -84 -143.5 -127t-226.5 -43h-7v-30h7zM454 -390q72 0 124 11t76 37q-48 0 -88.5 8.5t-69.5 25.5t-45.5 44t-16.5 63t16 63t44.5 44t67 25.5t83.5 8.5
q39 0 79.5 -7t73.5 -25.5t54.5 -51t21.5 -82.5q0 -62 -33.5 -111.5t-91 -83t-134 -49t-161.5 -9.5v89z" />
    <glyph glyph-name="kgreenlandic" unicode="&#x138;" horiz-adv-x="1307" 
d="M70 0v1140h400v-1140h-400zM797 0l-325 570l325 570h460l-324 -570l324 -570h-460z" />
    <glyph glyph-name="Lacute" unicode="&#x139;" horiz-adv-x="1148" 
d="M200 1800h381l-270 -310h-262zM70 0v1400h400v-1000h628v-400h-1028z" />
    <glyph glyph-name="lacute" unicode="&#x13a;" 
d="M172 1900h381l-270 -310h-262zM70 0v1500h400v-1500h-400z" />
    <glyph glyph-name="uni013B" unicode="&#x13b;" horiz-adv-x="1148" 
d="M70 0v1400h400v-1000h628v-400h-1028zM374 -390q72 0 124 11t76 37q-48 0 -88.5 8.5t-69.5 25.5t-45.5 44t-16.5 63t16.5 63t45 44t67 25.5t83.5 8.5q38 0 78.5 -7t73.5 -25.5t54.5 -51t21.5 -82.5q0 -62 -33.5 -111.5t-91 -83t-134 -49t-161.5 -9.5v89z" />
    <glyph glyph-name="uni013C" unicode="&#x13c;" 
d="M70 0v1500h400v-1500h-400zM70 -390q72 0 124 11t76 37q-48 0 -88.5 8.5t-69.5 25.5t-45.5 44t-16.5 63t16.5 63t45 44t67 25.5t83.5 8.5q38 0 78.5 -7t73.5 -25.5t54.5 -51t21.5 -82.5q0 -62 -33.5 -111.5t-91 -83t-134 -49t-161.5 -9.5v89z" />
    <glyph glyph-name="Lcaron" unicode="&#x13d;" horiz-adv-x="1148" 
d="M639 903q72 0 124 17t76 59q-48 0 -88.5 16t-69.5 45.5t-45.5 70t-16.5 88.5t16.5 88.5t45.5 70t69.5 45.5t88.5 16q35 0 74 -11t71.5 -40t53.5 -79.5t21 -128.5q0 -97 -33.5 -174.5t-91 -130t-134 -77t-161.5 -14.5v139zM70 0v1400h400v-1000h628v-400h-1028z" />
    <glyph glyph-name="lcaron" unicode="&#x13e;" horiz-adv-x="1060" 
d="M70 0v1500h400v-1500h-400zM590 904q72 0 124 17t76 59q-48 0 -88.5 16t-69.5 45.5t-45.5 70t-16.5 88.5t16.5 88.5t45.5 70t69.5 45.5t88.5 16q35 0 74 -11t71.5 -40t53.5 -79.5t21 -128.5q0 -97 -33.5 -174.5t-91 -130t-134 -77t-161.5 -14.5v139z" />
    <glyph glyph-name="Ldot" unicode="&#x13f;" horiz-adv-x="1148" 
d="M70 0v1400h400v-1000h628v-400h-1028zM577 839q0 44 16 82t44 66t67 44t84 16t83 -16t66 -44t44 -66t16 -82q0 -45 -16 -84t-44 -67.5t-66 -44.5t-83 -16t-84 16t-67 44.5t-44 67.5t-16 84z" />
    <glyph glyph-name="ldot" unicode="&#x140;" horiz-adv-x="1060" 
d="M70 0v1500h400v-1500h-400zM530 718q0 44 16 82t44 66t67 44t84 16t83 -16t66 -44t44 -66t16 -82q0 -45 -16 -84t-44 -67.5t-66 -44.5t-83 -16t-84 16t-67 44.5t-44 67.5t-16 84z" />
    <glyph glyph-name="Lslash" unicode="&#x141;" horiz-adv-x="1234" 
d="M156 0v431l-105 -39v400l105 39v569h400v-423l110 40v-400l-110 -40v-177h628v-400h-1028z" />
    <glyph glyph-name="lslash" unicode="&#x142;" horiz-adv-x="716" 
d="M158 0v432l-108 -40v400l108 40v668h400v-522l108 39v-400l-108 -39v-578h-400z" />
    <glyph glyph-name="Nacute" unicode="&#x143;" horiz-adv-x="1354" 
d="M562 1800h381l-270 -310h-262zM884 1400h400v-1400h-440l-473 875l-27 -15l14 -26q25 -46 45.5 -102t35.5 -115t23 -118t8 -111v-388h-400v1400h440l473 -875l27 15l-14 26q-25 46 -45.5 102t-35.5 115t-23 118t-8 111v388z" />
    <glyph glyph-name="nacute" unicode="&#x144;" horiz-adv-x="1271" 
d="M566 1540h381l-270 -310h-262zM401 973l28 -12q27 61 63 99.5t79 60.5t94 30t108 8q227 0 337.5 -148t110.5 -441v-570h-400v568q0 104 -43 147t-135 43t-132.5 -43t-40.5 -147v-568h-400v1140h400z" />
    <glyph glyph-name="uni0145" unicode="&#x145;" horiz-adv-x="1354" 
d="M884 1400h400v-1400h-440l-473 875l-27 -15l14 -26q25 -46 45.5 -102t35.5 -115t23 -118t8 -111v-388h-400v1400h440l473 -875l27 15l-14 26q-25 46 -45.5 102t-35.5 115t-23 118t-8 111v388zM477 -390q72 0 124 11t76 37q-48 0 -88.5 8.5t-69.5 25.5t-45.5 44t-16.5 63
t16.5 63t45 44t67 25.5t83.5 8.5q38 0 78.5 -7t73.5 -25.5t54.5 -51t21.5 -82.5q0 -62 -33.5 -111.5t-91 -83t-134 -49t-161.5 -9.5v89z" />
    <glyph glyph-name="uni0146" unicode="&#x146;" horiz-adv-x="1271" 
d="M401 973l28 -12q27 61 63 99.5t79 60.5t94 30t108 8q227 0 337.5 -148t110.5 -441v-570h-400v568q0 104 -43 147t-135 43t-132.5 -43t-40.5 -147v-568h-400v1140h400zM436 -390q72 0 124 11t76 37q-48 0 -88.5 8.5t-69.5 25.5t-45.5 44t-16.5 63t16 63t44.5 44t67 25.5
t83.5 8.5q39 0 79.5 -7t73.5 -25.5t54.5 -51t21.5 -82.5q0 -62 -33.5 -111.5t-91 -83t-134 -49t-161.5 -9.5v89z" />
    <glyph glyph-name="Ncaron" unicode="&#x147;" horiz-adv-x="1354" 
d="M1139 1800l-306 -310h-318l-300 310h381q18 -18 30.5 -50.5t20.5 -69.5t11.5 -73.5t3.5 -61.5h30q0 25 3.5 61.5t11.5 73.5t20.5 69.5t30.5 50.5h381zM884 1400h400v-1400h-440l-473 875l-27 -15l14 -26q25 -46 45.5 -102t35.5 -115t23 -118t8 -111v-388h-400v1400h440
l473 -875l27 15l-14 26q-25 46 -45.5 102t-35.5 115t-23 118t-8 111v388z" />
    <glyph glyph-name="ncaron" unicode="&#x148;" horiz-adv-x="1271" 
d="M1126 1540l-306 -310h-318l-300 310h381q18 -18 30.5 -50.5t20.5 -69.5t11.5 -73.5t3.5 -61.5h30q0 25 3.5 61.5t11.5 73.5t20.5 69.5t30.5 50.5h381zM401 973l28 -12q27 61 63 99.5t79 60.5t94 30t108 8q227 0 337.5 -148t110.5 -441v-570h-400v568q0 104 -43 147
t-135 43t-132.5 -43t-40.5 -147v-568h-400v1140h400z" />
    <glyph glyph-name="napostrophe" unicode="&#x149;" horiz-adv-x="1737" 
d="M70 904q72 0 124 17t76 59q-48 0 -88.5 16t-69.5 45.5t-45.5 70t-16.5 88.5t16.5 88.5t45.5 70t69.5 45.5t88.5 16q35 0 74 -11t71.5 -40t53.5 -79.5t21 -128.5q0 -97 -33.5 -174.5t-91 -130t-134 -77t-161.5 -14.5v139zM867 973l28 -12q27 61 63 99.5t79 60.5t94 30
t108 8q227 0 337.5 -148t110.5 -441v-570h-400v568q0 104 -43 147t-135 43t-132.5 -43t-40.5 -147v-568h-400v1140h400z" />
    <glyph glyph-name="Omacron" unicode="&#x14c;" horiz-adv-x="1539" 
d="M476 1490v310h588v-310h-588zM770 1418q158 0 290 -53t227 -148.5t148.5 -227t53.5 -289.5q0 -157 -53.5 -289t-148.5 -227.5t-227 -148.5t-290 -53q-157 0 -289.5 53t-228 148.5t-149 227.5t-53.5 289q0 158 53.5 289.5t149 227t228 148.5t289.5 53zM770 1019
q-70 0 -129 -23.5t-101.5 -66t-66 -101t-23.5 -128.5t23.5 -128.5t66 -101t101.5 -66t129 -23.5t128.5 23.5t101 66t66 101t23.5 128.5t-23.5 128.5t-66 101t-101 66t-128.5 23.5z" />
    <glyph glyph-name="omacron" unicode="&#x14d;" horiz-adv-x="1306" 
d="M360 1230v310h588v-310h-588zM654 -20q-304 0 -454 147.5t-150 441.5t150 442.5t454 148.5q305 0 453.5 -148.5t148.5 -442.5t-148.5 -441.5t-453.5 -147.5zM654 381q56 0 94.5 10.5t62.5 33t34.5 58.5t10.5 88q0 51 -10.5 87t-34.5 58.5t-62.5 33t-94.5 10.5
q-57 0 -96 -10t-63 -32.5t-34.5 -58.5t-10.5 -88t10.5 -88.5t34.5 -59t63 -32.5t96 -10z" />
    <glyph glyph-name="Obreve" unicode="&#x14e;" horiz-adv-x="1539" 
d="M769 1481q-77 0 -131 24.5t-87.5 67t-49 101t-15.5 126.5h151q5 -33 35.5 -54t96.5 -21t98 21.5t36 53.5h151q0 -68 -15.5 -126.5t-49.5 -101t-88.5 -67t-131.5 -24.5zM770 1418q158 0 290 -53t227 -148.5t148.5 -227t53.5 -289.5q0 -157 -53.5 -289t-148.5 -227.5
t-227 -148.5t-290 -53q-157 0 -289.5 53t-228 148.5t-149 227.5t-53.5 289q0 158 53.5 289.5t149 227t228 148.5t289.5 53zM770 1019q-70 0 -129 -23.5t-101.5 -66t-66 -101t-23.5 -128.5t23.5 -128.5t66 -101t101.5 -66t129 -23.5t128.5 23.5t101 66t66 101t23.5 128.5
t-23.5 128.5t-66 101t-101 66t-128.5 23.5z" />
    <glyph glyph-name="obreve" unicode="&#x14f;" horiz-adv-x="1306" 
d="M653 1221q-77 0 -131 24.5t-87.5 67t-49 101t-15.5 126.5h151q5 -33 35.5 -54t96.5 -21t98 21.5t36 53.5h151q0 -68 -15.5 -126.5t-49.5 -101t-88.5 -67t-131.5 -24.5zM654 -20q-304 0 -454 147.5t-150 441.5t150 442.5t454 148.5q305 0 453.5 -148.5t148.5 -442.5
t-148.5 -441.5t-453.5 -147.5zM654 381q56 0 94.5 10.5t62.5 33t34.5 58.5t10.5 88q0 51 -10.5 87t-34.5 58.5t-62.5 33t-94.5 10.5q-57 0 -96 -10t-63 -32.5t-34.5 -58.5t-10.5 -88t10.5 -88.5t34.5 -59t63 -32.5t96 -10z" />
    <glyph glyph-name="Ohungarumlaut" unicode="&#x150;" horiz-adv-x="1539" 
d="M537 1800h341l-270 -310h-222zM933 1800h341l-270 -310h-222zM770 1418q158 0 290 -53t227 -148.5t148.5 -227t53.5 -289.5q0 -157 -53.5 -289t-148.5 -227.5t-227 -148.5t-290 -53q-157 0 -289.5 53t-228 148.5t-149 227.5t-53.5 289q0 158 53.5 289.5t149 227
t228 148.5t289.5 53zM770 1019q-70 0 -129 -23.5t-101.5 -66t-66 -101t-23.5 -128.5t23.5 -128.5t66 -101t101.5 -66t129 -23.5t128.5 23.5t101 66t66 101t23.5 128.5t-23.5 128.5t-66 101t-101 66t-128.5 23.5z" />
    <glyph glyph-name="ohungarumlaut" unicode="&#x151;" horiz-adv-x="1306" 
d="M395 1540h341l-270 -310h-222zM791 1540h341l-270 -310h-222zM654 -20q-304 0 -454 147.5t-150 441.5t150 442.5t454 148.5q305 0 453.5 -148.5t148.5 -442.5t-148.5 -441.5t-453.5 -147.5zM654 381q56 0 94.5 10.5t62.5 33t34.5 58.5t10.5 88q0 51 -10.5 87t-34.5 58.5
t-62.5 33t-94.5 10.5q-57 0 -96 -10t-63 -32.5t-34.5 -58.5t-10.5 -88t10.5 -88.5t34.5 -59t63 -32.5t96 -10z" />
    <glyph glyph-name="OE" unicode="&#x152;" horiz-adv-x="2168" 
d="M740 1418q99 0 186.5 -22.5t162.5 -65.5v70h1028v-400h-628v-100h628v-400h-628v-100h628v-400h-1028v70q-75 -43 -162.5 -65.5t-186.5 -22.5q-151 0 -277.5 53t-218 148.5t-143 227.5t-51.5 289q0 158 51.5 289.5t143 227t218 148.5t277.5 53zM770 1019
q-70 0 -129 -23.5t-101.5 -66t-66 -101t-23.5 -128.5t23.5 -128.5t66 -101t101.5 -66t129 -23.5t128.5 23.5t101 66t66 101t23.5 128.5t-23.5 128.5t-66 101t-101 66t-128.5 23.5z" />
    <glyph glyph-name="oe" unicode="&#x153;" horiz-adv-x="2582" 
d="M654 -20q-304 0 -454 147.5t-150 441.5t150 442.5t454 148.5q254 0 400 -104q72 52 169.5 78t224.5 26q149 0 259 -35.5t183 -100.5t109 -157.5t36 -206.5q0 -104 -29 -196h-726q20 -37 61.5 -50.5t111.5 -13.5h531l-108 -400h-404q-254 0 -400 97q-148 -117 -418 -117z
M654 381q56 0 94.5 10.5t62.5 33t34.5 58.5t10.5 88q0 51 -10.5 87t-34.5 58.5t-62.5 33t-94.5 10.5q-57 0 -96 -10t-63 -32.5t-34.5 -58.5t-10.5 -88t10.5 -88.5t34.5 -59t63 -32.5t96 -10zM1661 655q0 28 -10.5 48t-34 32.5t-61 18.5t-90.5 6q-91 0 -138.5 -21.5
t-61.5 -83.5h396z" />
    <glyph glyph-name="Racute" unicode="&#x154;" horiz-adv-x="1347" 
d="M559 1800h381l-270 -310h-262zM470 448v-448h-400v1400h676q123 0 219 -28.5t163 -84.5t102 -138.5t35 -191.5q0 -205 -129 -317t-390 -112v-30h327l224 -498h-440l-168 378q-17 36 -47 53t-68 17h-104zM791 830q18 0 31.5 7.5t23 19.5t14.5 27t5 31t-5 31.5t-14.5 27.5
t-23 19t-31.5 7h-321v-170h321z" />
    <glyph glyph-name="racute" unicode="&#x155;" horiz-adv-x="979" 
d="M402 1540h381l-270 -310h-262zM700 748q-109 0 -169.5 -62t-60.5 -176v-510h-400v1140h400l-69 -167l28 -12q32 61 73 99.5t96.5 60.5t129 30t170.5 8l31 -411h-229z" />
    <glyph glyph-name="uni0156" unicode="&#x156;" horiz-adv-x="1347" 
d="M470 448v-448h-400v1400h676q123 0 219 -28.5t163 -84.5t102 -138.5t35 -191.5q0 -205 -129 -317t-390 -112v-30h327l224 -498h-440l-168 378q-17 36 -47 53t-68 17h-104zM791 830q18 0 31.5 7.5t23 19.5t14.5 27t5 31t-5 31.5t-14.5 27.5t-23 19t-31.5 7h-321v-170h321z
M474 -390q72 0 124 11t76 37q-48 0 -88.5 8.5t-69.5 25.5t-45.5 44t-16.5 63t16 63t44.5 44t67 25.5t83.5 8.5q39 0 79.5 -7t73.5 -25.5t54.5 -51t21.5 -82.5q0 -62 -33.5 -111.5t-91 -83t-134 -49t-161.5 -9.5v89z" />
    <glyph glyph-name="uni0157" unicode="&#x157;" horiz-adv-x="979" 
d="M700 748q-109 0 -169.5 -62t-60.5 -176v-510h-400v1140h400l-69 -167l28 -12q32 61 73 99.5t96.5 60.5t129 30t170.5 8l31 -411h-229zM80 -390q72 0 124 11t76 37q-48 0 -88.5 8.5t-69.5 25.5t-45.5 44t-16.5 63t16 63t44.5 44t67 25.5t83.5 8.5q39 0 79.5 -7t73.5 -25.5
t54.5 -51t21.5 -82.5q0 -62 -33.5 -111.5t-91 -83t-134 -49t-161.5 -9.5v89z" />
    <glyph glyph-name="Rcaron" unicode="&#x158;" horiz-adv-x="1347" 
d="M1066 1800l-306 -310h-318l-300 310h381q18 -18 30.5 -50.5t20.5 -69.5t11.5 -73.5t3.5 -61.5h30q0 25 3.5 61.5t11.5 73.5t20.5 69.5t30.5 50.5h381zM470 448v-448h-400v1400h676q123 0 219 -28.5t163 -84.5t102 -138.5t35 -191.5q0 -205 -129 -317t-390 -112v-30h327
l224 -498h-440l-168 378q-17 36 -47 53t-68 17h-104zM791 830q18 0 31.5 7.5t23 19.5t14.5 27t5 31t-5 31.5t-14.5 27.5t-23 19t-31.5 7h-321v-170h321z" />
    <glyph glyph-name="rcaron" unicode="&#x159;" horiz-adv-x="979" 
d="M962 1540l-306 -310h-318l-300 310h381q18 -18 30.5 -50.5t20.5 -69.5t11.5 -73.5t3.5 -61.5h30q0 25 3.5 61.5t11.5 73.5t20.5 69.5t30.5 50.5h381zM700 748q-109 0 -169.5 -62t-60.5 -176v-510h-400v1140h400l-69 -167l28 -12q32 61 73 99.5t96.5 60.5t129 30t170.5 8
l31 -411h-229z" />
    <glyph glyph-name="Sacute" unicode="&#x15a;" horiz-adv-x="1245" 
d="M548 1800h381l-270 -310h-262zM1195 427q0 -106 -34 -189t-102 -140.5t-170.5 -88t-239.5 -30.5q-72 0 -149 8t-152 20.5t-144 28t-126 31.5v440q62 -22 136 -45t150.5 -41t151 -29.5t136.5 -11.5q72 0 107.5 14.5t35.5 31.5q0 12 -16.5 22t-40.5 18t-50.5 13.5
t-46.5 9.5q-177 32 -291.5 79.5t-181 108.5t-92.5 135.5t-26 159.5q0 106 34 189t102.5 140.5t171 88t239.5 30.5q72 0 148.5 -8t151.5 -20.5t144 -28t126 -31.5v-440q-61 23 -135.5 45.5t-151 40.5t-150.5 29.5t-136 11.5q-73 0 -108.5 -14.5t-35.5 -31.5q0 -12 16.5 -22
t40.5 -18t50.5 -13.5t47.5 -9.5q177 -32 291.5 -79.5t180.5 -108.5t92 -135t26 -160z" />
    <glyph glyph-name="sacute" unicode="&#x15b;" horiz-adv-x="1085" 
d="M468 1540h381l-270 -310h-262zM1035 348q0 -89 -30 -157.5t-93.5 -115.5t-162.5 -71.5t-237 -24.5q-40 0 -96 2.5t-116.5 8.5t-120 16t-106.5 26v417q44 -37 102.5 -63t121.5 -42t125.5 -23t114.5 -7q46 0 72 5.5t26 17.5q0 7 -16.5 12.5t-41.5 11t-55.5 10.5t-59.5 11
q-121 24 -200.5 63t-126.5 90t-66 113t-19 132q0 93 29.5 164t92.5 119t160.5 72.5t233.5 24.5q42 0 99.5 -3t118.5 -10t121 -19t107 -31v-417q-45 37 -103.5 63t-121.5 42t-125 23t-113 7q-48 0 -73.5 -5.5t-25.5 -14.5q0 -8 16 -14.5t41 -12t55.5 -10.5t58.5 -11
q121 -24 201 -62t127 -89t66.5 -113.5t19.5 -134.5z" />
    <glyph glyph-name="Scircumflex" unicode="&#x15c;" horiz-adv-x="1245" 
d="M704 1490q-18 18 -30.5 50.5t-20.5 69.5t-11.5 73.5t-3.5 61.5h-30q0 -25 -3.5 -61.5t-11.5 -73.5t-20.5 -69.5t-30.5 -50.5h-381l300 310h318l306 -310h-381zM1195 427q0 -106 -34 -189t-102 -140.5t-170.5 -88t-239.5 -30.5q-72 0 -149 8t-152 20.5t-144 28t-126 31.5
v440q62 -22 136 -45t150.5 -41t151 -29.5t136.5 -11.5q72 0 107.5 14.5t35.5 31.5q0 12 -16.5 22t-40.5 18t-50.5 13.5t-46.5 9.5q-177 32 -291.5 79.5t-181 108.5t-92.5 135.5t-26 159.5q0 106 34 189t102.5 140.5t171 88t239.5 30.5q72 0 148.5 -8t151.5 -20.5t144 -28
t126 -31.5v-440q-61 23 -135.5 45.5t-151 40.5t-150.5 29.5t-136 11.5q-73 0 -108.5 -14.5t-35.5 -31.5q0 -12 16.5 -22t40.5 -18t50.5 -13.5t47.5 -9.5q177 -32 291.5 -79.5t180.5 -108.5t92 -135t26 -160z" />
    <glyph glyph-name="scircumflex" unicode="&#x15d;" horiz-adv-x="1085" 
d="M647 1230q-18 18 -30.5 50.5t-20.5 69.5t-11.5 73.5t-3.5 61.5h-30q0 -25 -3.5 -61.5t-11.5 -73.5t-20.5 -69.5t-30.5 -50.5h-381l300 310h318l306 -310h-381zM1035 348q0 -89 -30 -157.5t-93.5 -115.5t-162.5 -71.5t-237 -24.5q-40 0 -96 2.5t-116.5 8.5t-120 16
t-106.5 26v417q44 -37 102.5 -63t121.5 -42t125.5 -23t114.5 -7q46 0 72 5.5t26 17.5q0 7 -16.5 12.5t-41.5 11t-55.5 10.5t-59.5 11q-121 24 -200.5 63t-126.5 90t-66 113t-19 132q0 93 29.5 164t92.5 119t160.5 72.5t233.5 24.5q42 0 99.5 -3t118.5 -10t121 -19t107 -31
v-417q-45 37 -103.5 63t-121.5 42t-125 23t-113 7q-48 0 -73.5 -5.5t-25.5 -14.5q0 -8 16 -14.5t41 -12t55.5 -10.5t58.5 -11q121 -24 201 -62t127 -89t66.5 -113.5t19.5 -134.5z" />
    <glyph glyph-name="Scedilla" unicode="&#x15e;" horiz-adv-x="1245" 
d="M1195 427q0 -106 -34 -189t-102 -140.5t-171 -88t-240 -30.5v-8q68 0 115 -14.5t76 -39.5t42 -59.5t13 -73.5t-13 -75.5t-41.5 -64t-73.5 -44t-110 -16.5h-96v152h58q26 0 43.5 5.5t27.5 15.5t14 22.5t4 26.5q0 15 -4 28t-14.5 23.5t-27.5 16.5t-43 6h-58v102
q-64 4 -129 13t-127.5 20.5t-120 25t-105.5 26.5v440q62 -22 136 -45t150.5 -41t151 -29.5t136.5 -11.5q72 0 107.5 14.5t35.5 31.5q0 12 -16.5 22t-40.5 18t-50.5 13.5t-46.5 9.5q-177 32 -291.5 79.5t-181 108.5t-92.5 135.5t-26 159.5q0 106 34 189t102.5 140.5t171 88
t239.5 30.5q72 0 148.5 -8t151.5 -20.5t144 -28t126 -31.5v-440q-61 23 -135.5 45.5t-151 40.5t-150.5 29.5t-136 11.5q-73 0 -108.5 -14.5t-35.5 -31.5q0 -12 16.5 -22t40.5 -18t50.5 -13.5t47.5 -9.5q177 -32 291.5 -79.5t180.5 -108.5t92 -135t26 -160z" />
    <glyph glyph-name="scedilla" unicode="&#x15f;" horiz-adv-x="1085" 
d="M1035 348q0 -83 -26 -149t-81.5 -112.5t-141.5 -73t-205 -32.5v-10q68 0 115 -14.5t76 -39.5t42 -59.5t13 -73.5t-13 -75.5t-41.5 -64t-73.5 -44t-110 -16.5h-96v152h58q26 0 43.5 5.5t27.5 15.5t14 22.5t4 26.5q0 15 -4 28t-14.5 23.5t-27.5 16.5t-43 6h-58v99
q-42 0 -96 3t-111.5 9t-113 16t-99.5 25v417q44 -37 102.5 -63t121.5 -42t125.5 -23t114.5 -7q46 0 72 5.5t26 17.5q0 7 -16.5 12.5t-41.5 11t-55.5 10.5t-59.5 11q-121 24 -200.5 63t-126.5 90t-66 113t-19 132q0 93 29.5 164t92.5 119t160.5 72.5t233.5 24.5q42 0 99.5 -3
t118.5 -10t121 -19t107 -31v-417q-45 37 -103.5 63t-121.5 42t-125 23t-113 7q-48 0 -73.5 -5.5t-25.5 -14.5q0 -8 16 -14.5t41 -12t55.5 -10.5t58.5 -11q121 -24 201 -62t127 -89t66.5 -113.5t19.5 -134.5z" />
    <glyph glyph-name="Scaron" unicode="&#x160;" horiz-adv-x="1245" 
d="M1105 1800l-306 -310h-318l-300 310h381q18 -18 30.5 -50.5t20.5 -69.5t11.5 -73.5t3.5 -61.5h30q0 25 3.5 61.5t11.5 73.5t20.5 69.5t30.5 50.5h381zM1195 427q0 -106 -34 -189t-102 -140.5t-170.5 -88t-239.5 -30.5q-72 0 -149 8t-152 20.5t-144 28t-126 31.5v440
q62 -22 136 -45t150.5 -41t151 -29.5t136.5 -11.5q72 0 107.5 14.5t35.5 31.5q0 12 -16.5 22t-40.5 18t-50.5 13.5t-46.5 9.5q-177 32 -291.5 79.5t-181 108.5t-92.5 135.5t-26 159.5q0 106 34 189t102.5 140.5t171 88t239.5 30.5q72 0 148.5 -8t151.5 -20.5t144 -28
t126 -31.5v-440q-61 23 -135.5 45.5t-151 40.5t-150.5 29.5t-136 11.5q-73 0 -108.5 -14.5t-35.5 -31.5q0 -12 16.5 -22t40.5 -18t50.5 -13.5t47.5 -9.5q177 -32 291.5 -79.5t180.5 -108.5t92 -135t26 -160z" />
    <glyph glyph-name="scaron" unicode="&#x161;" horiz-adv-x="1085" 
d="M1028 1540l-306 -310h-318l-300 310h381q18 -18 30.5 -50.5t20.5 -69.5t11.5 -73.5t3.5 -61.5h30q0 25 3.5 61.5t11.5 73.5t20.5 69.5t30.5 50.5h381zM1035 348q0 -89 -30 -157.5t-93.5 -115.5t-162.5 -71.5t-237 -24.5q-40 0 -96 2.5t-116.5 8.5t-120 16t-106.5 26v417
q44 -37 102.5 -63t121.5 -42t125.5 -23t114.5 -7q46 0 72 5.5t26 17.5q0 7 -16.5 12.5t-41.5 11t-55.5 10.5t-59.5 11q-121 24 -200.5 63t-126.5 90t-66 113t-19 132q0 93 29.5 164t92.5 119t160.5 72.5t233.5 24.5q42 0 99.5 -3t118.5 -10t121 -19t107 -31v-417
q-45 37 -103.5 63t-121.5 42t-125 23t-113 7q-48 0 -73.5 -5.5t-25.5 -14.5q0 -8 16 -14.5t41 -12t55.5 -10.5t58.5 -11q121 -24 201 -62t127 -89t66.5 -113.5t19.5 -134.5z" />
    <glyph glyph-name="uni0162" unicode="&#x162;" horiz-adv-x="1246" 
d="M422 2v998h-372v400h1146v-400h-374v-998h-400zM423 -390q72 0 124 11t76 37q-48 0 -88.5 8.5t-69.5 25.5t-45.5 44t-16.5 63t16.5 63t45 44t67 25.5t83.5 8.5q38 0 78.5 -7t73.5 -25.5t54.5 -51t21.5 -82.5q0 -62 -33.5 -111.5t-91 -83t-134 -49t-161.5 -9.5v89z" />
    <glyph glyph-name="uni0163" unicode="&#x163;" horiz-adv-x="800" 
d="M704 0h-170q-199 0 -298.5 97.5t-99.5 274.5v368h-86v400l486 177v-177h167v-400h-167v-262q0 -45 23.5 -61.5t75.5 -16.5h115zM200 -390q72 0 124 11t76 37q-48 0 -88.5 8.5t-69.5 25.5t-45.5 44t-16.5 63t16.5 63t45 44t67 25.5t83.5 8.5q38 0 78.5 -7t73.5 -25.5
t54.5 -51t21.5 -82.5q0 -62 -33.5 -111.5t-91 -83t-134 -49t-161.5 -9.5v89z" />
    <glyph glyph-name="Tcaron" unicode="&#x164;" horiz-adv-x="1246" 
d="M1085 1800l-306 -310h-318l-300 310h381q18 -18 30.5 -50.5t20.5 -69.5t11.5 -73.5t3.5 -61.5h30q0 25 3.5 61.5t11.5 73.5t20.5 69.5t30.5 50.5h381zM422 2v998h-372v400h1146v-400h-374v-998h-400z" />
    <glyph glyph-name="tcaron" unicode="&#x165;" horiz-adv-x="1320" 
d="M780 904q72 0 124 17t76 59q-48 0 -88.5 16t-69.5 45.5t-45.5 70t-16.5 88.5t16.5 88.5t45.5 70t69.5 45.5t88.5 16q35 0 74 -11t71.5 -40t53.5 -79.5t21 -128.5q0 -97 -33.5 -174.5t-91 -130t-134 -77t-161.5 -14.5v139zM704 0h-170q-199 0 -298.5 97.5t-99.5 274.5v368
h-86v400l486 177v-177h167v-400h-167v-262q0 -45 23.5 -61.5t75.5 -16.5h115z" />
    <glyph glyph-name="Tbar" unicode="&#x166;" horiz-adv-x="1246" 
d="M422 2v441h-172v310h172v247h-372v400h1146v-400h-374v-247h174v-310h-174v-441h-400z" />
    <glyph glyph-name="tbar" unicode="&#x167;" horiz-adv-x="800" 
d="M704 0h-170q-199 0 -298.5 97.5t-99.5 274.5v127h-86v166h86v75h-86v400l486 177v-177h167v-400h-167v-75h107v-166h-107v-21q0 -45 23.5 -61.5t75.5 -16.5h115z" />
    <glyph glyph-name="Utilde" unicode="&#x168;" horiz-adv-x="1290" 
d="M508 1557q-42 0 -73.5 -19t-48.5 -48h-81q1 79 19.5 137.5t49 96.5t72 57t88.5 19q39 0 69 -11t58 -24t56 -24t62 -11q43 0 76 19.5t52 47.5h78q0 -77 -18 -135t-49 -97t-72 -58.5t-87 -19.5q-36 0 -67.5 11t-61 24t-59 24t-63.5 11zM567 0q-109 0 -200.5 36.5
t-157.5 102.5t-102.5 157.5t-36.5 200.5v903h400v-859q0 -63 39 -102t102 -39h68q63 0 102 39t39 102v859h400v-903q0 -109 -36.5 -200.5t-102.5 -157.5t-157 -102.5t-201 -36.5h-156z" />
    <glyph glyph-name="utilde" unicode="&#x169;" horiz-adv-x="1239" 
d="M475 1297q-42 0 -73.5 -19t-48.5 -48h-81q1 79 19.5 137.5t49 96.5t72 57t88.5 19q39 0 69 -11t58 -24t56 -24t62 -11q43 0 76 19.5t52 47.5h78q0 -77 -18 -135t-49 -97t-72 -58.5t-87 -19.5q-36 0 -67.5 11t-61 24t-59 24t-63.5 11zM838 167l-28 12q-26 -61 -60.5 -99.5
t-76 -60.5t-90 -30t-103.5 -8q-217 0 -323.5 148.5t-106.5 440.5v570h400v-568q0 -104 39 -147t123 -43t120.5 43t36.5 147v568h400v-1140h-400z" />
    <glyph glyph-name="Umacron" unicode="&#x16a;" horiz-adv-x="1290" 
d="M351 1490v310h588v-310h-588zM567 0q-109 0 -200.5 36.5t-157.5 102.5t-102.5 157.5t-36.5 200.5v903h400v-859q0 -63 39 -102t102 -39h68q63 0 102 39t39 102v859h400v-903q0 -109 -36.5 -200.5t-102.5 -157.5t-157 -102.5t-201 -36.5h-156z" />
    <glyph glyph-name="umacron" unicode="&#x16b;" horiz-adv-x="1239" 
d="M318 1230v310h588v-310h-588zM838 167l-28 12q-26 -61 -60.5 -99.5t-76 -60.5t-90 -30t-103.5 -8q-217 0 -323.5 148.5t-106.5 440.5v570h400v-568q0 -104 39 -147t123 -43t120.5 43t36.5 147v568h400v-1140h-400z" />
    <glyph glyph-name="Ubreve" unicode="&#x16c;" horiz-adv-x="1290" 
d="M644 1481q-77 0 -131 24.5t-87.5 67t-49 101t-15.5 126.5h151q5 -33 35.5 -54t96.5 -21t98 21.5t36 53.5h151q0 -68 -15.5 -126.5t-49.5 -101t-88.5 -67t-131.5 -24.5zM567 0q-109 0 -200.5 36.5t-157.5 102.5t-102.5 157.5t-36.5 200.5v903h400v-859q0 -63 39 -102
t102 -39h68q63 0 102 39t39 102v859h400v-903q0 -109 -36.5 -200.5t-102.5 -157.5t-157 -102.5t-201 -36.5h-156z" />
    <glyph glyph-name="ubreve" unicode="&#x16d;" horiz-adv-x="1239" 
d="M611 1221q-77 0 -131 24.5t-87.5 67t-49 101t-15.5 126.5h151q5 -33 35.5 -54t96.5 -21t98 21.5t36 53.5h151q0 -68 -15.5 -126.5t-49.5 -101t-88.5 -67t-131.5 -24.5zM838 167l-28 12q-26 -61 -60.5 -99.5t-76 -60.5t-90 -30t-103.5 -8q-217 0 -323.5 148.5
t-106.5 440.5v570h400v-568q0 -104 39 -147t123 -43t120.5 43t36.5 147v568h400v-1140h-400z" />
    <glyph glyph-name="Uring" unicode="&#x16e;" horiz-adv-x="1290" 
d="M379 1690q0 53 20 94t55 69t84 42.5t107 14.5t107 -14.5t84.5 -42.5t55.5 -69t20 -94t-20 -94t-55.5 -69t-84.5 -42.5t-107 -14.5t-107 14.5t-84 42.5t-55 69t-20 94zM537 1690q0 -22 30 -36t78 -14t78.5 14t30.5 36t-30.5 36t-78.5 14t-78 -14t-30 -36zM567 0
q-109 0 -200.5 36.5t-157.5 102.5t-102.5 157.5t-36.5 200.5v903h400v-859q0 -63 39 -102t102 -39h68q63 0 102 39t39 102v859h400v-903q0 -109 -36.5 -200.5t-102.5 -157.5t-157 -102.5t-201 -36.5h-156z" />
    <glyph glyph-name="uring" unicode="&#x16f;" horiz-adv-x="1239" 
d="M346 1430q0 53 20 94t55 69t84 42.5t107 14.5t107 -14.5t84.5 -42.5t55.5 -69t20 -94t-20 -94t-55.5 -69t-84.5 -42.5t-107 -14.5t-107 14.5t-84 42.5t-55 69t-20 94zM504 1430q0 -22 30 -36t78 -14t78.5 14t30.5 36t-30.5 36t-78.5 14t-78 -14t-30 -36zM838 167l-28 12
q-26 -61 -60.5 -99.5t-76 -60.5t-90 -30t-103.5 -8q-217 0 -323.5 148.5t-106.5 440.5v570h400v-568q0 -104 39 -147t123 -43t120.5 43t36.5 147v568h400v-1140h-400z" />
    <glyph glyph-name="Uhungarumlaut" unicode="&#x170;" horiz-adv-x="1290" 
d="M402 1800h341l-270 -310h-222zM798 1800h341l-270 -310h-222zM567 0q-109 0 -200.5 36.5t-157.5 102.5t-102.5 157.5t-36.5 200.5v903h400v-859q0 -63 39 -102t102 -39h68q63 0 102 39t39 102v859h400v-903q0 -109 -36.5 -200.5t-102.5 -157.5t-157 -102.5t-201 -36.5
h-156z" />
    <glyph glyph-name="uhungarumlaut" unicode="&#x171;" horiz-adv-x="1239" 
d="M353 1540h341l-270 -310h-222zM749 1540h341l-270 -310h-222zM838 167l-28 12q-26 -61 -60.5 -99.5t-76 -60.5t-90 -30t-103.5 -8q-217 0 -323.5 148.5t-106.5 440.5v570h400v-568q0 -104 39 -147t123 -43t120.5 43t36.5 147v568h400v-1140h-400z" />
    <glyph glyph-name="Uogonek" unicode="&#x172;" horiz-adv-x="1290" 
d="M722 -416q-83 0 -144.5 18t-102 48t-60 69.5t-19.5 83.5q0 51 26.5 94t81.5 73l55 30q-108 2 -198 39t-154.5 102.5t-100.5 156.5t-36 199v903h400v-859q0 -63 39 -102t102 -39h68q63 0 102 39t39 102v859h400v-903q0 -109 -36.5 -200.5t-102 -157.5t-156.5 -102.5
t-201 -36.5l-38 -41q-29 -32 -44 -55.5t-15 -49.5q0 -19 8 -38.5t21 -36.5t30 -29.5t36 -15.5v-150z" />
    <glyph glyph-name="uogonek" unicode="&#x173;" horiz-adv-x="1239" 
d="M838 167l-28 12q-26 -61 -60.5 -99.5t-76 -60.5t-90 -30t-103.5 -8q-217 0 -323.5 148.5t-106.5 440.5v570h400v-568q0 -104 39 -147t123 -43t120.5 43t36.5 147v568h400v-1140h-87l-37 -41q-29 -32 -44 -55.5t-15 -49.5q0 -19 8 -38.5t21 -36.5t30 -29.5t36 -15.5v-150
q-83 0 -144.5 18t-102 48t-60 69.5t-19.5 83.5q0 51 26.5 94t81.5 73l54 30h-148z" />
    <glyph glyph-name="Wcircumflex" unicode="&#x174;" horiz-adv-x="1957" 
d="M1060 1490q-18 18 -30.5 50.5t-20.5 69.5t-11.5 73.5t-3.5 61.5h-30q0 -25 -3.5 -61.5t-11.5 -73.5t-20.5 -69.5t-30.5 -50.5h-381l300 310h318l306 -310h-381zM640 1400h677l183 -984h30l-33 181q-16 87 -24 188.5t-8 206.5t8.5 206.5t24.5 188.5l2 13h407l-260 -1400
h-477l-125 671q-11 61 -16.5 132.5t-5.5 144.5t5.5 144.5t16.5 132.5l2 10h-31l-229 -1235h-477l-260 1400h407l183 -984h30l-33 181q-16 87 -24 188.5t-8 206.5t8.5 206.5t24.5 188.5z" />
    <glyph glyph-name="wcircumflex" unicode="&#x175;" horiz-adv-x="1580" 
d="M871 1230q-18 18 -30.5 50.5t-20.5 69.5t-11.5 73.5t-3.5 61.5h-30q0 -25 -3.5 -61.5t-11.5 -73.5t-20.5 -69.5t-30.5 -50.5h-381l300 310h318l306 -310h-381zM942 213q-28 -54 -69.5 -97t-94 -73t-115 -46.5t-132.5 -16.5q-99 0 -183.5 32.5t-146 91t-96.5 139.5
t-35 178v719h400v-674q0 -48 17 -67t43 -19t43 19t17 67v674h400v-674q0 -48 17 -67t43 -19t43 19t17 67v674h400v-719q0 -97 -34.5 -178t-95.5 -139.5t-145.5 -91t-183.5 -32.5q-59 0 -112 11.5t-101 33.5q41 35 75 78t56 96z" />
    <glyph glyph-name="Ycircumflex" unicode="&#x176;" horiz-adv-x="1417" 
d="M790 1490q-18 18 -30.5 50.5t-20.5 69.5t-11.5 73.5t-3.5 61.5h-30q0 -25 -3.5 -61.5t-11.5 -73.5t-20.5 -69.5t-30.5 -50.5h-381l300 310h318l306 -310h-381zM921 1400h446l-458 -944v-456h-400v455l-459 945h445l336 -694l28 14l-7 15q-28 57 -42 124t-14 136t13.5 136
t41.5 124z" />
    <glyph glyph-name="ycircumflex" unicode="&#x177;" horiz-adv-x="1242" 
d="M702 1230q-18 18 -30.5 50.5t-20.5 69.5t-11.5 73.5t-3.5 61.5h-30q0 -25 -3.5 -61.5t-11.5 -73.5t-20.5 -69.5t-30.5 -50.5h-381l300 310h318l306 -310h-381zM677 93q-19 -20 -44 -37t-53.5 -29.5t-58 -19.5t-57.5 -7h-202l-212 1140h407l125 -673q5 -27 7.5 -59.5
t2.5 -65.5t-2 -65.5t-7 -59.5l-1 -3l30 -5l173 931h407l-212 -1140q-21 -115 -68.5 -209t-117.5 -161t-162 -103.5t-202 -36.5h-73l-73 400h131q54 0 97 9.5t78 32t63.5 59t53.5 91.5l-24 18z" />
    <glyph glyph-name="Ydieresis" unicode="&#x178;" horiz-adv-x="1417" 
d="M244 1690q0 105 53 162.5t157 57.5t157 -57.5t53 -162.5t-53 -162.5t-157 -57.5t-157 57.5t-53 162.5zM753 1690q0 105 53 162.5t157 57.5t157 -57.5t53 -162.5t-53 -162.5t-157 -57.5t-157 57.5t-53 162.5zM921 1400h446l-458 -944v-456h-400v455l-459 945h445l336 -694
l28 14l-7 15q-28 57 -42 124t-14 136t13.5 136t41.5 124z" />
    <glyph glyph-name="Zacute" unicode="&#x179;" horiz-adv-x="1224" 
d="M497 1800h381l-270 -310h-262zM724 1146q-31 -32 -72 -58.5t-87 -46t-93.5 -30.5t-92.5 -11h-317v400h1102v-400l-684 -740l21 -20l11 11q30 33 71 60t86.5 47t93 31t92.5 11h319v-400h-1124v400l710 740l-20 23z" />
    <glyph glyph-name="zacute" unicode="&#x17a;" horiz-adv-x="1267" 
d="M536 1540h381l-270 -310h-262zM667 877q-42 -30 -94.5 -55t-109.5 -43.5t-114.5 -28.5t-109.5 -10h-169v400h1127v-413l-621 -444l16 -26l8 6q42 30 94.5 55t109.5 43.5t114.5 28.5t109.5 10h169v-400h-1127v413l621 444l-16 26z" />
    <glyph glyph-name="Zdotaccent" unicode="&#x17b;" horiz-adv-x="1224" 
d="M392 1690q0 48 16.5 88.5t45.5 70t69.5 45.5t88.5 16t88.5 -16t69.5 -45.5t45.5 -70t16.5 -88.5t-16.5 -88.5t-45.5 -70t-69.5 -45.5t-88.5 -16t-88.5 16t-69.5 45.5t-45.5 70t-16.5 88.5zM724 1146q-31 -32 -72 -58.5t-87 -46t-93.5 -30.5t-92.5 -11h-317v400h1102v-400
l-684 -740l21 -20l11 11q30 33 71 60t86.5 47t93 31t92.5 11h319v-400h-1124v400l710 740l-20 23z" />
    <glyph glyph-name="zdotaccent" unicode="&#x17c;" horiz-adv-x="1267" 
d="M414 1430q0 48 16.5 88.5t45.5 70t69.5 45.5t88.5 16t88.5 -16t69.5 -45.5t45.5 -70t16.5 -88.5t-16.5 -88.5t-45.5 -70t-69.5 -45.5t-88.5 -16t-88.5 16t-69.5 45.5t-45.5 70t-16.5 88.5zM667 877q-42 -30 -94.5 -55t-109.5 -43.5t-114.5 -28.5t-109.5 -10h-169v400
h1127v-413l-621 -444l16 -26l8 6q42 30 94.5 55t109.5 43.5t114.5 28.5t109.5 10h169v-400h-1127v413l621 444l-16 26z" />
    <glyph glyph-name="Zcaron" unicode="&#x17d;" horiz-adv-x="1224" 
d="M1074 1800l-306 -310h-318l-300 310h381q18 -18 30.5 -50.5t20.5 -69.5t11.5 -73.5t3.5 -61.5h30q0 25 3.5 61.5t11.5 73.5t20.5 69.5t30.5 50.5h381zM724 1146q-31 -32 -72 -58.5t-87 -46t-93.5 -30.5t-92.5 -11h-317v400h1102v-400l-684 -740l21 -20l11 11q30 33 71 60
t86.5 47t93 31t92.5 11h319v-400h-1124v400l710 740l-20 23z" />
    <glyph glyph-name="zcaron" unicode="&#x17e;" horiz-adv-x="1267" 
d="M1096 1540l-306 -310h-318l-300 310h381q18 -18 30.5 -50.5t20.5 -69.5t11.5 -73.5t3.5 -61.5h30q0 25 3.5 61.5t11.5 73.5t20.5 69.5t30.5 50.5h381zM667 877q-42 -30 -94.5 -55t-109.5 -43.5t-114.5 -28.5t-109.5 -10h-169v400h1127v-413l-621 -444l16 -26l8 6
q42 30 94.5 55t109.5 43.5t114.5 28.5t109.5 10h169v-400h-1127v413l621 444l-16 26z" />
    <glyph glyph-name="florin" unicode="&#x192;" horiz-adv-x="949" 
d="M228 0q0 -39 18.5 -56.5t46.5 -17.5t46.5 17.5t18.5 56.5v621h-140v361h138v186q0 165 88 249t253 84h202v-361h-41q-26 0 -45 -4t-31 -14.5t-18 -28t-6 -45.5v-66h139v-361h-139v-621q0 -66 -26.5 -123.5t-74.5 -99.5t-114.5 -66.5t-146.5 -24.5q-79 0 -143 24.5
t-109 66.5t-69.5 99.5t-24.5 123.5h178z" />
    <glyph glyph-name="uni0218" unicode="&#x218;" horiz-adv-x="1245" 
d="M1195 427q0 -106 -34 -189t-102 -140.5t-170.5 -88t-239.5 -30.5q-72 0 -149 8t-152 20.5t-144 28t-126 31.5v440q62 -22 136 -45t150.5 -41t151 -29.5t136.5 -11.5q72 0 107.5 14.5t35.5 31.5q0 12 -16.5 22t-40.5 18t-50.5 13.5t-46.5 9.5q-177 32 -291.5 79.5
t-181 108.5t-92.5 135.5t-26 159.5q0 106 34 189t102.5 140.5t171 88t239.5 30.5q72 0 148.5 -8t151.5 -20.5t144 -28t126 -31.5v-440q-61 23 -135.5 45.5t-151 40.5t-150.5 29.5t-136 11.5q-73 0 -108.5 -14.5t-35.5 -31.5q0 -12 16.5 -22t40.5 -18t50.5 -13.5t47.5 -9.5
q177 -32 291.5 -79.5t180.5 -108.5t92 -135t26 -160zM423 -390q72 0 124 11t76 37q-48 0 -88.5 8.5t-69.5 25.5t-45.5 44t-16.5 63t16 63t44.5 44t67 25.5t83.5 8.5q39 0 79.5 -7t73.5 -25.5t54.5 -51t21.5 -82.5q0 -62 -33.5 -111.5t-91 -83t-134 -49t-161.5 -9.5v89z" />
    <glyph glyph-name="uni0219" unicode="&#x219;" horiz-adv-x="1085" 
d="M1035 348q0 -89 -30 -157.5t-93.5 -115.5t-162.5 -71.5t-237 -24.5q-40 0 -96 2.5t-116.5 8.5t-120 16t-106.5 26v417q44 -37 102.5 -63t121.5 -42t125.5 -23t114.5 -7q46 0 72 5.5t26 17.5q0 7 -16.5 12.5t-41.5 11t-55.5 10.5t-59.5 11q-121 24 -200.5 63t-126.5 90
t-66 113t-19 132q0 93 29.5 164t92.5 119t160.5 72.5t233.5 24.5q42 0 99.5 -3t118.5 -10t121 -19t107 -31v-417q-45 37 -103.5 63t-121.5 42t-125 23t-113 7q-48 0 -73.5 -5.5t-25.5 -14.5q0 -8 16 -14.5t41 -12t55.5 -10.5t58.5 -11q121 -24 201 -62t127 -89t66.5 -113.5
t19.5 -134.5zM343 -390q72 0 124 11t76 37q-48 0 -88.5 8.5t-69.5 25.5t-45.5 44t-16.5 63t16 63t44.5 44t67 25.5t83.5 8.5q39 0 79.5 -7t73.5 -25.5t54.5 -51t21.5 -82.5q0 -62 -33.5 -111.5t-91 -83t-134 -49t-161.5 -9.5v89z" />
    <glyph glyph-name="uni021A" unicode="&#x21a;" horiz-adv-x="1246" 
d="M422 2v998h-372v400h1146v-400h-374v-998h-400zM423 -390q72 0 124 11t76 37q-48 0 -88.5 8.5t-69.5 25.5t-45.5 44t-16.5 63t16.5 63t45 44t67 25.5t83.5 8.5q38 0 78.5 -7t73.5 -25.5t54.5 -51t21.5 -82.5q0 -62 -33.5 -111.5t-91 -83t-134 -49t-161.5 -9.5v89z" />
    <glyph glyph-name="uni021B" unicode="&#x21b;" horiz-adv-x="800" 
d="M704 0h-170q-199 0 -298.5 97.5t-99.5 274.5v368h-86v400l486 177v-177h167v-400h-167v-262q0 -45 23.5 -61.5t75.5 -16.5h115zM200 -390q72 0 124 11t76 37q-48 0 -88.5 8.5t-69.5 25.5t-45.5 44t-16.5 63t16.5 63t45 44t67 25.5t83.5 8.5q38 0 78.5 -7t73.5 -25.5
t54.5 -51t21.5 -82.5q0 -62 -33.5 -111.5t-91 -83t-134 -49t-161.5 -9.5v89z" />
    <glyph glyph-name="uni0237" unicode="&#x237;" 
d="M-56 -30q60 8 93 39t33 94v1037h400v-1088q0 -226 -114 -341t-330 -137z" />
    <glyph glyph-name="uni02BC" unicode="&#x2bc;" horiz-adv-x="541" 
d="M70 904q72 0 124 17t76 59q-48 0 -88.5 16t-69.5 45.5t-45.5 70t-16.5 88.5t16.5 88.5t45.5 70t69.5 45.5t88.5 16q35 0 74 -11t71.5 -40t53.5 -79.5t21 -128.5q0 -97 -33.5 -174.5t-91 -130t-134 -77t-161.5 -14.5v139z" />
    <glyph glyph-name="circumflex" unicode="&#x2c6;" horiz-adv-x="1024" 
d="M593 1230q-18 18 -30.5 50.5t-20.5 69.5t-11.5 73.5t-3.5 61.5h-30q0 -25 -3.5 -61.5t-11.5 -73.5t-20.5 -69.5t-30.5 -50.5h-381l300 310h318l306 -310h-381z" />
    <glyph glyph-name="caron" unicode="&#x2c7;" horiz-adv-x="1024" 
d="M974 1540l-306 -310h-318l-300 310h381q18 -18 30.5 -50.5t20.5 -69.5t11.5 -73.5t3.5 -61.5h30q0 25 3.5 61.5t11.5 73.5t20.5 69.5t30.5 50.5h381z" />
    <glyph glyph-name="uni02C9" unicode="&#x2c9;" horiz-adv-x="688" 
d="M50 1230v310h588v-310h-588z" />
    <glyph glyph-name="breve" unicode="&#x2d8;" horiz-adv-x="668" 
d="M333 1221q-77 0 -131 24.5t-87.5 67t-49 101t-15.5 126.5h151q5 -33 35.5 -54t96.5 -21t98 21.5t36 53.5h151q0 -68 -15.5 -126.5t-49.5 -101t-88.5 -67t-131.5 -24.5z" />
    <glyph glyph-name="dotaccent" unicode="&#x2d9;" 
d="M50 1430q0 48 16.5 88.5t45.5 70t69.5 45.5t88.5 16t88.5 -16t69.5 -45.5t45.5 -70t16.5 -88.5t-16.5 -88.5t-45.5 -70t-69.5 -45.5t-88.5 -16t-88.5 16t-69.5 45.5t-45.5 70t-16.5 88.5z" />
    <glyph glyph-name="ring" unicode="&#x2da;" horiz-adv-x="633" 
d="M50 1430q0 53 20 94t55 69t84 42.5t107 14.5t107 -14.5t84.5 -42.5t55.5 -69t20 -94t-20 -94t-55.5 -69t-84.5 -42.5t-107 -14.5t-107 14.5t-84 42.5t-55 69t-20 94zM208 1430q0 -22 30 -36t78 -14t78.5 14t30.5 36t-30.5 36t-78.5 14t-78 -14t-30 -36z" />
    <glyph glyph-name="ogonek" unicode="&#x2db;" horiz-adv-x="429" 
d="M340 -41q-29 -32 -44 -55.5t-15 -49.5q0 -19 8 -38.5t21 -36.5t30 -29.5t36 -15.5v-150q-83 0 -144.5 18t-102 48t-60 69.5t-19.5 83.5q0 51 26.5 94t81.5 73l73 40h148v-8z" />
    <glyph glyph-name="tilde" unicode="&#x2dc;" horiz-adv-x="780" 
d="M253 1297q-42 0 -73.5 -19t-48.5 -48h-81q1 79 19.5 137.5t49 96.5t72 57t88.5 19q39 0 69 -11t58 -24t56 -24t62 -11q43 0 76 19.5t52 47.5h78q0 -77 -18 -135t-49 -97t-72 -58.5t-87 -19.5q-36 0 -67.5 11t-61 24t-59 24t-63.5 11z" />
    <glyph glyph-name="hungarumlaut" unicode="&#x2dd;" horiz-adv-x="988" 
d="M201 1540h341l-270 -310h-222zM597 1540h341l-270 -310h-222z" />
    <glyph glyph-name="uni0326" unicode="&#x326;" horiz-adv-x="560" 
d="M80 -390q72 0 124 11t76 37q-48 0 -88.5 8.5t-69.5 25.5t-45.5 44t-16.5 63t16.5 63t45 44t67 25.5t83.5 8.5q38 0 78.5 -7t73.5 -25.5t54.5 -51t21.5 -82.5q0 -62 -33.5 -111.5t-91 -83t-134 -49t-161.5 -9.5v89z" />
    <glyph glyph-name="uni0394" unicode="&#x394;" horiz-adv-x="1372" 
d="M90 0l596 1436l596 -1436h-1192zM451 248h470l-235 564z" />
    <glyph glyph-name="uni03A9" unicode="&#x3a9;" horiz-adv-x="1620" 
d="M669 0h-579v204h290q-62 53 -115 117.5t-92 138.5t-61 157t-22 174q0 138 51.5 255t146.5 202t228.5 132.5t297.5 47.5t296.5 -47.5t226.5 -132.5t144.5 -202.5t50.5 -256.5q0 -91 -21.5 -174t-59.5 -156.5t-90.5 -137.5t-114.5 -117h286v-204h-577v204
q153 95 225.5 207.5t72.5 237.5q0 84 -31 153.5t-88.5 119.5t-138.5 78t-181 28t-181.5 -28t-139.5 -78t-89 -119.5t-31 -153.5q0 -125 72 -236.5t224 -206.5v-206z" />
    <glyph glyph-name="uni03BC" unicode="&#x3bc;" horiz-adv-x="1427" 
d="M50 -400v1464h400v-264q0 -74 17 -152t47.5 -142t72.5 -105t92 -41q45 0 97.5 39t97 123t74 214.5t29.5 313.5v14h400v-1064h-400v506q-25 -136 -60.5 -235.5t-79 -164.5t-92.5 -96.5t-102 -31.5q-23 0 -49 7t-52 24t-49.5 46t-42.5 73v-528h-400z" />
    <glyph glyph-name="pi" unicode="&#x3c0;" horiz-adv-x="1242" 
d="M228 0v694h-38q-44 0 -80 -13t-60 -37v388q27 32 64 49.5t85 17.5h916v-405h-134v-494q0 -35 17.5 -50.5t38.5 -15.5q20 0 37.5 15.5t17.5 50.5v28h100v-28q0 -58 -22.5 -99t-58.5 -67t-80.5 -38t-89.5 -12q-51 0 -100 16t-86.5 51.5t-60.5 92t-23 137.5v413h-133v-694
h-310z" />
    <glyph glyph-name="Wgrave" unicode="&#x1e80;" horiz-adv-x="1957" 
d="M983 1490l-270 310h381l151 -310h-262zM640 1400h677l183 -984h30l-33 181q-16 87 -24 188.5t-8 206.5t8.5 206.5t24.5 188.5l2 13h407l-260 -1400h-477l-125 671q-11 61 -16.5 132.5t-5.5 144.5t5.5 144.5t16.5 132.5l2 10h-31l-229 -1235h-477l-260 1400h407l183 -984
h30l-33 181q-16 87 -24 188.5t-8 206.5t8.5 206.5t24.5 188.5z" />
    <glyph glyph-name="wgrave" unicode="&#x1e81;" horiz-adv-x="1580" 
d="M774 1230l-270 310h381l151 -310h-262zM942 213q-28 -54 -69.5 -97t-94 -73t-115 -46.5t-132.5 -16.5q-99 0 -183.5 32.5t-146 91t-96.5 139.5t-35 178v719h400v-674q0 -48 17 -67t43 -19t43 19t17 67v674h400v-674q0 -48 17 -67t43 -19t43 19t17 67v674h400v-719
q0 -97 -34.5 -178t-95.5 -139.5t-145.5 -91t-183.5 -32.5q-59 0 -112 11.5t-101 33.5q41 35 75 78t56 96z" />
    <glyph glyph-name="Wacute" unicode="&#x1e82;" horiz-adv-x="1957" 
d="M864 1800h381l-270 -310h-262zM640 1400h677l183 -984h30l-33 181q-16 87 -24 188.5t-8 206.5t8.5 206.5t24.5 188.5l2 13h407l-260 -1400h-477l-125 671q-11 61 -16.5 132.5t-5.5 144.5t5.5 144.5t16.5 132.5l2 10h-31l-229 -1235h-477l-260 1400h407l183 -984h30
l-33 181q-16 87 -24 188.5t-8 206.5t8.5 206.5t24.5 188.5z" />
    <glyph glyph-name="wacute" unicode="&#x1e83;" horiz-adv-x="1580" 
d="M692 1540h381l-270 -310h-262zM942 213q-28 -54 -69.5 -97t-94 -73t-115 -46.5t-132.5 -16.5q-99 0 -183.5 32.5t-146 91t-96.5 139.5t-35 178v719h400v-674q0 -48 17 -67t43 -19t43 19t17 67v674h400v-674q0 -48 17 -67t43 -19t43 19t17 67v674h400v-719
q0 -97 -34.5 -178t-95.5 -139.5t-145.5 -91t-183.5 -32.5q-59 0 -112 11.5t-101 33.5q41 35 75 78t56 96z" />
    <glyph glyph-name="Wdieresis" unicode="&#x1e84;" horiz-adv-x="1957" 
d="M514 1690q0 105 53 162.5t157 57.5t157 -57.5t53 -162.5t-53 -162.5t-157 -57.5t-157 57.5t-53 162.5zM1023 1690q0 105 53 162.5t157 57.5t157 -57.5t53 -162.5t-53 -162.5t-157 -57.5t-157 57.5t-53 162.5zM640 1400h677l183 -984h30l-33 181q-16 87 -24 188.5
t-8 206.5t8.5 206.5t24.5 188.5l2 13h407l-260 -1400h-477l-125 671q-11 61 -16.5 132.5t-5.5 144.5t5.5 144.5t16.5 132.5l2 10h-31l-229 -1235h-477l-260 1400h407l183 -984h30l-33 181q-16 87 -24 188.5t-8 206.5t8.5 206.5t24.5 188.5z" />
    <glyph glyph-name="wdieresis" unicode="&#x1e85;" horiz-adv-x="1580" 
d="M326 1430q0 105 53 162.5t157 57.5t157 -57.5t53 -162.5t-53 -162.5t-157 -57.5t-157 57.5t-53 162.5zM835 1430q0 105 53 162.5t157 57.5t157 -57.5t53 -162.5t-53 -162.5t-157 -57.5t-157 57.5t-53 162.5zM942 213q-28 -54 -69.5 -97t-94 -73t-115 -46.5t-132.5 -16.5
q-99 0 -183.5 32.5t-146 91t-96.5 139.5t-35 178v719h400v-674q0 -48 17 -67t43 -19t43 19t17 67v674h400v-674q0 -48 17 -67t43 -19t43 19t17 67v674h400v-719q0 -97 -34.5 -178t-95.5 -139.5t-145.5 -91t-183.5 -32.5q-59 0 -112 11.5t-101 33.5q41 35 75 78t56 96z" />
    <glyph glyph-name="Germandbls" unicode="&#x1e9e;" horiz-adv-x="1367" 
d="M70 21v1118q0 101 35 176.5t97 126t147.5 76t187.5 25.5h678v-291q-88 -26 -157.5 -63.5t-117.5 -81.5t-73 -91.5t-25 -93.5q0 -37 15.5 -64.5t41.5 -48.5t60.5 -38.5t72.5 -35.5q50 -23 100.5 -50t91.5 -67t67 -97t26 -141q0 -93 -34 -164t-95.5 -119t-147.5 -72.5
t-191 -24.5q-84 0 -166.5 14.5t-152.5 38.5v417q29 -37 67.5 -63t79 -42t79.5 -23t69 -7q38 0 66.5 10t28.5 27q0 18 -33.5 36t-102.5 39q-78 24 -131.5 59.5t-85.5 81t-46 100t-14 115.5q0 89 24.5 154t66 117t97 94t116.5 84h-224q-32 0 -54.5 -11.5t-36.5 -32t-20 -49
t-6 -62.5v-1076h-400z" />
    <glyph glyph-name="endash" unicode="&#x2013;" horiz-adv-x="1311" 
d="M70 328v400h1171v-400h-1171z" />
    <glyph glyph-name="emdash" unicode="&#x2014;" horiz-adv-x="1873" 
d="M70 328v400h1733v-400h-1733z" />
    <glyph glyph-name="quoteleft" unicode="&#x2018;" 
d="M470 1278q-72 0 -124 -17t-76 -59q48 0 88.5 -16t69.5 -45.5t45.5 -70t16.5 -88.5t-16.5 -88.5t-45.5 -70t-69.5 -45.5t-88.5 -16q-35 0 -74 11t-71.5 40t-53.5 79.5t-21 128.5q0 97 33.5 174.5t91 130t134 77t161.5 14.5v-139z" />
    <glyph glyph-name="quoteright" unicode="&#x2019;" 
d="M70 904q72 0 124 17t76 59q-48 0 -88.5 16t-69.5 45.5t-45.5 70t-16.5 88.5t16.5 88.5t45.5 70t69.5 45.5t88.5 16q35 0 74 -11t71.5 -40t53.5 -79.5t21 -128.5q0 -97 -33.5 -174.5t-91 -130t-134 -77t-161.5 -14.5v139z" />
    <glyph glyph-name="quotesinglbase" unicode="&#x201a;" 
d="M70 -97q72 0 124 17t76 59q-48 0 -88.5 16t-69.5 45.5t-45.5 70t-16.5 88.5t16.5 88.5t45.5 70t69.5 45.5t88.5 16q35 0 74 -11t71.5 -40t53.5 -79.5t21 -128.5q0 -97 -33.5 -174.5t-91 -130t-134 -77t-161.5 -14.5v139z" />
    <glyph glyph-name="quotedblleft" unicode="&#x201c;" horiz-adv-x="1010" 
d="M952 1278q-72 0 -124 -17t-76 -59q48 0 88.5 -16t69.5 -45.5t45.5 -70t16.5 -88.5t-16.5 -88.5t-45.5 -70t-69.5 -45.5t-88.5 -16q-35 0 -74 11t-71.5 40t-53.5 79.5t-21 128.5q0 97 33.5 174.5t91 130t134 77t161.5 14.5v-139zM470 1278q-72 0 -124 -17t-76 -59
q48 0 88.5 -16t69.5 -45.5t45.5 -70t16.5 -88.5t-16.5 -88.5t-45.5 -70t-69.5 -45.5t-88.5 -16q-35 0 -74 11t-71.5 40t-53.5 79.5t-21 128.5q0 97 33.5 174.5t91 130t134 77t161.5 14.5v-139z" />
    <glyph glyph-name="quotedblright" unicode="&#x201d;" horiz-adv-x="1010" 
d="M70 904q72 0 124 17t76 59q-48 0 -88.5 16t-69.5 45.5t-45.5 70t-16.5 88.5t16.5 88.5t45.5 70t69.5 45.5t88.5 16q35 0 74 -11t71.5 -40t53.5 -79.5t21 -128.5q0 -97 -33.5 -174.5t-91 -130t-134 -77t-161.5 -14.5v139zM552 904q72 0 124 17t76 59q-48 0 -88.5 16
t-69.5 45.5t-45.5 70t-16.5 88.5t16.5 88.5t45.5 70t69.5 45.5t88.5 16q35 0 74 -11t71.5 -40t53.5 -79.5t21 -128.5q0 -97 -33.5 -174.5t-91 -130t-134 -77t-161.5 -14.5v139z" />
    <glyph glyph-name="quotedblbase" unicode="&#x201e;" horiz-adv-x="1022" 
d="M70 -97q72 0 124 17t76 59q-48 0 -88.5 16t-69.5 45.5t-45.5 70t-16.5 88.5t16.5 88.5t45.5 70t69.5 45.5t88.5 16q35 0 74 -11t71.5 -40t53.5 -79.5t21 -128.5q0 -97 -33.5 -174.5t-91 -130t-134 -77t-161.5 -14.5v139zM552 -97q72 0 124 17t76 59q-48 0 -88.5 16
t-69.5 45.5t-45.5 70t-16.5 88.5t16.5 88.5t45.5 70t69.5 45.5t88.5 16q35 0 74 -11t71.5 -40t53.5 -79.5t21 -128.5q0 -97 -33.5 -174.5t-91 -130t-134 -77t-161.5 -14.5v139z" />
    <glyph glyph-name="dagger" unicode="&#x2020;" horiz-adv-x="1058" 
d="M50 1154h279v322h400v-322h279v-400h-279v-754h-400v754h-279v400z" />
    <glyph glyph-name="daggerdbl" unicode="&#x2021;" horiz-adv-x="1058" 
d="M50 1194h279v282h400v-282h279v-400h-279v-112h279v-400h-279v-282h-400v282h-279v400h279v112h-279v400z" />
    <glyph glyph-name="bullet" unicode="&#x2022;" horiz-adv-x="520" 
d="M50 728q0 44 16 82t44 66t67 44t84 16t83 -16t66 -44t44 -66t16 -82q0 -45 -16 -84t-44 -67.5t-66 -44.5t-83 -16t-84 16t-67 44.5t-44 67.5t-16 84z" />
    <glyph glyph-name="ellipsis" unicode="&#x2026;" horiz-adv-x="1626" 
d="M50 199q0 48 16.5 88.5t45.5 70t69.5 45.5t88.5 16t88.5 -16t69.5 -45.5t45.5 -70t16.5 -88.5t-16.5 -88.5t-45.5 -70t-69.5 -45.5t-88.5 -16t-88.5 16t-69.5 45.5t-45.5 70t-16.5 88.5zM592 199q0 48 16.5 88.5t45.5 70t69.5 45.5t88.5 16t88.5 -16t69.5 -45.5t45.5 -70
t16.5 -88.5t-16.5 -88.5t-45.5 -70t-69.5 -45.5t-88.5 -16t-88.5 16t-69.5 45.5t-45.5 70t-16.5 88.5zM1134 199q0 48 16.5 88.5t45.5 70t69.5 45.5t88.5 16t88.5 -16t69.5 -45.5t45.5 -70t16.5 -88.5t-16.5 -88.5t-45.5 -70t-69.5 -45.5t-88.5 -16t-88.5 16t-69.5 45.5
t-45.5 70t-16.5 88.5z" />
    <glyph glyph-name="perthousand" unicode="&#x2030;" horiz-adv-x="2195" 
d="M380 636q-94 0 -151 24t-88 72.5t-41 123t-10 174.5q0 101 10.5 173.5t42 120t88.5 70t149 22.5t148.5 -23t87 -71t40.5 -120.5t10 -171.5t-9.5 -173t-39.5 -123t-86.5 -73.5t-150.5 -24.5zM208 0l902 1400h263l-900 -1400h-265zM380 768q23 0 35.5 17.5t18.5 50.5t7 82
t1 112t-1 111t-7 80t-18.5 48.5t-35.5 16.5t-36.5 -16t-20.5 -48t-9 -80t-2 -112t2 -113t9 -82t20.5 -50t36.5 -17zM1209 -20q-94 0 -151 24t-88 72.5t-41 123t-10 174.5q0 101 10.5 173.5t42 120t88.5 70t149 22.5t148.5 -23t87 -71t40.5 -120.5t10 -171.5t-9.5 -173
t-39.5 -123t-86.5 -73.5t-150.5 -24.5zM1859 -20q-94 0 -151 24t-88 72.5t-41 123t-10 174.5q0 101 10.5 173.5t42 120t88.5 70t149 22.5t148.5 -23t87 -71t40.5 -120.5t10 -171.5t-9.5 -173t-39.5 -123t-86.5 -73.5t-150.5 -24.5zM1209 112q24 0 37 17.5t19 50.5t7 82
t1 112t-1 111t-7 80t-19 48.5t-37 16.5t-37.5 -16t-21 -48t-9.5 -80t-2 -112t2 -113t9 -82t21 -50t38 -17zM1859 112q24 0 37 17.5t19 50.5t7 82t1 112t-1 111t-7 80t-19 48.5t-37 16.5t-37.5 -16t-21 -48t-9.5 -80t-2 -112t2 -113t9 -82t21 -50t38 -17z" />
    <glyph glyph-name="guilsinglleft" unicode="&#x2039;" horiz-adv-x="715" 
d="M665 998l-184 -462l184 -462h-431l-184 462l184 462h431z" />
    <glyph glyph-name="guilsinglright" unicode="&#x203a;" horiz-adv-x="715" 
d="M665 536l-184 -462h-431l184 462l-184 462h431z" />
    <glyph glyph-name="fraction" unicode="&#x2044;" horiz-adv-x="630" 
d="M-266 0l902 1400h263l-900 -1400h-265z" />
    <glyph glyph-name="franc" unicode="&#x20a3;" horiz-adv-x="1260" 
d="M182 0v167h-132v280h132v953h1028v-400h-628v-100h628v-400h-628v-53h279v-280h-279v-167h-400z" />
    <glyph glyph-name="lira" unicode="&#x20a4;" horiz-adv-x="1065" 
d="M357 317l205 87h453v-404h-965v404h9q26 0 48.5 4.5t39 16.5t26.5 32.5t10 51.5v134h-133v178h133v28h-133v178h133v34q0 92 33.5 159.5t92.5 112t140.5 66t177.5 21.5q44 0 91.5 -5t96.5 -15.5t97 -27.5t93 -42l-43 -234q-43 42 -99.5 65t-114.5 23q-31 0 -61 -7.5
t-53 -24t-37 -41.5t-14 -61v-23h154v-178h-154v-28h154v-178h-154v-9q0 -43 -12 -82t-40.5 -75t-74.5 -69.5t-114 -64.5z" />
    <glyph glyph-name="peseta" unicode="&#x20a7;" horiz-adv-x="3179" 
d="M1244 867q0 -129 -39 -228.5t-106.5 -167t-159.5 -102.5t-197 -35q-128 0 -219 49t-155 132l-23 -19l125 -162v-334h-400v1400h615q127 0 230 -35t176 -102.5t113 -167t40 -228.5zM1998 0h-170q-199 0 -298.5 97.5t-99.5 274.5v368h-86v400l486 177v-177h167v-400h-167
v-262q0 -45 23.5 -61.5t75.5 -16.5h115zM3129 348q0 -89 -30 -157.5t-93.5 -115.5t-162.5 -71.5t-237 -24.5q-40 0 -96 2.5t-116.5 8.5t-120 16t-106.5 26v417q44 -37 102.5 -63t121.5 -42t125.5 -23t114.5 -7q46 0 72 5.5t26 17.5q0 7 -16.5 12.5t-41.5 11t-55.5 10.5
t-59.5 11q-121 24 -200.5 63t-126.5 90t-66 113t-19 132q0 93 29.5 164t92.5 119t160.5 72.5t233.5 24.5q42 0 99.5 -3t118.5 -10t121 -19t107 -31v-417q-45 37 -103.5 63t-121.5 42t-125 23t-113 7q-48 0 -73.5 -5.5t-25.5 -14.5q0 -8 16 -14.5t41 -12t55.5 -10.5t58.5 -11
q121 -24 201 -62t127 -89t66.5 -113.5t19.5 -134.5zM710 734q33 0 58 11t42 29.5t25.5 42.5t8.5 50t-8.5 50t-25.5 42.5t-42 29.5t-58 11h-240v-266h240z" />
    <glyph glyph-name="Euro" unicode="&#x20ac;" horiz-adv-x="1165" 
d="M70 730l54 204h68q18 100 62 188.5t117.5 154.5t178.5 104.5t243 38.5q106 0 186.5 -23t133.5 -67l-88 -330q-16 24 -40.5 46t-55.5 38.5t-69 26.5t-83 10q-100 0 -170.5 -50t-102.5 -137h497l-52 -204h-473v-80h447l-52 -204h-359q15 -33 45.5 -60.5t71 -48t89.5 -31.5
t102 -11q96 0 172.5 34t122.5 88v-353q-54 -39 -134.5 -61.5t-185.5 -22.5q-141 0 -244 37t-175 100.5t-115 148.5t-63 180h-128l52 204h52v80h-104z" />
    <glyph glyph-name="uni2116" unicode="&#x2116;" horiz-adv-x="2660" 
d="M2008 340q-304 0 -454 134.5t-150 404.5t150 405.5t454 135.5q305 0 453.5 -135.5t148.5 -405.5t-148.5 -404.5t-453.5 -134.5zM884 1400h400v-1400h-440l-473 875l-27 -15l14 -26q25 -46 45.5 -102t35.5 -115t23 -118t8 -111v-388h-400v1400h440l473 -875l27 15l-14 26
q-25 46 -45.5 102t-35.5 115t-23 118t-8 111v388zM2008 741q56 0 94.5 8t62.5 24.5t34.5 43.5t10.5 64t-10.5 63.5t-34.5 43t-62.5 24.5t-94.5 8q-57 0 -96 -7.5t-63 -24.5t-34.5 -43t-10.5 -64t10.5 -64.5t34.5 -43.5t63 -24.5t96 -7.5zM1454 290h1106v-290h-1106v290z" />
    <glyph glyph-name="trademark" unicode="&#x2122;" horiz-adv-x="1268" 
d="M210 862v380h-140v159h454v-159h-140v-380h-174zM540 862l47 539h174l107 -232l111 232h171l48 -539h-175l-24 250l-121 -250h-19l-120 250l-24 -250h-175z" />
    <glyph glyph-name="estimated" unicode="&#x212e;" horiz-adv-x="1298" 
d="M649 34q72 0 138 16t123 45.5t104 72t81 95.5l53 -34q-78 -121 -206.5 -189t-291.5 -68q-130 0 -240.5 45t-190 124.5t-124.5 189.5t-45 240t45 239.5t124.5 189t189.5 124.5t240 45t240 -45t189.5 -124.5t124.5 -189t45 -239.5h-966v-400q69 -65 163 -101t204 -36z
M282 633h737v337q-72 65 -165 101t-205 36q-110 0 -204 -36t-163 -101v-337z" />
    <glyph glyph-name="summation" unicode="&#x2211;" horiz-adv-x="1330" 
d="M739 149q-27 -37 -59.5 -68.5t-67.5 -57.5t-71.5 -48t-71.5 -40l14 -26q35 18 74.5 35t81.5 30.5t85.5 21.5t88.5 8h427v-400h-1393l654 898l-654 898h1393v-400h-427q-45 0 -88.5 8t-85.5 21.5t-81.5 30.5t-74.5 35l-14 -26q35 -18 71.5 -40t71.5 -48t67.5 -57.5
t59.5 -68.5l257 -353z" />
    <glyph glyph-name="minus" unicode="&#x2212;" horiz-adv-x="1040" 
d="M70 486v400h900v-400h-900z" />
    <glyph glyph-name="uni2215" unicode="&#x2215;" horiz-adv-x="1040" 
d="M90 0l618 1400h242l-618 -1400h-242z" />
    <glyph glyph-name="uni2219" unicode="&#x2219;" horiz-adv-x="520" 
d="M50 728q0 44 16 82t44 66t67 44t84 16t83 -16t66 -44t44 -66t16 -82q0 -45 -16 -84t-44 -67.5t-66 -44.5t-83 -16t-84 16t-67 44.5t-44 67.5t-16 84z" />
    <glyph glyph-name="radical" unicode="&#x221a;" horiz-adv-x="1096" 
d="M464 677l285 817h297l-538 -1540l-282 772h-176v275h296z" />
    <glyph glyph-name="infinity" unicode="&#x221e;" horiz-adv-x="1938" 
d="M968 840q68 78 128.5 135t118.5 93.5t117 54t123 17.5q92 0 171 -33.5t137 -96.5t91.5 -154t33.5 -207q0 -118 -34 -214t-92.5 -164t-137 -105t-167.5 -37q-62 0 -120.5 18.5t-118 56.5t-120.5 95t-128 134q-58 -70 -116 -126.5t-118.5 -96t-125.5 -60.5t-139 -21
q-90 0 -167 32t-133.5 94t-88.5 153.5t-32 211.5q0 123 34 219.5t93 163.5t139 102t172 35q62 0 119.5 -17t114.5 -53.5t117.5 -93t128.5 -136.5zM538 415q30 0 60 13t62.5 40t70.5 68t84 96q-52 57 -92 98t-73 67.5t-60.5 39t-53.5 12.5q-32 0 -60.5 -17t-50 -47t-34 -70.5
t-12.5 -88.5t12.5 -86.5t34 -66.5t50.5 -43t62 -15zM1398 415q32 0 61.5 17.5t51.5 47.5t35 71t13 88q0 46 -12.5 84.5t-33.5 66.5t-49.5 43.5t-61.5 15.5q-27 0 -53 -11.5t-58.5 -37.5t-73 -67t-96.5 -101q52 -57 92 -98t72.5 -67.5t59.5 -39t53 -12.5z" />
    <glyph glyph-name="integral" unicode="&#x222b;" horiz-adv-x="1073" 
d="M738 239q0 -144 -37.5 -264t-120 -206t-213 -134t-317.5 -48v318q98 0 155 24.5t86 69t36.5 106t7.5 134.5v652q0 144 37.5 264t120 206t213 134t317.5 48v-318q-98 0 -155 -24.5t-86 -69t-36.5 -105.5t-7.5 -135v-652z" />
    <glyph glyph-name="approxequal" unicode="&#x2248;" horiz-adv-x="1152" 
d="M50 1052q59 55 134.5 84t159.5 29q52 0 93.5 -8.5t77 -21.5t68 -28t66.5 -28t72.5 -21.5t86.5 -8.5q87 0 163.5 29.5t130.5 83.5v-376q-60 -59 -135.5 -88.5t-158.5 -29.5q-53 0 -94.5 8.5t-76.5 21.5t-66.5 28.5t-65 28.5t-71.5 21.5t-85 8.5q-89 0 -168.5 -30.5
t-130.5 -84.5v382zM50 556q59 54 134.5 83.5t159.5 29.5q52 0 93.5 -8.5t77 -21.5t68 -28.5t66.5 -28.5t72.5 -21.5t86.5 -8.5q87 0 163.5 29.5t130.5 83.5v-376q-60 -58 -135.5 -88t-158.5 -30q-53 0 -94.5 8.5t-76.5 21.5t-66.5 28.5t-65 28.5t-71.5 21.5t-85 8.5
q-44 0 -87 -8t-81.5 -22.5t-71.5 -36t-59 -48.5v383z" />
    <glyph glyph-name="notequal" unicode="&#x2260;" horiz-adv-x="908" 
d="M600 732l-17 -64h255v-300h-339l-36 -131h-275l36 131h-154v300h238l17 64h-255v300h339l36 131h275l-36 -131h154v-300h-238z" />
    <glyph glyph-name="lessequal" unicode="&#x2264;" horiz-adv-x="862" 
d="M812 882l-221 -126l221 -126v-306l-762 432l762 432v-306zM50 0v262h762v-262h-762z" />
    <glyph glyph-name="greaterequal" unicode="&#x2265;" horiz-adv-x="862" 
d="M812 756l-762 -432v306l221 126l-221 126v306zM50 262h762v-262h-762v262z" />
    <glyph glyph-name="lozenge" unicode="&#x25ca;" horiz-adv-x="1208" 
d="M90 550l514 950l514 -950l-514 -950zM430 548l174 -320l174 320l-174 322z" />
    <glyph glyph-name="uniE36B" unicode="&#xe36b;" horiz-adv-x="1304" 
d="M903 167l-28 12q-28 -61 -65.5 -99.5t-82.5 -60.5t-98 -30t-113 -8q-236 0 -351 148.5t-115 440.5q0 296 114.5 443.5t349.5 147.5q205 0 320 -115v94h400v-1140h-400zM641 380q54 0 91 10t59.5 32.5t32.5 59t10 88.5t-10 88t-32.5 58.5t-59.5 32.5t-91 10
q-53 0 -94 -9.5t-68.5 -31.5t-42 -58.5t-14.5 -89.5q0 -104 56.5 -147t162.5 -43z" />
    <glyph glyph-name="uniE36C" unicode="&#xe36c;" horiz-adv-x="1273" 
d="M1223 479q-21 -249 -165 -374t-419 -125q-298 0 -443.5 147.5t-145.5 441.5t145.5 442.5t443.5 148.5q274 0 418 -125t166 -372l-398 -60q-5 85 -48 121t-138 36q-52 0 -88.5 -10t-58.5 -32.5t-32 -58.5t-10 -88t10 -88.5t32 -59t58.5 -32.5t88.5 -10q95 0 138 36.5
t48 121.5z" />
    <glyph glyph-name="uniE36D" unicode="&#xe36d;" horiz-adv-x="1276" 
d="M587 399q32 -10 67.5 -14.5t74.5 -4.5q122 0 237 40t231 112v-405q-121 -69 -250.5 -98t-267.5 -29q-322 0 -475.5 145t-153.5 434t145.5 435t443.5 146q149 0 259 -35.5t183 -100.5t109 -157.5t36 -206.5zM834 714q-20 24 -60 35t-100 11q-64 0 -108.5 -11.5
t-72.5 -33.5t-40.5 -53.5t-12.5 -72.5q0 -8 0.5 -16t1.5 -16z" />
    <glyph glyph-name="uniE36E" unicode="&#xe36e;" horiz-adv-x="711" 
d="M661 992v-400h-191v-592h-400v1232q0 268 254 268h337v-360h-69q-44 0 -74 -11.5t-50 -41.5l-116 -180l25 -17l12 16q14 19 33 35t41 27t46 17.5t47 6.5h105z" />
    <glyph glyph-name="uniE36F" unicode="&#xe36f;" horiz-adv-x="1408" 
d="M1075 826q44 -24 74 -53t48 -62t24.5 -67.5t2.5 -68.5q-24 -203 -168.5 -309t-414.5 -106q-154 0 -267 33q-14 -23 -14 -43q0 -29 27.5 -37.5t75.5 -8.5h291q133 0 227 -35.5t155 -95.5t91.5 -139t37.5 -167l-442 -177q17 39 15.5 77t-21 68.5t-56.5 49.5t-92 19h-254
q-97 0 -166 24.5t-113 66t-64.5 95t-20.5 111.5q0 82 38 153t111 126q-150 122 -150 369q0 245 150 368t454 123h703v-419l-297 147l-14 -26zM654 561q56 0 94.5 5t62.5 15.5t34.5 28t10.5 41.5t-10.5 41t-34.5 27.5t-62.5 15.5t-94.5 5q-57 0 -96 -5t-63 -15.5t-34.5 -27.5
t-10.5 -41q0 -25 10.5 -42t34.5 -27.5t63 -15.5t96 -5z" />
    <glyph glyph-name="uniE370" unicode="&#xe370;" horiz-adv-x="812" 
d="M206 0v740h-156v400h156v177h400v-177h156v-400h-156v-740h-400z" />
    <glyph glyph-name="uniE371" unicode="&#xe371;" horiz-adv-x="1240" 
d="M1170 211q0 -173 -54 -307.5t-151.5 -226t-231.5 -139t-295 -47.5h-62l-168 395q151 0 257 9t178.5 34.5t118 71.5t75.5 120l19 46l-28 12q-29 -61 -67.5 -99.5t-83 -60.5t-94.5 -30t-101 -8q-123 0 -206 37t-133 111t-71.5 184.5t-21.5 256.5v570h400v-568
q0 -104 39 -147t123 -43t120.5 43t36.5 147v568h401v-929z" />
    <glyph glyph-name="uniE372" unicode="&#xe372;" horiz-adv-x="1307" 
d="M70 0v1501h400v-1501h-400zM797 0l-325 570l325 570h460l-324 -570l324 -570h-460z" />
    <glyph glyph-name="uniE373" unicode="&#xe373;" horiz-adv-x="1338" 
d="M310 1400h718l260 -1400h-407l-39 213h-345l-40 -213h-407zM767 613l-98 529l-98 -529h196z" />
    <glyph glyph-name="uniE374" unicode="&#xe374;" horiz-adv-x="1362" 
d="M905 778q99 0 175 -28t127.5 -77.5t78 -117t26.5 -147.5q0 -96 -36.5 -172t-101.5 -128.5t-153 -80t-192 -27.5h-759v1400h835q93 0 158 -26t106 -68.5t60 -96.5t19 -110q0 -57 -19 -111t-60 -96t-106 -68t-158 -26v-20zM470 880h320q31 0 46.5 18.5t15.5 41.5
t-15.5 41.5t-46.5 18.5h-320v-120zM470 400h380q31 0 46.5 18.5t15.5 41.5t-15.5 41.5t-46.5 18.5h-380v-120z" />
    <glyph glyph-name="uniE375" unicode="&#xe375;" horiz-adv-x="1510" 
d="M1040 879q-19 33 -47.5 60t-64 46t-76.5 29t-85 10q-69 0 -127 -24t-100 -67.5t-66 -102.5t-24 -130q0 -70 24 -129.5t66 -103t100 -67.5t127 -24q44 0 85 10t76 28.5t63.5 45.5t47.5 60l421 1q-24 -122 -85 -221.5t-151 -170t-205.5 -109t-248.5 -38.5q-158 0 -290 53.5
t-227.5 148.5t-149 227t-53.5 289t53.5 289t149 227t227.5 148.5t290 53.5q133 0 248.5 -38.5t205.5 -109t151 -170t85 -221.5h-420z" />
    <glyph glyph-name="uniE376" unicode="&#xe376;" horiz-adv-x="1544" 
d="M768 1024q-70 0 -128.5 -23.5t-100.5 -66.5t-65.5 -103.5t-23.5 -135.5q0 -69 21 -130t63.5 -106.5t107 -72.5t152.5 -27q100 0 179 32.5t134 82.5h-292v290h659v-764h-282l-39 146q-35 -34 -78.5 -62.5t-95 -49.5t-113 -32.5t-132.5 -11.5q-148 0 -273.5 51.5
t-217 145.5t-142.5 227t-51 295q0 156 53.5 286t149 224t228 146.5t289.5 52.5q133 0 248.5 -38.5t206 -109t151 -170t84.5 -221.5h-420q-19 33 -47.5 60t-63.5 46t-76 29t-85 10z" />
    <glyph glyph-name="uniE377" unicode="&#xe377;" horiz-adv-x="692" 
d="M50 400h105q35 0 51 15t16 52v933h400v-1065q0 -75 -25.5 -136.5t-72 -106t-110 -68.5t-140.5 -24h-224v400z" />
    <glyph glyph-name="uniE378" unicode="&#xe378;" horiz-adv-x="1481" 
d="M70 0v1400h400v-1400h-400zM956 700l475 -700h-484l-474 700l474 700h484z" />
    <glyph glyph-name="uniE379" unicode="&#xe379;" horiz-adv-x="1762" 
d="M120 1400h472l290 -770l288 770h472l70 -1400h-401l-29 580l-241 -580h-320l-241 580l-29 -580h-401z" />
    <glyph glyph-name="uniE37A" unicode="&#xe37a;" horiz-adv-x="1354" 
d="M70 1400h400l414 -662v662h400v-1400h-400l-414 662v-662h-400v1400z" />
    <glyph glyph-name="uniE37B" unicode="&#xe37b;" horiz-adv-x="1294" 
d="M1244 867q0 -129 -40 -228.5t-113 -167t-176 -102.5t-230 -35h-215v-334h-400v1400h615q127 0 230 -35t176 -102.5t113 -167t40 -228.5zM710 704q33 0 58 12t42 32.5t25.5 47.5t8.5 56t-8.5 56t-25.5 47.5t-42 32.5t-58 12h-240v-296h240z" />
    <glyph glyph-name="uniE37C" unicode="&#xe37c;" horiz-adv-x="1539" 
d="M770 1418q158 0 290 -53t227 -148.5t148.5 -227t53.5 -289.5q0 -102 -22.5 -193.5t-65 -169.5t-103 -141.5t-136.5 -109.5l131 -277h-443l-82 173q-157 0 -289 53.5t-227 149t-148.5 227t-53.5 288.5q0 158 53.5 289.5t149 227t228 148.5t289.5 53zM770 1019
q-70 0 -129 -23.5t-101.5 -66t-66 -101t-23.5 -128.5t23.5 -128.5t66 -101t101.5 -66t129 -23.5t128.5 23.5t101 66t66 101t23.5 128.5t-23.5 128.5t-66 101t-101 66t-128.5 23.5z" />
    <glyph glyph-name="uniE37D" unicode="&#xe37d;" horiz-adv-x="1347" 
d="M957 534q51 -17 89 -42.5t67 -60.5t50.5 -80t39.5 -100l78 -251h-420l-108 348q-20 67 -57.5 92t-97.5 25h-128v-465h-400v1400h676q118 0 213.5 -30t163.5 -88.5t105 -144t37 -196.5q0 -163 -83.5 -264t-253.5 -133zM791 829q18 0 31.5 7.5t23 19.5t14.5 27.5t5 31.5
t-5 31t-14.5 27t-23 19.5t-31.5 7.5h-321v-171h321z" />
    <glyph glyph-name="uniE37E" unicode="&#xe37e;" horiz-adv-x="1338" 
d="M457 1400l212 -1141l212 1141h407l-260 -1400h-718l-260 1400h407z" />
    <glyph glyph-name="uniE37F" unicode="&#xe37f;" horiz-adv-x="2053" 
d="M457 1400l147 -791l147 791h551l147 -791l147 791h407l-260 -1400h-588l-129 691l-128 -691h-588l-260 1400h407z" />
    <glyph glyph-name="uniE380" unicode="&#xe380;" horiz-adv-x="1619" 
d="M563 714l-493 686h493l247 -343l246 343h493l-493 -686l513 -714h-493l-266 371l-267 -371h-493z" />
    <glyph glyph-name="uniE381" unicode="&#xe381;" horiz-adv-x="1417" 
d="M509 455l-459 945h445l214 -440l212 440h446l-458 -944v-456h-400v455z" />
    <glyph glyph-name="uniE382" unicode="&#xe382;" horiz-adv-x="1224" 
d="M50 400l576 600h-564v400h1102v-400l-555 -600h565v-400h-1124v400z" />
    <glyph glyph-name="uniE383" unicode="&#xe383;" horiz-adv-x="1338" 
d="M310 1140h718l260 -1140h-410l-47 194h-325l-44 -194h-411zM708 946l-30 5l-105 -463h188l-46 190q-6 26 -11.5 57t-7.5 62.5t-1 62t7 56.5z" />
    <glyph glyph-name="uniE384" unicode="&#xe384;" horiz-adv-x="1302" 
d="M862 634q92 0 164.5 -23t122.5 -64.5t76.5 -98t26.5 -124.5q0 -78 -34 -140t-94.5 -105t-143 -66t-179.5 -23q-144 0 -239.5 42.5t-143.5 133.5l-27 -13l79 -153h-400v1140h793q88 0 149.5 -21t100.5 -55t57 -78t18 -89q0 -46 -19 -89.5t-59 -77.5t-101.5 -55t-146.5 -21
v-20zM470 719h290q31 0 46.5 15.5t15.5 34.5t-15.5 34.5t-46.5 15.5h-290v-100zM470 316h350q31 0 46.5 15.5t15.5 34.5t-15.5 34.5t-46.5 15.5h-350v-100z" />
    <glyph glyph-name="uniE385" unicode="&#xe385;" horiz-adv-x="1294" 
d="M1244 410q-37 -214 -183.5 -322t-406.5 -108q-304 0 -454 147.5t-150 441.5t150 442.5t454 148.5q260 0 405.5 -107t183.5 -321l-393 -91q-13 64 -59 91.5t-137 27.5q-57 0 -96 -10t-63 -32.5t-34.5 -58.5t-10.5 -88t10.5 -88.5t34.5 -59t63 -32.5t96 -10q91 0 137 27.5
t59 92.5z" />
    <glyph glyph-name="uniE386" unicode="&#xe386;" horiz-adv-x="1163" 
d="M70 0v1140h432q150 0 264.5 -42t191.5 -118t116 -180.5t39 -229.5t-39 -229.5t-116 -180.5t-191.5 -118t-264.5 -42h-432zM524 380q66 0 106.5 14t63.5 39.5t31 60t8 76.5t-8 76.5t-31 60t-63.5 39.5t-106.5 14h-54v-380h54z" />
    <glyph glyph-name="uniE387" unicode="&#xe387;" horiz-adv-x="1047" 
d="M70 0v1140h906v-326h-506v-81h506v-326h-506v-81h506v-326h-906z" />
    <glyph glyph-name="uniE388" unicode="&#xe388;" horiz-adv-x="1027" 
d="M70 0v1140h906v-326h-506v-81h506v-326h-506v-407h-400z" />
    <glyph glyph-name="uniE389" unicode="&#xe389;" horiz-adv-x="1297" 
d="M602 -20q-133 0 -235.5 37t-173 110.5t-107 184t-36.5 257.5t41.5 257.5t119 185t188.5 111.5t249 37q246 0 395.5 -114.5t200.5 -341.5l-376 -94q-7 43 -23 71.5t-41 46t-60 25t-79 7.5q-61 0 -102 -13t-66 -38.5t-36 -64t-11 -89.5q0 -61 14 -103t42.5 -68t71.5 -37.5
t101 -11.5q65 0 116 13.5t105 36.5l-8 28h-203v163h557v-578h-312l127 184l-24 18l-12 -16q-31 -40 -66.5 -77t-83.5 -65.5t-114 -45t-159 -16.5z" />
    <glyph glyph-name="uniE38A" unicode="&#xe38a;" horiz-adv-x="1253" 
d="M70 0v1140h400v-408h312v408h400v-1140h-400v366h-312v-366h-400z" />
    <glyph glyph-name="uniE38B" unicode="&#xe38b;" 
d="M70 0v1140h400v-1140h-400z" />
    <glyph glyph-name="uniE38C" unicode="&#xe38c;" horiz-adv-x="692" 
d="M50 400h105q35 0 51 8.5t16 28.5v284h-172l40 418h532v-866q0 -61 -25.5 -111.5t-72 -86.5t-110 -55.5t-140.5 -19.5h-224v400z" />
    <glyph glyph-name="uniE38D" unicode="&#xe38d;" horiz-adv-x="1349" 
d="M470 973q0 -104 -27.5 -194.5t-85.5 -177.5l-13 -19l25 -16l389 574h483l-305 -450l363 -690h-451l-55 104q-44 85 -39 177.5t58 171.5l1 2l-25 16l-318 -471h-400v1140h400v-167z" />
    <glyph glyph-name="uniE38E" unicode="&#xe38e;" horiz-adv-x="1068" 
d="M70 0v1140h400v-740h548v-400h-948z" />
    <glyph glyph-name="uniE38F" unicode="&#xe38f;" horiz-adv-x="1594" 
d="M1091 505q4 -76 -13 -163.5t-50 -171.5l-68 -170h-326l-166 418l-21 -418h-397l77 1140h402l181 -450q33 -81 38 -165.5t-27 -165.5l-3 -9l26 -11l321 801h402l77 -1140h-397l-27 532l-30 -2z" />
    <glyph glyph-name="uniE390" unicode="&#xe390;" horiz-adv-x="1270" 
d="M797 1140h402v-1140h-417l-404 692l-25 -15l12 -21q22 -37 41.5 -79t34.5 -86t23.5 -88.5t8.5 -86.5v-316h-402v1140h417l397 -680l25 14l-12 22q-44 75 -72.5 159t-28.5 169v316z" />
    <glyph glyph-name="uniE391" unicode="&#xe391;" horiz-adv-x="1306" 
d="M654 -30q-304 0 -454 150t-150 449t150 450t454 151q305 0 453.5 -151t148.5 -450t-148.5 -449t-453.5 -150zM654 381q106 0 154 47t48 143t-48 142.5t-154 46.5t-155 -46t-49 -143t49 -143.5t155 -46.5z" />
    <glyph glyph-name="uniE392" unicode="&#xe392;" horiz-adv-x="1153" 
d="M1103 703q0 -104 -32.5 -184.5t-89.5 -135t-133.5 -83t-165.5 -28.5q-109 0 -184.5 39.5t-129.5 107.5l-23 -15l125 -132v-272h-400v1140h568q115 0 202 -32.5t145.5 -90t88 -138t29.5 -176.5zM600 598q60 0 92 28t32 66q0 37 -32 64.5t-92 27.5h-130v-186h130z" />
    <glyph glyph-name="uniE393" unicode="&#xe393;" horiz-adv-x="1307" 
d="M454 -10q-204 45 -303.5 189t-99.5 390q0 299 150 450t454 151q305 0 453.5 -151t148.5 -450q0 -247 -99.5 -391t-303.5 -189v-163h-400v164zM655 381q106 0 154 47t48 143t-48 142.5t-154 46.5t-155 -46t-49 -143t49 -143.5t155 -46.5z" />
    <glyph glyph-name="uniE394" unicode="&#xe394;" horiz-adv-x="1203" 
d="M470 381v-381h-400v1140h568q243 0 363 -87.5t120 -271.5q0 -96 -31.5 -166t-91.5 -115t-146.5 -67t-197.5 -22v-30h327l171 -381h-440l-145 328q-14 29 -32 41t-50 12h-15zM639 693q43 0 64 25t21 55q0 31 -21 56t-64 25h-169v-161h169z" />
    <glyph glyph-name="uniE395" unicode="&#xe395;" horiz-adv-x="1085" 
d="M1035 348q0 -89 -30 -157.5t-93.5 -115.5t-162.5 -71.5t-237 -24.5q-40 0 -96 2.5t-116.5 8.5t-120 16t-106.5 26v417q44 -37 102.5 -63t121.5 -42t125.5 -23t114.5 -7q46 0 72 5.5t26 17.5q0 7 -16.5 12.5t-41.5 11t-55.5 10.5t-59.5 11q-121 24 -200.5 63t-126.5 90
t-66 113t-19 132q0 93 29.5 164t92.5 119t160.5 72.5t233.5 24.5q42 0 99.5 -3t118.5 -10t121 -19t107 -31v-417q-45 37 -103.5 63t-121.5 42t-125 23t-113 7q-48 0 -73.5 -5.5t-25.5 -14.5q0 -8 16 -14.5t41 -12t55.5 -10.5t58.5 -11q121 -24 201 -62t127 -89t66.5 -113.5
t19.5 -134.5z" />
    <glyph glyph-name="uniE396" unicode="&#xe396;" horiz-adv-x="1106" 
d="M352 2v737h-302v400h1006v-400h-304v-737h-400z" />
    <glyph glyph-name="uniE397" unicode="&#xe397;" horiz-adv-x="1152" 
d="M586 0q-105 0 -198.5 26.5t-164 76.5t-112 121.5t-41.5 160.5v755h400v-636q0 -46 32.5 -75t83.5 -29t83.5 29t32.5 75v636h400v-755q0 -89 -41.5 -160.5t-112 -121.5t-164 -76.5t-198.5 -26.5z" />
    <glyph glyph-name="uniE398" unicode="&#xe398;" horiz-adv-x="1338" 
d="M462 1140l216 -951l30 5l-7 30q-6 26 -6.5 57t1.5 62.5t7.5 62t11.5 56.5l163 678h410l-260 -1140h-718l-259 1140h411z" />
    <glyph glyph-name="uniE399" unicode="&#xe399;" horiz-adv-x="1765" 
d="M607 1140h551l149 -801h31l-27 147q-13 71 -20.5 153.5t-8.5 168t4.5 168.5t18.5 154l2 10h408l-212 -1140h-465l-101 547q-9 50 -14 107.5t-5 117.5t5 118t14 107l1 9h-25l-186 -1006h-465l-212 1140h408l149 -801h30l-27 147q-13 71 -20.5 153.5t-8.5 168t5 168.5
t19 154z" />
    <glyph glyph-name="uniE39A" unicode="&#xe39a;" horiz-adv-x="1413" 
d="M50 0l410 570l-410 570h493l164 -227l163 227h493l-410 -570l410 -570h-493l-163 227l-164 -227h-493z" />
    <glyph glyph-name="uniE39B" unicode="&#xe39b;" horiz-adv-x="1313" 
d="M457 382l-407 758h433l235 -486l25 12l-6 13q-34 69 -22 159t58 184l57 118h433l-407 -759v-381h-399v382z" />
    <glyph glyph-name="uniE39C" unicode="&#xe39c;" horiz-adv-x="1107" 
d="M530 837q-30 -21 -67 -39t-76.5 -31t-80 -20t-77.5 -7h-179v400h1007v-413l-561 -444l16 -26l65 46q30 21 67 39t77 31t80.5 20t76.5 7h179v-400h-1007v413l561 444l-16 26z" />
    <glyph glyph-name="uniE39D" unicode="&#xe39d;" horiz-adv-x="1492" 
d="M946 82q-78 -49 -172 -75.5t-209 -26.5q-129 0 -226 33.5t-161 93.5t-96 144t-32 185q0 149 65 245.5t186 149.5q-47 70 -72 138.5t-25 139.5q0 66 24 122.5t75.5 98.5t131 66t190.5 24q107 0 190 -22.5t140 -64.5t86.5 -102t29.5 -134q0 -66 -22.5 -119t-60.5 -93.5
t-89.5 -68.5t-110.5 -45l127 -150l114 234h413l-211 -434q-27 -55 -58 -104l269 -317h-424zM649 935q63 32 87.5 69.5t24.5 72.5q0 14 -4 28.5t-13.5 26.5t-27 20t-44.5 8q-47 0 -67.5 -24t-20.5 -62q0 -36 17 -68.5t48 -70.5zM471 623q-10 -20 -15.5 -43t-5.5 -49
q0 -42 13.5 -73.5t37.5 -52t57 -31t72 -10.5q17 0 32.5 2t29.5 5z" />
    <glyph glyph-name="uniE39E" unicode="&#xe39e;" horiz-adv-x="689" 
d="M331 1490l-270 310h381l151 -310h-262z" />
    <glyph glyph-name="uniE39F" unicode="&#xe39f;" horiz-adv-x="818" 
d="M-56 1690q0 105 53 162.5t157 57.5t157 -57.5t53 -162.5t-53 -162.5t-157 -57.5t-157 57.5t-53 162.5zM453 1690q0 105 53 162.5t157 57.5t157 -57.5t53 -162.5t-53 -162.5t-157 -57.5t-157 57.5t-53 162.5z" />
    <glyph glyph-name="uniE3A0" unicode="&#xe3a0;" horiz-adv-x="690" 
d="M250 1800h381l-270 -310h-262z" />
    <glyph glyph-name="uniE3A1" unicode="&#xe3a1;" horiz-adv-x="848" 
d="M130 1490v310h588v-310h-588z" />
    <glyph glyph-name="uniE3A2" unicode="&#xe3a2;" horiz-adv-x="714" 
d="M438 1490q-18 18 -30.5 50.5t-20.5 69.5t-11.5 73.5t-3.5 61.5h-30q0 -25 -3.5 -61.5t-11.5 -73.5t-20.5 -69.5t-30.5 -50.5h-381l300 310h318l306 -310h-381z" />
    <glyph glyph-name="uniE3A3" unicode="&#xe3a3;" horiz-adv-x="708" 
d="M816 1800l-306 -310h-318l-300 310h381q18 -18 30.5 -50.5t20.5 -69.5t11.5 -73.5t3.5 -61.5h30q0 25 3.5 61.5t11.5 73.5t20.5 69.5t30.5 50.5h381z" />
    <glyph glyph-name="uniE3A4" unicode="&#xe3a4;" horiz-adv-x="772" 
d="M385 1481q-77 0 -131 24.5t-87.5 67t-49 101t-15.5 126.5h151q5 -33 35.5 -54t96.5 -21t98 21.5t36 53.5h151q0 -68 -15.5 -126.5t-49.5 -101t-88.5 -67t-131.5 -24.5z" />
    <glyph glyph-name="uniE3A5" unicode="&#xe3a5;" horiz-adv-x="560" 
d="M60 1690q0 48 16.5 88.5t45.5 70t69.5 45.5t88.5 16t88.5 -16t69.5 -45.5t45.5 -70t16.5 -88.5t-16.5 -88.5t-45.5 -70t-69.5 -45.5t-88.5 -16t-88.5 16t-69.5 45.5t-45.5 70t-16.5 88.5z" />
    <glyph glyph-name="uniE3A6" unicode="&#xe3a6;" horiz-adv-x="560" 
d="M13 1690q0 53 20 94t55 69t84 42.5t107 14.5t107 -14.5t84.5 -42.5t55.5 -69t20 -94t-20 -94t-55.5 -69t-84.5 -42.5t-107 -14.5t-107 14.5t-84 42.5t-55 69t-20 94zM171 1690q0 -22 30 -36t78 -14t78.5 14t30.5 36t-30.5 36t-78.5 14t-78 -14t-30 -36z" />
    <glyph glyph-name="uniE3A7" unicode="&#xe3a7;" horiz-adv-x="792" 
d="M259 1557q-42 0 -73.5 -19t-48.5 -48h-81q1 79 19.5 137.5t49 96.5t72 57t88.5 19q39 0 69 -11t58 -24t56 -24t62 -11q43 0 76 19.5t52 47.5h78q0 -77 -18 -135t-49 -97t-72 -58.5t-87 -19.5q-36 0 -67.5 11t-61 24t-59 24t-63.5 11z" />
    <glyph glyph-name="uniE3A8" unicode="&#xe3a8;" horiz-adv-x="745" 
d="M95 1800h341l-270 -310h-222zM491 1800h341l-270 -310h-222z" />
    <glyph glyph-name="uniE3A9" unicode="&#xe3a9;" horiz-adv-x="520" 
d="M50 904q72 0 124 17t76 59q-48 0 -88.5 16t-69.5 45.5t-45.5 70t-16.5 88.5t16.5 88.5t45.5 70t69.5 45.5t88.5 16q35 0 74 -11t71.5 -40t53.5 -79.5t21 -128.5q0 -97 -33.5 -174.5t-91 -130t-134 -77t-161.5 -14.5v139z" />
    <glyph glyph-name="uniE3AA" unicode="&#xe3aa;" horiz-adv-x="560" 
d="M80 -390q72 0 124 11t76 37q-48 0 -88.5 8.5t-69.5 25.5t-45.5 44t-16.5 63t16.5 63t45 44t67 25.5t83.5 8.5q38 0 78.5 -7t73.5 -25.5t54.5 -51t21.5 -82.5q0 -62 -33.5 -111.5t-91 -83t-134 -49t-161.5 -9.5v89z" />
    </font>
</defs>
</svg>
