<?xml version="1.0" standalone="no"?>
<!DOCTYPE svg PUBLIC "-//W3C//DTD SVG 1.1//EN" "http://www.w3.org/Graphics/SVG/1.1/DTD/svg11.dtd" >
<svg xmlns="http://www.w3.org/2000/svg" xmlns:xlink="http://www.w3.org/1999/xlink" version="1.1">
<metadata>
Created by FontForge 20201107 at Wed Mar  5 20:38:33 2025
 By 
Copyright (c) 2020 by Bagas Ardiatma. All rights reserved.
</metadata>
<defs>
<font id="Causten-Black" horiz-adv-x="1146" >
  <font-face 
    font-family="Causten Black"
    font-weight="900"
    font-stretch="normal"
    units-per-em="2048"
    panose-1="0 0 10 0 0 0 0 0 0 0"
    ascent="1638"
    descent="-410"
    x-height="942"
    cap-height="1331"
    bbox="-860 -410 2666 1825"
    underline-thickness="102"
    underline-position="-204"
    unicode-range="U+0020-25CA"
  />
<missing-glyph horiz-adv-x="972" 
d="M799 1536v-1946h-619v1946h619zM647 1405h-319v-64h125v-71h-127v-64h321v64h-127v71h127v64zM520 1155h-194v-203h321v66h-127v137zM453 1090v-72h-64v72h64zM647 899h-321v-63h127v-72h-127v-64h194v136h127v63zM647 782h-63v-127h-258v-67h321v194zM647 545h-194v-109
h67v45h64v-92h-195v156h-63v-219h321v219zM647 209h-321v-219h321v219zM584 145v-92h-195v92h195zM647 -55h-321v-64h135l-135 -92v-63h321v63h-198l137 92h61v64z" />
    <glyph glyph-name="f_f.liga" unicode="ff" horiz-adv-x="1392" 
d="M137 0v696h-117v246h117v53q0 336 328 336h186v-252h-80q-106 0 -106 -104v-33h340v53q0 166 78 251t229 85h229v-252h-102q-106 0 -106 -104v-33h186v-246h-186v-696h-328v696h-340v-696h-328z" />
    <glyph glyph-name="t_t.liga" unicode="tt" horiz-adv-x="1378" 
d="M444 0q-159 0 -233 77t-74 226v393h-117v246h117v291h328v-291h340v291h328v-291h184v-246h-184v-338q0 -22 3.5 -39t7.5 -28t14.5 -19t15.5 -12t20.5 -6t19.5 -2.5t21.5 0t19.5 0.5h52v-252h-195q-159 0 -233 77t-74 226v393h-340v-338q0 -19 2 -35t7.5 -26.5
t10.5 -18.5t15 -13t15.5 -8t18 -4t18 -1.5t19 0t17.5 0.5h51v-252h-195z" />
    <glyph glyph-name=".notdef" horiz-adv-x="972" 
d="M799 1536v-1946h-619v1946h619zM647 1405h-319v-64h125v-71h-127v-64h321v64h-127v71h127v64zM520 1155h-194v-203h321v66h-127v137zM453 1090v-72h-64v72h64zM647 899h-321v-63h127v-72h-127v-64h194v136h127v63zM647 782h-63v-127h-258v-67h321v194zM647 545h-194v-109
h67v45h64v-92h-195v156h-63v-219h321v219zM647 209h-321v-219h321v219zM584 145v-92h-195v92h195zM647 -55h-321v-64h135l-135 -92v-63h321v63h-198l137 92h61v64z" />
    <glyph glyph-name=".null" horiz-adv-x="0" 
 />
    <glyph glyph-name="nonmarkingreturn" horiz-adv-x="682" 
 />
    <glyph glyph-name="space" unicode=" " horiz-adv-x="409" 
 />
    <glyph glyph-name="exclam" unicode="!" horiz-adv-x="501" 
d="M61 420l-20 911h338l-23 -911h-295zM211 -16q-73 0 -121.5 48t-48.5 122q0 72 48.5 120t121.5 48q72 0 120 -48t48 -120q0 -73 -48 -121.5t-120 -48.5z" />
    <glyph glyph-name="quotedbl" unicode="&#x22;" horiz-adv-x="849" 
d="M72 901l-31 430h307l-45 -430h-231zM532 901l-30 430h307l-45 -430h-232z" />
    <glyph glyph-name="numbersign" unicode="#" horiz-adv-x="1499" 
d="M150 -6l53 244h-162v286h225l53 246h-200v287h262l59 268h308l-60 -268h268l60 268h307l-59 -268h153v-287h-215l-53 -246h190v-286h-254l-53 -244h-307l53 244h-268l-53 -244h-307zM573 524h269l53 246h-268z" />
    <glyph glyph-name="dollar" unicode="$" horiz-adv-x="1271" 
d="M459 -102v155q-138 28 -239.5 101t-137.5 174l280 180q18 -38 106.5 -98t164.5 -60q58 0 84 12.5t26 47.5q0 17 -11.5 30.5t-34.5 24.5t-44.5 18.5t-53.5 17.5t-50 17q-4 2 -39 14.5t-57.5 21.5t-63.5 29t-69 39t-62.5 50t-55.5 63.5t-35.5 76.5t-14.5 93q0 146 84 236
t223 123v153h315v-153q127 -29 231 -96.5t144 -145.5l-264 -176q-31 42 -112.5 89.5t-149.5 47.5q-47 0 -64.5 -14t-17.5 -41q0 -14 6 -26.5t19 -23.5t26 -19.5t34 -17.5t35.5 -14.5t38 -14.5t35.5 -13q4 -2 40.5 -15t58 -21.5t63 -28.5t68 -38t60.5 -48t54.5 -61t34.5 -73
t14 -88q0 -156 -95 -253t-259 -126v-149h-315z" />
    <glyph glyph-name="percent" unicode="%" horiz-adv-x="1820" 
d="M82 1001q0 152 95 249.5t243 97.5q147 0 241.5 -97.5t94.5 -249.5q0 -147 -95 -244.5t-241 -97.5q-147 0 -242.5 97.5t-95.5 244.5zM408 0l718 1331h246l-719 -1331h-245zM291 1001q0 -56 35 -94.5t94 -38.5t93 38t34 95q0 59 -34 98.5t-93 39.5q-60 0 -94.5 -39.5
t-34.5 -98.5zM1024 324q0 152 95 249t243 97q147 0 241.5 -97t94.5 -249q0 -147 -95 -244.5t-241 -97.5q-147 0 -242.5 97.5t-95.5 244.5zM1233 324q0 -56 35 -95t94 -39t93 38.5t34 95.5q0 59 -33.5 98t-93.5 39t-94.5 -39t-34.5 -98z" />
    <glyph glyph-name="ampersand" unicode="&#x26;" horiz-adv-x="1368" 
d="M551 -16q-223 0 -346 102.5t-123 263.5q0 107 58 195t194 182q-52 62 -78 98t-50 96t-24 121q0 59 24.5 113t70 97.5t118 69.5t160.5 26t160.5 -27t118 -72t70 -99.5t24.5 -111.5q0 -70 -21.5 -131t-60 -107.5t-75.5 -78t-85 -62.5q18 -22 186 -225q56 100 56 213v12h246
v-14q0 -220 -142 -403q196 -237 213 -256h-307q-34 40 -78 96q-149 -98 -309 -98zM532 848q140 89 140 172q0 54 -34 83.5t-83 29.5q-48 0 -82.5 -30.5t-34.5 -82.5q0 -9 1.5 -18t3 -16.5t6 -17t7 -16t9.5 -17t10.5 -16t13 -17t13.5 -16.5t15 -19t15 -19zM555 229
q71 0 150 43q-157 191 -211 260q-19 -17 -35 -33t-27 -30.5t-19 -27t-12.5 -24t-7.5 -20.5t-3.5 -17.5t-1 -13.5t0 -10t0.5 -6q0 -44 41 -82.5t125 -38.5z" />
    <glyph glyph-name="quotesingle" unicode="'" horiz-adv-x="389" 
d="M72 901l-31 430h307l-45 -430h-231z" />
    <glyph glyph-name="parenleft" unicode="(" horiz-adv-x="632" 
d="M221 -98q-118 180 -161 468t0 576.5t161 470.5h328q-93 -127 -142.5 -335t-49.5 -423.5t50.5 -423t143.5 -333.5h-330z" />
    <glyph glyph-name="parenright" unicode=")" horiz-adv-x="653" 
d="M61 -98q93 126 143.5 333.5t50.5 423t-49.5 423.5t-142.5 335h328q118 -182 161 -470.5t0 -576.5t-161 -468h-330z" />
    <glyph glyph-name="asterisk" unicode="*" horiz-adv-x="780" 
d="M303 670v188l-176 -100l-86 139l190 107l-184 116l90 140l166 -105v176h174v-188l176 100l86 -139l-186 -107l182 -114l-90 -140l-168 107v-180h-174z" />
    <glyph glyph-name="plus" unicode="+" horiz-adv-x="1064" 
d="M379 227v297h-297v267h297v296h266v-296h297v-267h-297v-297h-266z" />
    <glyph glyph-name="comma" unicode="," horiz-adv-x="479" 
d="M41 -233l90 430h307l-166 -430h-231z" />
    <glyph glyph-name="hyphen" unicode="-" horiz-adv-x="827" 
d="M82 389v307h623v-307h-623z" />
    <glyph glyph-name="period" unicode="." horiz-adv-x="417" 
d="M209 -16q-73 0 -120.5 47t-47.5 121q0 73 47 119t121 46t121 -46t47 -119q0 -74 -47.5 -121t-120.5 -47z" />
    <glyph glyph-name="slash" unicode="/" horiz-adv-x="833" 
d="M41 -96l434 1513h318l-435 -1513h-317z" />
    <glyph glyph-name="zero" unicode="0" horiz-adv-x="1320" 
d="M645 -16q-171 0 -304.5 88t-206.5 243t-73 351t73 351t206.5 243t304.5 88q172 0 307.5 -87.5t211 -243.5t75.5 -351t-75.5 -351t-211 -243.5t-307.5 -87.5zM645 311q98 0 172 91t74 264q0 89 -21.5 157.5t-58 108t-78.5 59t-88 19.5t-88 -19.5t-78.5 -59t-58 -108
t-21.5 -157.5q0 -173 74 -264t172 -91z" />
    <glyph glyph-name="one" unicode="1" horiz-adv-x="759" 
d="M299 0v1024h-279v307h617v-1331h-338z" />
    <glyph glyph-name="two" unicode="2" horiz-adv-x="1069" 
d="M57 0l-2 274l168 146q205 177 280 255q152 156 152 240q0 50 -31 82.5t-98 32.5q-71 0 -119.5 -45.5t-64.5 -99.5l-301 143q14 48 48.5 99.5t91.5 104t147.5 86.5t197.5 34q223 0 351.5 -114t128.5 -302q0 -51 -15 -105t-35.5 -98t-57 -94.5t-64 -84t-72.5 -78t-68 -65.5
t-63 -57l-53 -47h430v-307h-951z" />
    <glyph glyph-name="three" unicode="3" horiz-adv-x="1165" 
d="M526 -16q-154 0 -288 59t-197 150l207 229q39 -42 114 -76.5t164 -34.5q95 0 152 39t57 109t-57.5 112.5t-151.5 42.5q-106 0 -235 -36l4 237l270 209h-432v307h903v-284l-237 -207q274 -96 274 -381q0 -102 -32 -184t-85 -135.5t-124.5 -89.5t-147.5 -51t-158 -15z" />
    <glyph glyph-name="four" unicode="4" horiz-adv-x="1243" 
d="M688 0v211h-647v211l647 909h336v-878h158v-242h-158v-211h-336zM369 453h319v452z" />
    <glyph glyph-name="five" unicode="5" horiz-adv-x="1150" 
d="M528 -16q-293 0 -487 194l217 242q107 -109 246 -109q38 0 72.5 6t69 20.5t55 43.5t20.5 70q0 52 -37.5 86t-86 45.5t-105.5 11.5q-126 0 -224 -43l-108 164l121 616h723v-307h-459l-35 -158q144 -1 252 -36t171.5 -95.5t94.5 -137t31 -167.5q0 -144 -72.5 -246.5
t-190.5 -151t-268 -48.5z" />
    <glyph glyph-name="six" unicode="6" horiz-adv-x="1138" 
d="M555 -16q-139 0 -253 67t-177.5 180.5t-63.5 247.5q0 140 95 295l348 557h362l-227 -362q181 -29 294.5 -166.5t113.5 -323.5q0 -134 -63 -247t-176.5 -180.5t-252.5 -67.5zM555 301q76 0 125 50.5t49 127.5t-49 130t-125 53q-78 0 -127 -52.5t-49 -130.5
q0 -77 48.5 -127.5t127.5 -50.5z" />
    <glyph glyph-name="seven" unicode="7" horiz-adv-x="1001" 
d="M76 0l471 1024h-506v307h899v-221l-512 -1110h-352z" />
    <glyph glyph-name="eight" unicode="8" horiz-adv-x="1157" 
d="M565 -23q-244 0 -374 116.5t-130 301.5q0 87 46 166t133 133q-76 55 -115 131t-39 154q0 53 17 104.5t55 101t92 86.5t135.5 60t179.5 23q97 0 178 -23t135 -60t91.5 -86.5t54 -101t16.5 -104.5q0 -78 -38 -154t-113 -131q87 -54 131.5 -132.5t44.5 -166.5
q0 -185 -128.5 -301.5t-371.5 -116.5zM565 805q81 0 123.5 45t42.5 106t-42.5 106.5t-123.5 45.5q-82 0 -126 -45.5t-44 -106.5t44 -106t126 -45zM565 252q83 0 129.5 47t46.5 115q0 69 -46.5 115t-129.5 46q-85 0 -132.5 -46t-47.5 -115q0 -64 48.5 -113t131.5 -49z" />
    <glyph glyph-name="nine" unicode="9" horiz-adv-x="1138" 
d="M242 0l223 365q-178 29 -291 165.5t-113 321.5q0 134 63 247.5t176.5 181t252.5 67.5t253 -67.5t177.5 -181t63.5 -247.5q0 -141 -95 -295l-348 -557h-362zM553 670q78 0 127 52t49 130q0 77 -48.5 127.5t-127.5 50.5q-76 0 -125 -50.5t-49 -127.5t49 -129.5t125 -52.5z
" />
    <glyph glyph-name="colon" unicode=":" horiz-adv-x="458" 
d="M209 608q-73 0 -120.5 47t-47.5 121q0 73 47 119.5t121 46.5t121 -46.5t47 -119.5q0 -74 -47.5 -121t-120.5 -47zM209 -16q-73 0 -120.5 47t-47.5 121q0 73 47 119t121 46t121 -46t47 -119q0 -74 -47.5 -121t-120.5 -47z" />
    <glyph glyph-name="semicolon" unicode=";" horiz-adv-x="520" 
d="M268 606q-69 0 -118.5 49.5t-49.5 118.5t49.5 118.5t118.5 49.5t118.5 -49.5t49.5 -118.5t-49.5 -118.5t-118.5 -49.5zM41 -233l90 430h307l-166 -430h-231z" />
    <glyph glyph-name="less" unicode="&#x3c;" horiz-adv-x="880" 
d="M758 283l-676 249v252l676 250v-246l-352 -129l352 -131v-245z" />
    <glyph glyph-name="equal" unicode="=" horiz-adv-x="1067" 
d="M82 758v246h862v-246h-862zM82 315v248h862v-248h-862z" />
    <glyph glyph-name="greater" unicode="&#x3e;" horiz-adv-x="880" 
d="M82 283v245l352 131l-352 129v246l676 -250v-252z" />
    <glyph glyph-name="question" unicode="?" horiz-adv-x="1050" 
d="M322 420v29q0 98 35.5 166.5t99.5 132.5l34.5 34.5t35.5 36.5t26.5 31.5t25 35.5t13 32.5t6.5 37.5q0 36 -24.5 63.5t-81.5 27.5q-60 0 -111.5 -42.5t-73.5 -97.5l-287 142q52 128 171.5 216.5t300.5 88.5q204 0 330 -95t126 -274q0 -55 -11 -101.5t-35 -85.5t-39 -58.5
t-44 -51.5q-103 -114 -125 -145q-35 -51 -35 -94v-29h-337zM494 -16q-73 0 -120.5 48t-47.5 120q0 74 47.5 122t120.5 48q74 0 122 -48t48 -122q0 -72 -48.5 -120t-121.5 -48z" />
    <glyph glyph-name="at" unicode="@" horiz-adv-x="1630" 
d="M797 -74q-201 0 -365.5 97.5t-257 265t-92.5 370.5q0 157 56.5 294.5t152.5 233.5t227.5 151t278.5 55q146 0 277.5 -54.5t226 -147.5t150.5 -223.5t56 -275.5q0 -83 -15 -156t-48.5 -139.5t-97 -105.5t-150.5 -39q-95 0 -168.5 42.5t-107.5 123.5q-62 -96 -185 -96
q-44 0 -90.5 19.5t-89.5 57.5t-70.5 104.5t-27.5 149.5t27.5 149t70.5 104t89.5 57.5t90.5 19.5q100 0 158 -61v51h205v-387q0 -166 98 -166q22 0 38.5 9.5t33.5 36.5t26 84t9 142q0 106 -30.5 192t-80.5 141.5t-116.5 93t-136 53.5t-142.5 16q-71 0 -142.5 -20.5t-138 -64
t-117.5 -105t-81.5 -149.5t-30.5 -190q0 -101 30.5 -188.5t82 -149t117.5 -105t137.5 -64.5t142.5 -21q75 0 127 10t112 41l103 -188q-136 -68 -342 -68zM778 526q53 0 84 36t31 91t-31 90t-84 35t-84.5 -35t-31.5 -90t31.5 -91t84.5 -36z" />
    <glyph glyph-name="A" unicode="A" horiz-adv-x="1386" 
d="M20 0l535 1331h256l535 -1331h-359l-57 147h-494l-57 -147h-359zM553 455h258l-129 336z" />
    <glyph glyph-name="B" unicode="B" horiz-adv-x="1236" 
d="M82 0v1331h627q105 0 193.5 -42.5t146 -133t57.5 -213.5q0 -168 -107 -254q156 -97 156 -293q0 -121 -62 -213.5t-155.5 -137t-198.5 -44.5h-657zM420 821h229q50 0 79.5 27t29.5 76t-29 74.5t-80 25.5h-229v-203zM420 307h264q57 0 90 34t33 85q0 50 -34.5 84.5
t-88.5 34.5h-264v-238z" />
    <glyph glyph-name="C" unicode="C" horiz-adv-x="1345" 
d="M735 -16q-146 0 -271.5 51.5t-214 141t-138.5 216.5t-50 273t50 273t138.5 216.5t214 141t271.5 51.5q174 0 312.5 -71t226.5 -198l-270 -202q-41 55 -112.5 94t-156.5 39q-150 0 -243 -96t-93 -248t93 -248t243 -96q82 0 153 42.5t116 98.5l270 -211
q-88 -127 -226.5 -197.5t-312.5 -70.5z" />
    <glyph glyph-name="D" unicode="D" horiz-adv-x="1347" 
d="M82 0v1331h520q292 0 472.5 -184.5t180.5 -480.5q0 -297 -181 -481.5t-472 -184.5h-520zM420 328h182q19 0 42.5 3.5t63 13t74 33t67 58.5t51 94.5t18.5 135.5q0 65 -15.5 118.5t-38.5 87.5t-55 60t-61 39t-61 21t-50.5 10t-34.5 2h-182v-676z" />
    <glyph glyph-name="E" unicode="E" horiz-adv-x="1122" 
d="M82 0v1331h928v-307h-590v-205h547v-307h-547v-205h590v-307h-928z" />
    <glyph glyph-name="F" unicode="F" horiz-adv-x="1130" 
d="M82 0v1331h936v-317h-598v-240h559v-317h-559v-457h-338z" />
    <glyph glyph-name="G" unicode="G" horiz-adv-x="1476" 
d="M735 -16q-146 0 -271.5 51.5t-214 141t-138.5 216.5t-50 273t50 273t138.5 216.5t214 141t271.5 51.5q173 0 312 -70.5t227 -196.5l-273 -202q-50 69 -120.5 100t-145.5 31q-150 0 -243 -96t-93 -248t93 -248t243 -96q80 0 151 39t97 118h-268v307h659v-151
q-11 -289 -183 -470t-456 -181z" />
    <glyph glyph-name="H" unicode="H" horiz-adv-x="1345" 
d="M82 0v1331h338v-502h465v502h338v-1331h-338v502h-465v-502h-338z" />
    <glyph glyph-name="I" unicode="I" horiz-adv-x="542" 
d="M82 0v1331h338v-1331h-338z" />
    <glyph glyph-name="J" unicode="J" horiz-adv-x="1097" 
d="M504 -16q-200 0 -318.5 99t-144.5 263l330 117q21 -152 133 -152q63 0 98 41t35 113v866h338v-915q0 -203 -129.5 -317.5t-341.5 -114.5z" />
    <glyph glyph-name="K" unicode="K" horiz-adv-x="1208" 
d="M82 0v1331h338v-500l340 500h381l-441 -665l467 -666h-389l-358 506v-506h-338z" />
    <glyph glyph-name="L" unicode="L" horiz-adv-x="1087" 
d="M82 0v1331h338v-1024h586v-307h-924z" />
    <glyph glyph-name="M" unicode="M" horiz-adv-x="1576" 
d="M82 0v1331h338l348 -694l348 694h338v-1331h-338v635l-231 -490h-234l-231 490v-635h-338z" />
    <glyph glyph-name="N" unicode="N" horiz-adv-x="1325" 
d="M82 0v1331h328l454 -727v727h338v-1331h-328l-454 725v-725h-338z" />
    <glyph glyph-name="O" unicode="O" horiz-adv-x="1497" 
d="M735 -16q-146 0 -271.5 51.5t-214 141t-138.5 216.5t-50 273t50 273t138.5 216.5t214 141t271.5 51.5t271 -51.5t212.5 -141.5t137 -216.5t49.5 -272.5t-49.5 -272.5t-137 -216.5t-212.5 -141.5t-271 -51.5zM735 322q150 0 241 96t91 248t-91 248t-241 96t-243 -96
t-93 -248t93 -248t243 -96z" />
    <glyph glyph-name="P" unicode="P" horiz-adv-x="1218" 
d="M82 0v1331h633q76 0 149.5 -28.5t135 -83t99.5 -145t38 -202.5q0 -113 -38 -203.5t-99.5 -145t-135 -83t-149.5 -28.5h-295v-412h-338zM420 739h233q58 0 102 34.5t44 98.5q0 65 -42 98.5t-100 33.5h-237v-265z" />
    <glyph glyph-name="Q" unicode="Q" horiz-adv-x="1497" 
d="M963 -168l-119 160q-47 -8 -109 -8q-146 0 -271.5 51.5t-214 141t-138.5 216.5t-50 273t51.5 273t141 216.5t214.5 141t267 51.5q196 0 349.5 -88t237 -243t83.5 -351q0 -172 -66 -313.5t-186 -233.5l213 -287h-403zM735 322q150 0 241 96t91 248t-91 248t-241 96
t-243 -96t-93 -248t93 -248t243 -96z" />
    <glyph glyph-name="R" unicode="R" horiz-adv-x="1269" 
d="M82 0v1331h653q76 0 149.5 -28.5t135 -83t99.5 -145t38 -202.5q0 -153 -65.5 -258.5t-171.5 -158.5l268 -455h-389l-242 412h-137v-412h-338zM420 739h258q58 0 99.5 34t41.5 99t-41.5 98.5t-99.5 33.5h-258v-265z" />
    <glyph glyph-name="S" unicode="S" horiz-adv-x="1259" 
d="M633 -25q-115 0 -218 30.5t-175.5 80t-122.5 106.5t-76 117l270 197q14 -20 46.5 -49.5t80 -63t111 -57t123.5 -23.5q77 0 102 21.5t25 56.5q0 19 -18 36t-50.5 31t-64 24.5t-71 23t-60.5 20.5q-11 4 -44 15t-62 21.5t-70.5 29.5t-75.5 39.5t-69.5 52t-60 67t-40 84
t-15.5 103.5q0 89 30.5 161t82 119t121.5 79t144.5 45.5t156.5 13.5q186 0 339.5 -93t196.5 -206l-264 -178q-35 45 -123.5 92t-191.5 47q-51 0 -77 -16.5t-26 -45.5q0 -27 29.5 -50t63 -35.5t88.5 -30t75 -25.5q8 -3 43.5 -16t62.5 -23t70 -31t75.5 -41.5t68.5 -52.5
t60 -66t39.5 -80t15.5 -97q0 -208 -149 -320.5t-396 -112.5z" />
    <glyph glyph-name="T" unicode="T" horiz-adv-x="1212" 
d="M418 0v1024h-377v307h1089v-307h-374v-1024h-338z" />
    <glyph glyph-name="U" unicode="U" horiz-adv-x="1257" 
d="M608 -16q-124 0 -225.5 40.5t-166.5 108.5t-99.5 156t-34.5 186v856h338v-817q0 -58 16.5 -99.5t45 -63t59.5 -31t67 -9.5t67 9.5t60 31t45.5 63t16.5 99.5v817h338v-856q0 -98 -35 -186t-99.5 -156t-166.5 -108.5t-226 -40.5z" />
    <glyph glyph-name="V" unicode="V" horiz-adv-x="1357" 
d="M535 0l-515 1331h359l289 -764l290 764h359l-514 -1331h-268z" />
    <glyph glyph-name="W" unicode="W" horiz-adv-x="1951" 
d="M465 0l-445 1331h359l237 -719l236 719h248l227 -674l225 674h359l-445 -1331h-290l-209 633l-211 -633h-291z" />
    <glyph glyph-name="X" unicode="X" horiz-adv-x="1343" 
d="M20 0l437 666l-437 665h390l241 -368l242 368h389l-436 -665l436 -666h-389l-242 369l-241 -369h-390z" />
    <glyph glyph-name="Y" unicode="Y" horiz-adv-x="1329" 
d="M481 0v549l-471 782h387l252 -426l252 426h387l-469 -778v-553h-338z" />
    <glyph glyph-name="Z" unicode="Z" horiz-adv-x="1114" 
d="M61 0v281l543 741h-530v309h958v-282l-549 -740l539 -2v-307h-961z" />
    <glyph glyph-name="bracketleft" unicode="[" horiz-adv-x="690" 
d="M82 -98v1515h485v-235h-178v-1045h178v-235h-485z" />
    <glyph glyph-name="backslash" unicode="\" horiz-adv-x="833" 
d="M475 -98l-434 1513h317l435 -1513h-318z" />
    <glyph glyph-name="bracketright" unicode="]" horiz-adv-x="690" 
d="M82 -98v235h178v1045h-178v235h485v-1515h-485z" />
    <glyph glyph-name="asciicircum" unicode="^" horiz-adv-x="954" 
d="M82 659l235 672h271l243 -672h-245l-131 363l-127 -363h-246z" />
    <glyph glyph-name="underscore" unicode="_" horiz-adv-x="925" 
d="M82 0v307h721v-307h-721z" />
    <glyph glyph-name="grave" unicode="`" horiz-adv-x="477" 
d="M170 1079l-129 252h274l121 -252h-266z" />
    <glyph glyph-name="a" unicode="a" 
d="M479 -16q-188 0 -313 138.5t-125 348.5q0 213 124.5 349t313.5 136q135 0 217 -73v59h328v-942h-328v57q-86 -73 -217 -73zM528 291q75 0 121.5 51t46.5 129t-46.5 128t-121.5 50q-76 0 -123 -50.5t-47 -127.5q0 -78 47 -129t123 -51z" />
    <glyph glyph-name="b" unicode="b" 
d="M627 -16q-131 0 -217 73v-57h-328v1331h328v-448q82 73 217 73q189 0 313.5 -136t124.5 -349q0 -210 -125 -348.5t-313 -138.5zM578 291q76 0 123 51t47 129q0 77 -47 127.5t-123 50.5q-75 0 -121.5 -50t-46.5 -128t46.5 -129t121.5 -51z" />
    <glyph glyph-name="c" unicode="c" horiz-adv-x="970" 
d="M526 -18q-215 0 -350 136.5t-135 352.5q0 215 135 351t350 136q122 0 221 -50.5t162 -139.5l-233 -182q-56 63 -141 63q-76 0 -125.5 -50.5t-49.5 -127.5t49.5 -128.5t125.5 -51.5q90 0 141 59l233 -176q-63 -91 -161.5 -141.5t-221.5 -50.5z" />
    <glyph glyph-name="d" unicode="d" 
d="M479 -16q-188 0 -313 138.5t-125 348.5q0 213 124.5 349t313.5 136q135 0 217 -73v448h328v-1331h-328v57q-86 -73 -217 -73zM528 291q75 0 121.5 51t46.5 129t-46.5 128t-121.5 50q-76 0 -123 -50.5t-47 -127.5q0 -78 47 -129t123 -51z" />
    <glyph glyph-name="e" unicode="e" horiz-adv-x="1050" 
d="M524 -20q-217 0 -350 138.5t-133 352.5t130.5 352t342.5 138q211 0 333 -137t122 -353v-86h-609q18 -62 62 -95.5t102 -33.5q39 0 71 8t54 22.5t30.5 22.5t20.5 21l222 -164q-62 -87 -166 -136.5t-232 -49.5zM365 588h294q-34 117 -145 117q-105 0 -149 -117z" />
    <glyph glyph-name="f" unicode="f" horiz-adv-x="735" 
d="M137 0v696h-117v246h117v53q0 336 328 336h209v-252h-103q-54 0 -80 -25t-26 -79v-33h186v-246h-186v-696h-328z" />
    <glyph glyph-name="g" unicode="g" 
d="M514 -410q-127 0 -232.5 47.5t-172.5 126.5l210 179q78 -78 195 -78q14 0 31 2.5t45.5 14t50 30.5t38 57.5t17.5 89.5q-88 -75 -219 -75q-188 0 -312 138.5t-124 348.5t124 347.5t312 137.5q131 0 219 -75v61h328v-879q0 -211 -132 -342t-378 -131zM526 291q76 0 123 51
t47 129q0 77 -47 127.5t-123 50.5q-75 0 -121.5 -50t-46.5 -128t46.5 -129t121.5 -51z" />
    <glyph glyph-name="h" unicode="h" horiz-adv-x="1132" 
d="M82 0v1331h328v-457q94 82 237 82q51 0 99 -10.5t97 -37.5t85 -69t59 -110.5t23 -155.5v-573h-328v520q0 44 -12 76.5t-28 48t-38 25t-35 11t-26 1.5t-25.5 -1.5t-33.5 -11t-36 -25t-26.5 -48t-11.5 -76.5v-520h-328z" />
    <glyph glyph-name="i" unicode="i" horiz-adv-x="552" 
d="M256 1040q-68 0 -121 49t-53 128q0 78 52.5 122.5t121.5 44.5t121.5 -44.5t52.5 -122.5q0 -79 -53 -128t-121 -49zM92 0v942h330l-2 -942h-328z" />
    <glyph glyph-name="j" unicode="j" horiz-adv-x="571" 
d="M276 1040q-68 0 -122 49t-54 128q0 78 52.5 122.5t121.5 44.5t122 -44.5t53 -122.5q0 -79 -53 -128t-120 -49zM-41 -377v252h39h16.5h17t15.5 1t16 2.5t14 5.5t13 9t10 13.5t8.5 19t4.5 24.5t2 32v960h327v-1034q0 -126 -77.5 -205.5t-245.5 -79.5h-160z" />
    <glyph glyph-name="k" unicode="k" horiz-adv-x="1101" 
d="M82 0v1331h328v-708l229 319h379l-322 -446l365 -496h-379l-272 371v-371h-328z" />
    <glyph glyph-name="l" unicode="l" horiz-adv-x="534" 
d="M82 0v1331h330l-2 -1331h-328z" />
    <glyph glyph-name="m" unicode="m" horiz-adv-x="1691" 
d="M82 0v942h328v-80q97 94 229 94q186 0 281 -127q57 68 137 97.5t162 29.5q51 0 97.5 -10.5t93.5 -37.5t81.5 -69t56 -110.5t21.5 -155.5v-573h-328v526q0 41 -12.5 70.5t-28 43.5t-37 22t-31.5 9t-20 1t-19.5 -1t-30 -9t-35 -22t-26.5 -43.5t-12 -70.5v-526h-327v526
q0 50 -17 83t-43.5 45t-41 15t-28.5 3q-10 0 -19.5 -1t-30 -9t-35 -22t-26 -43.5t-11.5 -70.5v-526h-328z" />
    <glyph glyph-name="n" unicode="n" horiz-adv-x="1132" 
d="M82 0v942h328v-68q94 82 237 82q51 0 99 -10.5t97 -37.5t85 -69t59 -110.5t23 -155.5v-573h-328v520q0 44 -12 76.5t-28 48t-38 25t-35 11t-26 1.5t-25.5 -1.5t-33.5 -11t-36 -25t-26.5 -48t-11.5 -76.5v-520h-328z" />
    <glyph glyph-name="o" unicode="o" horiz-adv-x="1103" 
d="M532 -20q-214 0 -352.5 139.5t-138.5 351.5q0 215 138 353.5t353 138.5t352.5 -138.5t137.5 -353.5q0 -212 -138 -351.5t-352 -139.5zM532 291q75 0 121.5 51t46.5 129t-46.5 128t-121.5 50q-76 0 -123 -50.5t-47 -127.5q0 -78 47 -129t123 -51z" />
    <glyph glyph-name="p" unicode="p" 
d="M82 -377v1319h328v-59q86 73 217 73q188 0 313 -138.5t125 -348.5q0 -213 -124.5 -349t-313.5 -136q-135 0 -217 73v-434h-328zM578 291q76 0 123 50.5t47 127.5q0 78 -47 129t-123 51q-75 0 -121.5 -51t-46.5 -129t46.5 -128t121.5 -50z" />
    <glyph glyph-name="q" unicode="q" 
d="M696 -377v434q-82 -73 -217 -73q-189 0 -313.5 136t-124.5 349q0 210 125 348.5t313 138.5q131 0 217 -73v59h328v-1319h-328zM528 291q75 0 121.5 50t46.5 128t-46.5 129t-121.5 51q-76 0 -123 -51t-47 -129q0 -77 47 -127.5t123 -50.5z" />
    <glyph glyph-name="r" unicode="r" horiz-adv-x="802" 
d="M82 0v942h328v-170q116 180 331 184v-307h-13q-318 8 -318 -268v-381h-328z" />
    <glyph glyph-name="s" unicode="s" horiz-adv-x="923" 
d="M461 -31q-170 0 -285.5 70t-155.5 164l222 151q14 -32 85.5 -79.5t137.5 -47.5q80 0 80 41q0 13 -9.5 23.5t-27.5 19t-35 15t-42.5 14.5t-39.5 14q-5 2 -31.5 11.5t-46 17t-52 23.5t-56 32t-51 40t-45 50.5t-29.5 61.5t-12 74q0 78 32.5 137.5t89 94t125 52t146.5 17.5
q149 0 255.5 -61t151.5 -146l-209 -140q-27 31 -91 65t-119 34q-64 0 -64 -37q0 -15 9.5 -27t28 -21.5t35.5 -16t43.5 -15.5t39.5 -14q3 -1 31.5 -11.5t46 -18t51 -24t56 -31.5t50.5 -39.5t45 -50t29 -59.5t12 -71q0 -151 -106.5 -231.5t-294.5 -80.5z" />
    <glyph glyph-name="t" unicode="t" horiz-adv-x="731" 
d="M446 0q-309 0 -309 303v393h-117v246h117v291h328v-291h184v-246h-184v-338q0 -19 2 -35t7.5 -26.5t10.5 -18.5t15 -13t15.5 -8t18 -4t18 -1.5t19 0t17.5 0.5h51v-252h-193z" />
    <glyph glyph-name="u" unicode="u" horiz-adv-x="1132" 
d="M444 -16q-65 0 -124 18t-115 59t-89.5 119.5t-33.5 186.5v575h328v-522q0 -44 12 -76.5t28 -48t38 -25t35 -11t26 -1.5t25.5 1.5t33.5 11t36 25t26.5 48t11.5 76.5v522h328v-942h-328v66q-94 -82 -238 -82z" />
    <glyph glyph-name="v" unicode="v" horiz-adv-x="1124" 
d="M391 0l-371 942h338l193 -500l194 500h338l-374 -942h-318z" />
    <glyph glyph-name="w" unicode="w" horiz-adv-x="1603" 
d="M317 0l-297 942h338l142 -479l170 479h245l170 -479l140 479h338l-301 -942h-318l-156 455l-153 -455h-318z" />
    <glyph glyph-name="x" unicode="x" horiz-adv-x="1112" 
d="M20 0l328 471l-328 471h377l140 -199l137 199h377l-326 -471l326 -471h-377l-137 199l-140 -199h-377z" />
    <glyph glyph-name="y" unicode="y" horiz-adv-x="1124" 
d="M242 -377l149 377l-371 942h338l193 -489l194 489h338l-524 -1319h-317z" />
    <glyph glyph-name="z" unicode="z" horiz-adv-x="860" 
d="M41 0v242l321 434h-321v266h737v-242l-323 -434h323v-266h-737z" />
    <glyph glyph-name="braceleft" unicode="{" horiz-adv-x="794" 
d="M414 -98q-228 0 -228 266v287q0 51 -20.5 76.5t-52.5 25.5h-31v205h31q32 0 52.5 25.5t20.5 76.5v287q0 143 56.5 204.5t171.5 61.5h258v-235h-101q-67 0 -67 -88v-230q0 -152 -123 -205q123 -56 123 -204v-230q0 -88 67 -88h101v-235h-258z" />
    <glyph glyph-name="bar" unicode="|" horiz-adv-x="512" 
d="M82 -98v1515h307v-1515h-307z" />
    <glyph glyph-name="braceright" unicode="}" horiz-adv-x="794" 
d="M82 -98v235h100q68 0 68 88v230q0 148 123 204q-123 53 -123 205v230q0 88 -68 88h-100v235h258q114 0 170.5 -61.5t56.5 -204.5v-287q0 -51 21 -76.5t53 -25.5h31v-205h-31q-32 0 -53 -25.5t-21 -76.5v-287q0 -266 -227 -266h-258z" />
    <glyph glyph-name="asciitilde" unicode="~" horiz-adv-x="1183" 
d="M729 453q-79 0 -127 23t-96 67q-9 8 -22.5 21t-18.5 17.5t-13.5 11t-14 8.5t-13.5 3.5t-18 1.5q-30 0 -49 -22t-24 -46t-5 -51h-246q0 166 79.5 270.5t235.5 104.5q54 0 100 -17.5t64.5 -32.5t54.5 -48q41 -38 64.5 -51t48.5 -13q14 0 24 2.5t26.5 13t26 39t9.5 72.5h246
q0 -166 -83 -270t-249 -104z" />
    <glyph glyph-name="exclamdown" unicode="&#xa1;" horiz-adv-x="501" 
d="M211 1010q-71 0 -120.5 50t-49.5 120q0 69 50 118.5t120 49.5q69 0 118.5 -49.5t49.5 -118.5q0 -70 -49.5 -120t-118.5 -50zM41 0l22 881h295l21 -881h-338z" />
    <glyph glyph-name="cent" unicode="&#xa2;" horiz-adv-x="1306" 
d="M500 -98v176q-134 37 -229.5 126.5t-142 210t-46.5 261.5q0 140 46.5 260t142 209.5t229.5 126.5v155h307v-141q121 -21 211.5 -86t165.5 -172l-279 -182q-92 123 -219 123q-38 0 -74.5 -8t-74 -29t-65 -53t-45 -84.5t-17.5 -118.5q0 -82 25.5 -142.5t68.5 -92t88 -46
t94 -14.5q70 0 122 24.5t97 86.5l279 -170q-75 -107 -166 -172.5t-211 -86.5v-161h-307z" />
    <glyph glyph-name="sterling" unicode="&#xa3;" horiz-adv-x="1083" 
d="M82 0v246q322 0 250 329h-242v164h189q-66 170 -54 299.5t98.5 208.5t244 106.5t382.5 -7.5v-236q-96 17 -168 17.5t-117 -12.5t-71.5 -40t-35.5 -61t-3.5 -80t19.5 -91.5t38 -101.5l291 -2v-164h-241q33 -201 -101 -329h400v-246h-879z" />
    <glyph glyph-name="currency" unicode="&#xa4;" horiz-adv-x="1206" 
d="M918 166l-152 151q-79 -43 -178 -43q-102 0 -187 45l-145 -145l-174 154l164 164q-35 75 -35 170q0 99 37 174l-158 157l166 162l152 -151q79 43 180 43q94 0 174 -39l147 147l170 -154l-155 -159q39 -83 39 -180q0 -102 -37 -177l157 -157zM588 520q55 0 92 39t37 103
t-36.5 101.5t-92.5 37.5t-93.5 -37.5t-37.5 -101.5t37.5 -103t93.5 -39z" />
    <glyph glyph-name="yen" unicode="&#xa5;" horiz-adv-x="1329" 
d="M481 0v186h-243v164h243v123h-243v164h190l-418 694h387l252 -426l252 426h387l-418 -694h191v-164h-242v-123h242v-164h-242v-186h-338z" />
    <glyph glyph-name="brokenbar" unicode="&#xa6;" horiz-adv-x="512" 
d="M82 766v651h307v-651h-307zM82 -98v647h307v-647h-307z" />
    <glyph glyph-name="section" unicode="&#xa7;" horiz-adv-x="948" 
d="M475 -63q-84 0 -152.5 21t-114.5 59t-76.5 82t-49.5 98l250 84q6 -30 26 -51.5t45.5 -30.5t45 -13t34.5 -4q92 0 92 62q0 29 -22.5 54.5t-91.5 51.5q-42 16 -74 30t-83 43.5t-84 60.5t-58 77.5t-25 97.5q0 152 111 222q-103 74 -103 206q0 128 95 210.5t239 82.5
q133 0 216 -60t112 -149l-221 -102q-11 30 -39.5 48t-67.5 18q-43 0 -65.5 -15t-22.5 -33v-3v-4.5t0.5 -5.5t2.5 -7t5 -8t7.5 -9t11.5 -9.5t16 -10.5t21.5 -10.5t27.5 -11.5q12 -5 43.5 -15.5t53.5 -18.5t55.5 -23.5t57 -31t50.5 -39.5t43.5 -50t27.5 -62.5t11 -77.5
q0 -163 -116 -233q112 -76 112 -213q0 -70 -22.5 -125t-58 -88t-82.5 -55t-92 -30.5t-91 -8.5zM479 596q46 0 73.5 24t27.5 70q0 38 -28 61t-73 23q-46 0 -71 -25t-25 -65q0 -38 26.5 -63t69.5 -25z" />
    <glyph glyph-name="dieresis" unicode="&#xa8;" horiz-adv-x="768" 
d="M184 1153q-55 0 -99 40t-44 105q0 62 44 100t99 38t99.5 -38t44.5 -100q0 -65 -44.5 -105t-99.5 -40zM584 1153q-55 0 -99.5 40t-44.5 105q0 62 44.5 100t99.5 38t99 -38t44 -100q0 -65 -44 -105t-99 -40z" />
    <glyph glyph-name="copyright" unicode="&#xa9;" horiz-adv-x="1552" 
d="M82 666q0 146 50 273t138.5 216.5t214 141t271.5 51.5t271.5 -51.5t214 -141t138.5 -216.5t50 -273q0 -198 -85.5 -353.5t-239.5 -242t-349 -86.5q-200 0 -354 88t-237 243t-83 351zM248 666q0 -71 18 -142t58 -139.5t97.5 -121t144 -84.5t190.5 -32q107 0 195 32
t145 84.5t96 121t55.5 139t16.5 142.5t-16.5 142t-55.5 139t-96 121t-145 84t-195 32t-195 -32t-145 -84t-96 -121t-55.5 -139t-16.5 -142zM422 668q0 158 98 260t254 102q92 0 166.5 -37t120.5 -104l-139 -105q-55 80 -148 80q-13 0 -28.5 -3t-37.5 -9.5t-42.5 -21
t-38.5 -35t-28.5 -53.5t-10.5 -74q0 -49 15.5 -87t37.5 -58.5t50 -33.5t47.5 -16.5t35.5 -3.5q36 0 77.5 18.5t70.5 57.5l139 -99q-46 -68 -120 -105.5t-167 -37.5q-155 0 -253.5 103.5t-98.5 261.5z" />
    <glyph glyph-name="guillemotleft" unicode="&#xab;" horiz-adv-x="1564" 
d="M434 276l-352 381l352 381h389l-350 -381l350 -381h-389zM1053 276l-353 381l353 381h389l-350 -381l350 -381h-389z" />
    <glyph glyph-name="logicalnot" unicode="&#xac;" horiz-adv-x="1148" 
d="M719 375v256h-637v307h944v-563h-307z" />
    <glyph glyph-name="registered" unicode="&#xae;" horiz-adv-x="1548" 
d="M82 666q0 191 85.5 346.5t240 245.5t348.5 90t347.5 -90t237.5 -245.5t84 -346.5t-84 -346.5t-237.5 -245.5t-347.5 -90t-348.5 90t-240 245.5t-85.5 346.5zM248 666q0 -69 17 -138.5t56.5 -138.5t96.5 -122.5t144.5 -86.5t193.5 -33t193 33t143.5 86.5t95.5 122.5
t55.5 138.5t16.5 138.5t-16.5 138.5t-55.5 138.5t-95.5 122t-143.5 86t-193 33t-193.5 -33t-144.5 -86t-96.5 -122t-56.5 -138.5t-17 -138.5zM475 319v680h336q83 0 149 -62t66 -173q0 -77 -34 -131.5t-87 -81.5l137 -232h-198l-121 207h-74v-207h-174zM649 696h131
q29 0 50.5 18t21.5 50t-22 51t-50 19h-131v-138z" />
    <glyph glyph-name="macron" unicode="&#xaf;" horiz-adv-x="516" 
d="M41 1126v205h434v-205h-434z" />
    <glyph glyph-name="degree" unicode="&#xb0;" horiz-adv-x="641" 
d="M322 846q-114 0 -187.5 71t-73.5 181q0 112 73.5 183t187.5 71q111 0 184.5 -71t73.5 -183q0 -110 -73.5 -181t-184.5 -71zM322 1010q39 0 66.5 25t27.5 63t-27.5 64t-66.5 26t-68 -26t-29 -64q0 -37 29 -62.5t68 -25.5z" />
    <glyph glyph-name="plusminus" unicode="&#xb1;" horiz-adv-x="940" 
d="M328 532v162h-246v205h246v160h245v-160h244v-205h-244v-162h-245zM82 236v204h735v-204h-735z" />
    <glyph glyph-name="uni00B2" unicode="&#xb2;" horiz-adv-x="686" 
d="M51 537l-2 165l103 89q46 39 59 51t55 49.5t59 56.5t42 49t35 52t10 41q0 29 -19 49t-59 20q-43 0 -72.5 -28t-38.5 -60l-182 86q8 29 29 60t55.5 62.5t89.5 52t119 20.5q135 0 212 -68t77 -182q0 -31 -9.5 -64t-20 -57.5t-36 -58.5t-37.5 -49.5t-45.5 -48.5t-39.5 -38.5
t-38 -35.5l-32 -27h260v-186h-574z" />
    <glyph glyph-name="uni00B3" unicode="&#xb3;" horiz-adv-x="755" 
d="M334 518q-94 0 -175 36t-118 91l125 137q24 -26 68.5 -45.5t99.5 -19.5q58 0 92.5 23t34.5 65q0 43 -35 68.5t-92 25.5q-66 0 -141 -22l2 143l161 127h-260v184h545v-172l-143 -125q166 -58 166 -229q0 -76 -29 -134t-77.5 -90t-104.5 -47.5t-119 -15.5z" />
    <glyph glyph-name="acute" unicode="&#xb4;" horiz-adv-x="477" 
d="M41 1079l121 252h274l-129 -252h-266z" />
    <glyph glyph-name="paragraph" unicode="&#xb6;" horiz-adv-x="1331" 
d="M430 0v612q-163 0 -255.5 91.5t-92.5 252.5q0 168 96 271.5t246 103.5h313v-1331h-307zM901 0v1331h307v-1331h-307z" />
    <glyph glyph-name="periodcentered" unicode="&#xb7;" horiz-adv-x="417" 
d="M209 500q-73 0 -120.5 47t-47.5 121q0 73 47 119.5t121 46.5t121 -46.5t47 -119.5q0 -74 -47.5 -121t-120.5 -47z" />
    <glyph glyph-name="cedilla" unicode="&#xb8;" horiz-adv-x="434" 
d="M174 -406q-92 0 -133 21v141q38 -26 133 -26q76 0 76 34q0 33 -82 33q-69 0 -90 -12l-2 111l63 104h164l-53 -88q143 -29 143 -148q0 -170 -219 -170z" />
    <glyph glyph-name="uni00B9" unicode="&#xb9;" horiz-adv-x="516" 
d="M188 528v619h-168v184h373v-803h-205z" />
    <glyph glyph-name="guillemotright" unicode="&#xbb;" horiz-adv-x="1462" 
d="M41 276l350 381l-350 381h379l352 -381l-352 -381h-379zM649 276l350 381l-350 381h379l352 -381l-352 -381h-379z" />
    <glyph glyph-name="onequarter" unicode="&#xbc;" horiz-adv-x="1073" 
d="M152 659v517h-142v155h312v-672h-170zM61 0l822 1331h164l-822 -1331h-164zM807 0v104h-320v105l320 450h168v-436h78v-119h-78v-104h-168zM649 223h158v226z" />
    <glyph glyph-name="onehalf" unicode="&#xbd;" horiz-adv-x="1177" 
d="M152 659v517h-142v155h312v-672h-170zM57 0l822 1331h163l-821 -1331h-164zM672 0l-2 133l82 72q51 44 73 64t62.5 59.5t58 67.5t17.5 50q0 24 -15.5 40t-48.5 16q-35 0 -58 -22t-32 -50l-145 72q7 23 23.5 47.5t44 50.5t71.5 42.5t96 16.5q109 0 171.5 -55t62.5 -147
q0 -42 -17.5 -85t-52.5 -84t-56 -62t-57 -54l-26 -22h211v-150h-463z" />
    <glyph glyph-name="threequarters" unicode="&#xbe;" horiz-adv-x="1179" 
d="M262 659q-76 0 -143.5 30t-98.5 75l103 115q52 -56 139 -56q48 0 76.5 19.5t28.5 54.5t-29 56.5t-76 21.5q-48 0 -117 -19l2 117l136 105h-217v153h450v-141l-119 -105q138 -47 138 -188q0 -63 -24 -111t-64 -74.5t-86.5 -39.5t-98.5 -13zM160 0l821 1331h164l-821 -1331
h-164zM913 0v104h-319v105l319 450h168v-436h78v-119h-78v-104h-168zM756 223h157v226z" />
    <glyph glyph-name="questiondown" unicode="&#xbf;" horiz-adv-x="968" 
d="M475 1016q-73 0 -121.5 48t-48.5 122q0 72 48.5 120t121.5 48t120.5 -48t47.5 -120q0 -74 -47.5 -122t-120.5 -48zM477 -16q-205 0 -331 95t-126 273q0 45 9.5 86t20 68t32.5 59t33 44.5t35 39.5q103 114 127 150q32 48 32 90v29h338v-29q0 -98 -35.5 -166.5
t-99.5 -132.5q-38 -39 -54.5 -57t-41.5 -50t-35 -58.5t-10 -53.5q0 -80 106 -80q60 0 111.5 42t73.5 97l286 -141q-19 -47 -47 -89.5t-70 -82.5t-92.5 -69t-118 -46.5t-143.5 -17.5z" />
    <glyph glyph-name="Agrave" unicode="&#xc0;" horiz-adv-x="1386" 
d="M557 1454l-129 252h274l121 -252h-266zM20 0l535 1331h256l535 -1331h-359l-57 147h-494l-57 -147h-359zM553 455h258l-129 336z" />
    <glyph glyph-name="Aacute" unicode="&#xc1;" horiz-adv-x="1386" 
d="M551 1454l121 252h274l-129 -252h-266zM20 0l535 1331h256l535 -1331h-359l-57 147h-494l-57 -147h-359zM553 455h258l-129 336z" />
    <glyph glyph-name="Acircumflex" unicode="&#xc2;" horiz-adv-x="1386" 
d="M340 1454l164 252h364l164 -252h-266l-80 141l-80 -141h-266zM20 0l535 1331h256l535 -1331h-359l-57 147h-494l-57 -147h-359zM553 455h258l-129 336z" />
    <glyph glyph-name="Atilde" unicode="&#xc3;" horiz-adv-x="1386" 
d="M803 1413q-101 0 -166 74q-24 26 -39 36.5t-35 10.5q-23 0 -37.5 -18t-18 -37t-3.5 -39h-185q0 123 60 200.5t176 77.5q99 0 164 -73q44 -48 84 -48q36 0 49.5 25.5t13.5 69.5h185q0 -124 -62 -201.5t-186 -77.5zM20 0l535 1331h256l535 -1331h-359l-57 147h-494
l-57 -147h-359zM553 455h258l-129 336z" />
    <glyph glyph-name="Adieresis" unicode="&#xc4;" horiz-adv-x="1386" 
d="M487 1413q-55 0 -99 40.5t-44 105.5q0 62 44 99.5t99 37.5q56 0 100 -37.5t44 -99.5q0 -65 -44.5 -105.5t-99.5 -40.5zM887 1413q-55 0 -99.5 40.5t-44.5 105.5q0 62 44 99.5t100 37.5q55 0 99 -37.5t44 -99.5q0 -65 -44 -105.5t-99 -40.5zM20 0l535 1331h256l535 -1331
h-359l-57 147h-494l-57 -147h-359zM553 455h258l-129 336z" />
    <glyph glyph-name="Aring" unicode="&#xc5;" horiz-adv-x="1386" 
d="M686 1411q-98 0 -159.5 59t-61.5 146q0 91 61 149t160 58q100 0 159.5 -57.5t59.5 -149.5q0 -87 -60 -146t-159 -59zM686 1548q41 0 56.5 22t15.5 46q0 14 -4 27.5t-21.5 28t-46.5 14.5t-46 -14.5t-20.5 -28t-3.5 -27.5t3.5 -27t20.5 -27t46 -14zM20 0l535 1331h256
l535 -1331h-359l-57 147h-494l-57 -147h-359zM553 455h258l-129 336z" />
    <glyph glyph-name="AE" unicode="&#xc6;" horiz-adv-x="2011" 
d="M20 0l555 1331h1323v-307h-524v-205h481v-307h-481v-205h524v-307h-862v512h-444l-213 -512h-359zM719 819h317v205h-231z" />
    <glyph glyph-name="Ccedilla" unicode="&#xc7;" horiz-adv-x="1345" 
d="M735 322q82 0 153 42.5t116 98.5l270 -211q-71 -104 -178.5 -171t-241.5 -89l-35 -55q144 -29 144 -148q0 -47 -25.5 -81.5t-67 -53t-87 -27t-93.5 -8.5q-92 0 -133 21v141q19 -13 60 -20t73 -7q76 0 76 35q0 33 -82 33q-69 0 -90 -12l-2 110l43 70q-257 34 -415.5 220
t-158.5 456q0 146 50 273t138.5 216.5t214 141t271.5 51.5q174 0 312.5 -71t226.5 -198l-270 -202q-41 55 -112.5 94t-156.5 39q-150 0 -243 -96t-93 -248t93 -248t243 -96z" />
    <glyph glyph-name="Egrave" unicode="&#xc8;" horiz-adv-x="1122" 
d="M426 1454l-129 252h274l121 -252h-266zM82 0v1331h928v-307h-590v-205h547v-307h-547v-205h590v-307h-928z" />
    <glyph glyph-name="Eacute" unicode="&#xc9;" horiz-adv-x="1122" 
d="M420 1454l121 252h274l-129 -252h-266zM82 0v1331h928v-307h-590v-205h547v-307h-547v-205h590v-307h-928z" />
    <glyph glyph-name="Ecircumflex" unicode="&#xca;" horiz-adv-x="1122" 
d="M209 1454l164 252h364l164 -252h-266l-80 141l-80 -141h-266zM82 0v1331h928v-307h-590v-205h547v-307h-547v-205h590v-307h-928z" />
    <glyph glyph-name="Edieresis" unicode="&#xcb;" horiz-adv-x="1122" 
d="M356 1413q-55 0 -99 40.5t-44 105.5q0 62 44 99.5t99 37.5q56 0 100 -37.5t44 -99.5q0 -65 -44.5 -105.5t-99.5 -40.5zM756 1413q-55 0 -99.5 40.5t-44.5 105.5q0 62 44 99.5t100 37.5q55 0 99 -37.5t44 -99.5q0 -65 -44 -105.5t-99 -40.5zM82 0v1331h928v-307h-590v-205
h547v-307h-547v-205h590v-307h-928z" />
    <glyph glyph-name="Igrave" unicode="&#xcc;" horiz-adv-x="542" 
d="M119 1454l-129 252h274l121 -252h-266zM82 0v1331h338v-1331h-338z" />
    <glyph glyph-name="Iacute" unicode="&#xcd;" horiz-adv-x="542" 
d="M113 1454l120 252h275l-129 -252h-266zM82 0v1331h338v-1331h-338z" />
    <glyph glyph-name="Icircumflex" unicode="&#xce;" horiz-adv-x="542" 
d="M-98 1454l164 252h364l164 -252h-266l-80 141l-80 -141h-266zM82 0v1331h338v-1331h-338z" />
    <glyph glyph-name="Idieresis" unicode="&#xcf;" horiz-adv-x="542" 
d="M49 1413q-55 0 -99 40.5t-44 105.5q0 62 44 99.5t99 37.5q56 0 100 -37.5t44 -99.5q0 -65 -44.5 -105.5t-99.5 -40.5zM449 1413q-55 0 -99.5 40.5t-44.5 105.5q0 62 44 99.5t100 37.5q55 0 99 -37.5t44 -99.5q0 -65 -44 -105.5t-99 -40.5zM82 0v1331h338v-1331h-338z" />
    <glyph glyph-name="Ntilde" unicode="&#xd1;" horiz-adv-x="1325" 
d="M760 1413q-101 0 -166 74q-24 26 -39 36.5t-35 10.5q-23 0 -37.5 -18t-18 -37t-3.5 -39h-185q0 123 60 200.5t176 77.5q99 0 164 -73q44 -48 84 -48q36 0 49.5 25.5t13.5 69.5h185q0 -124 -62 -201.5t-186 -77.5zM82 0v1331h328l454 -727v727h338v-1331h-328l-454 725
v-725h-338z" />
    <glyph glyph-name="Ograve" unicode="&#xd2;" horiz-adv-x="1497" 
d="M606 1454l-129 252h275l120 -252h-266zM735 -16q-146 0 -271.5 51.5t-214 141t-138.5 216.5t-50 273t50 273t138.5 216.5t214 141t271.5 51.5t271 -51.5t212.5 -141.5t137 -216.5t49.5 -272.5t-49.5 -272.5t-137 -216.5t-212.5 -141.5t-271 -51.5zM735 322q150 0 241 96
t91 248t-91 248t-241 96t-243 -96t-93 -248t93 -248t243 -96z" />
    <glyph glyph-name="Oacute" unicode="&#xd3;" horiz-adv-x="1497" 
d="M600 1454l121 252h274l-129 -252h-266zM735 -16q-146 0 -271.5 51.5t-214 141t-138.5 216.5t-50 273t50 273t138.5 216.5t214 141t271.5 51.5t271 -51.5t212.5 -141.5t137 -216.5t49.5 -272.5t-49.5 -272.5t-137 -216.5t-212.5 -141.5t-271 -51.5zM735 322q150 0 241 96
t91 248t-91 248t-241 96t-243 -96t-93 -248t93 -248t243 -96z" />
    <glyph glyph-name="Ocircumflex" unicode="&#xd4;" horiz-adv-x="1497" 
d="M389 1454l164 252h365l163 -252h-266l-80 141l-80 -141h-266zM735 -16q-146 0 -271.5 51.5t-214 141t-138.5 216.5t-50 273t50 273t138.5 216.5t214 141t271.5 51.5t271 -51.5t212.5 -141.5t137 -216.5t49.5 -272.5t-49.5 -272.5t-137 -216.5t-212.5 -141.5t-271 -51.5z
M735 322q150 0 241 96t91 248t-91 248t-241 96t-243 -96t-93 -248t93 -248t243 -96z" />
    <glyph glyph-name="Otilde" unicode="&#xd5;" horiz-adv-x="1497" 
d="M852 1413q-101 0 -166 74q-24 26 -39 36.5t-35 10.5q-23 0 -37.5 -18t-18 -37t-3.5 -39h-184q0 123 59.5 200.5t175.5 77.5q99 0 164 -73q44 -48 84 -48q36 0 49.5 25.5t13.5 69.5h185q0 -124 -62 -201.5t-186 -77.5zM735 -16q-146 0 -271.5 51.5t-214 141t-138.5 216.5
t-50 273t50 273t138.5 216.5t214 141t271.5 51.5t271 -51.5t212.5 -141.5t137 -216.5t49.5 -272.5t-49.5 -272.5t-137 -216.5t-212.5 -141.5t-271 -51.5zM735 322q150 0 241 96t91 248t-91 248t-241 96t-243 -96t-93 -248t93 -248t243 -96z" />
    <glyph glyph-name="Odieresis" unicode="&#xd6;" horiz-adv-x="1497" 
d="M537 1413q-55 0 -99.5 40.5t-44.5 105.5q0 62 44 99.5t100 37.5q55 0 99 -37.5t44 -99.5q0 -65 -44 -105.5t-99 -40.5zM936 1413q-55 0 -99 40.5t-44 105.5q0 62 44 99.5t99 37.5t99 -37.5t44 -99.5q0 -65 -44 -105.5t-99 -40.5zM735 -16q-146 0 -271.5 51.5t-214 141
t-138.5 216.5t-50 273t50 273t138.5 216.5t214 141t271.5 51.5t271 -51.5t212.5 -141.5t137 -216.5t49.5 -272.5t-49.5 -272.5t-137 -216.5t-212.5 -141.5t-271 -51.5zM735 322q150 0 241 96t91 248t-91 248t-241 96t-243 -96t-93 -248t93 -248t243 -96z" />
    <glyph glyph-name="multiply" unicode="&#xd7;" horiz-adv-x="1093" 
d="M270 219l-188 174l262 262l-262 258l188 185l260 -258l256 256l185 -174l-260 -260l260 -259l-187 -184l-258 256z" />
    <glyph glyph-name="Oslash" unicode="&#xd8;" horiz-adv-x="1497" 
d="M735 -16q-187 0 -342 84l-53 -68h-266l155 199q-168 189 -168 467q0 146 50 273t138.5 216.5t214 141t271.5 51.5q180 0 330 -78l61 78h267l-162 -207q174 -187 174 -475q0 -146 -49.5 -272.5t-137 -216.5t-212.5 -141.5t-271 -51.5zM444 475l406 518q-59 17 -115 17
q-155 0 -245.5 -93t-90.5 -251q0 -112 45 -191zM735 322q155 0 243.5 92.5t88.5 251.5q0 116 -49 200l-412 -524q56 -20 129 -20z" />
    <glyph glyph-name="Ugrave" unicode="&#xd9;" horiz-adv-x="1257" 
d="M479 1454l-129 252h275l120 -252h-266zM608 -16q-124 0 -225.5 40.5t-166.5 108.5t-99.5 156t-34.5 186v856h338v-817q0 -58 16.5 -99.5t45 -63t59.5 -31t67 -9.5t67 9.5t60 31t45.5 63t16.5 99.5v817h338v-856q0 -98 -35 -186t-99.5 -156t-166.5 -108.5t-226 -40.5z" />
    <glyph glyph-name="Uacute" unicode="&#xda;" horiz-adv-x="1257" 
d="M473 1454l121 252h274l-129 -252h-266zM608 -16q-124 0 -225.5 40.5t-166.5 108.5t-99.5 156t-34.5 186v856h338v-817q0 -58 16.5 -99.5t45 -63t59.5 -31t67 -9.5t67 9.5t60 31t45.5 63t16.5 99.5v817h338v-856q0 -98 -35 -186t-99.5 -156t-166.5 -108.5t-226 -40.5z" />
    <glyph glyph-name="Ucircumflex" unicode="&#xdb;" horiz-adv-x="1257" 
d="M262 1454l164 252h365l163 -252h-266l-80 141l-80 -141h-266zM608 -16q-124 0 -225.5 40.5t-166.5 108.5t-99.5 156t-34.5 186v856h338v-817q0 -58 16.5 -99.5t45 -63t59.5 -31t67 -9.5t67 9.5t60 31t45.5 63t16.5 99.5v817h338v-856q0 -98 -35 -186t-99.5 -156
t-166.5 -108.5t-226 -40.5z" />
    <glyph glyph-name="Udieresis" unicode="&#xdc;" horiz-adv-x="1257" 
d="M410 1413q-55 0 -99.5 40.5t-44.5 105.5q0 62 44 99.5t100 37.5q55 0 99 -37.5t44 -99.5q0 -65 -44 -105.5t-99 -40.5zM809 1413q-55 0 -99 40.5t-44 105.5q0 62 44 99.5t99 37.5t99 -37.5t44 -99.5q0 -65 -44 -105.5t-99 -40.5zM608 -16q-124 0 -225.5 40.5
t-166.5 108.5t-99.5 156t-34.5 186v856h338v-817q0 -58 16.5 -99.5t45 -63t59.5 -31t67 -9.5t67 9.5t60 31t45.5 63t16.5 99.5v817h338v-856q0 -98 -35 -186t-99.5 -156t-166.5 -108.5t-226 -40.5z" />
    <glyph glyph-name="Yacute" unicode="&#xdd;" horiz-adv-x="1329" 
d="M514 1454l121 252h274l-129 -252h-266zM481 0v549l-471 782h387l252 -426l252 426h387l-469 -778v-553h-338z" />
    <glyph glyph-name="germandbls" unicode="&#xdf;" horiz-adv-x="1128" 
d="M82 0v874q0 100 26.5 181t72 136t108.5 92t133.5 54t148.5 17q195 0 319 -96t124 -263q0 -148 -99 -247q152 -112 152 -336q0 -86 -29.5 -159.5t-87 -130.5t-151 -89.5t-213.5 -32.5h-113v287h31q103 0 140 9q95 23 95 116q0 28 -9 50t-21.5 36t-34.5 24t-39 14.5
t-45.5 7t-43.5 3t-42 0.5h-31v268h31q88 0 147.5 37t59.5 104q0 56 -41 89.5t-99 33.5q-66 0 -113.5 -51t-47.5 -170v-858h-328z" />
    <glyph glyph-name="agrave" unicode="&#xe0;" 
d="M475 1079l-129 252h275l120 -252h-266zM479 -16q-188 0 -313 138.5t-125 348.5q0 213 124.5 349t313.5 136q135 0 217 -73v59h328v-942h-328v57q-86 -73 -217 -73zM528 291q75 0 121.5 51t46.5 129t-46.5 128t-121.5 50q-76 0 -123 -50.5t-47 -127.5q0 -78 47 -129
t123 -51z" />
    <glyph glyph-name="aacute" unicode="&#xe1;" 
d="M469 1079l121 252h274l-129 -252h-266zM479 -16q-188 0 -313 138.5t-125 348.5q0 213 124.5 349t313.5 136q135 0 217 -73v59h328v-942h-328v57q-86 -73 -217 -73zM528 291q75 0 121.5 51t46.5 129t-46.5 128t-121.5 50q-76 0 -123 -50.5t-47 -127.5q0 -78 47 -129
t123 -51z" />
    <glyph glyph-name="acircumflex" unicode="&#xe2;" 
d="M258 1079l164 252h364l164 -252h-266l-80 142l-80 -142h-266zM479 -16q-188 0 -313 138.5t-125 348.5q0 213 124.5 349t313.5 136q135 0 217 -73v59h328v-942h-328v57q-86 -73 -217 -73zM528 291q75 0 121.5 51t46.5 129t-46.5 128t-121.5 50q-76 0 -123 -50.5
t-47 -127.5q0 -78 47 -129t123 -51z" />
    <glyph glyph-name="atilde" unicode="&#xe3;" 
d="M721 1038q-101 0 -166 74q-24 26 -39 36.5t-35 10.5q-23 0 -37.5 -18t-18 -37t-3.5 -39h-184q0 123 59.5 200.5t175.5 77.5q99 0 164 -73q43 -47 84 -47q37 0 50 25t13 69h185q0 -124 -62 -201.5t-186 -77.5zM479 -16q-188 0 -313 138.5t-125 348.5q0 213 124.5 349
t313.5 136q135 0 217 -73v59h328v-942h-328v57q-86 -73 -217 -73zM528 291q75 0 121.5 51t46.5 129t-46.5 128t-121.5 50q-76 0 -123 -50.5t-47 -127.5q0 -78 47 -129t123 -51z" />
    <glyph glyph-name="adieresis" unicode="&#xe4;" 
d="M406 1038q-55 0 -99.5 40.5t-44.5 105.5q0 62 44 99.5t100 37.5q55 0 99 -37.5t44 -99.5q0 -65 -44 -105.5t-99 -40.5zM805 1038q-55 0 -99 40.5t-44 105.5q0 62 44 99.5t99 37.5t99 -37.5t44 -99.5q0 -65 -44 -105.5t-99 -40.5zM479 -16q-188 0 -313 138.5t-125 348.5
q0 213 124.5 349t313.5 136q135 0 217 -73v59h328v-942h-328v57q-86 -73 -217 -73zM528 291q75 0 121.5 51t46.5 129t-46.5 128t-121.5 50q-76 0 -123 -50.5t-47 -127.5q0 -78 47 -129t123 -51z" />
    <glyph glyph-name="aring" unicode="&#xe5;" 
d="M604 1038q-98 0 -159.5 59t-61.5 146q0 91 61 149t160 58q100 0 159.5 -57.5t59.5 -149.5q0 -87 -60 -146t-159 -59zM604 1176q41 0 56.5 21.5t15.5 45.5q0 14 -4 27.5t-21.5 28t-46.5 14.5t-45.5 -14.5t-20 -27.5t-3.5 -28q0 -14 3.5 -27t20 -26.5t45.5 -13.5zM479 -16
q-188 0 -313 138.5t-125 348.5q0 213 124.5 349t313.5 136q135 0 217 -73v59h328v-942h-328v57q-86 -73 -217 -73zM528 291q75 0 121.5 51t46.5 129t-46.5 128t-121.5 50q-76 0 -123 -50.5t-47 -127.5q0 -78 47 -129t123 -51z" />
    <glyph glyph-name="ae" unicode="&#xe6;" horiz-adv-x="1802" 
d="M461 -16q-420 0 -420 272q0 69 29 121t75.5 84.5t117.5 54t141.5 31t160.5 14.5q-3 48 -17 81t-35.5 47t-38.5 19t-36 5q-17 0 -28.5 -1.5t-28.5 -7.5t-32 -21.5t-27 -39.5l-254 92q37 104 134 162.5t259 58.5q152 0 257 -65.5t148 -173.5q56 112 161.5 175.5t244.5 63.5
q195 0 321.5 -137t126.5 -348v-98h-569q20 -60 59 -86.5t82 -26.5q24 0 35 1t36.5 7.5t47 25t41.5 48.5l225 -156q-63 -95 -164.5 -148.5t-228.5 -53.5q-142 0 -252 66.5t-168 182.5q-22 -56 -49.5 -96t-73 -77t-116 -56.5t-164.5 -19.5zM1147 565h272q-15 76 -50.5 105.5
t-76.5 29.5q-120 0 -145 -135zM438 209q28 0 45.5 4t37.5 18.5t31 48t13 87.5q-112 -9 -159.5 -31t-47.5 -64q0 -25 21.5 -44t58.5 -19z" />
    <glyph glyph-name="ccedilla" unicode="&#xe7;" horiz-adv-x="970" 
d="M535 291q90 0 141 59l233 -176q-93 -135 -254 -176l-34 -57q143 -29 143 -148q0 -47 -25 -81.5t-67 -53t-87 -27t-93 -8.5q-93 0 -134 21v141q19 -13 60.5 -20t73.5 -7q75 0 75 35q0 33 -82 33q-69 0 -90 -12l-2 110l39 66q-177 29 -284 160t-107 321q0 215 135 351
t350 136q122 0 221 -50.5t162 -139.5l-233 -182q-56 63 -141 63q-76 0 -125.5 -50.5t-49.5 -127.5t49.5 -128.5t125.5 -51.5z" />
    <glyph glyph-name="egrave" unicode="&#xe8;" horiz-adv-x="1050" 
d="M385 1079l-129 252h274l121 -252h-266zM524 -20q-217 0 -350 138.5t-133 352.5t130.5 352t342.5 138q211 0 333 -137t122 -353v-86h-609q18 -62 62 -95.5t102 -33.5q39 0 71 8t54 22.5t30.5 22.5t20.5 21l222 -164q-62 -87 -166 -136.5t-232 -49.5zM365 588h294
q-34 117 -145 117q-105 0 -149 -117z" />
    <glyph glyph-name="eacute" unicode="&#xe9;" horiz-adv-x="1050" 
d="M379 1079l121 252h274l-129 -252h-266zM524 -20q-217 0 -350 138.5t-133 352.5t130.5 352t342.5 138q211 0 333 -137t122 -353v-86h-609q18 -62 62 -95.5t102 -33.5q39 0 71 8t54 22.5t30.5 22.5t20.5 21l222 -164q-62 -87 -166 -136.5t-232 -49.5zM365 588h294
q-34 117 -145 117q-105 0 -149 -117z" />
    <glyph glyph-name="ecircumflex" unicode="&#xea;" horiz-adv-x="1050" 
d="M168 1079l164 252h364l164 -252h-266l-80 142l-80 -142h-266zM524 -20q-217 0 -350 138.5t-133 352.5t130.5 352t342.5 138q211 0 333 -137t122 -353v-86h-609q18 -62 62 -95.5t102 -33.5q39 0 71 8t54 22.5t30.5 22.5t20.5 21l222 -164q-62 -87 -166 -136.5t-232 -49.5z
M365 588h294q-34 117 -145 117q-105 0 -149 -117z" />
    <glyph glyph-name="edieresis" unicode="&#xeb;" horiz-adv-x="1050" 
d="M315 1038q-55 0 -99 40.5t-44 105.5q0 62 44 99.5t99 37.5q56 0 100 -37.5t44 -99.5q0 -65 -44.5 -105.5t-99.5 -40.5zM715 1038q-55 0 -99.5 40.5t-44.5 105.5q0 62 44 99.5t100 37.5q55 0 99 -37.5t44 -99.5q0 -65 -44 -105.5t-99 -40.5zM524 -20q-217 0 -350 138.5
t-133 352.5t130.5 352t342.5 138q211 0 333 -137t122 -353v-86h-609q18 -62 62 -95.5t102 -33.5q39 0 71 8t54 22.5t30.5 22.5t20.5 21l222 -164q-62 -87 -166 -136.5t-232 -49.5zM365 588h294q-34 117 -145 117q-105 0 -149 -117z" />
    <glyph glyph-name="igrave" unicode="&#xec;" horiz-adv-x="534" 
d="M117 1079l-129 252h274l121 -252h-266zM82 0v942h330l-2 -942h-328z" />
    <glyph glyph-name="iacute" unicode="&#xed;" horiz-adv-x="534" 
d="M111 1079l120 252h275l-129 -252h-266zM82 0v942h330l-2 -942h-328z" />
    <glyph glyph-name="icircumflex" unicode="&#xee;" horiz-adv-x="534" 
d="M-100 1079l163 252h365l164 -252h-266l-80 142l-80 -142h-266zM82 0v942h330l-2 -942h-328z" />
    <glyph glyph-name="idieresis" unicode="&#xef;" horiz-adv-x="534" 
d="M47 1038q-55 0 -99 40.5t-44 105.5q0 62 44 99.5t99 37.5t99 -37.5t44 -99.5q0 -65 -44 -105.5t-99 -40.5zM446 1038q-55 0 -99 40.5t-44 105.5q0 62 44 99.5t99 37.5q56 0 100 -37.5t44 -99.5q0 -65 -44.5 -105.5t-99.5 -40.5zM82 0v942h330l-2 -942h-328z" />
    <glyph glyph-name="ntilde" unicode="&#xf1;" horiz-adv-x="1132" 
d="M659 1038q-100 0 -165 74q-24 26 -39 36.5t-35 10.5q-23 0 -37.5 -18t-18.5 -37t-4 -39h-184q0 123 60 200.5t176 77.5q98 0 163 -73q43 -47 84 -47q64 0 64 94h184q0 -124 -62 -201.5t-186 -77.5zM82 0v942h328v-68q94 82 237 82q51 0 99 -10.5t97 -37.5t85 -69
t59 -110.5t23 -155.5v-573h-328v520q0 44 -12 76.5t-28 48t-38 25t-35 11t-26 1.5t-25.5 -1.5t-33.5 -11t-36 -25t-26.5 -48t-11.5 -76.5v-520h-328z" />
    <glyph glyph-name="ograve" unicode="&#xf2;" horiz-adv-x="1103" 
d="M403 1079l-129 252h275l121 -252h-267zM532 -20q-214 0 -352.5 139.5t-138.5 351.5q0 215 138 353.5t353 138.5t352.5 -138.5t137.5 -353.5q0 -212 -138 -351.5t-352 -139.5zM532 291q75 0 121.5 51t46.5 129t-46.5 128t-121.5 50q-76 0 -123 -50.5t-47 -127.5
q0 -78 47 -129t123 -51z" />
    <glyph glyph-name="oacute" unicode="&#xf3;" horiz-adv-x="1103" 
d="M397 1079l121 252h275l-129 -252h-267zM532 -20q-214 0 -352.5 139.5t-138.5 351.5q0 215 138 353.5t353 138.5t352.5 -138.5t137.5 -353.5q0 -212 -138 -351.5t-352 -139.5zM532 291q75 0 121.5 51t46.5 129t-46.5 128t-121.5 50q-76 0 -123 -50.5t-47 -127.5
q0 -78 47 -129t123 -51z" />
    <glyph glyph-name="ocircumflex" unicode="&#xf4;" horiz-adv-x="1103" 
d="M186 1079l164 252h365l164 -252h-267l-80 142l-79 -142h-267zM532 -20q-214 0 -352.5 139.5t-138.5 351.5q0 215 138 353.5t353 138.5t352.5 -138.5t137.5 -353.5q0 -212 -138 -351.5t-352 -139.5zM532 291q75 0 121.5 51t46.5 129t-46.5 128t-121.5 50q-76 0 -123 -50.5
t-47 -127.5q0 -78 47 -129t123 -51z" />
    <glyph glyph-name="otilde" unicode="&#xf5;" horiz-adv-x="1103" 
d="M649 1038q-101 0 -166 74q-24 26 -38.5 36.5t-34.5 10.5q-23 0 -37.5 -18t-18.5 -37t-4 -39h-184q0 123 59.5 200.5t175.5 77.5q99 0 164 -73q43 -47 84 -47q64 0 64 94h184q0 -124 -62 -201.5t-186 -77.5zM532 -20q-214 0 -352.5 139.5t-138.5 351.5q0 215 138 353.5
t353 138.5t352.5 -138.5t137.5 -353.5q0 -212 -138 -351.5t-352 -139.5zM532 291q75 0 121.5 51t46.5 129t-46.5 128t-121.5 50q-76 0 -123 -50.5t-47 -127.5q0 -78 47 -129t123 -51z" />
    <glyph glyph-name="odieresis" unicode="&#xf6;" horiz-adv-x="1103" 
d="M334 1038q-55 0 -99.5 40.5t-44.5 105.5q0 62 44 99.5t100 37.5q55 0 99 -37.5t44 -99.5q0 -65 -44 -105.5t-99 -40.5zM733 1038q-55 0 -99 40.5t-44 105.5q0 62 44 99.5t99 37.5q56 0 100 -37.5t44 -99.5q0 -65 -44.5 -105.5t-99.5 -40.5zM532 -20q-214 0 -352.5 139.5
t-138.5 351.5q0 215 138 353.5t353 138.5t352.5 -138.5t137.5 -353.5q0 -212 -138 -351.5t-352 -139.5zM532 291q75 0 121.5 51t46.5 129t-46.5 128t-121.5 50q-76 0 -123 -50.5t-47 -127.5q0 -78 47 -129t123 -51z" />
    <glyph glyph-name="divide" unicode="&#xf7;" horiz-adv-x="1085" 
d="M522 885q-74 0 -121 47.5t-47 120.5t47 119.5t121 46.5t121 -46.5t47 -119.5t-47 -120.5t-121 -47.5zM82 537v245h881v-245h-881zM522 100q-74 0 -121 47t-47 121q0 73 47 119.5t121 46.5t121 -46.5t47 -119.5q0 -74 -47 -121t-121 -47z" />
    <glyph glyph-name="oslash" unicode="&#xf8;" horiz-adv-x="1103" 
d="M532 -20q-154 0 -270 75l-43 -55h-108l82 106q-72 67 -112 161.5t-40 203.5q0 215 138 353.5t353 138.5q151 0 271 -74l41 53h108l-82 -104q152 -139 152 -367q0 -212 -138 -351.5t-352 -139.5zM393 362l211 273q-35 14 -72 14q-76 0 -123 -50.5t-47 -127.5
q0 -61 31 -109zM532 291q75 0 121.5 51t46.5 129q0 63 -30 109l-211 -273q32 -16 73 -16z" />
    <glyph glyph-name="ugrave" unicode="&#xf9;" horiz-adv-x="1132" 
d="M420 1079l-129 252h274l121 -252h-266zM444 -16q-65 0 -124 18t-115 59t-89.5 119.5t-33.5 186.5v575h328v-522q0 -44 12 -76.5t28 -48t38 -25t35 -11t26 -1.5t25.5 1.5t33.5 11t36 25t26.5 48t11.5 76.5v522h328v-942h-328v66q-94 -82 -238 -82z" />
    <glyph glyph-name="uacute" unicode="&#xfa;" horiz-adv-x="1132" 
d="M414 1079l121 252h274l-129 -252h-266zM444 -16q-65 0 -124 18t-115 59t-89.5 119.5t-33.5 186.5v575h328v-522q0 -44 12 -76.5t28 -48t38 -25t35 -11t26 -1.5t25.5 1.5t33.5 11t36 25t26.5 48t11.5 76.5v522h328v-942h-328v66q-94 -82 -238 -82z" />
    <glyph glyph-name="ucircumflex" unicode="&#xfb;" horiz-adv-x="1132" 
d="M203 1079l164 252h364l164 -252h-266l-80 142l-80 -142h-266zM444 -16q-65 0 -124 18t-115 59t-89.5 119.5t-33.5 186.5v575h328v-522q0 -44 12 -76.5t28 -48t38 -25t35 -11t26 -1.5t25.5 1.5t33.5 11t36 25t26.5 48t11.5 76.5v522h328v-942h-328v66q-94 -82 -238 -82z
" />
    <glyph glyph-name="udieresis" unicode="&#xfc;" horiz-adv-x="1132" 
d="M350 1038q-55 0 -99 40.5t-44 105.5q0 62 44 99.5t99 37.5q56 0 100 -37.5t44 -99.5q0 -65 -44.5 -105.5t-99.5 -40.5zM750 1038q-55 0 -99.5 40.5t-44.5 105.5q0 62 44 99.5t100 37.5q55 0 99 -37.5t44 -99.5q0 -65 -44 -105.5t-99 -40.5zM444 -16q-65 0 -124 18
t-115 59t-89.5 119.5t-33.5 186.5v575h328v-522q0 -44 12 -76.5t28 -48t38 -25t35 -11t26 -1.5t25.5 1.5t33.5 11t36 25t26.5 48t11.5 76.5v522h328v-942h-328v66q-94 -82 -238 -82z" />
    <glyph glyph-name="yacute" unicode="&#xfd;" horiz-adv-x="1124" 
d="M416 1079l121 252h274l-129 -252h-266zM242 -377l149 377l-371 942h338l193 -489l194 489h338l-524 -1319h-317z" />
    <glyph glyph-name="ydieresis" unicode="&#xff;" horiz-adv-x="1124" 
d="M352 1038q-55 0 -99 40.5t-44 105.5q0 62 44 99.5t99 37.5q56 0 100 -37.5t44 -99.5q0 -65 -44.5 -105.5t-99.5 -40.5zM752 1038q-55 0 -99.5 40.5t-44.5 105.5q0 62 44 99.5t100 37.5q55 0 99 -37.5t44 -99.5q0 -65 -44 -105.5t-99 -40.5zM242 -377l149 377l-371 942
h338l193 -489l194 489h338l-524 -1319h-317z" />
    <glyph glyph-name="Amacron" unicode="&#x100;" horiz-adv-x="1386" 
d="M469 1446v205h434v-205h-434zM20 0l535 1331h256l535 -1331h-359l-57 147h-494l-57 -147h-359zM553 455h258l-129 336z" />
    <glyph glyph-name="amacron" unicode="&#x101;" 
d="M387 1071v205h434v-205h-434zM479 -16q-188 0 -313 138.5t-125 348.5q0 213 124.5 349t313.5 136q135 0 217 -73v59h328v-942h-328v57q-86 -73 -217 -73zM528 291q75 0 121.5 51t46.5 129t-46.5 128t-121.5 50q-76 0 -123 -50.5t-47 -127.5q0 -78 47 -129t123 -51z" />
    <glyph glyph-name="Abreve" unicode="&#x102;" horiz-adv-x="1386" 
d="M686 1436q-130 0 -207.5 68.5t-77.5 185.5v6h185v-6q0 -36 27.5 -63.5t72.5 -27.5t70.5 27.5t25.5 63.5v6h185v-6q0 -117 -76.5 -185.5t-204.5 -68.5zM20 0l535 1331h256l535 -1331h-359l-57 147h-494l-57 -147h-359zM553 455h258l-129 336z" />
    <glyph glyph-name="abreve" unicode="&#x103;" 
d="M604 1061q-130 0 -207.5 68.5t-77.5 185.5v6h185v-6q0 -36 27.5 -63t72.5 -27t70.5 27t25.5 63v6h185v-6q0 -117 -76.5 -185.5t-204.5 -68.5zM479 -16q-188 0 -313 138.5t-125 348.5q0 213 124.5 349t313.5 136q135 0 217 -73v59h328v-942h-328v57q-86 -73 -217 -73z
M528 291q75 0 121.5 51t46.5 129t-46.5 128t-121.5 50q-76 0 -123 -50.5t-47 -127.5q0 -78 47 -129t123 -51z" />
    <glyph glyph-name="Aogonek" unicode="&#x104;" horiz-adv-x="1386" 
d="M1194 -119q0 -19 13 -32t48 -17t95 21v-185q-59 -16 -121 -13t-112.5 19t-83 57t-32.5 99q0 96 91 170h-105l-57 147h-494l-57 -147h-359l535 1331h256l535 -1331h-70q-82 -60 -82 -119zM553 455h258l-129 336z" />
    <glyph glyph-name="aogonek" unicode="&#x105;" 
d="M905 -125q0 -19 13 -32.5t48 -17.5t95 21v-184q-59 -16 -121 -13t-112.5 19t-82.5 57t-32 99q0 104 98 176h-115v57q-86 -73 -217 -73q-188 0 -313 138.5t-125 348.5q0 213 124.5 349t313.5 136q135 0 217 -73v59h328v-942h-29q-90 -66 -90 -125zM528 291q75 0 121.5 51
t46.5 129t-46.5 128t-121.5 50q-76 0 -123 -50.5t-47 -127.5q0 -78 47 -129t123 -51z" />
    <glyph glyph-name="Cacute" unicode="&#x106;" horiz-adv-x="1345" 
d="M571 1458l121 252h275l-129 -252h-267zM735 -16q-146 0 -271.5 51.5t-214 141t-138.5 216.5t-50 273t50 273t138.5 216.5t214 141t271.5 51.5q174 0 312.5 -71t226.5 -198l-270 -202q-41 55 -112.5 94t-156.5 39q-150 0 -243 -96t-93 -248t93 -248t243 -96q82 0 153 42.5
t116 98.5l270 -211q-88 -127 -226.5 -197.5t-312.5 -70.5z" />
    <glyph glyph-name="cacute" unicode="&#x107;" horiz-adv-x="970" 
d="M391 1079l121 252h274l-129 -252h-266zM526 -18q-215 0 -350 136.5t-135 352.5q0 215 135 351t350 136q122 0 221 -50.5t162 -139.5l-233 -182q-56 63 -141 63q-76 0 -125.5 -50.5t-49.5 -127.5t49.5 -128.5t125.5 -51.5q90 0 141 59l233 -176q-63 -91 -161.5 -141.5
t-221.5 -50.5z" />
    <glyph glyph-name="Cdotaccent" unicode="&#x10a;" horiz-adv-x="1345" 
d="M707 1417q-55 0 -99.5 40.5t-44.5 105.5q0 62 44 99.5t100 37.5q55 0 99 -37.5t44 -99.5q0 -65 -44 -105.5t-99 -40.5zM735 -16q-146 0 -271.5 51.5t-214 141t-138.5 216.5t-50 273t50 273t138.5 216.5t214 141t271.5 51.5q174 0 312.5 -71t226.5 -198l-270 -202
q-41 55 -112.5 94t-156.5 39q-150 0 -243 -96t-93 -248t93 -248t243 -96q82 0 153 42.5t116 98.5l270 -211q-88 -127 -226.5 -197.5t-312.5 -70.5z" />
    <glyph glyph-name="cdotaccent" unicode="&#x10b;" horiz-adv-x="970" 
d="M526 1038q-55 0 -99 40.5t-44 105.5q0 62 44 99.5t99 37.5q56 0 100 -37.5t44 -99.5q0 -65 -44.5 -105.5t-99.5 -40.5zM526 -18q-215 0 -350 136.5t-135 352.5q0 215 135 351t350 136q122 0 221 -50.5t162 -139.5l-233 -182q-56 63 -141 63q-76 0 -125.5 -50.5
t-49.5 -127.5t49.5 -128.5t125.5 -51.5q90 0 141 59l233 -176q-63 -91 -161.5 -141.5t-221.5 -50.5z" />
    <glyph glyph-name="Ccaron" unicode="&#x10c;" horiz-adv-x="1345" 
d="M524 1458l-164 252h267l80 -131l79 131h267l-164 -252h-365zM735 -16q-146 0 -271.5 51.5t-214 141t-138.5 216.5t-50 273t50 273t138.5 216.5t214 141t271.5 51.5q174 0 312.5 -71t226.5 -198l-270 -202q-41 55 -112.5 94t-156.5 39q-150 0 -243 -96t-93 -248t93 -248
t243 -96q82 0 153 42.5t116 98.5l270 -211q-88 -127 -226.5 -197.5t-312.5 -70.5z" />
    <glyph glyph-name="ccaron" unicode="&#x10d;" horiz-adv-x="970" 
d="M344 1079l-164 252h266l80 -131l80 131h266l-163 -252h-365zM526 -18q-215 0 -350 136.5t-135 352.5q0 215 135 351t350 136q122 0 221 -50.5t162 -139.5l-233 -182q-56 63 -141 63q-76 0 -125.5 -50.5t-49.5 -127.5t49.5 -128.5t125.5 -51.5q90 0 141 59l233 -176
q-63 -91 -161.5 -141.5t-221.5 -50.5z" />
    <glyph glyph-name="Dcaron" unicode="&#x10e;" horiz-adv-x="1347" 
d="M358 1456l-163 252h266l80 -131l80 131h266l-164 -252h-365zM82 0v1331h520q292 0 472.5 -184.5t180.5 -480.5q0 -297 -181 -481.5t-472 -184.5h-520zM420 328h182q19 0 42.5 3.5t63 13t74 33t67 58.5t51 94.5t18.5 135.5q0 65 -15.5 118.5t-38.5 87.5t-55 60t-61 39
t-61 21t-50.5 10t-34.5 2h-182v-676z" />
    <glyph glyph-name="dcaron" unicode="&#x10f;" 
d="M676 1454l-164 252h266l80 -131l80 131h266l-164 -252h-364zM479 -16q-188 0 -313 138.5t-125 348.5q0 213 124.5 349t313.5 136q135 0 217 -73v448h328v-1331h-328v57q-86 -73 -217 -73zM528 291q75 0 121.5 51t46.5 129t-46.5 128t-121.5 50q-76 0 -123 -50.5
t-47 -127.5q0 -78 47 -129t123 -51z" />
    <glyph glyph-name="Dcroat" unicode="&#x110;" horiz-adv-x="1359" 
d="M82 0v504h-80v307h80v520h526q195 0 345.5 -83.5t232.5 -234.5t82 -347q0 -147 -48 -270.5t-133.5 -210.5t-209 -136t-269.5 -49h-526zM420 334h192q14 0 33.5 2t51.5 10t62 21.5t62 39t55.5 59t38.5 85.5t15 115t-15.5 114.5t-39.5 85t-56 59t-62 38.5t-62 21.5
t-51 10.5t-34 2h-190v-186h158v-307h-158v-170z" />
    <glyph glyph-name="Emacron" unicode="&#x112;" horiz-adv-x="1122" 
d="M338 1446v205h434v-205h-434zM82 0v1331h928v-307h-590v-205h547v-307h-547v-205h590v-307h-928z" />
    <glyph glyph-name="emacron" unicode="&#x113;" horiz-adv-x="1050" 
d="M297 1071v205h434v-205h-434zM524 -20q-217 0 -350 138.5t-133 352.5t130.5 352t342.5 138q211 0 333 -137t122 -353v-86h-609q18 -62 62 -95.5t102 -33.5q39 0 71 8t54 22.5t30.5 22.5t20.5 21l222 -164q-62 -87 -166 -136.5t-232 -49.5zM365 588h294q-34 117 -145 117
q-105 0 -149 -117z" />
    <glyph glyph-name="Edotaccent" unicode="&#x116;" horiz-adv-x="1122" 
d="M555 1413q-55 0 -99 40.5t-44 105.5q0 62 44 99.5t99 37.5t99 -37.5t44 -99.5q0 -65 -44 -105.5t-99 -40.5zM82 0v1331h928v-307h-590v-205h547v-307h-547v-205h590v-307h-928z" />
    <glyph glyph-name="edotaccent" unicode="&#x117;" horiz-adv-x="1050" 
d="M514 1038q-55 0 -99 40.5t-44 105.5q0 62 44 99.5t99 37.5t99 -37.5t44 -99.5q0 -65 -44 -105.5t-99 -40.5zM524 -20q-217 0 -350 138.5t-133 352.5t130.5 352t342.5 138q211 0 333 -137t122 -353v-86h-609q18 -62 62 -95.5t102 -33.5q39 0 71 8t54 22.5t30.5 22.5
t20.5 21l222 -164q-62 -87 -166 -136.5t-232 -49.5zM365 588h294q-34 117 -145 117q-105 0 -149 -117z" />
    <glyph glyph-name="Eogonek" unicode="&#x118;" horiz-adv-x="1122" 
d="M868 -121q0 -19 13 -32.5t48 -17.5t95 21v-184q-59 -16 -121 -13t-112.5 19t-82.5 57t-32 99q0 97 92 172h-686v1331h928v-307h-590v-205h547v-307h-547v-205h590v-307h-58q-84 -65 -84 -121z" />
    <glyph glyph-name="eogonek" unicode="&#x119;" horiz-adv-x="1050" 
d="M969 471v-86h-609q18 -62 62 -95.5t102 -33.5q39 0 71 8t54 22.5t30.5 22.5t20.5 21l222 -164q-108 -149 -308 -180q-96 -69 -96 -129q0 -19 13 -32.5t48 -17.5t95 21v-184q-59 -16 -121 -13t-112.5 19t-82.5 56.5t-32 98.5t31.5 105.5t74.5 77.5q-179 29 -285 161.5
t-106 321.5q0 214 130.5 352t342.5 138q211 0 333 -137t122 -353zM365 588h294q-34 117 -145 117q-105 0 -149 -117z" />
    <glyph glyph-name="Ecaron" unicode="&#x11a;" horiz-adv-x="1122" 
d="M373 1454l-164 252h266l80 -131l80 131h266l-164 -252h-364zM82 0v1331h928v-307h-590v-205h547v-307h-547v-205h590v-307h-928z" />
    <glyph glyph-name="ecaron" unicode="&#x11b;" horiz-adv-x="1050" 
d="M332 1079l-164 252h266l80 -131l80 131h266l-164 -252h-364zM524 -20q-217 0 -350 138.5t-133 352.5t130.5 352t342.5 138q211 0 333 -137t122 -353v-86h-609q18 -62 62 -95.5t102 -33.5q39 0 71 8t54 22.5t30.5 22.5t20.5 21l222 -164q-62 -87 -166 -136.5t-232 -49.5z
M365 588h294q-34 117 -145 117q-105 0 -149 -117z" />
    <glyph glyph-name="Gbreve" unicode="&#x11e;" horiz-adv-x="1476" 
d="M733 1436q-129 0 -206.5 68.5t-77.5 185.5v6h184v-6q0 -36 27.5 -63.5t72.5 -27.5t70.5 27.5t25.5 63.5v6h185v-6q0 -117 -76.5 -185.5t-204.5 -68.5zM735 -16q-146 0 -271.5 51.5t-214 141t-138.5 216.5t-50 273t50 273t138.5 216.5t214 141t271.5 51.5q173 0 312 -70.5
t227 -196.5l-273 -202q-50 69 -120.5 100t-145.5 31q-150 0 -243 -96t-93 -248t93 -248t243 -96q80 0 151 39t97 118h-268v307h659v-151q-11 -289 -183 -470t-456 -181z" />
    <glyph glyph-name="gbreve" unicode="&#x11f;" 
d="M553 1061q-130 0 -207.5 68.5t-77.5 185.5v6h185v-6q0 -36 27.5 -63t72.5 -27t70.5 27t25.5 63v6h185v-6q0 -117 -76.5 -185.5t-204.5 -68.5zM514 -410q-127 0 -232.5 47.5t-172.5 126.5l210 179q78 -78 195 -78q14 0 31 2.5t45.5 14t50 30.5t38 57.5t17.5 89.5
q-88 -75 -219 -75q-188 0 -312 138.5t-124 348.5t124 347.5t312 137.5q131 0 219 -75v61h328v-879q0 -211 -132 -342t-378 -131zM526 291q76 0 123 51t47 129q0 77 -47 127.5t-123 50.5q-75 0 -121.5 -50t-46.5 -128t46.5 -129t121.5 -51z" />
    <glyph glyph-name="Gdotaccent" unicode="&#x120;" horiz-adv-x="1476" 
d="M733 1413q-55 0 -99 40.5t-44 105.5q0 62 44 99.5t99 37.5q56 0 100 -37.5t44 -99.5q0 -65 -44.5 -105.5t-99.5 -40.5zM735 -16q-146 0 -271.5 51.5t-214 141t-138.5 216.5t-50 273t50 273t138.5 216.5t214 141t271.5 51.5q173 0 312 -70.5t227 -196.5l-273 -202
q-50 69 -120.5 100t-145.5 31q-150 0 -243 -96t-93 -248t93 -248t243 -96q80 0 151 39t97 118h-268v307h659v-151q-11 -289 -183 -470t-456 -181z" />
    <glyph glyph-name="gdotaccent" unicode="&#x121;" 
d="M553 1038q-55 0 -99 40.5t-44 105.5q0 62 44 99.5t99 37.5t99 -37.5t44 -99.5q0 -65 -44 -105.5t-99 -40.5zM514 -410q-127 0 -232.5 47.5t-172.5 126.5l210 179q78 -78 195 -78q14 0 31 2.5t45.5 14t50 30.5t38 57.5t17.5 89.5q-88 -75 -219 -75q-188 0 -312 138.5
t-124 348.5t124 347.5t312 137.5q131 0 219 -75v61h328v-879q0 -211 -132 -342t-378 -131zM526 291q76 0 123 51t47 129q0 77 -47 127.5t-123 50.5q-75 0 -121.5 -50t-46.5 -128t46.5 -129t121.5 -51z" />
    <glyph glyph-name="uni0122" unicode="&#x122;" horiz-adv-x="1476" 
d="M735 -16q-146 0 -271.5 51.5t-214 141t-138.5 216.5t-50 273t50 273t138.5 216.5t214 141t271.5 51.5q173 0 312 -70.5t227 -196.5l-273 -202q-50 69 -120.5 100t-145.5 31q-150 0 -243 -96t-93 -248t93 -248t243 -96q80 0 151 39t97 118h-268v307h659v-151
q-11 -289 -183 -470t-456 -181zM489 -352l127 246h267l-135 -246h-259z" />
    <glyph glyph-name="uni0123" unicode="&#x123;" 
d="M553 1044q-68 0 -107.5 41t-39.5 95q0 36 17 72t45 65t47 44.5t38 29.5h149q-21 -14 -54.5 -47t-41.5 -46q37 -12 61.5 -42t24.5 -76q0 -55 -36 -95.5t-103 -40.5zM514 -410q-127 0 -232.5 47.5t-172.5 126.5l210 179q78 -78 195 -78q14 0 31 2.5t45.5 14t50 30.5
t38 57.5t17.5 89.5q-88 -75 -219 -75q-188 0 -312 138.5t-124 348.5t124 347.5t312 137.5q131 0 219 -75v61h328v-879q0 -211 -132 -342t-378 -131zM526 291q76 0 123 51t47 129q0 77 -47 127.5t-123 50.5q-75 0 -121.5 -50t-46.5 -128t46.5 -129t121.5 -51z" />
    <glyph glyph-name="Itilde" unicode="&#x128;" horiz-adv-x="542" 
d="M365 1413q-101 0 -166 74q-24 26 -39 36.5t-35 10.5q-23 0 -37.5 -18t-18 -37t-3.5 -39h-185q0 123 60 200.5t176 77.5q99 0 164 -73q44 -48 84 -48q36 0 49.5 25.5t13.5 69.5h184q0 -124 -61.5 -201.5t-185.5 -77.5zM82 0v1331h338v-1331h-338z" />
    <glyph glyph-name="itilde" unicode="&#x129;" horiz-adv-x="534" 
d="M362 1038q-100 0 -165 74q-24 26 -39 36.5t-35 10.5q-23 0 -37.5 -18t-18.5 -37t-4 -39h-184q0 123 60 200.5t176 77.5q99 0 164 -73q43 -47 83 -47q64 0 64 94h184q0 -124 -62 -201.5t-186 -77.5zM82 0v942h330l-2 -942h-328z" />
    <glyph glyph-name="Imacron" unicode="&#x12a;" horiz-adv-x="542" 
d="M31 1446v205h434v-205h-434zM82 0v1331h338v-1331h-338z" />
    <glyph glyph-name="imacron" unicode="&#x12b;" horiz-adv-x="534" 
d="M29 1071v205h434v-205h-434zM82 0v942h330l-2 -942h-328z" />
    <glyph glyph-name="Iogonek" unicode="&#x12e;" horiz-adv-x="542" 
d="M289 -127q0 -19 13 -32.5t47.5 -17.5t94.5 21v-184q-59 -16 -121 -13t-112.5 19t-82.5 57t-32 99q0 56 30 102t71 76h-115v1331h338v-1331h-39q-92 -71 -92 -127z" />
    <glyph glyph-name="iogonek" unicode="&#x12f;" horiz-adv-x="534" 
d="M246 1038q-55 0 -99.5 40.5t-44.5 105.5q0 62 44 99.5t100 37.5q55 0 99 -37.5t44 -99.5q0 -65 -44 -105.5t-99 -40.5zM287 -129q0 -19 13 -32.5t47.5 -17.5t94.5 21v-184q-59 -16 -121 -13t-112.5 19t-82.5 57t-32 99q0 103 105 180h-117v942h330l-2 -942h-27
q-96 -65 -96 -129z" />
    <glyph glyph-name="Idotaccent" unicode="&#x130;" horiz-adv-x="542" 
d="M248 1413q-55 0 -99.5 40.5t-44.5 105.5q0 62 44 99.5t100 37.5q55 0 99 -37.5t44 -99.5q0 -65 -44 -105.5t-99 -40.5zM82 0v1331h338v-1331h-338z" />
    <glyph glyph-name="dotlessi" unicode="&#x131;" horiz-adv-x="534" 
d="M82 0v942h330l-2 -942h-328z" />
    <glyph glyph-name="uni0136" unicode="&#x136;" horiz-adv-x="1208" 
d="M82 0v1331h338v-500l340 500h381l-441 -665l467 -666h-389l-358 506v-506h-338zM344 -344l127 246h266l-135 -246h-258z" />
    <glyph glyph-name="uni0137" unicode="&#x137;" horiz-adv-x="1101" 
d="M82 0v1331h328v-708l229 319h379l-322 -446l365 -496h-379l-272 371v-371h-328zM283 -344l127 246h266l-135 -246h-258z" />
    <glyph glyph-name="Lacute" unicode="&#x139;" horiz-adv-x="1087" 
d="M113 1454l120 252h275l-129 -252h-266zM82 0v1331h338v-1024h586v-307h-924z" />
    <glyph glyph-name="lacute" unicode="&#x13a;" horiz-adv-x="534" 
d="M113 1454l120 252h275l-129 -252h-266zM82 0v1331h330l-2 -1331h-328z" />
    <glyph glyph-name="uni013B" unicode="&#x13b;" horiz-adv-x="1087" 
d="M82 0v1331h338v-1024h586v-307h-924zM295 -344l127 246h266l-135 -246h-258z" />
    <glyph glyph-name="uni013C" unicode="&#x13c;" horiz-adv-x="534" 
d="M82 0v1331h330l-2 -1331h-328zM0 -344l127 246h266l-135 -246h-258z" />
    <glyph glyph-name="Lcaron" unicode="&#x13d;" horiz-adv-x="1087" 
d="M66 1454l-164 252h266l80 -131l80 131h266l-164 -252h-364zM82 0v1331h338v-1024h586v-307h-924z" />
    <glyph glyph-name="lcaron" unicode="&#x13e;" horiz-adv-x="534" 
d="M66 1454l-164 252h266l80 -131l80 131h266l-164 -252h-364zM82 0v1331h330l-2 -1331h-328z" />
    <glyph glyph-name="Lslash" unicode="&#x141;" horiz-adv-x="1083" 
d="M82 0v532l-80 -28v317l80 29v481h338v-360l176 63v-317l-176 -64v-346h581v-307h-919z" />
    <glyph glyph-name="lslash" unicode="&#x142;" horiz-adv-x="532" 
d="M82 0v492l-68 -23v260l68 23v579h328v-467l106 37v-260l-106 -37v-604h-328z" />
    <glyph glyph-name="Nacute" unicode="&#x143;" horiz-adv-x="1325" 
d="M508 1454l121 252h274l-129 -252h-266zM82 0v1331h328l454 -727v727h338v-1331h-328l-454 725v-725h-338z" />
    <glyph glyph-name="nacute" unicode="&#x144;" horiz-adv-x="1132" 
d="M408 1079l120 252h275l-129 -252h-266zM82 0v942h328v-68q94 82 237 82q51 0 99 -10.5t97 -37.5t85 -69t59 -110.5t23 -155.5v-573h-328v520q0 44 -12 76.5t-28 48t-38 25t-35 11t-26 1.5t-25.5 -1.5t-33.5 -11t-36 -25t-26.5 -48t-11.5 -76.5v-520h-328z" />
    <glyph glyph-name="uni0145" unicode="&#x145;" horiz-adv-x="1325" 
d="M82 0v1331h328l454 -727v727h338v-1331h-328l-454 725v-725h-338zM401 -344l127 246h267l-136 -246h-258z" />
    <glyph glyph-name="uni0146" unicode="&#x146;" horiz-adv-x="1132" 
d="M82 0v942h328v-68q94 82 237 82q51 0 99 -10.5t97 -37.5t85 -69t59 -110.5t23 -155.5v-573h-328v520q0 44 -12 76.5t-28 48t-38 25t-35 11t-26 1.5t-25.5 -1.5t-33.5 -11t-36 -25t-26.5 -48t-11.5 -76.5v-520h-328zM297 -344l127 246h266l-135 -246h-258z" />
    <glyph glyph-name="Ncaron" unicode="&#x147;" horiz-adv-x="1325" 
d="M461 1454l-164 252h266l80 -131l80 131h266l-164 -252h-364zM82 0v1331h328l454 -727v727h338v-1331h-328l-454 725v-725h-338z" />
    <glyph glyph-name="ncaron" unicode="&#x148;" horiz-adv-x="1132" 
d="M360 1079l-163 252h266l80 -131l80 131h266l-164 -252h-365zM82 0v942h328v-68q94 82 237 82q51 0 99 -10.5t97 -37.5t85 -69t59 -110.5t23 -155.5v-573h-328v520q0 44 -12 76.5t-28 48t-38 25t-35 11t-26 1.5t-25.5 -1.5t-33.5 -11t-36 -25t-26.5 -48t-11.5 -76.5v-520
h-328z" />
    <glyph glyph-name="Omacron" unicode="&#x14c;" horiz-adv-x="1497" 
d="M518 1446v205h434v-205h-434zM735 -16q-146 0 -271.5 51.5t-214 141t-138.5 216.5t-50 273t50 273t138.5 216.5t214 141t271.5 51.5t271 -51.5t212.5 -141.5t137 -216.5t49.5 -272.5t-49.5 -272.5t-137 -216.5t-212.5 -141.5t-271 -51.5zM735 322q150 0 241 96t91 248
t-91 248t-241 96t-243 -96t-93 -248t93 -248t243 -96z" />
    <glyph glyph-name="omacron" unicode="&#x14d;" horiz-adv-x="1103" 
d="M315 1071v205h435v-205h-435zM532 -20q-214 0 -352.5 139.5t-138.5 351.5q0 215 138 353.5t353 138.5t352.5 -138.5t137.5 -353.5q0 -212 -138 -351.5t-352 -139.5zM532 291q75 0 121.5 51t46.5 129t-46.5 128t-121.5 50q-76 0 -123 -50.5t-47 -127.5q0 -78 47 -129
t123 -51z" />
    <glyph glyph-name="Ohungarumlaut" unicode="&#x150;" horiz-adv-x="1497" 
d="M383 1454l125 252h274l-174 -252h-225zM803 1454l125 252h274l-174 -252h-225zM735 -16q-146 0 -271.5 51.5t-214 141t-138.5 216.5t-50 273t50 273t138.5 216.5t214 141t271.5 51.5t271 -51.5t212.5 -141.5t137 -216.5t49.5 -272.5t-49.5 -272.5t-137 -216.5
t-212.5 -141.5t-271 -51.5zM735 322q150 0 241 96t91 248t-91 248t-241 96t-243 -96t-93 -248t93 -248t243 -96z" />
    <glyph glyph-name="ohungarumlaut" unicode="&#x151;" horiz-adv-x="1103" 
d="M180 1079l125 252h275l-174 -252h-226zM600 1079l125 252h274l-174 -252h-225zM532 -20q-214 0 -352.5 139.5t-138.5 351.5q0 215 138 353.5t353 138.5t352.5 -138.5t137.5 -353.5q0 -212 -138 -351.5t-352 -139.5zM532 291q75 0 121.5 51t46.5 129t-46.5 128t-121.5 50
q-76 0 -123 -50.5t-47 -127.5q0 -78 47 -129t123 -51z" />
    <glyph glyph-name="OE" unicode="&#x152;" horiz-adv-x="1992" 
d="M745 -16q-146 0 -273 51.5t-217.5 141t-142 216.5t-51.5 273q0 196 86.5 351.5t242.5 243t355 87.5q177 0 322 -74v57h813v-307h-475v-211h432v-307h-432v-199h475v-307h-813v59q-141 -75 -322 -75zM745 322q148 0 235 95.5t87 248.5t-87 248.5t-235 95.5
q-162 0 -254 -95t-92 -249t92 -249t254 -95z" />
    <glyph glyph-name="oe" unicode="&#x153;" horiz-adv-x="1679" 
d="M1153 -20q-197 0 -326 116q-124 -112 -313 -112q-209 0 -341 137.5t-132 349.5t131.5 348.5t341.5 136.5q184 0 311 -108q129 113 318 113q211 0 332.5 -137t121.5 -353v-86h-608q18 -62 62 -95.5t102 -33.5q39 0 71 8t54 22.5t30.5 22.5t20.5 21l225 -144
q-63 -95 -168.5 -150.5t-232.5 -55.5zM993 588h295q-34 117 -145 117q-106 0 -150 -117zM514 305q75 0 112.5 43.5t37.5 122.5q0 78 -37.5 121t-112.5 43t-113.5 -43t-38.5 -121t38.5 -122t113.5 -44z" />
    <glyph glyph-name="Racute" unicode="&#x154;" horiz-adv-x="1269" 
d="M410 1454l120 252h275l-129 -252h-266zM82 0v1331h653q76 0 149.5 -28.5t135 -83t99.5 -145t38 -202.5q0 -153 -65.5 -258.5t-171.5 -158.5l268 -455h-389l-242 412h-137v-412h-338zM420 739h258q58 0 99.5 34t41.5 99t-41.5 98.5t-99.5 33.5h-258v-265z" />
    <glyph glyph-name="racute" unicode="&#x155;" horiz-adv-x="802" 
d="M301 1079l121 252h274l-129 -252h-266zM82 0v942h328v-170q116 180 331 184v-307h-13q-318 8 -318 -268v-381h-328z" />
    <glyph glyph-name="uni0156" unicode="&#x156;" horiz-adv-x="1269" 
d="M82 0v1331h653q76 0 149.5 -28.5t135 -83t99.5 -145t38 -202.5q0 -153 -65.5 -258.5t-171.5 -158.5l268 -455h-389l-242 412h-137v-412h-338zM420 739h258q58 0 99.5 34t41.5 99t-41.5 98.5t-99.5 33.5h-258v-265zM340 -344l127 246h266l-135 -246h-258z" />
    <glyph glyph-name="uni0157" unicode="&#x157;" horiz-adv-x="802" 
d="M82 0v942h328v-170q116 180 331 184v-307h-13q-318 8 -318 -268v-381h-328zM0 -344l127 246h266l-135 -246h-258z" />
    <glyph glyph-name="Rcaron" unicode="&#x158;" horiz-adv-x="1269" 
d="M362 1454l-163 252h266l80 -131l80 131h266l-164 -252h-365zM82 0v1331h653q76 0 149.5 -28.5t135 -83t99.5 -145t38 -202.5q0 -153 -65.5 -258.5t-171.5 -158.5l268 -455h-389l-242 412h-137v-412h-338zM420 739h258q58 0 99.5 34t41.5 99t-41.5 98.5t-99.5 33.5h-258
v-265z" />
    <glyph glyph-name="rcaron" unicode="&#x159;" horiz-adv-x="802" 
d="M254 1079l-164 252h266l80 -131l80 131h266l-164 -252h-364zM82 0v942h328v-170q116 180 331 184v-307h-13q-318 8 -318 -268v-381h-328z" />
    <glyph glyph-name="Sacute" unicode="&#x15a;" horiz-adv-x="1259" 
d="M500 1454l121 252h274l-129 -252h-266zM633 -25q-115 0 -218 30.5t-175.5 80t-122.5 106.5t-76 117l270 197q14 -20 46.5 -49.5t80 -63t111 -57t123.5 -23.5q77 0 102 21.5t25 56.5q0 19 -18 36t-50.5 31t-64 24.5t-71 23t-60.5 20.5q-11 4 -44 15t-62 21.5t-70.5 29.5
t-75.5 39.5t-69.5 52t-60 67t-40 84t-15.5 103.5q0 89 30.5 161t82 119t121.5 79t144.5 45.5t156.5 13.5q186 0 339.5 -93t196.5 -206l-264 -178q-35 45 -123.5 92t-191.5 47q-51 0 -77 -16.5t-26 -45.5q0 -27 29.5 -50t63 -35.5t88.5 -30t75 -25.5q8 -3 43.5 -16t62.5 -23
t70 -31t75.5 -41.5t68.5 -52.5t60 -66t39.5 -80t15.5 -97q0 -208 -149 -320.5t-396 -112.5z" />
    <glyph glyph-name="sacute" unicode="&#x15b;" horiz-adv-x="923" 
d="M326 1079l120 252h275l-129 -252h-266zM461 -31q-170 0 -285.5 70t-155.5 164l222 151q14 -32 85.5 -79.5t137.5 -47.5q80 0 80 41q0 13 -9.5 23.5t-27.5 19t-35 15t-42.5 14.5t-39.5 14q-5 2 -31.5 11.5t-46 17t-52 23.5t-56 32t-51 40t-45 50.5t-29.5 61.5t-12 74
q0 78 32.5 137.5t89 94t125 52t146.5 17.5q149 0 255.5 -61t151.5 -146l-209 -140q-27 31 -91 65t-119 34q-64 0 -64 -37q0 -15 9.5 -27t28 -21.5t35.5 -16t43.5 -15.5t39.5 -14q3 -1 31.5 -11.5t46 -18t51 -24t56 -31.5t50.5 -39.5t45 -50t29 -59.5t12 -71
q0 -151 -106.5 -231.5t-294.5 -80.5z" />
    <glyph glyph-name="Scedilla" unicode="&#x15e;" horiz-adv-x="1259" 
d="M1178 408q0 -177 -109 -285t-299 -137l-33 -56q144 -29 144 -147q0 -47 -25.5 -81.5t-67 -53t-87 -27t-93.5 -8.5q-94 0 -133 20v142q19 -13 60 -20t73 -7q76 0 76 35q0 33 -82 33q-17 0 -49 -4t-41 -9l-2 111l39 66q-98 10 -185 43.5t-149.5 80.5t-106.5 99t-67 106
l270 197q14 -20 46.5 -49.5t80 -63t111 -57t123.5 -23.5q77 0 102 21.5t25 56.5q0 19 -18 36t-50.5 31t-64 24.5t-71 23t-60.5 20.5q-11 4 -44 15t-62 21.5t-70.5 29.5t-75.5 39.5t-69.5 52t-60 67t-40 84t-15.5 103.5q0 89 30.5 161t82 119t121.5 79t144.5 45.5t156.5 13.5
q186 0 339.5 -93t196.5 -206l-264 -178q-35 45 -123.5 92t-191.5 47q-51 0 -77 -16.5t-26 -45.5q0 -27 29.5 -50t63 -35.5t88.5 -30t75 -25.5q8 -3 43.5 -16t62.5 -23t70 -31t75.5 -41.5t68.5 -52.5t60 -66t39.5 -80t15.5 -97z" />
    <glyph glyph-name="scedilla" unicode="&#x15f;" horiz-adv-x="923" 
d="M541 586q3 -1 31.5 -11.5t46 -18t51 -24t56 -31.5t50.5 -39.5t45 -50t29 -59.5t12 -71q0 -124 -72.5 -200.5t-203.5 -100.5l-27 -43q143 -29 143 -148q0 -47 -25 -81.5t-67 -53t-87 -27t-93 -8.5q-92 0 -133 21v141q19 -13 60 -20t73 -7q76 0 76 35q0 33 -82 33
q-69 0 -90 -12l-2 110l35 55q-133 20 -223 85t-124 143l222 151q14 -32 85.5 -79.5t137.5 -47.5q80 0 80 41q0 13 -9.5 23.5t-27.5 19t-35 15t-42.5 14.5t-39.5 14q-5 2 -31.5 11.5t-46 17t-52 23.5t-56 32t-51 40t-45 50.5t-29.5 61.5t-12 74q0 78 32.5 137.5t89 94t125 52
t146.5 17.5q149 0 255.5 -61t151.5 -146l-209 -140q-27 31 -91 65t-119 34q-64 0 -64 -37q0 -15 9.5 -27t28 -21.5t35.5 -16t43.5 -15.5t39.5 -14z" />
    <glyph glyph-name="Scaron" unicode="&#x160;" horiz-adv-x="1259" 
d="M453 1454l-164 252h266l80 -131l80 131h266l-164 -252h-364zM633 -25q-115 0 -218 30.5t-175.5 80t-122.5 106.5t-76 117l270 197q14 -20 46.5 -49.5t80 -63t111 -57t123.5 -23.5q77 0 102 21.5t25 56.5q0 19 -18 36t-50.5 31t-64 24.5t-71 23t-60.5 20.5q-11 4 -44 15
t-62 21.5t-70.5 29.5t-75.5 39.5t-69.5 52t-60 67t-40 84t-15.5 103.5q0 89 30.5 161t82 119t121.5 79t144.5 45.5t156.5 13.5q186 0 339.5 -93t196.5 -206l-264 -178q-35 45 -123.5 92t-191.5 47q-51 0 -77 -16.5t-26 -45.5q0 -27 29.5 -50t63 -35.5t88.5 -30t75 -25.5
q8 -3 43.5 -16t62.5 -23t70 -31t75.5 -41.5t68.5 -52.5t60 -66t39.5 -80t15.5 -97q0 -208 -149 -320.5t-396 -112.5z" />
    <glyph glyph-name="scaron" unicode="&#x161;" horiz-adv-x="923" 
d="M279 1079l-164 252h266l80 -131l80 131h266l-164 -252h-364zM461 -31q-170 0 -285.5 70t-155.5 164l222 151q14 -32 85.5 -79.5t137.5 -47.5q80 0 80 41q0 13 -9.5 23.5t-27.5 19t-35 15t-42.5 14.5t-39.5 14q-5 2 -31.5 11.5t-46 17t-52 23.5t-56 32t-51 40t-45 50.5
t-29.5 61.5t-12 74q0 78 32.5 137.5t89 94t125 52t146.5 17.5q149 0 255.5 -61t151.5 -146l-209 -140q-27 31 -91 65t-119 34q-64 0 -64 -37q0 -15 9.5 -27t28 -21.5t35.5 -16t43.5 -15.5t39.5 -14q3 -1 31.5 -11.5t46 -18t51 -24t56 -31.5t50.5 -39.5t45 -50t29 -59.5
t12 -71q0 -151 -106.5 -231.5t-294.5 -80.5z" />
    <glyph glyph-name="uni0162" unicode="&#x162;" horiz-adv-x="1212" 
d="M756 0h-41l-37 -59q143 -29 143 -148q0 -47 -25 -81.5t-67 -53t-87 -27t-93 -8.5q-92 0 -133 21v141q19 -13 60 -20t73 -7q76 0 76 35q0 33 -82 33q-69 0 -90 -12l-2 110l45 76h-78v1024h-377v307h1089v-307h-374v-1024z" />
    <glyph glyph-name="uni0163" unicode="&#x163;" horiz-adv-x="731" 
d="M549 -59q143 -29 143 -148q0 -47 -25 -81.5t-67 -53t-87 -27t-93 -8.5q-92 0 -133 21v141q19 -13 60 -20t73 -7q76 0 76 35q0 33 -82 33q-69 0 -90 -12l-2 110l49 82q-234 33 -234 297v393h-117v246h117v291h328v-291h184v-246h-184v-338q0 -19 2 -35t7.5 -26.5
t10.5 -18.5t15 -13t15.5 -8t18 -4t18 -1.5t19 0t17.5 0.5h51v-252h-53z" />
    <glyph glyph-name="Tcaron" unicode="&#x164;" horiz-adv-x="1212" 
d="M401 1454l-163 252h266l80 -131l80 131h266l-164 -252h-365zM418 0v1024h-377v307h1089v-307h-374v-1024h-338z" />
    <glyph glyph-name="tcaron" unicode="&#x165;" horiz-adv-x="731" 
d="M109 1331l-164 252h266l80 -131l80 131h266l-164 -252h-364zM446 0q-309 0 -309 303v393h-117v246h117v291h328v-291h184v-246h-184v-338q0 -19 2 -35t7.5 -26.5t10.5 -18.5t15 -13t15.5 -8t18 -4t18 -1.5t19 0t17.5 0.5h51v-252h-193z" />
    <glyph glyph-name="Tbar" unicode="&#x166;" horiz-adv-x="1212" 
d="M418 0v397h-193v308h193v319h-377v307h1089v-307h-374v-319h192v-308h-192v-397h-338z" />
    <glyph glyph-name="Utilde" unicode="&#x168;" horiz-adv-x="1257" 
d="M725 1413q-101 0 -166 74q-24 26 -39 36.5t-35 10.5q-23 0 -37.5 -18t-18 -37t-3.5 -39h-184q0 123 59.5 200.5t175.5 77.5q99 0 164 -73q44 -48 84 -48q36 0 49.5 25.5t13.5 69.5h185q0 -124 -62 -201.5t-186 -77.5zM608 -16q-124 0 -225.5 40.5t-166.5 108.5t-99.5 156
t-34.5 186v856h338v-817q0 -58 16.5 -99.5t45 -63t59.5 -31t67 -9.5t67 9.5t60 31t45.5 63t16.5 99.5v817h338v-856q0 -98 -35 -186t-99.5 -156t-166.5 -108.5t-226 -40.5z" />
    <glyph glyph-name="utilde" unicode="&#x169;" horiz-adv-x="1132" 
d="M666 1038q-101 0 -166 74q-24 26 -39 36.5t-35 10.5q-23 0 -37.5 -18t-18 -37t-3.5 -39h-185q0 123 60 200.5t176 77.5q99 0 164 -73q43 -47 84 -47q37 0 50 25t13 69h184q0 -124 -61.5 -201.5t-185.5 -77.5zM444 -16q-65 0 -124 18t-115 59t-89.5 119.5t-33.5 186.5v575
h328v-522q0 -44 12 -76.5t28 -48t38 -25t35 -11t26 -1.5t25.5 1.5t33.5 11t36 25t26.5 48t11.5 76.5v522h328v-942h-328v66q-94 -82 -238 -82z" />
    <glyph glyph-name="Umacron" unicode="&#x16a;" horiz-adv-x="1257" 
d="M391 1446v205h434v-205h-434zM608 -16q-124 0 -225.5 40.5t-166.5 108.5t-99.5 156t-34.5 186v856h338v-817q0 -58 16.5 -99.5t45 -63t59.5 -31t67 -9.5t67 9.5t60 31t45.5 63t16.5 99.5v817h338v-856q0 -98 -35 -186t-99.5 -156t-166.5 -108.5t-226 -40.5z" />
    <glyph glyph-name="umacron" unicode="&#x16b;" horiz-adv-x="1132" 
d="M332 1071v205h434v-205h-434zM444 -16q-65 0 -124 18t-115 59t-89.5 119.5t-33.5 186.5v575h328v-522q0 -44 12 -76.5t28 -48t38 -25t35 -11t26 -1.5t25.5 1.5t33.5 11t36 25t26.5 48t11.5 76.5v522h328v-942h-328v66q-94 -82 -238 -82z" />
    <glyph glyph-name="Uring" unicode="&#x16e;" horiz-adv-x="1257" 
d="M608 1413q-98 0 -159.5 59t-61.5 146q0 91 61 149t160 58q100 0 159.5 -57.5t59.5 -149.5q0 -87 -60 -146t-159 -59zM608 1550q41 0 56.5 22t15.5 46q0 14 -4 27.5t-21.5 28t-46.5 14.5t-45.5 -14.5t-20 -27.5t-3.5 -28q0 -14 3.5 -27t20 -27t45.5 -14zM608 -16
q-124 0 -225.5 40.5t-166.5 108.5t-99.5 156t-34.5 186v856h338v-817q0 -58 16.5 -99.5t45 -63t59.5 -31t67 -9.5t67 9.5t60 31t45.5 63t16.5 99.5v817h338v-856q0 -98 -35 -186t-99.5 -156t-166.5 -108.5t-226 -40.5z" />
    <glyph glyph-name="uring" unicode="&#x16f;" horiz-adv-x="1132" 
d="M549 1038q-98 0 -159.5 59t-61.5 146q0 91 61 149t160 58q100 0 159.5 -57.5t59.5 -149.5q0 -87 -60 -146t-159 -59zM549 1176q41 0 56.5 21.5t15.5 45.5q0 14 -4 27.5t-21.5 28t-46.5 14.5t-46 -14.5t-20.5 -28t-3.5 -27.5t3.5 -27t20.5 -26.5t46 -13.5zM444 -16
q-65 0 -124 18t-115 59t-89.5 119.5t-33.5 186.5v575h328v-522q0 -44 12 -76.5t28 -48t38 -25t35 -11t26 -1.5t25.5 1.5t33.5 11t36 25t26.5 48t11.5 76.5v522h328v-942h-328v66q-94 -82 -238 -82z" />
    <glyph glyph-name="Uhungarumlaut" unicode="&#x170;" horiz-adv-x="1257" 
d="M256 1454l125 252h274l-174 -252h-225zM676 1454l125 252h274l-174 -252h-225zM608 -16q-124 0 -225.5 40.5t-166.5 108.5t-99.5 156t-34.5 186v856h338v-817q0 -58 16.5 -99.5t45 -63t59.5 -31t67 -9.5t67 9.5t60 31t45.5 63t16.5 99.5v817h338v-856q0 -98 -35 -186
t-99.5 -156t-166.5 -108.5t-226 -40.5z" />
    <glyph glyph-name="uhungarumlaut" unicode="&#x171;" horiz-adv-x="1132" 
d="M197 1079l125 252h274l-174 -252h-225zM616 1079l125 252h275l-174 -252h-226zM444 -16q-65 0 -124 18t-115 59t-89.5 119.5t-33.5 186.5v575h328v-522q0 -44 12 -76.5t28 -48t38 -25t35 -11t26 -1.5t25.5 1.5t33.5 11t36 25t26.5 48t11.5 76.5v522h328v-942h-328v66
q-94 -82 -238 -82z" />
    <glyph glyph-name="Uogonek" unicode="&#x172;" horiz-adv-x="1257" 
d="M797 1331h338v-856q0 -119 -48 -220.5t-147 -173.5t-235 -91q-89 -65 -89 -123q0 -19 13 -32.5t48 -17.5t95 21v-184q-59 -16 -121 -13t-112.5 19t-82.5 57t-32 99q0 97 94 174q-206 27 -321 163.5t-115 321.5v856h338v-817q0 -58 16.5 -99.5t45 -63t59.5 -31t67 -9.5
t67 9.5t60 31t45.5 63t16.5 99.5v817z" />
    <glyph glyph-name="uogonek" unicode="&#x173;" horiz-adv-x="1132" 
d="M885 -117q0 -19 13 -32t47.5 -17t94.5 21v-185q-59 -16 -121 -13t-112.5 19t-82.5 57t-32 99q0 96 88 168h-98v66q-94 -82 -238 -82q-65 0 -124 18t-115 59t-89.5 119.5t-33.5 186.5v575h328v-522q0 -44 12 -76.5t28 -48t38 -25t35 -11t26 -1.5t25.5 1.5t33.5 11t36 25
t26.5 48t11.5 76.5v522h328v-942h-47q-78 -60 -78 -117z" />
    <glyph glyph-name="Wcircumflex" unicode="&#x174;" horiz-adv-x="1951" 
d="M621 1454l163 252h365l164 -252h-266l-80 141l-80 -141h-266zM465 0l-445 1331h359l237 -719l236 719h248l227 -674l225 674h359l-445 -1331h-290l-209 633l-211 -633h-291z" />
    <glyph glyph-name="wcircumflex" unicode="&#x175;" horiz-adv-x="1603" 
d="M442 1079l164 252h365l164 -252h-267l-80 142l-79 -142h-267zM317 0l-297 942h338l142 -479l170 479h245l170 -479l140 479h338l-301 -942h-318l-156 455l-153 -455h-318z" />
    <glyph glyph-name="Ycircumflex" unicode="&#x176;" horiz-adv-x="1329" 
d="M303 1454l164 252h364l164 -252h-266l-80 141l-80 -141h-266zM481 0v549l-471 782h387l252 -426l252 426h387l-469 -778v-553h-338z" />
    <glyph glyph-name="ycircumflex" unicode="&#x177;" horiz-adv-x="1124" 
d="M205 1079l164 252h364l164 -252h-266l-80 142l-80 -142h-266zM242 -377l149 377l-371 942h338l193 -489l194 489h338l-524 -1319h-317z" />
    <glyph glyph-name="Ydieresis" unicode="&#x178;" horiz-adv-x="1329" 
d="M451 1413q-55 0 -99.5 40.5t-44.5 105.5q0 62 44 99.5t100 37.5q55 0 99 -37.5t44 -99.5q0 -65 -44 -105.5t-99 -40.5zM850 1413q-55 0 -99 40.5t-44 105.5q0 62 44 99.5t99 37.5t99 -37.5t44 -99.5q0 -65 -44 -105.5t-99 -40.5zM481 0v549l-471 782h387l252 -426
l252 426h387l-469 -778v-553h-338z" />
    <glyph glyph-name="Zacute" unicode="&#x179;" horiz-adv-x="1114" 
d="M422 1454l121 252h274l-129 -252h-266zM61 0v281l543 741h-530v309h958v-282l-549 -740l539 -2v-307h-961z" />
    <glyph glyph-name="zacute" unicode="&#x17a;" horiz-adv-x="860" 
d="M274 1079l121 252h275l-129 -252h-267zM41 0v242l321 434h-321v266h737v-242l-323 -434h323v-266h-737z" />
    <glyph glyph-name="Zdotaccent" unicode="&#x17b;" horiz-adv-x="1114" 
d="M557 1413q-55 0 -99 40.5t-44 105.5q0 62 44 99.5t99 37.5t99 -37.5t44 -99.5q0 -65 -44 -105.5t-99 -40.5zM61 0v281l543 741h-530v309h958v-282l-549 -740l539 -2v-307h-961z" />
    <glyph glyph-name="zdotaccent" unicode="&#x17c;" horiz-adv-x="860" 
d="M410 1038q-55 0 -99.5 40.5t-44.5 105.5q0 62 44 99.5t100 37.5q55 0 99 -37.5t44 -99.5q0 -65 -44 -105.5t-99 -40.5zM41 0v242l321 434h-321v266h737v-242l-323 -434h323v-266h-737z" />
    <glyph glyph-name="Zcaron" unicode="&#x17d;" horiz-adv-x="1114" 
d="M375 1454l-164 252h266l80 -131l80 131h266l-164 -252h-364zM61 0v281l543 741h-530v309h958v-282l-549 -740l539 -2v-307h-961z" />
    <glyph glyph-name="zcaron" unicode="&#x17e;" horiz-adv-x="860" 
d="M227 1079l-164 252h267l80 -131l79 131h267l-164 -252h-365zM41 0v242l321 434h-321v266h737v-242l-323 -434h323v-266h-737z" />
    <glyph glyph-name="uni01CD" unicode="&#x1cd;" horiz-adv-x="1386" 
d="M504 1454l-164 252h266l80 -131l80 131h266l-164 -252h-364zM20 0l535 1331h256l535 -1331h-359l-57 147h-494l-57 -147h-359zM553 455h258l-129 336z" />
    <glyph glyph-name="uni01CE" unicode="&#x1ce;" 
d="M422 1079l-164 252h266l80 -131l80 131h266l-164 -252h-364zM479 -16q-188 0 -313 138.5t-125 348.5q0 213 124.5 349t313.5 136q135 0 217 -73v59h328v-942h-328v57q-86 -73 -217 -73zM528 291q75 0 121.5 51t46.5 129t-46.5 128t-121.5 50q-76 0 -123 -50.5t-47 -127.5
q0 -78 47 -129t123 -51z" />
    <glyph glyph-name="uni01CF" unicode="&#x1cf;" horiz-adv-x="542" 
d="M66 1454l-164 252h266l80 -131l80 131h266l-164 -252h-364zM82 0v1331h338v-1331h-338z" />
    <glyph glyph-name="uni01D0" unicode="&#x1d0;" horiz-adv-x="534" 
d="M63 1079l-163 252h266l80 -131l80 131h266l-164 -252h-365zM82 0v942h330l-2 -942h-328z" />
    <glyph glyph-name="uni01D1" unicode="&#x1d1;" horiz-adv-x="1497" 
d="M553 1454l-164 252h266l80 -131l80 131h266l-163 -252h-365zM735 -16q-146 0 -271.5 51.5t-214 141t-138.5 216.5t-50 273t50 273t138.5 216.5t214 141t271.5 51.5t271 -51.5t212.5 -141.5t137 -216.5t49.5 -272.5t-49.5 -272.5t-137 -216.5t-212.5 -141.5t-271 -51.5z
M735 322q150 0 241 96t91 248t-91 248t-241 96t-243 -96t-93 -248t93 -248t243 -96z" />
    <glyph glyph-name="uni01D2" unicode="&#x1d2;" horiz-adv-x="1103" 
d="M350 1079l-164 252h267l79 -131l80 131h267l-164 -252h-365zM532 -20q-214 0 -352.5 139.5t-138.5 351.5q0 215 138 353.5t353 138.5t352.5 -138.5t137.5 -353.5q0 -212 -138 -351.5t-352 -139.5zM532 291q75 0 121.5 51t46.5 129t-46.5 128t-121.5 50q-76 0 -123 -50.5
t-47 -127.5q0 -78 47 -129t123 -51z" />
    <glyph glyph-name="uni01D3" unicode="&#x1d3;" horiz-adv-x="1257" 
d="M426 1454l-164 252h266l80 -131l80 131h266l-163 -252h-365zM608 -16q-124 0 -225.5 40.5t-166.5 108.5t-99.5 156t-34.5 186v856h338v-817q0 -58 16.5 -99.5t45 -63t59.5 -31t67 -9.5t67 9.5t60 31t45.5 63t16.5 99.5v817h338v-856q0 -98 -35 -186t-99.5 -156
t-166.5 -108.5t-226 -40.5z" />
    <glyph glyph-name="uni01D4" unicode="&#x1d4;" horiz-adv-x="1132" 
d="M367 1079l-164 252h266l80 -131l80 131h266l-164 -252h-364zM444 -16q-65 0 -124 18t-115 59t-89.5 119.5t-33.5 186.5v575h328v-522q0 -44 12 -76.5t28 -48t38 -25t35 -11t26 -1.5t25.5 1.5t33.5 11t36 25t26.5 48t11.5 76.5v522h328v-942h-328v66q-94 -82 -238 -82z
" />
    <glyph glyph-name="Gcaron" unicode="&#x1e6;" horiz-adv-x="1476" 
d="M551 1454l-164 252h266l80 -131l80 131h266l-164 -252h-364zM735 -16q-146 0 -271.5 51.5t-214 141t-138.5 216.5t-50 273t50 273t138.5 216.5t214 141t271.5 51.5q173 0 312 -70.5t227 -196.5l-273 -202q-50 69 -120.5 100t-145.5 31q-150 0 -243 -96t-93 -248t93 -248
t243 -96q80 0 151 39t97 118h-268v307h659v-151q-11 -289 -183 -470t-456 -181z" />
    <glyph glyph-name="gcaron" unicode="&#x1e7;" 
d="M371 1079l-164 252h266l80 -131l80 131h266l-164 -252h-364zM514 -410q-127 0 -232.5 47.5t-172.5 126.5l210 179q78 -78 195 -78q14 0 31 2.5t45.5 14t50 30.5t38 57.5t17.5 89.5q-88 -75 -219 -75q-188 0 -312 138.5t-124 348.5t124 347.5t312 137.5q131 0 219 -75v61
h328v-879q0 -211 -132 -342t-378 -131zM526 291q76 0 123 51t47 129q0 77 -47 127.5t-123 50.5q-75 0 -121.5 -50t-46.5 -128t46.5 -129t121.5 -51z" />
    <glyph glyph-name="uni0218" unicode="&#x218;" horiz-adv-x="1259" 
d="M633 -25q-115 0 -218 30.5t-175.5 80t-122.5 106.5t-76 117l270 197q14 -20 46.5 -49.5t80 -63t111 -57t123.5 -23.5q77 0 102 21.5t25 56.5q0 19 -18 36t-50.5 31t-64 24.5t-71 23t-60.5 20.5q-11 4 -44 15t-62 21.5t-70.5 29.5t-75.5 39.5t-69.5 52t-60 67t-40 84
t-15.5 103.5q0 89 30.5 161t82 119t121.5 79t144.5 45.5t156.5 13.5q186 0 339.5 -93t196.5 -206l-264 -178q-35 45 -123.5 92t-191.5 47q-51 0 -77 -16.5t-26 -45.5q0 -27 29.5 -50t63 -35.5t88.5 -30t75 -25.5q8 -3 43.5 -16t62.5 -23t70 -31t75.5 -41.5t68.5 -52.5
t60 -66t39.5 -80t15.5 -97q0 -208 -149 -320.5t-396 -112.5zM397 -348l127 246h267l-136 -246h-258z" />
    <glyph glyph-name="uni0219" unicode="&#x219;" horiz-adv-x="923" 
d="M461 -31q-170 0 -285.5 70t-155.5 164l222 151q14 -32 85.5 -79.5t137.5 -47.5q80 0 80 41q0 13 -9.5 23.5t-27.5 19t-35 15t-42.5 14.5t-39.5 14q-5 2 -31.5 11.5t-46 17t-52 23.5t-56 32t-51 40t-45 50.5t-29.5 61.5t-12 74q0 78 32.5 137.5t89 94t125 52t146.5 17.5
q149 0 255.5 -61t151.5 -146l-209 -140q-27 31 -91 65t-119 34q-64 0 -64 -37q0 -15 9.5 -27t28 -21.5t35.5 -16t43.5 -15.5t39.5 -14q3 -1 31.5 -11.5t46 -18t51 -24t56 -31.5t50.5 -39.5t45 -50t29 -59.5t12 -71q0 -151 -106.5 -231.5t-294.5 -80.5zM219 -354l127 245h266
l-135 -245h-258z" />
    <glyph glyph-name="uni021A" unicode="&#x21a;" horiz-adv-x="1212" 
d="M418 0v1024h-377v307h1089v-307h-374v-1024h-338zM338 -344l127 246h266l-135 -246h-258z" />
    <glyph glyph-name="uni021B" unicode="&#x21b;" horiz-adv-x="731" 
d="M446 0q-309 0 -309 303v393h-117v246h117v291h328v-291h184v-246h-184v-338q0 -19 2 -35t7.5 -26.5t10.5 -18.5t15 -13t15.5 -8t18 -4t18 -1.5t19 0t17.5 0.5h51v-252h-193zM209 -338l127 246h266l-135 -246h-258z" />
    <glyph glyph-name="circumflex" unicode="&#x2c6;" horiz-adv-x="774" 
d="M41 1079l164 252h364l164 -252h-266l-80 142l-80 -142h-266z" />
    <glyph glyph-name="caron" unicode="&#x2c7;" horiz-adv-x="774" 
d="M205 1079l-164 252h266l80 -131l80 131h266l-164 -252h-364z" />
    <glyph glyph-name="breve" unicode="&#x2d8;" horiz-adv-x="606" 
d="M305 1075q-120 0 -192 63t-72 187v6h184v-6q0 -40 21 -63t59 -23q76 0 76 86v6h184v-6q0 -124 -71 -187t-189 -63z" />
    <glyph glyph-name="dotaccent" unicode="&#x2d9;" horiz-adv-x="368" 
d="M184 1153q-55 0 -99 40t-44 105q0 62 44 100t99 38t99.5 -38t44.5 -100q0 -65 -44.5 -105t-99.5 -40z" />
    <glyph glyph-name="ring" unicode="&#x2da;" horiz-adv-x="522" 
d="M262 995q-98 0 -159.5 59t-61.5 146q0 91 61 149t160 58q100 0 159.5 -57.5t59.5 -149.5q0 -87 -60 -146t-159 -59zM262 1133q41 0 56.5 21.5t15.5 45.5q0 14 -4 27.5t-21.5 28t-46.5 14.5t-45.5 -14.5t-20 -27.5t-3.5 -28q0 -14 3.5 -27t20 -26.5t45.5 -13.5z" />
    <glyph glyph-name="ogonek" unicode="&#x2db;" horiz-adv-x="413" 
d="M373 -358q-59 -16 -118.5 -13t-107 19t-77 56.5t-29.5 98.5q0 69 39 122t82 75h164q-1 -1 -11.5 -8.5t-18.5 -14t-20.5 -17t-21.5 -22t-18 -24.5t-14 -28.5t-5 -30.5q0 -19 13 -32.5t48 -17.5t95 21v-184z" />
    <glyph glyph-name="tilde" unicode="&#x2dc;" horiz-adv-x="813" 
d="M524 1141q-102 0 -166 73q-17 19 -25 26.5t-21 14.5t-27 7q-18 0 -30.5 -10t-18.5 -26t-8.5 -30.5t-2.5 -28.5h-184q0 123 59.5 201t175.5 78q98 0 164 -74q43 -47 84 -47q64 0 64 94h184q0 -123 -62 -200.5t-186 -77.5z" />
    <glyph glyph-name="hungarumlaut" unicode="&#x2dd;" horiz-adv-x="901" 
d="M41 1079l125 252h274l-174 -252h-225zM461 1079l125 252h274l-174 -252h-225z" />
    <glyph glyph-name="gravecomb" unicode="&#x300;" horiz-adv-x="0" 
d="M-307 1079l-129 252h274l121 -252h-266z" />
    <glyph glyph-name="acutecomb" unicode="&#x301;" horiz-adv-x="0" 
d="M-436 1079l121 252h274l-129 -252h-266z" />
    <glyph glyph-name="uni0302" unicode="&#x302;" horiz-adv-x="0" 
d="M-733 1079l164 252h364l164 -252h-266l-80 142l-80 -142h-266z" />
    <glyph glyph-name="tildecomb" unicode="&#x303;" horiz-adv-x="0" 
d="M-289 1141q-102 0 -166 73q-17 19 -25 26.5t-21 14.5t-27 7q-18 0 -30.5 -10t-18.5 -26t-8.5 -30.5t-2.5 -28.5h-184q0 123 59.5 201t175.5 78q98 0 164 -74q43 -47 84 -47q64 0 64 94h184q0 -123 -62 -200.5t-186 -77.5z" />
    <glyph glyph-name="uni0304" unicode="&#x304;" horiz-adv-x="0" 
d="M-475 1126v205h434v-205h-434z" />
    <glyph glyph-name="uni0306" unicode="&#x306;" horiz-adv-x="0" 
d="M-322 1071q-129 0 -206.5 68.5t-77.5 185.5v6h184v-6q0 -36 27.5 -63t72.5 -27t71 27t26 63v6h184v-6q0 -117 -76.5 -185.5t-204.5 -68.5z" />
    <glyph glyph-name="uni0307" unicode="&#x307;" horiz-adv-x="0" 
d="M-184 1153q-55 0 -99.5 40t-44.5 105q0 62 44.5 100t99.5 38t99 -38t44 -100q0 -65 -44 -105t-99 -40z" />
    <glyph glyph-name="uni0308" unicode="&#x308;" horiz-adv-x="0" 
d="M-602 1153q-55 0 -99 40t-44 105q0 62 44 100t99 38t99 -38t44 -100q0 -65 -44 -105t-99 -40zM-203 1153q-55 0 -99 40t-44 105q0 62 44 100t99 38t99.5 -38t44.5 -100q0 -65 -44.5 -105t-99.5 -40z" />
    <glyph glyph-name="uni030A" unicode="&#x30a;" horiz-adv-x="0" 
d="M-260 995q-98 0 -159.5 59t-61.5 146q0 91 61 149t160 58q100 0 159.5 -57.5t59.5 -149.5q0 -87 -60 -146t-159 -59zM-260 1133q41 0 56.5 21.5t15.5 45.5q0 14 -4 27.5t-21.5 28t-46.5 14.5t-46 -14.5t-20.5 -28t-3.5 -27.5t3.5 -27t20.5 -26.5t46 -13.5z" />
    <glyph glyph-name="uni030B" unicode="&#x30b;" horiz-adv-x="0" 
d="M-860 1079l125 252h274l-174 -252h-225zM-440 1079l125 252h274l-174 -252h-225z" />
    <glyph glyph-name="uni030C" unicode="&#x30c;" horiz-adv-x="0" 
d="M-569 1079l-164 252h266l80 -131l80 131h266l-164 -252h-364z" />
    <glyph glyph-name="uni0312" unicode="&#x312;" horiz-adv-x="0" 
d="M-190 1108q-68 0 -108 41t-40 94q0 108 148 211h149q-21 -14 -54.5 -46.5t-41.5 -45.5q37 -12 61.5 -42.5t24.5 -76.5q0 -55 -36 -95t-103 -40z" />
    <glyph glyph-name="dotbelowcomb" unicode="&#x323;" horiz-adv-x="0" 
d="M-184 -283q-55 0 -99.5 40.5t-44.5 105.5q0 62 44 99.5t100 37.5q55 0 99 -37.5t44 -99.5q0 -65 -44 -105.5t-99 -40.5z" />
    <glyph glyph-name="uni0326" unicode="&#x326;" horiz-adv-x="0" 
d="M-434 -246l127 246h266l-135 -246h-258z" />
    <glyph glyph-name="uni0327" unicode="&#x327;" horiz-adv-x="0" 
d="M-332 -406q-92 0 -133 21v141q38 -26 133 -26q76 0 76 34q0 33 -82 33q-69 0 -90 -12l-2 111l63 104h217l-53 -88q144 -29 144 -148q0 -47 -25.5 -81.5t-67 -53t-87 -27t-93.5 -8.5z" />
    <glyph glyph-name="uni0328" unicode="&#x328;" horiz-adv-x="0" 
d="M-41 -358q-59 -16 -121 -13t-112.5 19t-82.5 56.5t-32 98.5q0 68 42.5 121t88.5 76h180q-1 -1 -18.5 -13t-31.5 -23.5t-31.5 -29t-27.5 -38t-10 -41.5q0 -19 13 -32.5t48 -17.5t95 21v-184z" />
    <glyph glyph-name="uni0331" unicode="&#x331;" horiz-adv-x="0" 
d="M-449 -203v203h408v-203h-408z" />
    <glyph glyph-name="Gamma" unicode="&#x393;" horiz-adv-x="958" 
d="M82 0v1331h754v-307h-426v-1024h-328z" />
    <glyph glyph-name="uni0394" unicode="&#x394;" horiz-adv-x="1329" 
d="M82 0v287l424 1044h276l424 -1044v-287h-1124zM430 287h424l-213 536z" />
    <glyph glyph-name="Sigma" unicode="&#x3a3;" horiz-adv-x="1198" 
d="M82 0v236l457 423l-457 447v225h993v-307h-452l360 -365l-354 -352h446v-307h-993z" />
    <glyph glyph-name="Phi" unicode="&#x3a6;" horiz-adv-x="1570" 
d="M633 -16v149q-256 30 -403.5 167t-147.5 368q0 228 147.5 364t403.5 166v150h266v-150q257 -28 403 -164t146 -366q0 -231 -146.5 -369t-402.5 -166v-149h-266zM633 465v401q-223 -37 -223 -198q0 -166 223 -203zM899 465q221 36 221 203q0 162 -221 198v-401z" />
    <glyph glyph-name="Psi" unicode="&#x3a8;" horiz-adv-x="1546" 
d="M621 0v307q-112 17 -207.5 63.5t-170.5 122t-118 187.5t-43 250v401h328v-401q0 -260 211 -312v713h266v-713q209 52 209 312v401h327v-403q0 -137 -42.5 -249t-117 -187t-169.5 -121.5t-207 -63.5v-307h-266z" />
    <glyph glyph-name="uni03A9" unicode="&#x3a9;" horiz-adv-x="1609" 
d="M82 8v307h145q-104 155 -104 351t82.5 351t234.5 243t346 88t345 -88t233 -243t82 -351q0 -198 -105 -351h146v-307h-602v309q48 21 86 48.5t62 53.5t41.5 59.5t25.5 58t12.5 58t5 50t0.5 43.5q0 35 -8 74.5t-31.5 87t-58.5 84t-96 61.5t-138 25t-138 -25t-97 -61.5
t-59.5 -84t-32 -87t-8.5 -74.5q0 -28 0.5 -42.5t4.5 -49t12 -57.5t25 -57.5t41.5 -59.5t62.5 -52.5t87 -47.5v-314h-602z" />
    <glyph glyph-name="uni1E04" unicode="&#x1e04;" horiz-adv-x="1236" 
d="M82 0v1331h627q105 0 193.5 -42.5t146 -133t57.5 -213.5q0 -168 -107 -254q156 -97 156 -293q0 -121 -62 -213.5t-155.5 -137t-198.5 -44.5h-657zM420 821h229q50 0 79.5 27t29.5 76t-29 74.5t-80 25.5h-229v-203zM420 307h264q57 0 90 34t33 85q0 50 -34.5 84.5
t-88.5 34.5h-264v-238zM549 -367q-55 0 -99 40.5t-44 105.5q0 62 44 99.5t99 37.5t99 -37.5t44 -99.5q0 -65 -44 -105.5t-99 -40.5z" />
    <glyph glyph-name="uni1E05" unicode="&#x1e05;" 
d="M627 -16q-131 0 -217 73v-57h-328v1331h328v-448q82 73 217 73q189 0 313.5 -136t124.5 -349q0 -210 -125 -348.5t-313 -138.5zM578 291q76 0 123 51t47 129q0 77 -47 127.5t-123 50.5q-75 0 -121.5 -50t-46.5 -128t46.5 -129t121.5 -51zM604 -383q-55 0 -99 40t-44 105
q0 62 44 100t99 38t99.5 -38t44.5 -100q0 -65 -44.5 -105t-99.5 -40z" />
    <glyph glyph-name="uni1E0C" unicode="&#x1e0c;" horiz-adv-x="1347" 
d="M82 0v1331h520q292 0 472.5 -184.5t180.5 -480.5q0 -297 -181 -481.5t-472 -184.5h-520zM420 328h182q19 0 42.5 3.5t63 13t74 33t67 58.5t51 94.5t18.5 135.5q0 65 -15.5 118.5t-38.5 87.5t-55 60t-61 39t-61 21t-50.5 10t-34.5 2h-182v-676zM535 -367q-55 0 -99.5 40.5
t-44.5 105.5q0 62 44 99.5t100 37.5q55 0 99 -37.5t44 -99.5q0 -65 -44 -105.5t-99 -40.5z" />
    <glyph glyph-name="uni1E0D" unicode="&#x1e0d;" 
d="M479 -16q-188 0 -313 138.5t-125 348.5q0 213 124.5 349t313.5 136q135 0 217 -73v448h328v-1331h-328v57q-86 -73 -217 -73zM528 291q75 0 121.5 51t46.5 129t-46.5 128t-121.5 50q-76 0 -123 -50.5t-47 -127.5q0 -78 47 -129t123 -51zM555 -383q-55 0 -99 40t-44 105
q0 62 44 100t99 38t99 -38t44 -100q0 -65 -44 -105t-99 -40z" />
    <glyph glyph-name="uni1E24" unicode="&#x1e24;" horiz-adv-x="1345" 
d="M82 0v1331h338v-502h465v502h338v-1331h-338v502h-465v-502h-338zM649 -356q-55 0 -99 40t-44 105q0 62 44 99.5t99 37.5q56 0 100 -37.5t44 -99.5q0 -65 -44.5 -105t-99.5 -40z" />
    <glyph glyph-name="uni1E25" unicode="&#x1e25;" horiz-adv-x="1132" 
d="M82 0v1331h328v-457q94 82 237 82q51 0 99 -10.5t97 -37.5t85 -69t59 -110.5t23 -155.5v-573h-328v520q0 44 -12 76.5t-28 48t-38 25t-35 11t-26 1.5t-25.5 -1.5t-33.5 -11t-36 -25t-26.5 -48t-11.5 -76.5v-520h-328zM543 -367q-55 0 -99.5 40.5t-44.5 105.5
q0 62 44 99.5t100 37.5q55 0 99 -37.5t44 -99.5q0 -65 -44 -105.5t-99 -40.5z" />
    <glyph glyph-name="uni1E36" unicode="&#x1e36;" horiz-adv-x="1087" 
d="M82 0v1331h338v-1024h586v-307h-924zM541 -367q-55 0 -99.5 40.5t-44.5 105.5q0 62 44 99.5t100 37.5q55 0 99 -37.5t44 -99.5q0 -65 -44 -105.5t-99 -40.5z" />
    <glyph glyph-name="uni1E37" unicode="&#x1e37;" horiz-adv-x="534" 
d="M82 0v1331h330l-2 -1331h-328zM246 -367q-55 0 -99.5 40.5t-44.5 105.5q0 62 44 99.5t100 37.5q55 0 99 -37.5t44 -99.5q0 -65 -44 -105.5t-99 -40.5z" />
    <glyph glyph-name="uni1E3E" unicode="&#x1e3e;" horiz-adv-x="1576" 
d="M633 1454l121 252h274l-129 -252h-266zM82 0v1331h338l348 -694l348 694h338v-1331h-338v635l-231 -490h-234l-231 490v-635h-338z" />
    <glyph glyph-name="uni1E3F" unicode="&#x1e3f;" horiz-adv-x="1691" 
d="M690 1108l121 252h274l-129 -252h-266zM82 0v942h328v-80q97 94 229 94q186 0 281 -127q57 68 137 97.5t162 29.5q51 0 97.5 -10.5t93.5 -37.5t81.5 -69t56 -110.5t21.5 -155.5v-573h-328v526q0 41 -12.5 70.5t-28 43.5t-37 22t-31.5 9t-20 1t-19.5 -1t-30 -9t-35 -22
t-26.5 -43.5t-12 -70.5v-526h-327v526q0 50 -17 83t-43.5 45t-41 15t-28.5 3q-10 0 -19.5 -1t-30 -9t-35 -22t-26 -43.5t-11.5 -70.5v-526h-328z" />
    <glyph glyph-name="uni1E44" unicode="&#x1e44;" horiz-adv-x="1325" 
d="M643 1413q-55 0 -99 40.5t-44 105.5q0 62 44 99.5t99 37.5t99 -37.5t44 -99.5q0 -65 -44 -105.5t-99 -40.5zM82 0v1331h328l454 -727v727h338v-1331h-328l-454 725v-725h-338z" />
    <glyph glyph-name="uni1E45" unicode="&#x1e45;" horiz-adv-x="1132" 
d="M543 1038q-55 0 -99.5 40.5t-44.5 105.5q0 62 44 99.5t100 37.5q55 0 99 -37.5t44 -99.5q0 -65 -44 -105.5t-99 -40.5zM82 0v942h328v-68q94 82 237 82q51 0 99 -10.5t97 -37.5t85 -69t59 -110.5t23 -155.5v-573h-328v520q0 44 -12 76.5t-28 48t-38 25t-35 11t-26 1.5
t-25.5 -1.5t-33.5 -11t-36 -25t-26.5 -48t-11.5 -76.5v-520h-328z" />
    <glyph glyph-name="uni1E46" unicode="&#x1e46;" horiz-adv-x="1325" 
d="M82 0v1331h328l454 -727v727h338v-1331h-328l-454 725v-725h-338zM647 -367q-55 0 -99 40.5t-44 105.5q0 62 44 99.5t99 37.5q56 0 100 -37.5t44 -99.5q0 -65 -44.5 -105.5t-99.5 -40.5z" />
    <glyph glyph-name="uni1E47" unicode="&#x1e47;" horiz-adv-x="1132" 
d="M82 0v942h328v-68q94 82 237 82q51 0 99 -10.5t97 -37.5t85 -69t59 -110.5t23 -155.5v-573h-328v520q0 44 -12 76.5t-28 48t-38 25t-35 11t-26 1.5t-25.5 -1.5t-33.5 -11t-36 -25t-26.5 -48t-11.5 -76.5v-520h-328zM543 -367q-55 0 -99.5 40.5t-44.5 105.5q0 62 44 99.5
t100 37.5q55 0 99 -37.5t44 -99.5q0 -65 -44 -105.5t-99 -40.5z" />
    <glyph glyph-name="uni1E62" unicode="&#x1e62;" horiz-adv-x="1259" 
d="M633 -25q-115 0 -218 30.5t-175.5 80t-122.5 106.5t-76 117l270 197q14 -20 46.5 -49.5t80 -63t111 -57t123.5 -23.5q77 0 102 21.5t25 56.5q0 19 -18 36t-50.5 31t-64 24.5t-71 23t-60.5 20.5q-11 4 -44 15t-62 21.5t-70.5 29.5t-75.5 39.5t-69.5 52t-60 67t-40 84
t-15.5 103.5q0 89 30.5 161t82 119t121.5 79t144.5 45.5t156.5 13.5q186 0 339.5 -93t196.5 -206l-264 -178q-35 45 -123.5 92t-191.5 47q-51 0 -77 -16.5t-26 -45.5q0 -27 29.5 -50t63 -35.5t88.5 -30t75 -25.5q8 -3 43.5 -16t62.5 -23t70 -31t75.5 -41.5t68.5 -52.5
t60 -66t39.5 -80t15.5 -97q0 -208 -149 -320.5t-396 -112.5zM643 -395q-55 0 -99 40t-44 105q0 62 44 99.5t99 37.5t99 -37.5t44 -99.5q0 -65 -44 -105t-99 -40z" />
    <glyph glyph-name="uni1E6C" unicode="&#x1e6c;" horiz-adv-x="1212" 
d="M418 0v1024h-377v307h1089v-307h-374v-1024h-338zM584 -334q-55 0 -99.5 40.5t-44.5 105.5q0 62 44 99.5t100 37.5q55 0 99 -37.5t44 -99.5q0 -65 -44 -105.5t-99 -40.5z" />
    <glyph glyph-name="uni1E6D" unicode="&#x1e6d;" horiz-adv-x="731" 
d="M446 0q-309 0 -309 303v393h-117v246h117v291h328v-291h184v-246h-184v-338q0 -19 2 -35t7.5 -26.5t10.5 -18.5t15 -13t15.5 -8t18 -4t18 -1.5t19 0t17.5 0.5h51v-252h-193zM455 -360q-55 0 -99.5 40t-44.5 105q0 62 44 99.5t100 37.5q55 0 99 -37.5t44 -99.5
q0 -65 -44 -105t-99 -40z" />
    <glyph glyph-name="Wgrave" unicode="&#x1e80;" horiz-adv-x="1951" 
d="M838 1454l-129 252h274l121 -252h-266zM465 0l-445 1331h359l237 -719l236 719h248l227 -674l225 674h359l-445 -1331h-290l-209 633l-211 -633h-291z" />
    <glyph glyph-name="wgrave" unicode="&#x1e81;" horiz-adv-x="1603" 
d="M659 1079l-129 252h275l121 -252h-267zM317 0l-297 942h338l142 -479l170 479h245l170 -479l140 479h338l-301 -942h-318l-156 455l-153 -455h-318z" />
    <glyph glyph-name="Wacute" unicode="&#x1e82;" horiz-adv-x="1951" 
d="M831 1454l121 252h275l-129 -252h-267zM465 0l-445 1331h359l237 -719l236 719h248l227 -674l225 674h359l-445 -1331h-290l-209 633l-211 -633h-291z" />
    <glyph glyph-name="wacute" unicode="&#x1e83;" horiz-adv-x="1603" 
d="M653 1079l121 252h275l-129 -252h-267zM317 0l-297 942h338l142 -479l170 479h245l170 -479l140 479h338l-301 -942h-318l-156 455l-153 -455h-318z" />
    <glyph glyph-name="Wdieresis" unicode="&#x1e84;" horiz-adv-x="1951" 
d="M768 1413q-55 0 -99 40.5t-44 105.5q0 62 44 99.5t99 37.5t99 -37.5t44 -99.5q0 -65 -44 -105.5t-99 -40.5zM1167 1413q-55 0 -99 40.5t-44 105.5q0 62 44 99.5t99 37.5q56 0 100 -37.5t44 -99.5q0 -65 -44.5 -105.5t-99.5 -40.5zM465 0l-445 1331h359l237 -719l236 719
h248l227 -674l225 674h359l-445 -1331h-290l-209 633l-211 -633h-291z" />
    <glyph glyph-name="wdieresis" unicode="&#x1e85;" horiz-adv-x="1603" 
d="M590 1038q-55 0 -99.5 40.5t-44.5 105.5q0 62 44 99.5t100 37.5q55 0 99 -37.5t44 -99.5q0 -65 -44 -105.5t-99 -40.5zM989 1038q-55 0 -99 40.5t-44 105.5q0 62 44 99.5t99 37.5q56 0 100 -37.5t44 -99.5q0 -65 -44.5 -105.5t-99.5 -40.5zM317 0l-297 942h338l142 -479
l170 479h245l170 -479l140 479h338l-301 -942h-318l-156 455l-153 -455h-318z" />
    <glyph glyph-name="uni1E92" unicode="&#x1e92;" horiz-adv-x="1114" 
d="M61 0v281l543 741h-530v309h958v-282l-549 -740l539 -2v-307h-961zM537 -367q-55 0 -99.5 40.5t-44.5 105.5q0 62 44 99.5t100 37.5q55 0 99 -37.5t44 -99.5q0 -65 -44 -105.5t-99 -40.5z" />
    <glyph glyph-name="uni1E93" unicode="&#x1e93;" horiz-adv-x="860" 
d="M41 0v242l321 434h-321v266h737v-242l-323 -434h323v-266h-737zM412 -367q-55 0 -99.5 40.5t-44.5 105.5q0 62 44 99.5t100 37.5q55 0 99 -37.5t44 -99.5q0 -65 -44 -105.5t-99 -40.5z" />
    <glyph glyph-name="uni1EA0" unicode="&#x1ea0;" horiz-adv-x="1386" 
d="M20 0l535 1331h256l535 -1331h-359l-57 147h-494l-57 -147h-359zM553 455h258l-129 336zM686 -367q-55 0 -99 40.5t-44 105.5q0 62 44 99.5t99 37.5t99 -37.5t44 -99.5q0 -65 -44 -105.5t-99 -40.5z" />
    <glyph glyph-name="uni1EA1" unicode="&#x1ea1;" 
d="M479 -16q-188 0 -313 138.5t-125 348.5q0 213 124.5 349t313.5 136q135 0 217 -73v59h328v-942h-328v57q-86 -73 -217 -73zM528 291q75 0 121.5 51t46.5 129t-46.5 128t-121.5 50q-76 0 -123 -50.5t-47 -127.5q0 -78 47 -129t123 -51zM604 -373q-55 0 -99 40.5t-44 105.5
q0 62 44 99.5t99 37.5q56 0 100 -37.5t44 -99.5q0 -65 -44.5 -105.5t-99.5 -40.5z" />
    <glyph glyph-name="uni1EB8" unicode="&#x1eb8;" horiz-adv-x="1122" 
d="M82 0v1331h928v-307h-590v-205h547v-307h-547v-205h590v-307h-928zM555 -362q-55 0 -99 40t-44 105q0 62 44 99.5t99 37.5t99 -37.5t44 -99.5q0 -65 -44 -105t-99 -40z" />
    <glyph glyph-name="uni1EB9" unicode="&#x1eb9;" horiz-adv-x="1050" 
d="M524 -20q-217 0 -350 138.5t-133 352.5t130.5 352t342.5 138q211 0 333 -137t122 -353v-86h-609q18 -62 62 -95.5t102 -33.5q39 0 71 8t54 22.5t30.5 22.5t20.5 21l222 -164q-62 -87 -166 -136.5t-232 -49.5zM365 588h294q-34 117 -145 117q-105 0 -149 -117zM514 -377
q-55 0 -99 40.5t-44 105.5q0 62 44 99.5t99 37.5t99 -37.5t44 -99.5q0 -65 -44 -105.5t-99 -40.5z" />
    <glyph glyph-name="uni1EBC" unicode="&#x1ebc;" horiz-adv-x="1122" 
d="M672 1413q-101 0 -166 74q-24 26 -39 36.5t-35 10.5q-23 0 -37.5 -18t-18 -37t-3.5 -39h-185q0 123 60 200.5t176 77.5q99 0 164 -73q44 -48 84 -48q36 0 49.5 25.5t13.5 69.5h185q0 -124 -62 -201.5t-186 -77.5zM82 0v1331h928v-307h-590v-205h547v-307h-547v-205h590
v-307h-928z" />
    <glyph glyph-name="uni1EBD" unicode="&#x1ebd;" horiz-adv-x="1050" 
d="M631 1038q-101 0 -166 74q-24 26 -39 36.5t-35 10.5q-23 0 -37.5 -18t-18 -37t-3.5 -39h-185q0 123 60 200.5t176 77.5q99 0 164 -73q43 -47 84 -47q37 0 50 25t13 69h185q0 -124 -62 -201.5t-186 -77.5zM524 -20q-217 0 -350 138.5t-133 352.5t130.5 352t342.5 138
q211 0 333 -137t122 -353v-86h-609q18 -62 62 -95.5t102 -33.5q39 0 71 8t54 22.5t30.5 22.5t20.5 21l222 -164q-62 -87 -166 -136.5t-232 -49.5zM365 588h294q-34 117 -145 117q-105 0 -149 -117z" />
    <glyph glyph-name="uni1ECA" unicode="&#x1eca;" horiz-adv-x="542" 
d="M82 0v1331h338v-1331h-338zM250 -367q-55 0 -99.5 40.5t-44.5 105.5q0 62 44 99.5t100 37.5q55 0 99 -37.5t44 -99.5q0 -65 -44 -105.5t-99 -40.5z" />
    <glyph glyph-name="uni1ECB" unicode="&#x1ecb;" horiz-adv-x="552" 
d="M256 1040q-68 0 -121 49t-53 128q0 78 52.5 122.5t121.5 44.5t121.5 -44.5t52.5 -122.5q0 -79 -53 -128t-121 -49zM92 0v942h330l-2 -942h-328zM256 -383q-55 0 -99 40t-44 105q0 62 44 100t99 38t99 -38t44 -100q0 -65 -44 -105t-99 -40z" />
    <glyph glyph-name="uni1ECC" unicode="&#x1ecc;" horiz-adv-x="1497" 
d="M735 -16q-146 0 -271.5 51.5t-214 141t-138.5 216.5t-50 273t50 273t138.5 216.5t214 141t271.5 51.5t271 -51.5t212.5 -141.5t137 -216.5t49.5 -272.5t-49.5 -272.5t-137 -216.5t-212.5 -141.5t-271 -51.5zM735 322q150 0 241 96t91 248t-91 248t-241 96t-243 -96
t-93 -248t93 -248t243 -96zM735 -379q-55 0 -99 40.5t-44 105.5q0 62 44 99.5t99 37.5q56 0 100 -37.5t44 -99.5q0 -65 -44.5 -105.5t-99.5 -40.5z" />
    <glyph glyph-name="uni1ECD" unicode="&#x1ecd;" horiz-adv-x="1103" 
d="M532 -20q-214 0 -352.5 139.5t-138.5 351.5q0 215 138 353.5t353 138.5t352.5 -138.5t137.5 -353.5q0 -212 -138 -351.5t-352 -139.5zM532 291q75 0 121.5 51t46.5 129t-46.5 128t-121.5 50q-76 0 -123 -50.5t-47 -127.5q0 -78 47 -129t123 -51zM532 -383q-55 0 -99 40
t-44 105q0 62 44 100t99 38t99.5 -38t44.5 -100q0 -65 -44.5 -105t-99.5 -40z" />
    <glyph glyph-name="uni1EE4" unicode="&#x1ee4;" horiz-adv-x="1257" 
d="M608 -16q-124 0 -225.5 40.5t-166.5 108.5t-99.5 156t-34.5 186v856h338v-817q0 -58 16.5 -99.5t45 -63t59.5 -31t67 -9.5t67 9.5t60 31t45.5 63t16.5 99.5v817h338v-856q0 -98 -35 -186t-99.5 -156t-166.5 -108.5t-226 -40.5zM608 -373q-55 0 -99 40.5t-44 105.5
q0 62 44 99.5t99 37.5q56 0 100 -37.5t44 -99.5q0 -65 -44.5 -105.5t-99.5 -40.5z" />
    <glyph glyph-name="uni1EE5" unicode="&#x1ee5;" horiz-adv-x="1132" 
d="M444 -16q-65 0 -124 18t-115 59t-89.5 119.5t-33.5 186.5v575h328v-522q0 -44 12 -76.5t28 -48t38 -25t35 -11t26 -1.5t25.5 1.5t33.5 11t36 25t26.5 48t11.5 76.5v522h328v-942h-328v66q-94 -82 -238 -82zM549 -373q-55 0 -99 40.5t-44 105.5q0 62 44 99.5t99 37.5
t99 -37.5t44 -99.5q0 -65 -44 -105.5t-99 -40.5z" />
    <glyph glyph-name="Ygrave" unicode="&#x1ef2;" horiz-adv-x="1329" 
d="M520 1454l-129 252h275l120 -252h-266zM481 0v549l-471 782h387l252 -426l252 426h387l-469 -778v-553h-338z" />
    <glyph glyph-name="ygrave" unicode="&#x1ef3;" horiz-adv-x="1124" 
d="M422 1079l-129 252h274l121 -252h-266zM242 -377l149 377l-371 942h338l193 -489l194 489h338l-524 -1319h-317z" />
    <glyph glyph-name="uni1EF4" unicode="&#x1ef4;" horiz-adv-x="1329" 
d="M481 0v549l-471 782h387l252 -426l252 426h387l-469 -778v-553h-338zM649 -367q-55 0 -99 40.5t-44 105.5q0 62 44 99.5t99 37.5q56 0 100 -37.5t44 -99.5q0 -65 -44.5 -105.5t-99.5 -40.5z" />
    <glyph glyph-name="uni1EF5" unicode="&#x1ef5;" horiz-adv-x="1124" 
d="M242 -377l149 377l-371 942h338l193 -489l194 489h338l-524 -1319h-317zM885 -383q-55 0 -99.5 40t-44.5 105q0 62 44.5 100t99.5 38t99 -38t44 -100q0 -65 -44 -105t-99 -40z" />
    <glyph glyph-name="uni1EF8" unicode="&#x1ef8;" horiz-adv-x="1329" 
d="M766 1413q-101 0 -166 74q-24 26 -39 36.5t-35 10.5q-23 0 -37.5 -18t-18 -37t-3.5 -39h-184q0 123 59.5 200.5t175.5 77.5q99 0 164 -73q44 -48 84 -48q36 0 49.5 25.5t13.5 69.5h185q0 -124 -62 -201.5t-186 -77.5zM481 0v549l-471 782h387l252 -426l252 426h387
l-469 -778v-553h-338z" />
    <glyph glyph-name="uni1EF9" unicode="&#x1ef9;" horiz-adv-x="1124" 
d="M668 1038q-101 0 -166 74q-24 26 -39 36.5t-35 10.5q-23 0 -37.5 -18t-18 -37t-3.5 -39h-185q0 123 60 200.5t176 77.5q99 0 164 -73q43 -47 84 -47q37 0 50 25t13 69h184q0 -124 -61.5 -201.5t-185.5 -77.5zM242 -377l149 377l-371 942h338l193 -489l194 489h338
l-524 -1319h-317z" />
    <glyph glyph-name="endash" unicode="&#x2013;" horiz-adv-x="1009" 
d="M82 393v307h805v-307h-805z" />
    <glyph glyph-name="emdash" unicode="&#x2014;" horiz-adv-x="1134" 
d="M82 391v307h930v-307h-930z" />
    <glyph glyph-name="quoteleft" unicode="&#x2018;" horiz-adv-x="479" 
d="M41 901l166 430h231l-90 -430h-307z" />
    <glyph glyph-name="quoteright" unicode="&#x2019;" horiz-adv-x="479" 
d="M41 901l90 430h307l-166 -430h-231z" />
    <glyph glyph-name="quotesinglbase" unicode="&#x201a;" horiz-adv-x="479" 
d="M41 -233l90 430h307l-166 -430h-231z" />
    <glyph glyph-name="quotedblleft" unicode="&#x201c;" horiz-adv-x="940" 
d="M41 901l166 430h231l-90 -430h-307zM502 901l166 430h231l-90 -430h-307z" />
    <glyph glyph-name="quotedblright" unicode="&#x201d;" horiz-adv-x="940" 
d="M41 901l90 430h307l-166 -430h-231zM502 901l90 430h307l-166 -430h-231z" />
    <glyph glyph-name="quotedblbase" unicode="&#x201e;" horiz-adv-x="940" 
d="M41 -233l90 430h307l-166 -430h-231zM502 -233l90 430h307l-166 -430h-231z" />
    <glyph glyph-name="dagger" unicode="&#x2020;" horiz-adv-x="915" 
d="M285 0v711h-203v245h203v375h307v-375h201v-245h-201v-711h-307z" />
    <glyph glyph-name="daggerdbl" unicode="&#x2021;" horiz-adv-x="915" 
d="M285 0v324h-203v245h203v207h-203v246h203v309h307v-309h201v-246h-201v-207h201v-245h-201v-324h-307z" />
    <glyph glyph-name="bullet" unicode="&#x2022;" horiz-adv-x="614" 
d="M307 399q-117 0 -191.5 75t-74.5 192t74.5 190.5t191.5 73.5t191.5 -73.5t74.5 -190.5t-74.5 -192t-191.5 -75z" />
    <glyph glyph-name="ellipsis" unicode="&#x2026;" horiz-adv-x="1392" 
d="M209 -16q-73 0 -120.5 47t-47.5 121q0 73 47 119t121 46t121 -46t47 -119q0 -74 -47.5 -121t-120.5 -47zM696 -16q-74 0 -121 47t-47 121q0 73 47 119t121 46t121 -46t47 -119q0 -74 -47 -121t-121 -47zM1184 -16q-74 0 -121 47t-47 121q0 73 47 119t121 46t121 -46
t47 -119q0 -74 -47 -121t-121 -47z" />
    <glyph glyph-name="perthousand" unicode="&#x2030;" horiz-adv-x="2619" 
d="M82 1001q0 152 95 249.5t243 97.5q147 0 241.5 -97.5t94.5 -249.5q0 -147 -95 -244.5t-241 -97.5q-147 0 -242.5 97.5t-95.5 244.5zM408 0l718 1331h246l-719 -1331h-245zM291 1001q0 -56 35 -94.5t94 -38.5t93 38t34 95q0 59 -34 98.5t-93 39.5q-60 0 -94.5 -39.5
t-34.5 -98.5zM1024 324q0 152 95 249t243 97q147 0 241.5 -97t94.5 -249q0 -147 -95 -244.5t-241 -97.5q-147 0 -242.5 97.5t-95.5 244.5zM1823 324q0 152 95 249t243 97q147 0 241.5 -97t94.5 -249q0 -147 -95 -244.5t-241 -97.5q-147 0 -242.5 97.5t-95.5 244.5zM1233 324
q0 -56 35 -95t94 -39t93 38.5t34 95.5q0 59 -33.5 98t-93.5 39t-94.5 -39t-34.5 -98zM2032 324q0 -56 35 -95t94 -39t93 38.5t34 95.5q0 59 -33.5 98t-93.5 39t-94.5 -39t-34.5 -98z" />
    <glyph glyph-name="guilsinglleft" unicode="&#x2039;" horiz-adv-x="864" 
d="M393 276l-352 381l352 381h389l-350 -381l350 -381h-389z" />
    <glyph glyph-name="guilsinglright" unicode="&#x203a;" horiz-adv-x="864" 
d="M41 276l350 381l-350 381h389l352 -381l-352 -381h-389z" />
    <glyph glyph-name="fraction" unicode="&#x2044;" horiz-adv-x="1067" 
d="M41 0l821 1331h164l-821 -1331h-164z" />
    <glyph glyph-name="uni2070" unicode="&#x2070;" horiz-adv-x="858" 
d="M416 518q-157 0 -256 116.5t-99 297.5q0 182 99 299t256 117q159 0 259.5 -117t100.5 -299q0 -181 -100.5 -297.5t-259.5 -116.5zM416 717q60 0 104.5 55t44.5 160q0 106 -44 157.5t-105 51.5q-60 0 -105 -52t-45 -157q0 -104 45.5 -159.5t104.5 -55.5z" />
    <glyph glyph-name="uni2074" unicode="&#x2074;" horiz-adv-x="790" 
d="M432 528v127h-391v127l391 549h203v-530h94v-146h-94v-127h-203zM240 801h192v274z" />
    <glyph glyph-name="uni2075" unicode="&#x2075;" horiz-adv-x="747" 
d="M336 526q-174 0 -295 117l131 148q64 -66 147 -66q33 0 59.5 6t49.5 25.5t23 52.5q0 45 -41.5 65.5t-96.5 20.5q-77 0 -135 -27l-65 99l73 372h437v-184h-279l-20 -96q87 -1 152.5 -22t103.5 -57.5t56.5 -82t18.5 -100.5q0 -130 -90 -200.5t-229 -70.5z" />
    <glyph glyph-name="uni2076" unicode="&#x2076;" horiz-adv-x="749" 
d="M360 516q-127 0 -213 88t-86 211q0 83 58 180l211 336h219l-137 -219q109 -19 177 -101.5t68 -195.5q0 -123 -85 -211t-212 -88zM360 709q46 0 75.5 30t29.5 76q0 48 -29.5 79.5t-75.5 31.5q-48 0 -77 -31.5t-29 -79.5q0 -47 28.5 -76.5t77.5 -29.5z" />
    <glyph glyph-name="uni2077" unicode="&#x2077;" horiz-adv-x="643" 
d="M61 528l285 617h-305v184h541v-133l-308 -668h-213z" />
    <glyph glyph-name="uni2078" unicode="&#x2078;" horiz-adv-x="759" 
d="M367 512q-148 0 -227 71t-79 183q0 52 28 99.5t81 80.5q-47 32 -70.5 78.5t-23.5 93.5q0 40 17 79t51 73t92 55t131 21t130 -21t90 -55t49.5 -73t16.5 -79q0 -47 -23.5 -93.5t-68.5 -78.5q107 -65 107 -180q0 -113 -77.5 -183.5t-223.5 -70.5zM367 1014q49 0 74.5 27
t25.5 63q0 37 -25.5 64.5t-74.5 27.5q-50 0 -76.5 -27.5t-26.5 -64.5q0 -36 26.5 -63t76.5 -27zM367 678q50 0 78 28.5t28 69.5q0 42 -28 70t-78 28q-52 0 -80.5 -28t-28.5 -70q0 -39 29 -68.5t80 -29.5z" />
    <glyph glyph-name="uni2079" unicode="&#x2079;" horiz-adv-x="749" 
d="M170 526l135 222q-107 17 -175.5 99.5t-68.5 192.5q0 125 85 213t212 88t213 -88t86 -213q0 -86 -57 -178l-211 -336h-219zM358 932q49 0 78 30.5t29 77.5q0 48 -29 78.5t-78 30.5q-46 0 -75 -31t-29 -78q0 -46 29.5 -77t74.5 -31z" />
    <glyph glyph-name="Euro" unicode="&#x20ac;" horiz-adv-x="1155" 
d="M870 -16q-212 0 -367.5 118t-217.5 318h-203v164h170q-4 54 -4 82q0 46 2 69h-168v164h199q61 206 217.5 327.5t371.5 121.5q3 0 43.5 0.5t75 0.5t43.5 -1v-308q-9 1 -28.5 1t-43 -0.5t-28.5 -0.5q-212 0 -301 -141h291v-164h-342q-5 -57 -5 -69q0 -38 7 -82h340v-164
h-283q92 -129 293 -129q60 0 100 4v-307q-40 -4 -162 -4z" />
    <glyph glyph-name="trademark" unicode="&#x2122;" horiz-adv-x="2789" 
d="M418 0v1024h-377v307h1089v-307h-374v-1024h-338zM1294 0v1331h338l348 -694l349 694h337v-1331h-337v635l-232 -490h-233l-232 490v-635h-338z" />
    <glyph glyph-name="oneeighth" unicode="&#x215b;" horiz-adv-x="1110" 
d="M152 659v517h-142v155h312v-672h-170zM20 0l822 1331h164l-822 -1331h-164zM842 -12q-121 0 -185.5 57.5t-64.5 149.5q0 43 22.5 82.5t65.5 64.5q-76 56 -76 143q0 72 61 128.5t177 56.5t175.5 -56.5t59.5 -128.5q0 -87 -73 -143q42 -26 64 -65t22 -82
q0 -92 -63.5 -149.5t-184.5 -57.5zM842 397q40 0 61 22.5t21 53.5t-21 53.5t-61 22.5t-62 -22.5t-22 -53.5t22 -53.5t62 -22.5zM842 123q41 0 64.5 23.5t23.5 56.5q0 35 -23.5 58.5t-64.5 23.5t-65.5 -23.5t-24.5 -58.5q0 -31 24.5 -55.5t65.5 -24.5z" />
    <glyph glyph-name="threeeighths" unicode="&#x215c;" horiz-adv-x="1294" 
d="M262 659q-76 0 -143.5 30t-98.5 75l103 115q52 -56 139 -56q48 0 76.5 19.5t28.5 54.5t-29 56.5t-76 21.5q-48 0 -117 -19l2 117l136 105h-217v153h450v-141l-119 -105q138 -47 138 -188q0 -63 -24 -111t-64 -74.5t-86.5 -39.5t-98.5 -13zM168 0l821 1331h164l-821 -1331
h-164zM1026 -12q-121 0 -185.5 57.5t-64.5 149.5q0 43 22.5 82.5t65.5 64.5q-76 56 -76 143q0 72 61 128.5t177 56.5t176 -56.5t60 -128.5q0 -86 -74 -143q42 -26 64 -65t22 -82q0 -92 -63.5 -149.5t-184.5 -57.5zM1026 397q40 0 61 22.5t21 53.5t-21 53.5t-61 22.5
t-62 -22.5t-22 -53.5t22 -53.5t62 -22.5zM1026 123q41 0 64.5 23.5t23.5 56.5q0 35 -23.5 58.5t-64.5 23.5t-65.5 -23.5t-24.5 -58.5q0 -31 24.5 -55.5t65.5 -24.5z" />
    <glyph glyph-name="fiveeighths" unicode="&#x215d;" horiz-adv-x="1290" 
d="M268 659q-149 0 -248 99l111 123q56 -56 125 -56q43 0 76 16t33 54q0 39 -34.5 56.5t-80.5 17.5q-58 0 -115 -23l-53 84l59 311h367v-155h-232l-18 -80q143 -1 211 -62t68 -159q0 -108 -76.5 -167t-192.5 -59zM168 0l821 1331h164l-821 -1331h-164zM1022 -12
q-121 0 -185.5 57.5t-64.5 149.5q0 43 22.5 82.5t65.5 64.5q-76 56 -76 143q0 72 61 128.5t177 56.5t175.5 -56.5t59.5 -128.5q0 -87 -73 -143q42 -26 64 -65t22 -82q0 -92 -63.5 -149.5t-184.5 -57.5zM1022 397q40 0 61 22.5t21 53.5t-21 53.5t-61 22.5t-62 -22.5
t-22 -53.5t22 -53.5t62 -22.5zM1022 123q41 0 64.5 23.5t23.5 56.5q0 35 -23.5 58.5t-64.5 23.5t-65.5 -23.5t-24.5 -58.5q0 -31 24.5 -55.5t65.5 -24.5z" />
    <glyph glyph-name="seveneighths" unicode="&#x215e;" 
d="M20 0l822 1331h164l-822 -1331h-164zM102 662l238 516h-256v153h453v-110l-258 -559h-177zM879 -12q-121 0 -185.5 57.5t-64.5 149.5q0 43 22.5 82.5t65.5 64.5q-76 56 -76 143q0 72 61 128.5t177 56.5t175.5 -56.5t59.5 -128.5q0 -86 -74 -143q42 -26 64 -65t22 -82
q0 -92 -63 -149.5t-184 -57.5zM879 397q40 0 61 22.5t21 53.5t-21 53.5t-61 22.5t-62 -22.5t-22 -53.5t22 -53.5t62 -22.5zM879 123q41 0 64.5 23.5t23.5 56.5q0 35 -23.5 58.5t-64.5 23.5q-42 0 -66.5 -23.5t-24.5 -58.5q0 -31 25 -55.5t66 -24.5z" />
    <glyph glyph-name="arrowleft" unicode="&#x2190;" horiz-adv-x="1536" 
d="M676 66l-594 593l594 592l194 -194l-245 -246h788v-305h-786l243 -246z" />
    <glyph glyph-name="arrowup" unicode="&#x2191;" horiz-adv-x="1392" 
d="M522 0v786l-246 -243l-194 194l594 594l594 -594l-197 -194l-244 243v-786h-307z" />
    <glyph glyph-name="arrowright" unicode="&#x2192;" horiz-adv-x="1536" 
d="M819 66l-194 194l243 246h-786v305h788l-245 246l194 194l594 -592z" />
    <glyph glyph-name="arrowdown" unicode="&#x2193;" horiz-adv-x="1392" 
d="M676 0l-594 594l194 194l246 -243v786h307v-786l244 243l197 -194z" />
    <glyph glyph-name="arrowboth" unicode="&#x2194;" horiz-adv-x="2068" 
d="M676 66l-594 593l594 592l194 -194l-245 -246h778l-246 246l195 194l594 -592l-594 -593l-195 194l244 246h-774l243 -246z" />
    <glyph glyph-name="arrowupdn" unicode="&#x2195;" horiz-adv-x="1300" 
d="M627 -172l-541 541l195 194l192 -188v571l-194 -194l-197 194l543 545l553 -545l-195 -194l-205 196v-575l205 202l195 -194z" />
    <glyph glyph-name="uni2196" unicode="&#x2196;" horiz-adv-x="1255" 
d="M915 281l-557 557v-346h-276v839h840v-276h-347l558 -557z" />
    <glyph glyph-name="uni2197" unicode="&#x2197;" horiz-adv-x="1255" 
d="M299 281l-217 217l557 557h-346v276h840v-839h-277v346z" />
    <glyph glyph-name="uni2198" unicode="&#x2198;" horiz-adv-x="1255" 
d="M293 0v276h346l-557 558l217 217l557 -557v346h277v-840h-840z" />
    <glyph glyph-name="uni2199" unicode="&#x2199;" horiz-adv-x="1255" 
d="M82 0v840h276v-346l557 557l218 -217l-558 -558h347v-276h-840z" />
    <glyph glyph-name="partialdiff" unicode="&#x2202;" horiz-adv-x="1155" 
d="M557 -37q-207 0 -341 133.5t-134 343.5q0 195 119 324.5t307 146.5q-80 124 -178 235.5t-191 184.5h350q109 -84 205.5 -189t172.5 -220.5t120.5 -241.5t44.5 -240q0 -209 -135 -343t-340 -134zM557 270q73 0 120.5 47t47.5 123q0 75 -47.5 120.5t-120.5 45.5
t-120.5 -45.5t-47.5 -120.5q0 -76 47.5 -123t120.5 -47z" />
    <glyph glyph-name="emptyset" unicode="&#x2205;" 
d="M156 133l90 146q-79 65 -121.5 162.5t-42.5 215.5q0 212 131 349t342 137q110 0 199 -39l49 78h149l-90 -146q77 -67 119.5 -164.5t42.5 -214.5q0 -212 -130 -348.5t-339 -136.5q-109 0 -201 39l-49 -78h-149zM381 498l242 391q-31 8 -68 8q-101 0 -164 -67t-63 -173
q0 -97 53 -159zM555 418q101 0 162 66.5t61 172.5q0 97 -51 160l-240 -389q33 -10 68 -10z" />
    <glyph glyph-name="product" unicode="&#x220f;" horiz-adv-x="1400" 
d="M270 0v1024h-188v307h1196v-307h-182v-1024h-308v1024h-210v-1024h-308z" />
    <glyph glyph-name="summation" unicode="&#x2211;" horiz-adv-x="1181" 
d="M82 -16v264l354 411l-354 420v269h977v-308h-527l322 -381l-307 -368h512v-307h-977z" />
    <glyph glyph-name="minus" unicode="&#x2212;" horiz-adv-x="1064" 
d="M82 539v245h860v-245h-860z" />
    <glyph glyph-name="radical" unicode="&#x221a;" horiz-adv-x="1593" 
d="M362 -98l-280 757h307l127 -346l404 1104h550v-246h-333l-463 -1269h-312z" />
    <glyph glyph-name="infinity" unicode="&#x221e;" horiz-adv-x="1675" 
d="M408 350q-137 0 -231.5 92.5t-94.5 219.5q0 125 94.5 217t231.5 92q115 0 204 -34t211 -134q204 168 404 168q145 0 235 -90.5t90 -218.5q0 -129 -90 -220.5t-235 -91.5q-60 0 -97 4.5t-85.5 22t-100 54t-121.5 97.5q-68 -62 -119 -98.5t-101.5 -53.5t-89 -21.5
t-105.5 -4.5zM408 565q48 0 112 22t119 77q-117 92 -231 92q-15 0 -32 -3t-39 -12t-36 -29.5t-14 -49.5t14 -50t36 -30.5t39.5 -13t31.5 -3.5zM1227 565q17 0 34.5 3.5t38.5 12.5t34.5 30t13.5 51q0 29 -13.5 49.5t-34.5 29.5t-38.5 12t-34.5 3q-121 0 -215 -90
q103 -101 215 -101z" />
    <glyph glyph-name="integral" unicode="&#x222b;" horiz-adv-x="1163" 
d="M82 -98v245h106q78 0 121.5 45t52.5 127l76 715q9 83 38 150.5t68.5 109.5t88.5 71t96.5 40.5t95.5 11.5h215v-246h-108q-78 0 -122 -45.5t-52 -126.5l-78 -741q-8 -75 -34.5 -136t-64 -101t-85.5 -67.5t-98 -39.5t-103 -12h-213z" />
    <glyph glyph-name="approxequal" unicode="&#x2248;" horiz-adv-x="1183" 
d="M729 676q-79 0 -127 23t-96 67q-9 8 -22.5 21t-18.5 17.5t-13.5 11t-14 8.5t-13.5 3.5t-18 1.5q-23 0 -39.5 -12t-24.5 -31.5t-11 -37.5t-3 -37h-246q0 107 32 189t104.5 133.5t178.5 51.5q54 0 100 -17.5t64.5 -32.5t54.5 -48q40 -37 64 -50t49 -13q14 0 24 2.5t26.5 13
t26 39t9.5 72.5h246q0 -166 -83 -270.5t-249 -104.5zM729 231q-79 0 -127 23.5t-96 67.5q-9 8 -22.5 21t-18.5 17.5t-13.5 11t-14 8.5t-13.5 3.5t-18 1.5q-30 0 -49 -22t-24 -46t-5 -51h-246q0 166 79.5 270.5t235.5 104.5q54 0 100 -17.5t64.5 -32.5t54.5 -48
q41 -38 64.5 -51t48.5 -13q14 0 24 2.5t26.5 13t26 39t9.5 72.5h246q0 -166 -83 -270.5t-249 -104.5z" />
    <glyph glyph-name="notequal" unicode="&#x2260;" horiz-adv-x="1064" 
d="M193 150l67 167h-178v246h276l76 187h-352v245h450l68 170h231l-67 -170h178v-245h-276l-76 -187h352v-246h-450l-68 -167h-231z" />
    <glyph glyph-name="lessequal" unicode="&#x2264;" horiz-adv-x="886" 
d="M764 473l-676 201v237l676 201v-225l-334 -94l334 -95v-225zM82 205v205h682v-205h-682z" />
    <glyph glyph-name="greaterequal" unicode="&#x2265;" horiz-adv-x="886" 
d="M82 473v225l334 95l-334 94v225l676 -201v-237zM82 205v205h682v-205h-682z" />
    <glyph glyph-name="lozenge" unicode="&#x25ca;" horiz-adv-x="1359" 
d="M498 0l-416 659l424 672h307l424 -672l-416 -659h-323zM659 223l275 436l-275 435l-274 -435z" />
    <glyph glyph-name="A.ss01" horiz-adv-x="1386" 
d="M20 0l535 1331h256l535 -1331h-359l-303 778l-305 -778h-359z" />
    <glyph glyph-name="I.ss01" horiz-adv-x="903" 
d="M41 0v307h221v717h-221v307h780v-307h-221v-717h221v-307h-780z" />
    <glyph glyph-name="J.ss01" horiz-adv-x="1232" 
d="M569 -16q-111 0 -206 33.5t-159.5 89t-105.5 122.5t-57 140l330 123q16 -94 71 -137.5t127 -43.5q38 0 71 11t64.5 36t49.5 73.5t18 115.5v475h-446v309h784v-839q0 -157 -72.5 -273.5t-194 -175.5t-274.5 -59z" />
    <glyph glyph-name="R.ss01" horiz-adv-x="1259" 
d="M1178 -6q-89 0 -155.5 7t-137 28t-126 57.5t-111 97.5t-103.5 146l-47 82h-78v-412h-338v1331h661q79 0 151.5 -28.5t132 -83t95 -144.5t35.5 -203q0 -166 -72 -276t-188 -156l6 -8q77 -131 275 -131v-307zM420 739h258q58 0 99.5 34t41.5 99t-41.5 98.5t-99.5 33.5h-258
v-265z" />
    <glyph glyph-name="i.loclTRK" horiz-adv-x="534" 
d="M246 1038q-55 0 -99.5 40.5t-44.5 105.5q0 62 44 99.5t100 37.5q55 0 99 -37.5t44 -99.5q0 -65 -44 -105.5t-99 -40.5zM82 0v942h330l-2 -942h-328z" />
    <glyph glyph-name="a.ss01" horiz-adv-x="1079" 
d="M414 -16q-88 0 -155.5 17t-108 43.5t-66 63.5t-34.5 73t-9 77q0 56 18 100.5t47.5 75.5t75 54.5t93.5 37t111 22t118.5 11.5t124.5 4q-2 41 -18 71t-39 44.5t-44 20.5t-41 6q-23 0 -40 -2t-40.5 -9.5t-42.5 -25t-32 -45.5l-254 112q17 41 49.5 79t81.5 72.5t121.5 55.5
t158.5 21q231 0 349 -101.5t118 -298.5v-563h-327v55q-81 -71 -215 -71zM459 213q75 0 122.5 32.5t47.5 96.5v47q-116 -5 -177.5 -20.5t-77.5 -35t-16 -52.5q0 -32 27.5 -50t73.5 -18z" />
    <glyph glyph-name="n.ss01" horiz-adv-x="1134" 
d="M82 0v942h547q165 0 274 -92t109 -266v-584h-328v502q0 108 -35.5 145t-142.5 37h-96v-684h-328z" />
    <glyph glyph-name="r.ss01" horiz-adv-x="698" 
d="M82 0v473q0 250 134 366.5t421 116.5v-311q-114 0 -170.5 -54.5t-56.5 -189.5v-401h-328z" />
    <glyph glyph-name="u.ss01" horiz-adv-x="1134" 
d="M465 0q-165 0 -274 92t-109 266v584h328v-502q0 -108 35.5 -145t142.5 -37h96v684h328v-942h-547z" />
    </font>
</defs>
</svg>
