<svg xmlns="http://www.w3.org/2000/svg" id="e1fa25e3-435d-4aa3-a483-b6186f2614f2" data-name="Layer 1" width="230" height="230" viewBox="0 0 230 230"><rect width="230" height="230" style="opacity:0"></rect><path d="M212.5508,115c0-4.1963-2.5791-8.2671-7.6651-12.0986a47.046,47.046,0,0,0-6.3691-3.9759,47.0359,47.0359,0,0,0,6.3691-3.9758c5.086-3.8315,7.6651-7.9023,7.6651-12.0986s-2.5791-8.2676-7.6651-12.0991c-4.915-3.7017-11.9492-7.0254-20.9062-9.8794-18.4248-5.8711-42.9229-9.104-68.9795-9.104s-50.5542,3.2329-68.979,9.104c-8.9585,2.8545-15.9922,6.1787-20.9058,9.8794-5.0869,3.832-7.666,7.9028-7.666,12.0991s2.5791,8.2666,7.666,12.0986a47.0132,47.0132,0,0,0,6.3683,3.9758,47.0133,47.0133,0,0,0-6.3683,3.9759c-5.0869,3.832-7.666,7.9028-7.666,12.0986s2.5791,8.2666,7.666,12.0986a47.0186,47.0186,0,0,0,6.3684,3.9761,47.0186,47.0186,0,0,0-6.3684,3.9761c-5.0869,3.832-7.666,7.9023-7.666,12.0986s2.5791,8.2666,7.666,12.0986c4.9151,3.7022,11.9488,7.0264,20.9058,9.8809,18.4258,5.87,42.9228,9.1025,68.979,9.1025s50.5527-3.2324,68.98-9.1025c8.9551-2.8535,15.9893-6.1777,20.9062-9.8809,5.086-3.831,7.6651-7.9013,7.6651-12.0986s-2.5791-8.2676-7.6651-12.0986a47.0368,47.0368,0,0,0-6.3687-3.9761,47.0368,47.0368,0,0,0,6.3687-3.9761C209.9717,123.2676,212.5508,119.1973,212.5508,115ZM26.3184,93.3521c-4.5581-3.4336-6.8692-6.9668-6.8692-10.501S21.76,75.7832,26.3184,72.35c4.7334-3.5649,11.5664-6.7856,20.31-9.5718C64.8618,56.9683,89.1431,53.7686,115,53.7686s50.1387,3.2,68.3721,9.0092c8.7422,2.7857,15.5752,6.0059,20.3105,9.5718,4.5576,3.4331,6.8682,6.9663,6.8682,10.5015s-2.3106,7.0678-6.8682,10.501a47.557,47.557,0,0,1-7.4015,4.4572A96.0671,96.0671,0,0,0,183.98,93.0215C165.5527,87.15,141.0557,83.9175,115,83.9175S64.4473,87.15,46.021,93.0215a96.0636,96.0636,0,0,0-12.3018,4.7876A47.5245,47.5245,0,0,1,26.3184,93.3521Zm167.6065,5.5734a98.0291,98.0291,0,0,1-10.5528,3.9988c-18.2354,5.81-42.5176,9.0093-68.3721,9.0093s-50.1367-3.2-68.3716-9.0093A98.0568,98.0568,0,0,1,36.076,98.9255a98.0786,98.0786,0,0,1,10.5524-3.9987C64.8633,89.1172,89.145,85.9175,115,85.9175s50.1367,3.2,68.3721,9.0093A98.03,98.03,0,0,1,193.9249,98.9255Zm9.7577,37.7229c4.5576,3.4327,6.8682,6.9659,6.8682,10.501s-2.3106,7.0684-6.8682,10.501c-4.7363,3.5674-11.57,6.7871-20.3105,9.5723-18.2354,5.8095-42.5166,9.0087-68.3721,9.0087s-50.1372-3.1992-68.3716-9.0087c-8.7417-2.7852-15.5752-6.0059-20.31-9.5723-4.5581-3.4336-6.8692-6.9658-6.8692-10.501s2.3111-7.0674,6.8692-10.501a47.5414,47.5414,0,0,1,7.4009-4.4573A96.123,96.123,0,0,0,46.021,136.98c18.4277,5.87,42.9248,9.1035,68.979,9.1035s50.5508-3.2334,68.98-9.1035a96.05,96.05,0,0,0,12.3023-4.7885A47.5344,47.5344,0,0,1,203.6826,136.6484ZM36.0759,131.0747a97.9943,97.9943,0,0,1,10.5525-3.9985c18.2363-5.8106,42.5181-9.01,68.3716-9.01s50.1348,3.1992,68.3721,9.01a97.9319,97.9319,0,0,1,10.5534,3.9985,97.9319,97.9319,0,0,1-10.5534,3.9985c-18.2373,5.8106-42.5186,9.01-68.3721,9.01s-50.1353-3.1992-68.3716-9.01A97.9943,97.9943,0,0,1,36.0759,131.0747Zm160.2059-1.1163A96.0649,96.0649,0,0,0,183.98,125.17c-18.4287-5.87-42.9258-9.1035-68.9795-9.1035S64.4487,119.3,46.021,125.17a96.123,96.123,0,0,0-12.3017,4.7884,47.5414,47.5414,0,0,1-7.4009-4.4573c-4.5581-3.4336-6.8692-6.9658-6.8692-10.501s2.3111-7.0674,6.8692-10.501a47.5323,47.5323,0,0,1,7.4008-4.4571A96.0631,96.0631,0,0,0,46.021,104.83c18.4263,5.8711,42.9233,9.104,68.979,9.104s50.5527-3.2329,68.98-9.104a96.0814,96.0814,0,0,0,12.3016-4.7879,47.5648,47.5648,0,0,1,7.4015,4.4573c4.5576,3.4331,6.8682,6.9663,6.8682,10.501s-2.3106,7.0684-6.8682,10.501A47.5344,47.5344,0,0,1,196.2818,129.9584Z"></path></svg>